<?xml version="1.0" encoding="utf-8"?>
<!-- Generator: Adobe Illustrator 17.0.0, SVG Export Plug-In . SVG Version: 6.00 Build 0)  -->
<!DOCTYPE svg PUBLIC "-//W3C//DTD SVG 1.1//EN" "http://www.w3.org/Graphics/SVG/1.1/DTD/svg11.dtd">
<svg version="1.1" id="Layer_1" xmlns="http://www.w3.org/2000/svg" xmlns:xlink="http://www.w3.org/1999/xlink" x="0px" y="0px"
	 width="410.1px" height="349.2px" viewBox="0 0 410.1 349.2" enable-background="new 0 0 410.1 349.2" xml:space="preserve">
<g id="parkwood-primary-school-col.svg">
	<path d="M282.6,56.6c0.6-1.3,1.4-2.7,1.7-4.2c0.1-0.6,0.2-1.3,0.3-1.9c0.1-0.7,0.5-1.5,0.3-2.1c-0.1-0.3-0.2-1.1-0.5-1.3
		c-0.4-0.3-1-0.5-1.4-0.7c-1.4-0.7-2.9-1.4-4.3-2.1c-0.5-0.3-1.1-0.6-1.6-0.7c-0.7-0.2-1.1,0.3-1.5,0.8c-0.5,0.5-1,0.9-1.5,1.4
		c-0.6,0.5-0.9,1.4-1.3,2.1c-0.3,0.5-0.1,1.1-0.1,1.6c0.1,0.6,0,1.4,0.4,1.9c0.3,0.4,0.7,0.7,1,1.1c0.4,0.5,0.3,1.2,0.2,1.8
		c0,0.3,0.1,1-0.2,1.1c-0.3,0.1-0.7,0.1-1,0.2c-1.2,0.2-1.6,0.1-2.6-0.5c-1.4-0.8-2.8-1.5-4.2-2.3c-1.4-0.8-2.9-1.8-4.4-2.3
		c-1.3-0.5-2.7-0.7-4-1.1c-1.6-0.5-3.1-1-4.7-1.4c-1.4-0.4-2.9-0.7-4.4-1c-1.1-0.2-2.4-0.2-3.3-1.1c-0.7-0.7-1-1-0.5-1.8
		c0.9-1.2,1.9-1.7,3.2-2.3c0.4-0.2,1-0.4,1.4-0.6c0.4-0.3,0.5-1.2,0.6-1.7c0.4-1.6,0.8-3.2,1.1-4.8c0.7-3.2,1.4-6.3,1.9-9.5
		c0.1-0.5,0.9-3.3,0.4-3.5c-0.5-0.2-2.2,3-2.5,3.5c-1.7,2.7-3.4,5.5-5.1,8.3c-0.8,1.3-1.6,2.6-2.5,3.9c-0.9,1.3-1.9,2.6-2.5,4.1
		c-0.2,0.6-0.4,0.9-1,1.1c-0.6,0.3-1.3,0.5-1.9,0.9c-0.7,0.4-0.8,0.1-1.3-0.5c-0.4-0.6-0.8-1-0.9-1.7c-0.2-2.8-0.4-5.7-0.7-8.5
		c-0.3-2.7-0.6-5.4-0.9-8.1c-0.3-2.7-0.6-5.5-1.3-8.2c-1.8,4.8-2.9,9.9-4.2,14.9c-0.3,1.2-0.5,2.3-0.7,3.5c0,0.4-0.4,1.8-0.1,2.1
		c0.4,0.5,0.8,1,1.3,1.4c0.2,0.2,0.6,0.2,0.9,0.3c0.4,0.1,0.5,0.8,0.7,1.2c0.3,0.6,0.6,1.3,0.9,1.9c-0.6,0.2-1.3,0.4-1.9,0.7
		c-0.6,0.3-0.9,0.2-1.5,0c-1.5-0.4-3-0.9-4.5-1.2c-1.3-0.3-2.8-0.7-4.2-0.7c-1.6,0.1-3.2,0.6-4.9,0.7c-3.2,0.2-6.5-0.1-9.7,0
		c-1.4,0-2.7-0.3-4.1-0.5c-1.4-0.2-3.2-0.2-4.6,0c-1.5,0.2-3,0.5-4.4,0.7c-0.6,0.1-0.8,0.2-1.3-0.2c-0.4-0.3-0.8-0.6-1.2-0.9
		c-1.2-0.7-1.7-1.5-2.4-2.7c-0.8-1.5-1.7-2.9-2.5-4.4c-0.7-1.3-1.5-2.6-2.3-3.9c-0.8-1.2-1.4-2.6-2.4-3.7c-0.4-0.5-1.2-1.4-1.9-1.5
		c-0.4-0.1-0.2,3.3-0.1,3.7c0.2,1.4,0.5,2.8,0.8,4.2c0.2,1,0,2.4,0.6,3.3c0.8,1.2,2.2,2.2,3.2,3.2c0.6,0.6,1.6,1.1,2,1.7
		c0.2,0.4-1,1.4-1.2,1.7c-0.4,0.6-0.7,0.6-1.3,0.7c-0.9,0.2-1.8,0.3-2.7,0.5c-3.2,0.6-6.3,1.1-9.5,1.4c-0.6,0.1-1.2,0.2-1.8,0.3
		c-0.5,0-1-0.4-1.4-0.7c-0.2-0.1-0.9-0.4-0.9-0.7c0.1-0.7,0.4-1.4,0.6-2c0.3-0.9,1.4-1,2-1.5c1.2-0.9,0.6-2.7,0.5-4
		c-0.7-6.5-1.7-13-2.5-19.5c-0.2-1.2-0.4-2.5-0.6-3.7c-0.2-1.1-0.3-2.5-0.7-3.5c-0.3-0.7-1.2-0.8-1.8-1.1c-1-0.6-1.9-2-2.7-2.8
		c1.1-0.7,2-1.6,3.3-1.8c1.4-0.2,3-0.2,4.4-0.3c3.1-0.2,6-1,9.1-1.5c1.4-0.3,2.8-0.1,4.3,0.1c1.7,0.2,3.3,0.3,5,0.5
		c1,0.1,2-0.2,2.6,0.7c1,1.3,2.1,2.4,2.5,4c0.4,1.4,0.9,2.7,0.9,4.1c0,1.5-0.1,2.4-0.9,3.7c-0.8,1.2-1.5,2.4-2.3,3.6
		c-0.5,0.7-1.6,2.2-1,3.1c1.8,2.5,3.6,5.1,5.3,7.7c0.8,1.3,1.6,2.6,2.5,3.8c0.6,0.9,1.5,2.7,2.6,2.8c1.4,0.1,2.8,0.5,4.1,0.7
		c0.5,0.1,1.3-1.2,1.5-1.5c0.3-0.4,0.2-0.9,0.3-1.4c0.1-0.7,0.2-1.5,0.3-2.2c0.2-1.6,0.2-3.3,0.2-4.9c-0.1-3.2,0.1-6.4,0.3-9.6
		c0.1-1.5,0.3-3,0.3-4.5c0-1.6-0.3-3.2-0.4-4.8c0-0.8,0.2-2-0.4-2.6c-0.5-0.5-1-1.1-1.6-1.5c-0.4-0.3-1.1-0.3-1.4-0.7
		c-0.2-0.4-0.8-1.7-0.4-2c0.3-0.3,0.6-0.6,0.9-0.9c0.5-0.5,0.8-0.4,1.5-0.3c3.2,0.3,6.4,0.6,9.6,0.6c1.4,0,3-0.2,4.4,0
		c0.7,0.1,1.3,0.4,2,0.6c0.4,0.1,0,0.9-0.1,1.2c-0.1,0.3-0.1,0.7-0.2,1c-0.1,0.6-0.4,0.6-0.9,0.9c-0.9,0.4-2.5,0.9-2.8,2
		c-0.4,1.4-0.3,3-0.4,4.5c-0.1,1.7-0.1,3.4-0.2,5.1c-0.1,3.3-0.1,6.6-0.2,9.8c0,1.6-0.1,3.2-0.1,4.8c0,0.8,0,1.6-0.1,2.4
		c0,0.7-0.2,1.6,0.2,2.3c0.6,1,1.6,1.8,2.3,2.7c0.2,0.3,2.2-0.3,2.5-0.4c1.3-0.3,2.3-1.2,3.4-2c0.6-0.4,0.7-1,0.9-1.6
		c0.3-0.9,0.5-1.7,0.8-2.6c1-3,1.9-6,2.7-9.1c0.7-3.1,1.5-6.2,2.3-9.2c0.3-1.1,0.6-2.3,0.9-3.4c0.2-0.8,0.8-2.2,0.3-3
		c-1-1.5-2.2-2.9-3-4.4c-0.2-0.4,0.4-0.8,0.7-1c0.6-0.5,1.1-0.3,1.8-0.1c2.3,0.5,4.7,0.9,7,1.4c0.5,0.1,1,0.2,1.5,0.3
		c0.4,0.1,0.6,0.7,0.8,0.9c0.6,0.8,1.4,1.6,1.8,2.6c0.4,0.8,0.4,1.9,0.5,2.7c0.2,1.3,0.3,2.5,0.5,3.8c0.3,2.4,0.4,4.9,0.6,7.3
		c0.2,2.5,0.3,5,1,7.4c1-0.6,1.4-1.6,2-2.6c0.8-1.4,1.7-2.7,2.5-4.1c1.6-2.7,3.3-5.4,5-8.1c0.7-1.2,1.4-2.4,2.2-3.6
		c0.6-0.9,2.5-1.5,3.5-1.3c1.4,0.2,2.9,0.4,4.3,0.7c1.6,0.3,3,0.8,4.5,1.3c0.4,0.2,0.5,0.3,0.7,0.7c0.1,0.3,0.6,1.7,0.5,2
		c-0.2,0.3-0.6,0.5-0.9,0.6c-0.5,0.3-1,0.6-1.5,1c-0.8,0.6-1.9,1.3-2.5,2.1c-0.3,0.5-0.4,1.1-0.5,1.6c-0.2,0.9-0.4,1.8-0.6,2.7
		c-1.4,6.2-2.4,12.6-3.5,18.9c-0.3,1.5-0.5,3-0.7,4.6c-0.1,0.5,1,1.9,1.4,2.2c0.6,0.4,1.2,0.8,1.8,1.2c0.4,0.3,1,0.1,1.5,0.1
		c0.5,0,1.1,0.2,1.6,0.1c0.6-0.1,1.1-0.7,1.6-1c1.2-0.7,2.1-1.9,3.1-2.9c1.2-1.2,2.3-2.4,3.5-3.6c2.2-2.3,4.5-4.6,6.8-6.8
		c2.3-2.2,4.6-4.2,6.8-6.4c1.1-1,2.1-2.1,3.1-3.2c0.3-0.4,0.8-1.1,1.3-1.3c0.4-0.2,1-0.1,1.4-0.2c0.7-0.1,3.2-0.9,3.6-0.3
		c0.2,0.3,0.4,0.6,0.6,0.9c0.3,0.5,0.2,0.9,0.1,1.4c-0.4,3.2-0.7,6.4-1.1,9.6c-0.6,6.3-1.3,12.6-2.1,18.9c-0.2,1.6-0.4,3.1-0.6,4.7
		c-0.1,0.7-0.1,1.4-0.3,2.1c-0.1,0.5-0.2,0.9,0.1,1.4c0.7,1,1.4,2.1,2.2,3.1c1,1.2,2.5,0.2,3.7-0.2c1.3-0.4,2.2-0.7,3-1.9
		c0.8-1.2,1.7-2.2,2.6-3.3c2-2.5,3.9-5,5.8-7.5c1.9-2.5,3.8-4.9,5.7-7.3c0.4-0.5,1-1,1.1-1.6c0.1-0.5,0-1.1,0-1.6c0-1.7,0-3.4,0-5.1
		c0.6,0.1,1.2,0.1,1.8,0.1c0.3,0,1-0.1,1.3,0.1c1.2,1,2.3,2,3.5,3.1c2.3,2.1,4.7,4,7.2,5.9c2.3,1.7,5,3.3,6.2,6c0.4,0.9,1.5,2,1.3,3
		c-0.2,1.6-0.5,3.1-0.6,4.7c0,0.5,0,1-0.2,1.5c-0.2,0.6-0.8,1-1.2,1.4c-1.1,1.1-2.3,2.2-3.3,3.4c-0.7,0.9-2.8,0.7-3.9,0.8
		c-0.7,0.1-1.3,0.1-2,0.2c-0.5,0.1-0.9,0.5-1.3,0.8c-0.3,0.2-0.7,0.3-1,0.6c-0.3,0.4-0.3,1.5-0.4,2c-0.3,1.6-0.6,3.2-0.9,4.8
		c-0.3,1.5-0.6,2.9-1,4.4c-0.4,1.3-1,2.7-0.9,4.1c0.1,1.4,0.2,2.8,0.2,4.2c0,0.2,0.2,0.7-0.1,0.9c-0.5,0.3-1.3,0.4-1.9,0.5
		c-1.3,0.1-2.6-1.5-3.5-2.2c-0.6-0.5-1.2-1-1.8-1.5c-0.5-0.4-1.7-1-2-1.6c-0.3-0.5-0.3-1.2-0.5-1.8c-0.2-0.6-0.4-1.2-0.3-1.8
		c0.3-1.4,0.9-2.8,1.3-4.2c0.9-3,1.7-6.1,2.6-9.1c0.2-0.7,0.5-1.4,0.5-2.1c0-0.4,0.1-1.3-0.1-1.6c-0.7-0.6-1.3-0.2-1.8,0.3
		c-1.4,1.5-2.6,3.2-3.9,4.8c-0.7,1-2,2.1-2.2,3.3c-0.1,1.1-0.1,2.5-0.1,3.6c0,0.6,0.1,1.2,0.3,1.8c0.3,0.8-0.2,0.8-0.8,1
		c-0.6,0.2-1.2,0.6-1.8,0.6c-0.5,0-1.3-1-1.6-1.3c-2.1-1.9-4.5-3.6-6.7-5.4c-2-1.6-3.9-3.6-6.2-4.7c-2.6-1.3-5.2-2.6-7.8-3.9
		c-1.1-0.6-2.3-1.1-3.6-1.6c-0.6-0.2-0.7-0.9-0.9-1.5c-0.2-0.7-0.5-1.4-0.7-2C280.4,56.8,281.5,56.7,282.6,56.6
		C283.1,55.5,281.5,56.7,282.6,56.6z M177.7,21c0.7-0.4,1.5-0.9,2.2-1.3c0.6-0.4,1.3-0.6,1.5-1.3c0.6-1.5,0.9-3.2,1.3-4.7
		c0.2-0.6,0.3-0.9-0.1-1.4c-0.3-0.4-0.7-0.8-1-1.2c-1.1-1.5-2.3-3.1-3.4-4.6c-0.1-0.1-2.4,0.9-2.5,1c-0.5,0.4,0,2.8,0,3.4
		c0.2,1.9,0.5,3.7,0.7,5.6c0.1,0.8,0.2,1.7,0.3,2.5C176.9,19.9,177.2,20.2,177.7,21C178.7,20.4,177.4,20.6,177.7,21z M330.7,50.6
		c-0.3-0.6-0.6-1.2-0.8-1.8c-0.1-0.3-0.3-1-0.6-1.1c-0.4-0.2-1,0.1-1.4,0.2c-0.5,0.1-1,0-1.5,0.1c-0.5,0.1-1.1,1.2-1.4,1.6
		c-0.5,0.7-1.1,1.4-1.6,2.1c-1.2,1.5-2.3,2.9-3.5,4.4c-0.3,0.3-0.1,1-0.1,1.4c0,0.6,0.7,0.5,1.1,0.6c0.7,0.2,1.4,0.3,2,0.6
		c0.8,0.3,0.9,0.3,1.7-0.1c0.8-0.4,1.5-0.9,2.3-1.3c0.8-0.4,1.2-0.6,1.5-1.4C329.2,54.1,329.9,52.4,330.7,50.6
		C330.5,50.2,330.1,52,330.7,50.6z M287,33.1c-1.9,1.1-3.1,2.8-4.7,4.2c-0.5,0.4-1.2,0.9-1.2,1.6c0.1,1,0,1.2,0.9,1.7
		c0.6,0.3,1.9,1.4,2.6,1c0.3-0.2,1.5-0.7,1.5-1C286.5,38.1,286.8,35.6,287,33.1C286.4,33.5,286.8,35.1,287,33.1z"/>
	<path d="M18,227.7c-2.9-2.1-5.7-4.2-8.8-6.1c-0.6-0.4-1.3-0.8-1.9-1.3c-0.4-0.3-0.9-0.7-1.4-0.4c-0.6,0.3-1,0.8-1.4,1.3
		c-0.3,0.4-0.6,0.8-0.9,1.3c-0.3,0.5-0.3,0.7-0.8,0.4c-0.5-0.3-1.2-0.6-1.4-1.1c-0.3-0.5-0.1-1.3-0.2-1.8c-0.2-1.8-0.3-3.7-0.5-5.5
		c-0.1-1.6-0.2-3.2-0.5-4.7c-0.1-0.4-0.2-1-0.1-1.4c0.2-0.6,1.2-1.5,1.6-1.9c1,1,1.8,1.8,2.5,3c0.8,1.5,1.7,3,2.5,4.5
		c0.3,0.6,0.6,1.1,1.2,1.5c0.6,0.5,1.2,0.9,1.9,1.4c1.3,1,2.6,1.9,3.9,2.9c0.4,0.3,0.7,0.7,1.2,0.9c0.5,0.1,1-0.1,1.5-0.1
		c1.2-0.2,2.1-1.4,3.1-2.2c2.4-2.1,4.8-4.2,7.2-6.4c1.2-1,2.3-2,3.5-3.1c1.2-1,2.7-2,3.6-3.3c0.8-1.1,1.5-2.3,2.3-3.5
		c0.4-0.6,1.3-2,2.1-1.3c1,0.8,2.3,1.4,2.4,2.8c0.1,1.7,0.2,3.3,0.3,5c0.1,1.5,0.2,3,0.4,4.5c0.2,1.4,0.5,2.8,0.5,4.2
		c0,0.6-1.2,2.6-1.9,2.2c-0.5-0.3-1-0.5-1.5-0.7c-0.6-0.3-0.7-0.6-1.1-1.1c-2.2,1.8-4.4,3.6-6.7,5.4c-1.1,0.9-2.2,1.7-3.3,2.6
		c-0.9,0.7-1.7,1.2-2.2,2.3c3-0.3,6.1-0.6,9.1-0.9c0.8-0.1,1.2,0,1.7-0.6c0.6-0.5,1.1-1.1,1.7-1.6c0.9-0.9,2-1.3,3.1-1.8
		c0.4-0.2,1-0.7,1.3-0.3c0.3,0.4,0.4,0.7,0.4,1.1c0.1,1.5,0.2,3,0.3,4.6c0.1,1.5,0.1,3,0.4,4.5c0.3,1.6,0.5,3.1,0.5,4.6
		c0.1,2.9,1,5.9,2,8.6c0.3,0.6,0.5,1.3,0.7,2c0.3,0.8,0.3,1,0,1.8c-0.5,1.2-0.8,2.9-1.7,3.8c-1,1-2.2,1.8-3.3,2.7
		c-1.2,1-2.4,2-3.6,3c-1.2,0.9-2.3,1.9-3.5,2.8c-0.6,0.5-0.9,0.7-1.1,1.4c-0.2,0.8-0.5,1.5-0.8,2.3c3-1,6-2,9-3.1
		c1.1-0.4,1.9-0.6,2.6-1.5c0.8-1,1.8-1.9,1.8-3.2c0-0.3-0.1-0.8,0.2-1.1c0.3-0.3,1.5-0.3,1.9-0.3c0.4-0.1,0.8-0.2,1.1,0.2
		c0.3,0.6,0.6,1.2,0.8,1.8c0.8,3,1.5,6.1,2.5,9c2.1,6.1,5.5,11.7,8.5,17.3c0.3,0.5,0.9,1.2,0.8,1.8c0,0.6-0.1,1.3-0.1,1.9
		c0,0.5,0.1,0.9-0.5,1c-0.4,0-1,0.1-1.3,0c-0.4-0.1-0.6-0.6-1-0.7c-0.3-0.1-0.6-0.1-0.9-0.1c-1,0-1.6,0.1-2.3,0.8c-1,1-2,2-3,3.1
		c-0.4,0.5-0.9,1-1.3,1.5c-0.4,0.5,0,1,0.3,1.5c0.7,1.3,1.4,2.7,2.2,4c0.3,0.6,0.6,1.2,1,1.8c0.2,0.4,1.1,0.6,1.5,0.7
		c1.2,0.3,2.7-0.6,3.9-0.9c0.7-0.2,1.4-0.4,2.1-0.6c0.3-0.1,0.5-0.9,0.6-1.1c0.2-0.4,0.5-0.8,0.6-1.2c0.1-0.4,0-1-0.1-1.4
		c-0.1-1-0.1-1.7,0.6-2.5c0.2-0.2,0.4-0.6,0.7-0.8c0.2-0.1,1.4,0.8,1.7,0.9c0.3,0.2,0.6,0.9,0.8,1.2c0.4,0.7,0.9,1.4,1.3,2.2
		c0.8,1.3,1.5,2.5,2.3,3.8c0.6,1.1,0.8,1.5,0.6,2.7c-0.1,0.4-0.1,0.7-0.3,1c-0.2,0.4-0.5,0.2-0.9,0.2c-1.7-0.1-3.3-0.3-5-0.6
		c-0.7-0.1-1.3-0.2-2-0.1c-0.6,0.1-1.2,0.3-1.8,0.4c-1.7,0.3-3.3,0.6-5,0.9c-6.2,1.2-12.4,2.6-18.6,3.6c-2.4,0.4-4.7,0.7-7.1,1
		c-0.5,0.1-1.4,0.3-1.9,0.1c-0.4-0.2-0.8-1.2-1-1.6c-0.3-0.6-0.7-0.8-0.4-1.5c1.3-2.7,3.5-5.1,5.5-7.3c2.1-2.3,4.1-4.6,6-7.1
		c3.9-5,7.7-10,12-14.7c0.8-0.9,1.2-2,0.7-3.1c-0.2-0.6-0.6-1.1-1-1.6c-0.3-0.5-0.4-1.2-0.9-1.5c-2.3-1.3-5.1,0-7.5,0.7
		c-3,0.9-5.9,2.1-8.8,3c-3,0.9-6,1.7-8.9,2.9c-1.4,0.6-2.9,1.1-4.3,1.7c-0.8,0.3-1.3,1.6-1.3,2.4c0,1-0.1,1.8-0.8,2.6
		c-0.3,0.3-1.9,0-2.1-0.4c-1.1-3-2.1-5.9-3.1-8.9c-1-2.9-2.1-5.8-2.8-8.9c-0.3-1.4-0.6-2.8-0.9-4.2c-0.4-1.5,0.4-2.9,0.8-4.3
		c0.3-1,0.5-2.4,1.4-3c0.7-0.4,1.3-0.9,2-1.3c0.7-0.4,1.4-1.1,2.2-1.3c1.3-0.4,2.8-0.4,4.1-0.5c0.6-0.1,1.5-0.4,2,0
		c0.7,0.5,1.5,0.9,2.2,1.3c0.9,0.5,1.8,1.5,2.8,1.5c0.7,0,0.9-0.1,1.5-0.6c0.6-0.6,1.3-1.2,1.9-1.8c2.4-2.3,4.7-4.5,7.1-6.8
		c0.9-0.8,2-1.7,2.8-2.6c0.3-0.3,0-1.6,0-2c0-0.7,0.1-1.5-0.2-2.2c-0.1-0.4-0.3-1.2-0.8-1.3c-0.5-0.2-1.1-0.3-1.6-0.5
		c-1.4-0.5-2.5-0.8-4-0.7c-3.2,0.3-6.3,0.8-9.5,1c-3,0.2-6.1,0.5-9.1,0.8c-1.5,0.2-3.1,0.3-4.6,0.5c-0.6,0.1-1,0-1.4,0.5
		c-0.4,0.5-0.9,1.1-1.3,1.6c-0.3,0.4-0.8,0.8-0.9,1.3c-0.1,0.3-0.2,0.9-0.5,1c-0.6,0.2-1.4,1-1.9,0.2c-1.3-2-1-4.5-1.2-6.8
		c-0.1-1.5-0.2-3-0.5-4.6c-0.2-1.4-0.6-2.9-0.7-4.4c0-0.8,0.2-1.9,0.5-2.7c0.2-0.4,1.6-0.6,1.9-0.2c0.8,1,1.2,1.7,2.4,2.2
		c0.7,0.3,1.3,0.6,1.9,0.9c0.8,0.4,1.2,0.4,2,0.4c1.5-0.1,2.9-0.2,4.4-0.4C15.5,228.4,18.1,228.5,18,227.7
		C15.5,225.9,18.1,228.3,18,227.7z M16.5,271.2c1.4-0.8,3-1.2,4.5-1.7c1.8-0.5,3.6-1.1,5.4-1.7c0.6-0.2,0.9-0.2,1.3-0.8
		c0.2-0.3,0.7-0.8,0.6-1.2c-0.2-0.4-0.6-0.8-0.8-1.2c-0.2-0.4-0.4-1.1-0.8-1.3c-1.3-0.5-2.8-1.5-4.1-1.1c-1.1,0.4-2.8,0.3-3.8,1.1
		c-1.2,1-2.1,2.6-3,3.8c-0.2,0.3-1.4,1.4-1.1,1.8C15.2,269.8,15.8,270.5,16.5,271.2C18.4,270.1,16,270.6,16.5,271.2z M41.7,304.8
		c0.1,0.8,3.9-0.2,4.3-0.3c1.1-0.3,2.3-0.5,3.4-0.7c0.4-0.1,0.6-0.3,0.8-0.7c0.4-0.5,0.2-0.7-0.1-1.3c-0.4-0.8-0.8-1.7-1.3-2.5
		c-0.4-0.7-1.1-0.7-1.8-0.6c-0.4,0.1-0.7,0.7-1,1c-0.5,0.6-1,1.1-1.5,1.7C43.6,302.5,42.7,303.6,41.7,304.8
		C41.8,305.5,43.1,303.1,41.7,304.8z"/>
	<path d="M30.3,163.6c-3.9-2.3-7.8-4.7-11.8-6.9c-2-1.1-4.1-1.8-6.1-2.7c-0.3-0.1-1.1,0.5-1.4,0.6c-0.9,0.5-1.8,1-2.7,1.5
		c-0.2-0.5-0.5-1.1-0.7-1.6c-0.2-0.3-0.6-0.8-0.5-1.2c0.2-1.6,0.4-3.1,0.6-4.7c0.1-0.5,0.1-1.1,0.2-1.6c0.1-0.5,0.8-0.9,1.2-1.3
		c0.3-0.3,1.2-1.6,1.7-1.2c1.7,1.4,2,3.8,3.9,5c2.8,1.7,5.5,3.4,8.3,5c5.6,3.3,11.3,6.5,17,9.7c1.3,0.8,2.7,1.5,4,2.3
		c0.4,0.3,0.7,0.6,1,1c0.2,0.3,1.3,1.5,1.1,1.9c-0.3,0.8-1.2,1.7-2,1.8c-1.7,0.3-3.4,0.6-5,0.9c-1.5,0.3-2.9,0.8-4.4,1
		c-1.4,0.2-2.7,0.3-4.1,0.6c2.1,2,4.5,3.5,6.9,5.1c1.1,0.8,2.3,1.5,3.4,2.4c0.6,0.4,1.1,0.9,1.7,1.3c0.6,0.5,0.2,0.8,0.1,1.4
		c-0.2,0.7-0.3,1.9-1,2.2c-0.6,0.3-1.4,0.3-2.1,0.4c-0.9,0.2-1.8,0.3-2.7,0.5c-3.1,0.5-6.1,1.3-9.2,1.9c-6.3,1.1-12.6,2.5-19,3.7
		c-0.8,0.1-1.5,0.3-2.3,0.5c-0.6,0.1-1.4,0.2-1.9,0.5c-0.8,0.7-0.8,1.7-2,2c-0.5,0.2-1.5,0.7-2,0.4c-0.5-0.4-0.5-0.9-0.4-1.5
		c0.2-1.5,0.2-3.1,0.4-4.6c0.4-2.9,0.8-5.8,1.9-8.5c0.6-1.4,0.5-2.8,0.6-4.3c0.1-1.6,0.2-3.3,0.3-4.9c0.3-3.1,1.2-6.2,1.7-9.3
		c0.2-1.2,0.2-3,1-4c0.3-0.5,1.9-2.3,2.4-1.8c1,1,2,2,3,3.1c1,1.1,1.9,2.3,3,3.3c0.8,0.7,1.9,1.4,2.9,1.8c1.2,0.5,2.6,0.5,3.8,0.7
		c1,0.2,2.4-0.4,3.4-0.6c0.7-0.1,1.3-0.2,2-0.3C27.2,164.9,30.3,164.5,30.3,163.6C26.4,161.3,30.3,164.5,30.3,163.6z M28.9,178.8
		c-0.4-0.6-0.7-1.4-1.4-1.8c-0.8-0.5-2.1-0.6-3-0.8c-1-0.2-2-0.6-3-0.6c-1.2,0-2.4,0.4-3.6,0.6c-2.2,0.4-4.5,0.8-6.7,1.1
		c-0.9,0.1-2.1,0.1-2.9,0.5c-1,0.4-1.8,1.4-2.7,2c-0.5,0.3-0.3,1.4,0,1.9c0.6,1,1.5,0.8,2.5,0.6c2.4-0.4,4.7-0.6,7.1-1.1
		C19.7,180.4,24.3,179.7,28.9,178.8C28.5,178.1,26.6,179.3,28.9,178.8z M13.2,167.5c0.1-0.3,0.2-0.5-0.1-0.7
		c-0.6-0.3-1.2-0.6-1.8-0.9c-0.7-0.4-2.4-0.9-2.5,0.3c-0.1,0.6-0.6,1.8,0.4,1.9C10.3,168.3,11.9,167.7,13.2,167.5
		C13.3,167,12,167.7,13.2,167.5z"/>
	<path d="M388.8,212.4c0-2.4,0-4.8,0-7.2c0-1.5,0.6-3.9-1.3-4.5c-0.4-0.1-0.9,0-1.3,0c-0.7,0-1.3,0-2,0c-1.3,0-2.7,0-4,0
		c-1.1,0-2.2,0-3.4,0c-1,0-1.5,0.3-2.3,1c-0.6,0.6-1.3,1.2-2,1.8c-0.3,0.3-0.7,0.7-1,1c-0.3,0.4-0.4,0.4-0.8,0.1
		c-0.6-0.5-1.5-0.9-1.9-1.5c-0.2-0.3,0-1.2,0-1.5c0-0.6,0.1-1.3,0.1-1.9c0.1-2.4,0.2-4.8,0.2-7.2c0-1.2,0-2.3,0-3.5
		c0-1.1,0.5-1.9,0.8-2.9c1.3,0.7,2.5,1.5,3.7,2.4c1,0.7,2.1,1.9,3.3,1.9c3.2,0.1,6.5,0.2,9.7,0.3c3.3,0.1,6.6,0,9.9,0
		c1.6,0,3.2-0.1,4.8-0.1c1.2,0,2.5-1,3.6-1.5c0.2-0.1,0.9-0.2,1-0.5c0.2-0.5,0.4-1.5,0.7-1.8c0.4-0.4,1.8-1,2.1-0.4
		c0.3,0.4,0.8,0.8,0.8,1.3c0,0.7,0.1,1.4,0.1,2.1c0.1,1.7,0.1,3.4,0.1,5.1c0,1.5,0,3.1,0,4.6c0,0.8,0,1.5,0,2.3
		c0,0.7,0.2,1.5-0.3,2.1c-0.3,0.3-0.6,0.7-0.8,1c-0.4,0.5-0.8,0.1-1.2-0.2c-1.4-1-2.7-1.9-4-2.9c-1.1-0.8-1.8-1.2-3.2-1.1
		c-1.5,0.1-3-0.2-4.5-0.1c-0.9,0.1-2.1,0-2.7,0.8c-0.5,0.6-0.1,2.1-0.1,2.8c0,1.6-0.1,3.2-0.1,4.7c0,0.7,0,1.4,0,2.2
		c0,0.5,0.3,0.7,0.7,1.1c0.3,0.3,1.2,0.1,1.6,0.1c0.8,0,1.6,0,2.4,0c1.7,0,3.4,0,5.1,0c0.5,0,1.1,0.1,1.6-0.2
		c0.3-0.2,0.6-0.6,0.9-0.8c1-0.8,1.7-1.9,2.4-3c0.2-0.3,1.9-0.3,2,0.2c0.1,0.7,0.3,1.3,0.4,1.9c0.1,0.8,0,1.6-0.1,2.4
		c-0.2,1.5-0.1,3-0.1,4.6c0,1.6-0.1,3.2,0.1,4.7c0.1,0.6,0.1,1.2,0.3,1.8c0.1,0.7-0.2,1.1-0.5,1.7c-0.2,0.5-0.4,1-0.7,1.5
		c-0.2,0.3-1-0.2-1.2-0.3c-1.1-0.4-1.1-1.2-1.6-2.2c-0.4-1-1.8-1.2-2.6-1.6c-1.2-0.5-2.5-0.4-3.8-0.4c-1.7,0-3.3,0-5,0
		c-3.3,0-6.7,0-10,0c-1.6,0-3.2,0-4.8,0c-0.8,0-1.6,0-2.3,0c-0.9,0-1.1,0.2-1.8,0.6c-1,0.7-2.2,1.3-3,2.3c-0.4,0.4-0.7,0.9-1.1,1.3
		c-0.3,0.4-0.9-0.2-1.2-0.5c-0.4-0.2-1.2-0.6-1.3-1c-0.1-0.4-0.1-0.8,0-1.2c0.1-1.2,0.1-2.5,0.2-3.7c0.1-3.3,0-6.5-0.1-9.7
		c0-0.6-0.1-0.9,0.2-1.4c0.2-0.3,0.5-1.4,0.9-1.3c0.8,0.1,2,0.6,2.4,1.3c0.6,1,1,2.2,2.2,2.5c1.4,0.4,3,0.4,4.4,0.5
		C382.4,212.2,385.6,212.2,388.8,212.4C388.8,210,384.4,212.1,388.8,212.4z"/>
	<path d="M114,58.9c-0.3,1.5-0.6,3-0.9,4.5c-0.1,0.7-0.3,1.5-0.4,2.2c-0.2,0.8-0.6,1.4-1,2.2c-0.8,1.4-1.5,2.7-2.3,4.1
		c-0.8,1.4-1.8,2.2-3,3.2c-2.4,2.1-5,3.8-7.6,5.7c-1.2,0.9-2.5,1.8-3.7,2.8c-0.8,0.6-1.6,1.7-2.6,1.9c-0.6,0.1-1.3-0.3-1.8-0.5
		c-0.5-0.2-0.4-0.2-0.4-0.7c0-1.1,0-2,0.4-3.1c0.2-0.5,0.6-1.1,0.5-1.7c-0.1-0.5-0.4-1-0.7-1.5c-0.8-1.2-1.5-2.4-2.3-3.5
		c-3.8-4.9-7.4-10-11.3-14.8c-0.7-0.8-1.3-1.8-1.9-2.6c-0.7-0.9-2.4-0.9-3.4-1c-0.7,0-1.4,0.1-2.1,0.1c-0.5,0-0.4-0.1-0.5-0.5
		c-0.1-0.4-0.6-1.9-0.4-2.2c0.9-1.2,1.8-2.4,2.7-3.6c0.9-1.2,2-2.1,3.1-3.2c2.4-2.2,5-4.2,7.5-6.2c0.9-0.7,2-1,3.1-1.4
		c1.5-0.6,2.9-1.3,4.5-1.7c1.3-0.3,2.7-0.3,4-0.3c0.7,0,1.4,0,2.1,0c0.6,0,1.5-0.2,2,0c1,0.4,2.4,0.6,3.2,1.4
		c1.3,1.1,2.5,2.3,3.8,3.4c1.2,1,2.3,2.1,3.5,3.1c1,0.9,2.6,1.8,3.1,3c0.6,1.6,1.2,3.1,1.8,4.7C113.9,54.7,113.8,56.9,114,58.9
		C113.5,61.3,113.9,57.8,114,58.9z M106.8,64.5c-0.4-2.8-1.8-5.4-2.8-8c-1.1-2.9-3.2-4.8-5.2-7c-1-1-1.9-2.4-3.1-3
		c-1.4-0.7-2.7-1.5-4.1-2.2c-1-0.6-2.2-0.1-3.3,0c-1.6,0.1-3.3,0.3-4.9,0.4c-0.2,0-0.7,2.8-0.7,2.9c-0.1,0.4-0.6,1.6-0.4,2
		c0.2,0.4,0.7,0.8,1,1.1c2,2.3,3.4,4.9,5.1,7.4c1.8,2.7,3.9,5.2,5.9,7.7c1,1.2,1.9,2.5,2.9,3.7c0.5,0.6,0.9,1.2,1.4,1.8
		c0.3,0.5,0.6,1.1,1.3,1.1c0.4,0,3.1,0.6,3.3,0.2C104.4,69.9,105.6,67.2,106.8,64.5C106.5,62.3,106.7,64.9,106.8,64.5z"/>
	<path d="M83.7,91.4c-0.4,1.4-0.8,2.7-1.1,4.1c-0.3,1.5-1.1,2.5-2,3.8c-0.9,1.3-1.9,2.6-2.8,3.9c-0.4,0.5-0.7,1.1-1.2,1.6
		c-0.5,0.6-1.4,0.9-2.1,1.3c-1.2,0.6-2.3,1.3-3.5,2c-1.3,0.7-2.9,0.8-4.3,1c-0.7,0.1-1.5,0.4-2.2,0.4c-0.6,0-1.3-0.1-1.9-0.2
		c-1.5-0.2-2.7-0.6-4.1-1.2c-1.3-0.5-2.6-0.9-3.9-1.5c-1.3-0.6-2.2-1.9-3.3-2.8c-2.1-1.9-4.7-3.7-5.9-6.3c-0.5-1-1.3-1.8-1.7-2.9
		c-0.5-1.4-0.6-3.1-0.9-4.6c-0.2-1.3-0.7-2.8-0.6-4.1c0.1-1.2,0-2.7,0.5-3.8c1-2.4,2.6-4.7,3.9-7c0.6-1,1.5-1.5,2.3-2.2
		c1-0.8,2-1.9,3.1-2.5c0.8-0.4,1.7-0.6,2.5-0.9c1.3-0.5,2.3-0.8,3.6-0.9c1.4-0.1,2.8-0.3,4.2-0.2c1.3,0.1,2.6,0.6,3.8,1
		c1.2,0.4,2.3,0.7,3.5,1c1.1,0.3,1.7,0.9,2.6,1.6c1,0.9,2.1,1.7,3.2,2.5c1,0.8,2.1,1.4,2.8,2.5c1.3,1.9,2.4,4.1,3.4,6.2
		C83.1,85.7,83.3,88.8,83.7,91.4C83.4,92.5,83.4,89.3,83.7,91.4z M47.5,81.5c-0.6,0,0.1,1.2,0.2,1.5c0.2,0.7,0.5,1.4,0.7,2.1
		c0.5,1.4,1.8,2.6,2.7,3.7c1.9,2.4,3.5,5.1,6,6.8c1,0.7,2.1,1.5,3.2,2.1c1.3,0.7,2.7,1.5,4.1,1.9c1.4,0.4,2.8,0.9,4.2,1.2
		c1.4,0.3,3.1,0.6,4.5,0.3c0.5-0.1,0.9-0.4,1.4-0.5c0.4-0.1,1-0.1,1.3-0.5c0.2-0.2,0.2-1,0.2-1.3c0.2-0.9,0.3-1.8,0.5-2.6
		c0.2-1.3,0.6-2.6,0.7-3.9c0-0.4-0.9-1.3-1.1-1.7c-0.5-0.7-1-1.4-1.6-2.2c-0.8-1.2-1.6-2.5-2.7-3.4c-1.2-1-2.4-2.1-3.6-3.1
		c-1-0.9-2.1-1.5-3.3-2.1c-1.3-0.6-2.5-1.3-3.8-1.9c-1.2-0.5-2.6-0.6-3.9-0.9c-1.5-0.3-3.1-0.6-4.6-0.9c-0.7-0.2-1.8,1.7-2.2,2.1
		C49.5,79.3,48.5,80.4,47.5,81.5C47.4,81.5,48.7,80.1,47.5,81.5z"/>
	<path d="M59.7,127.9c-0.3,1.5-0.6,3-0.9,4.5c-0.3,1.5-0.4,3-1.3,4.3c-0.8,1.1-1.6,2.2-2.5,3.2c-0.9,1.1-1.7,2.2-3,2.9
		c-1.2,0.7-2.5,1.3-3.7,2c-1.3,0.7-2.2,1.2-3.7,1.3c-1.3,0.1-2.7,0-4,0c-1.5,0-2.9,0.1-4.3-0.3c-1.2-0.4-2.4-0.8-3.6-1.1
		c-1.4-0.4-2.6-1.4-3.9-2.2c-1.1-0.7-2.3-1.3-3.3-2.2c-1.1-0.9-1.8-2.1-2.8-3.1c-2-1.9-3.1-4.9-3.8-7.5c-0.4-1.3-0.8-2.4-0.7-3.9
		c0.1-1.6,0.2-3.3,0.4-4.9c0-0.5,0-0.9,0.3-1.4c0.3-0.5,0.7-1,1-1.5c0.8-1.2,1.6-2.4,2.4-3.6c0.7-1.1,1.5-2.2,2.2-3.3
		c0.2-0.3,0.8-0.5,1.1-0.6c0.6-0.3,1.2-0.7,1.8-1c1.1-0.6,2.1-1.2,3.2-1.8c1-0.6,2.3-0.7,3.4-0.9c1.3-0.2,2.5-0.3,3.8-0.3
		c1.4,0,2.6,0.3,3.9,0.7c1,0.2,2.1,0.4,3.2,0.7c1.2,0.3,2.3,1.2,3.4,1.7c1.1,0.6,2.1,1.2,3.2,1.8c0.4,0.2,0.7,0.6,0.9,1
		c0.5,0.6,1,1.1,1.5,1.7c0.9,1,1.8,2,2.6,2.9c0.8,0.9,0.9,1.8,1.1,2.9C58.4,122.5,59.1,125.2,59.7,127.9
		C59.2,130.3,59.3,126,59.7,127.9z M22.2,121.8c0.1,0.5,0.1,1.1,0.2,1.6c0.2,0.6,0.7,1.1,1.2,1.6c1,1.1,1.9,2.3,2.8,3.5
		c0.8,1.1,2,1.7,3.1,2.4c1.4,0.9,2.7,1.7,4.2,2.4c1.3,0.7,2.6,1.4,4,1.9c1.4,0.5,3,0.8,4.5,1.2c1.3,0.3,2.6,0.8,4,0.9
		c1.7,0.1,3-0.8,4.4-1.5c1.4-0.7,2.8-1.4,4.2-2.1c0.2-0.1-0.1-1.7-0.1-2c-0.1-0.9-0.2-1.7-0.3-2.6c-0.1-0.8-0.1-1.6-0.2-2.3
		c0-0.4-0.6-0.8-0.9-1c-2.1-1.7-3.9-3.8-6.3-5.1c-2.4-1.4-4.9-2.6-7.7-3.3c-1.6-0.4-3.3-0.9-4.9-1.3c-0.6-0.2-1.3,0-2,0.1
		c-0.9,0.1-1.9,0.1-2.9,0.2c-1.4,0.1-3.4-0.3-4.3,0.9C24.4,118.7,23.3,120.2,22.2,121.8C22.3,122.8,23.4,120.1,22.2,121.8z"/>
	<path d="M385.7,271.4c-1.6-0.2-3.1-0.5-4.7-0.7c-0.7-0.1-1.5-0.1-2.2-0.4c-0.7-0.2-1.3-0.6-1.9-1c-1.3-0.7-2.7-1.3-4.1-2
		c-0.6-0.3-1.2-0.5-1.7-0.9c-0.7-0.5-1.3-1.3-1.9-1.9c-0.9-0.9-2-1.8-2.8-2.8c-1-1.2-1.4-3-2-4.4c-0.7-1.3-0.9-2.5-1-4
		c-0.2-1.6-0.4-3.2-0.1-4.9c0.5-2.8,1.3-5.5,2.8-7.9c0.7-1.2,1.9-2.3,2.8-3.3c0.5-0.5,0.9-1.1,1.5-1.4c0.7-0.4,1.4-0.7,2.1-1
		c1.3-0.6,2.6-1.2,3.9-2c1.3-0.8,2.9-0.7,4.4-0.7c1.5-0.1,3,0,4.5,0c1.7,0.1,3.2,0.5,4.8,1c1.2,0.3,2.3,0.7,3.4,1.3
		c0.9,0.5,2,0.9,2.8,1.5c1.7,1.3,3.7,2.9,4.9,4.8c0.7,1.1,1.4,2.1,2.1,3.2c0.6,0.9,0.7,1.8,1,2.8c0.3,1.2,0.7,2.4,1,3.6
		c0.2,0.8-0.3,2-0.4,2.8c-0.2,1.3-0.4,2.6-0.6,3.9c-0.2,1.1-0.2,1.9-0.9,2.9c-0.7,1-1.4,2.1-2.2,3.1c-0.7,1-1.4,2.2-2.3,3
		c-0.8,0.7-1.7,1.2-2.5,1.7c-1,0.7-2.1,1.7-3.3,2.2C390.7,270.8,388.1,271,385.7,271.4C383.5,271,387.4,271.1,385.7,271.4z
		 M366.4,249.4c0.1,0.6,0.1,1.2,0.3,1.8c0.2,0.6,0.8,1.1,1.2,1.5c1.1,1.1,2.1,2.3,3.3,3.3c1.1,0.8,2.3,1.3,3.4,1.9
		c1.4,0.6,2.7,1.3,4.1,1.7c2.8,0.8,5.8,0.9,8.7,1c1.5,0.1,3.1,0.1,4.6,0.2c1.4,0.1,3-0.9,4.3-1.4c0.7-0.3,1.4-0.5,2-0.8
		c0.3-0.1,0.7-0.2,1-0.5c0.4-0.4,0.5-1.1,0.7-1.6c0.3-0.8,0.6-1.6,0.9-2.4c0.2-0.5,0.5-1,0.6-1.5c0.1-0.4-0.3-0.9-0.6-1.2
		c-0.6-0.8-0.9-2.1-1.8-2.6c-1.4-0.8-2.7-1.6-4.1-2.4c-1.4-0.8-2.7-1.8-4.3-2.1c-1.5-0.3-2.9-0.8-4.4-1.2c-1.4-0.4-3.1-0.2-4.6-0.3
		c-1.5-0.1-3.3-0.5-4.8-0.3c-1.5,0.2-2.9,0.4-4.4,0.9c-0.5,0.1-1,0.2-1.4,0.4c-0.6,0.2-1.1,1.2-1.5,1.7
		C368.5,246.7,367.4,248,366.4,249.4C366.5,250.3,367.8,247.5,366.4,249.4z"/>
	<path d="M369.7,313.2c-1.4-0.2-2.8-0.5-4.2-0.7c-1.5-0.1-2.7-0.7-4.1-1.3c-1.4-0.6-2.8-1.3-4.2-1.9c-1.4-0.6-2.2-1.7-3.3-2.8
		c-1.1-1.1-2.1-2.2-3.2-3.3c-0.4-0.4-1.1-0.9-1.2-1.5c-0.2-0.7-0.2-1.4-0.3-2.1c-0.5-3.2-1-6.4-1.6-9.6c-0.1-0.6-0.4-1.4-0.2-2
		c0.2-0.6,0.6-1.2,0.9-1.7c0.8-1.5,1.7-3,2.5-4.5c0.4-0.7,0.8-1.4,1.2-2.1c0.3-0.5,0.4-1,0.9-1.3c1.4-0.9,2.9-1.9,4.3-2.8
		c1.1-0.7,2.2-1.6,3.5-1.9c1.4-0.3,2.7-0.3,4.2-0.3c1.5,0.1,3,0.1,4.4,0.2c1.4,0.1,2.9,0.8,4.3,1.3c2.1,0.7,4.1,1.7,5.9,2.9
		c2,1.3,3,3.3,4.3,5.3c0.7,1.1,1.4,2.1,2.1,3.2c0.5,0.8,1.2,1.6,1.7,2.4c0.5,0.9,0.3,2.5,0.3,3.5c0.1,1.3,0.2,2.6,0.2,3.9
		c0,0.8,0.3,1.8,0.2,2.6c-0.2,1.1-1,2.3-1.5,3.3c-0.3,0.6-0.5,1.1-0.8,1.7c-0.2,0.5-0.4,1.2-0.8,1.6c-0.8,0.8-2,1.5-2.9,2.1
		c-1.1,0.8-2.1,1.6-3.2,2.3c-0.8,0.6-1.6,1.4-2.5,1.9c-1,0.6-2.2,0.6-3.3,0.8C372.2,312.8,370.9,313,369.7,313.2
		C368.6,313,371.7,312.9,369.7,313.2z M359.9,282.5c-1.5,0.4-3.1,0.8-4.6,1.2c-0.5,0.1-1.7,0.2-2,0.5c-0.2,0.2-0.3,0.7-0.4,1
		c-0.2,0.7-0.3,1.5-0.5,2.2c-0.2,0.7-0.4,1.4-0.6,2.1c-0.1,0.5-0.5,1-0.1,1.5c1.5,1.9,3.3,3.5,4.8,5.4c0.9,1.1,1.8,1.9,3,2.5
		c1.2,0.7,2.3,1.6,3.6,2.2c1.3,0.6,2.8,1,4.1,1.5c1.5,0.5,2.9,1.2,4.5,1.3c1.5,0.1,3,0.3,4.5,0.5c1.4,0.2,2.2-0.1,3.5-0.8
		c1.2-0.6,2.3-1.1,3.5-1.6c0.5-0.2,0.4-0.8,0.5-1.3c0.1-0.9,0.3-1.8,0.4-2.7c0.1-0.4,0.4-1.3,0.2-1.7c-0.2-0.3-0.5-0.6-0.7-0.9
		c-0.9-0.9-1.7-1.9-2.5-2.8c-0.6-0.7-1.2-1.4-1.7-2.1c-0.6-0.8-1.2-1.2-2.1-1.7c-1.9-1.1-3.8-2.1-5.6-3.2c-0.7-0.4-1.4-1-2.2-1.2
		c-0.9-0.3-2-0.4-2.9-0.5C364.3,283.3,362.1,282.9,359.9,282.5C357.7,283,362.2,282.9,359.9,282.5z"/>
	<path d="M158.1,21.8c-0.3,1.5-0.6,3.1-0.9,4.6c-0.1,0.6-0.1,1.7-0.5,2.1c-0.5,0.6-1,1.1-1.5,1.6c-0.8,0.9-1.6,2-2.6,2.8
		c-0.4,0.3-1.5,0.4-2,0.5c-0.9,0.2-1.7,0.4-2.6,0.5c-0.7,0.1-1.5,0.2-2.3,0.3c-0.5,0-0.5,0.6-0.7,1c-0.3,0.8-0.3,1.1,0,1.9
		c0.3,0.9,0.6,1.8,0.9,2.6c0.4,1.3,0.7,2.5,1.3,3.7c0.5,0.9,0.7,2.4,1.9,2.7c1.2,0.3,2.2,0.5,3.2,1.1c0.3,0.1,1.3,0.5,1.2,0.9
		c-0.1,0.6-0.5,1.3-0.8,1.9c-0.3,0.8-2,1-2.8,1.2c-1.6,0.5-3.2,1-4.7,1.6c-1.4,0.5-2.8,1.1-4.2,1.7c-1.1,0.5-2.5,1.1-3.7,1.1
		c-0.6,0-1.5-0.8-1.5-1.4c0-1.3,0.4-1.9,1.3-2.7c0.6-0.6,1.5-2,1.3-2.8c-0.3-1.4-0.9-2.8-1.3-4.2c-0.9-3.1-2.1-6.1-3.2-9.2
		c-1.1-3-2.2-6.1-3.3-9.1c-0.4-1.2-0.9-2.5-1.4-3.7c-0.2-0.4-0.3-0.8-0.5-1.2c-0.3-0.4-1.2-0.4-1.6-0.5c-0.6-0.1-1.1-0.3-1.6-0.6
		c-0.3-0.2-1.7-0.8-1.7-1.1c0-0.3,0.3-0.7,0.4-1c0.3-0.6,0.6-1.2,0.9-1.8c0.1-0.2,0.8-0.3,1-0.3c0.6-0.1,1.2-0.3,1.7-0.5
		c1.6-0.5,3.2-1.1,4.7-1.7c3-1.1,6.1-2.1,9.2-3c0.9-0.3,2.3-1.1,3.3-1c1.5,0.2,3,0.5,4.6,0.5c1.3,0,1.7,0.4,2.6,1.2
		c0.9,0.9,1.9,1.8,2.9,2.7c1,0.9,1.2,2,1.6,3.2C157.2,18.9,157.7,20.3,158.1,21.8C157.7,24,157.4,19.6,158.1,21.8z M148.2,24.7
		c-0.4-1.6-0.7-3.3-1.1-4.9c-0.2-0.9-0.7-1-1.5-1.4c-1-0.5-2.1-0.9-3.1-1.4c-0.9-0.4-1.9-0.8-2.8-1.2c-0.4-0.2-0.9,0.8-1,1
		c-0.4,0.7-0.1,1.4-0.1,2.1c0.1,1.1,0.5,2.1,0.9,3.2c0.8,2,1.5,4.2,2.3,6.2c0.3,0.6,0.9,0.6,1.4,0.7c0.4,0.1,2.6,0.9,2.8,0.7
		c0.5-0.5,0.8-1.7,1-2.4C147.6,26.4,147.9,25.5,148.2,24.7C148,23.6,148,25.2,148.2,24.7z"/>
	<path d="M66.5,324.1c1.5-1.1,3-2.2,4.4-3.4c0.7-0.6,1.3-1.1,2-1.7c0.6-0.5,1.6-1.1,2-1.8c0.3-0.5,0.3-1.1,0.5-1.7
		c0.3-0.9,0.4-1.5,0.2-2.4c-0.1-0.5-0.3-1.2-0.3-1.7c0-0.7,1-1.7,1.4-2.3c1.8,2,3.7,4.1,5.5,6.2c1.8,2,3.4,4.3,5.3,6.2
		c0.8,0.8,1.1,1.2,1,2.3c0,0.4-0.1,0.9-0.1,1.3c-0.8,0-1.5,0-2.3-0.1c-1.3,0-2.6,0-3.9-0.1c-0.6,0-0.9-0.1-1.3,0.3
		c-0.6,0.5-1.1,1-1.7,1.5c-4.1,3.5-8.4,6.9-12.6,10.3c-2,1.6-3.9,3.4-5.7,5.2c-0.3,0.3-0.7,0.5-0.9,0.9c-0.3,0.4-0.2,1.3-0.2,1.7
		c-0.1,1.4-0.2,2.9-0.4,4.3c-0.9-0.3-2.3-0.4-3.2-1c-0.9-0.6-1.5-1.9-2.1-2.8c-1.8-2.4-3.7-4.8-5.7-7.2c-0.9-1.1-1.8-2.2-2.7-3.4
		c-0.8-1-2-2.1-2.3-3.4c-0.4-1.3-0.7-2.4-0.8-3.7c-0.1-1.3,0.5-2.4,1-3.5c0.6-1.3,1.1-2.7,1.7-4c0.5-1.1,0.7-2.3,1.9-2.8
		c1.4-0.7,2.8-1.2,4.2-1.8c1.3-0.5,2.5-1.1,4-1c1.2,0.1,2.5,0,3.6,0.5c0.7,0.3,1.4,0.6,2.2,1c0.5,0.2,1.2,0.4,1.5,0.9
		c0.7,0.9,1.2,2.1,1.7,3.2C64.9,321.5,65.6,322.8,66.5,324.1C69.3,322.1,65.3,322.3,66.5,324.1z M51.9,335.5
		c1.4-0.5,2.6-1.5,3.8-2.4c1.3-1.1,2.7-2.2,4-3.3c1.1-1,2.8-1.9,3.1-3.5c0.1-0.8,0-0.9-0.5-1.4c-0.5-0.5-1.2-1.6-2-1.7
		c-0.7-0.1-1.5-0.2-2.2-0.2c-0.9,0-1.5,0.5-2.2,0.9c-1.4,0.8-3.1,1.3-3.8,2.8c-0.8,1.6-1.6,3.2-2.4,4.8c-0.4,0.8-0.2,0.9,0.3,1.5
		C50.5,333.9,51.2,334.7,51.9,335.5C54.1,334.7,51.1,334.6,51.9,335.5z"/>
	<path d="M351.8,88.1c1.7-0.3,3.5-0.6,5.2-1c1.7-0.4,3.4-1,5.1-1.3c0.7-0.1,0.7-0.5,1-1.2c0.2-0.6,0.5-1.1,0.7-1.7
		c0.3-0.6-0.1-1.3-0.2-2c-0.1-0.6,0.1-0.8,0.4-1.3c0.6-0.8,1.1-0.2,2,0c1.4,0.3,2,1.9,2.8,3c1,1.4,2.3,2.6,3.5,3.9
		c0.6,0.6,1,0.9,1,1.8c0,0.8,0.1,1.7,0.1,2.5c-1.4,0-2.6,0-4-0.3c-1.4-0.3-2.8-0.8-4.2-0.6c-3,0.4-5.9,0.8-8.9,1.4
		c-1.3,0.3-2.5,0.6-3.8,0.6c-1.4,0.1-2.4,0.4-3.6,1.2c-2.3,1.6-4.6,3.2-6.7,5.1c-1,0.9-2.1,1.9-3.1,2.9c-0.4,0.3-0.3,1-0.4,1.4
		c0,0.7-0.1,1.4-0.2,2c-0.1,0.8-0.1,1.6-0.2,2.3c0,0.6-0.4,0.4-0.9,0.4c-0.4,0-0.8,0-1.2-0.1c-0.4-0.1-0.8-0.8-1.1-1.1
		c-1.9-2.2-3.7-4.5-5.6-6.7c-0.9-1-1.8-2-2.8-3c-0.9-0.9-0.7-2.6-0.7-3.7c1.5-0.1,3.1-0.2,4.6-0.3c1.3-0.1,2.7,0.1,3.8-0.8
		c1.1-1,2.3-2,3.5-2.9c1-0.8,2.1-1.6,2.9-2.6c0.9-1.1,1.2-2.3,1.7-3.6c0.5-1.6,1.1-3.1,1.6-4.7c1-3,2.1-6,3.2-9
		c0.5-1.2,0.8-2.2,0.7-3.6c-0.1-1.3-0.2-2.5,0.1-3.8c0-0.2,0.2-0.9,0.4-0.9c0.5,0,1-0.1,1.5-0.1c0.6,0,0.8,0.4,1.1,0.8
		c0.5,0.6,1.1,1.1,1.6,1.7c2.1,2.2,4.1,4.6,5.9,7.1c0.9,1.2,1.7,2.4,2.6,3.6c0.4,0.6,0,1.7-0.2,2.3c-0.3,0.9-1.8,0.3-2.5,0.5
		c-0.8,0.3-1.6,0.5-2.4,0.8c-0.6,0.2-1.1,0.2-1.3,0.8c-0.6,1.8-1.2,3.5-1.8,5.3C352.5,84.9,351.9,86.4,351.8,88.1
		C353.8,87.7,351.9,87,351.8,88.1z"/>
	<path d="M381.2,115.7c1.5,0.6,2.9,1.1,4.4,1.7c0.7,0.3,1.5,0.6,2.2,0.8c0.5,0.2,1.2,0.3,1.6,0.6c0.5,0.3,0.7,1.1,0.9,1.6
		c0.3,0.7,0.6,1.4,0.9,2.1c0.7,1.6,1.4,3.1,2.1,4.7c0.5,1.2,1.1,2.4,1.7,3.5c0.6,1.1-0.6,2-1.1,3c-0.6,1.1-2,1.3-3.2,1.7
		c-1,0.4-2.7,1.5-3.8,1.1c-0.4-0.1-0.7-0.2-1.1-0.4c-0.5-0.2-0.2-0.9-0.2-1.3c0-0.6,0-0.9,0.5-1.3c0.5-0.5,1-1,1.4-1.5
		c0.7-0.8,1.5-1.4,1.6-2.6c0.1-1.5,0.2-3.1,0.4-4.6c0.1-0.7-2-1.6-2.6-2c-0.5-0.3-1-0.2-1.6-0.1c-0.6,0.1-1.4,0-2,0.3
		c-0.5,0.2-1,1.1-1.3,1.5c-0.3,0.3-0.7,0.6-0.9,1c-0.3,0.5-0.1,1.5-0.2,2.1c-0.1,0.9-0.1,1.8-0.2,2.7c-0.2,2.6-0.2,5.3-0.7,7.9
		c-0.1,0.6-0.6,1-1,1.4c-0.5,0.6-1,1.1-1.6,1.7c-1,1.1-2.1,2.2-3.1,3.3c-0.8,0.9-1.9,1-3,1.3c-0.7,0.2-1.5,0.4-2.2,0.7
		c-0.6,0.2-1.4,0.6-2.1,0.6c-1.3-0.1-2.7-0.3-4-0.6c-1.3-0.4-2.5-1.2-3.7-1.8c-1.2-0.6-2-1.1-2.8-2.3c-0.8-1.2-1.8-2.4-2.7-3.6
		c-0.4-0.5-0.3-1.2-0.4-1.7c-0.1-0.8-0.2-1.6-0.3-2.4c-0.2-1.6-0.5-3.1-0.7-4.7c-0.1-0.4-0.4-1.3-0.2-1.7c0.2-0.3,0.5-0.6,0.8-0.9
		c0.7-0.7,1.2-1.5,2.1-1.9c1.3-0.6,2.6-1.2,3.8-1.7c1.1-0.5,2.1-0.1,3.3,0.1c-0.2,0.6-0.4,1.2-0.6,1.8c-0.2,0.6-0.3,1.3-0.7,1.7
		c-0.9,0.9-1.8,1.8-2.7,2.7c-0.6,0.7-1.7,1.2-1.5,2.3c0.2,1.1,0.3,2.3,0.3,3.5c0.1,1.4,0.7,2,1.7,2.9c0.5,0.6,1.3,1.8,2.1,1.6
		c1.9-0.5,3.7-1.3,5.6-1.8c0.4-0.1,0.9-0.2,1.3-0.4c0.3-0.2,0.4-1.5,0.5-1.9c0.3-1.3,0.6-2.6,0.7-4c0.4-2.7,0.4-5.9,1.5-8.4
		c0.6-1.2,1.1-2.5,1.6-3.8c0.4-0.9,1.2-1.3,2-1.8c0.9-0.5,1.6-1.4,2.6-1.8C378.2,116.2,379.8,116,381.2,115.7
		C383.5,116.6,379.8,116,381.2,115.7z"/>
	<path d="M368.6,171c0.5,1.3,1.1,2.6,1.5,4c0.4,1.4,1.7,1.7,3,2.2c1.1,0.5,2.3,0.9,3.4,1.4c1.3,0.5,2.3,1.9,3.3,2.8
		c0.4,0.4,0.2,0.5-0.1,0.9c-0.2,0.3-0.4,0.6-0.8,0.7c-1.5,0.3-3,0.4-4.4,0.7c-1.3,0.2-2,0.2-3.1-0.6c-1.2-1-2.5-1.9-3.6-3
		c-0.9-0.9-1.1-2.8-1.5-4c-0.5-1.6-1-3.2-1.5-4.7c-0.2-0.5-0.5-1-0.4-1.5c0.2-0.8,0.3-1.6,0.5-2.3c0.3-1.6,0.7-3.3,1-4.9
		c0.3-1.4,0.4-3.1,1-4.4c0.2-0.6,0.7-1,1.1-1.4c0.5-0.6,1-1.2,1.6-1.8c1-1,2.2-2,3.3-2.9c1-0.9,2.3-1.4,3.6-1.9
		c1.2-0.6,2.5-1,3.8-1.4c1.5-0.5,2.9-0.5,4.4-0.5c1.5,0,3-0.2,4.5,0.1c1.6,0.4,3.1,1,4.6,1.4c0.7,0.2,1.4,0.3,2.1,0.7
		c0.6,0.3,1,0.8,1.6,1.1c1.2,0.9,2.3,1.5,3.3,2.7c1,1.1,2.1,2.2,2.7,3.5c0.7,1.5,1.5,3,2.3,4.5c0.6,1.2,0.7,2.7,1,4
		c0.3,1.4,0.4,2.9,0.6,4.3c0.2,1.2-0.6,2.8-1,4c-0.4,1.2-1.3,1.4-2.4,1.8c-0.9,0.3-1.6,0.9-2.5,1.1c-0.6,0.2-2.9,0.2-2.9-0.6
		c0-1-0.4-1.9,0.4-2.8c0.8-0.9,1.5-1.7,1.9-2.9c0.4-1,0.7-1.9,1.1-2.9c0.2-0.5,0.4-1,0.5-1.5c0.1-0.3,0.5-1,0.4-1.3
		c-0.1-0.5-0.6-1-0.8-1.5c-0.4-1-0.9-1.3-1.9-1.7c-2-0.9-4-1.8-6-2.7c-0.8-0.4-1.7-1-2.6-1.2c-1-0.2-2.2,0.1-3.2,0.1
		c-0.9,0-1.9,0-2.8,0.1c-1.1,0.2-2.1,0.6-3.2,0.9c-1.9,0.6-4.1,0.9-5.8,2.1c-1.7,1.2-3.4,2.4-5.1,3.5c-0.8,0.5-1.1,1.9-1.5,2.8
		C369.5,168.8,369.1,169.9,368.6,171C369,172.1,369.4,169.2,368.6,171z"/>
	<path d="M331.5,329.7c-1.5-0.4-3.5-0.6-4.6-1.7c-1-1-1.9-2.1-3-3.1c-0.5-0.5-0.2-1.3-0.2-1.9c0-0.8-0.1-2,0.3-2.8
		c0.3-0.6,0.8-1.1,1.3-1.5c0.7-0.7,1.3-1.5,1.9-2.2c2.5-2.9,4.9-5.7,7.3-8.6c1.2-1.4,2.3-2.9,3.4-4.4c0.5-0.7,0.7-0.7,1.5-0.8
		c0.7,0,1.5-0.1,2.2-0.2c0.1,1.5,0.3,2.6,0.9,4c0.5,1.2,0.8,2.8,1.6,3.8c0.8,1,2,1.7,2.9,2.6c1.3,1.1,2.6,2.1,3.8,3.2
		c2.5,2.1,5,4.1,7.5,6.1c1.1,0.9,2.3,1.8,3.4,2.8c0.4,0.4,0.8,0.8,1.3,1c0.6,0.2,1.4,0,2,0c1.5,0,3,0,4.5,0.2
		c0.6,0.1,0.6,0.2,0.6,0.8c0,0.5,0,0.9,0,1.4c0,0.6-0.8,1.1-1.1,1.5c-0.5,0.6-1,1.2-1.5,1.8c-1.1,1.2-2.1,2.5-3.2,3.7
		c-1,1.2-1.9,2.3-2.8,3.5c-0.4,0.5-0.9,1-1.4,1.5c-0.5,0.5-1.1,0.2-1.7,0.1c-0.6,0-0.8-0.1-0.8-0.7c0-0.7-0.2-1.3-0.4-2
		c-0.4-1.4-0.7-3-1.3-4.3c-0.3-0.7-1-1.2-1.6-1.7c-0.7-0.7-1.5-1.3-2.2-2c-1.5-1.4-3.2-2.6-4.7-3.9c-3-2.5-5.9-5.2-9.1-7.5
		c-0.8-0.6-1.6-1.1-2.3-1.6c-0.6-0.4-1.1,0-1.7,0.2c-0.7,0.2-1.5,0.4-2.2,0.6c-0.8,0.2-0.8,0.2-1,1c-0.2,1-0.4,2-0.7,3
		c-0.2,0.8-0.6,1.7-0.3,2.5C330.8,325.8,331,327.8,331.5,329.7C330.3,329.4,331,327.8,331.5,329.7z"/>
</g>
<g>
</g>
<g>
</g>
<g>
</g>
<g>
</g>
<g>
</g>
<g>
</g>
<g>
</g>
<g>
</g>
<g>
</g>
<g>
</g>
<g>
</g>
<g>
</g>
<g>
</g>
<g>
</g>
<g>
</g>
</svg>
