<?xml version="1.0" encoding="utf-8"?>
<!-- Generator: Adobe Illustrator 17.0.0, SVG Export Plug-In . SVG Version: 6.00 Build 0)  -->
<!DOCTYPE svg PUBLIC "-//W3C//DTD SVG 1.1//EN" "http://www.w3.org/Graphics/SVG/1.1/DTD/svg11.dtd">
<svg version="1.1" id="Layer_1" xmlns="http://www.w3.org/2000/svg" xmlns:xlink="http://www.w3.org/1999/xlink" x="0px" y="0px"
	 width="410.1px" height="349.2px" viewBox="0 0 410.1 349.2" enable-background="new 0 0 410.1 349.2" xml:space="preserve">
<g id="tree-text-straight-col.svg">
	<g id="_x3C_parkwood-primary-school_x3E__4_">
		<path d="M282.6,56.6c0.6-1.3,1.4-2.7,1.7-4.2c0.1-0.6,0.2-1.3,0.3-1.9c0.1-0.7,0.5-1.5,0.3-2.1c-0.1-0.3-0.2-1.1-0.5-1.3
			c-0.4-0.3-1-0.5-1.4-0.7c-1.4-0.7-2.9-1.4-4.3-2.1c-0.5-0.3-1.1-0.6-1.6-0.7c-0.7-0.2-1.1,0.3-1.5,0.8c-0.5,0.5-1,0.9-1.5,1.4
			c-0.6,0.5-0.9,1.4-1.3,2.1c-0.3,0.5-0.1,1.1-0.1,1.6c0.1,0.6,0,1.4,0.4,1.9c0.3,0.4,0.7,0.7,1,1.1c0.4,0.5,0.3,1.2,0.2,1.8
			c0,0.3,0.1,1-0.2,1.1c-0.3,0.1-0.7,0.1-1,0.2c-1.2,0.2-1.6,0.1-2.6-0.5c-1.4-0.8-2.8-1.5-4.2-2.3c-1.4-0.8-2.9-1.8-4.4-2.3
			c-1.3-0.5-2.7-0.7-4-1.1c-1.6-0.5-3.1-1-4.7-1.4c-1.4-0.4-2.9-0.7-4.4-1c-1.1-0.2-2.4-0.2-3.3-1.1c-0.7-0.7-1-1-0.5-1.8
			c0.9-1.2,1.9-1.7,3.2-2.3c0.4-0.2,1-0.4,1.4-0.6c0.4-0.3,0.5-1.2,0.6-1.7c0.4-1.6,0.8-3.2,1.1-4.8c0.7-3.2,1.4-6.3,1.9-9.5
			c0.1-0.5,0.9-3.3,0.4-3.5c-0.5-0.2-2.2,3-2.5,3.5c-1.7,2.7-3.4,5.5-5.1,8.3c-0.8,1.3-1.6,2.6-2.5,3.9c-0.9,1.3-1.9,2.6-2.5,4.1
			c-0.2,0.6-0.4,0.9-1,1.1c-0.6,0.3-1.3,0.5-1.9,0.9c-0.7,0.4-0.8,0.1-1.3-0.5c-0.4-0.6-0.8-1-0.9-1.7c-0.2-2.8-0.4-5.7-0.7-8.5
			c-0.3-2.7-0.6-5.4-0.9-8.1c-0.3-2.7-0.6-5.5-1.3-8.2c-1.8,4.8-2.9,9.9-4.2,14.9c-0.3,1.2-0.5,2.3-0.7,3.5c0,0.4-0.4,1.8-0.1,2.1
			c0.4,0.5,0.8,1,1.3,1.4c0.2,0.2,0.6,0.2,0.9,0.3c0.4,0.1,0.5,0.8,0.7,1.2c0.3,0.6,0.6,1.3,0.9,1.9c-0.6,0.2-1.3,0.4-1.9,0.7
			c-0.6,0.3-0.9,0.2-1.5,0c-1.5-0.4-3-0.9-4.5-1.2c-1.3-0.3-2.8-0.7-4.2-0.7c-1.6,0.1-3.2,0.6-4.9,0.7c-3.2,0.2-6.5-0.1-9.7,0
			c-1.4,0-2.7-0.3-4.1-0.5c-1.4-0.2-3.2-0.2-4.6,0c-1.5,0.2-3,0.5-4.4,0.7c-0.6,0.1-0.8,0.2-1.3-0.2c-0.4-0.3-0.8-0.6-1.2-0.9
			c-1.2-0.7-1.7-1.5-2.4-2.7c-0.8-1.5-1.7-2.9-2.5-4.4c-0.7-1.3-1.5-2.6-2.3-3.9c-0.8-1.2-1.4-2.6-2.4-3.7c-0.4-0.5-1.2-1.4-1.9-1.5
			c-0.4-0.1-0.2,3.3-0.1,3.7c0.2,1.4,0.5,2.8,0.8,4.2c0.2,1,0,2.4,0.6,3.3c0.8,1.2,2.2,2.2,3.2,3.2c0.6,0.6,1.6,1.1,2,1.7
			c0.2,0.4-1,1.4-1.2,1.7c-0.4,0.6-0.7,0.6-1.3,0.7c-0.9,0.2-1.8,0.3-2.7,0.5c-3.2,0.6-6.3,1.1-9.5,1.4c-0.6,0.1-1.2,0.2-1.8,0.3
			c-0.5,0-1-0.4-1.4-0.7c-0.2-0.1-0.9-0.4-0.9-0.7c0.1-0.7,0.4-1.4,0.6-2c0.3-0.9,1.4-1,2-1.5c1.2-0.9,0.6-2.7,0.5-4
			c-0.7-6.5-1.7-13-2.5-19.5c-0.2-1.2-0.4-2.5-0.6-3.7c-0.2-1.1-0.3-2.5-0.7-3.5c-0.3-0.7-1.2-0.8-1.8-1.1c-1-0.6-1.9-2-2.7-2.8
			c1.1-0.7,2-1.6,3.3-1.8c1.4-0.2,3-0.2,4.4-0.3c3.1-0.2,6-1,9.1-1.5c1.4-0.3,2.8-0.1,4.3,0.1c1.7,0.2,3.3,0.3,5,0.5
			c1,0.1,2-0.2,2.6,0.7c1,1.3,2.1,2.4,2.5,4c0.4,1.4,0.9,2.7,0.9,4.1c0,1.5-0.1,2.4-0.9,3.7c-0.8,1.2-1.5,2.4-2.3,3.6
			c-0.5,0.7-1.6,2.2-1,3.1c1.8,2.5,3.6,5.1,5.3,7.7c0.8,1.3,1.6,2.6,2.5,3.8c0.6,0.9,1.5,2.7,2.6,2.8c1.4,0.1,2.8,0.5,4.1,0.7
			c0.5,0.1,1.3-1.2,1.5-1.5c0.3-0.4,0.2-0.9,0.3-1.4c0.1-0.7,0.2-1.5,0.3-2.2c0.2-1.6,0.2-3.3,0.2-4.9c-0.1-3.2,0.1-6.4,0.3-9.6
			c0.1-1.5,0.3-3,0.3-4.5c0-1.6-0.3-3.2-0.4-4.8c0-0.8,0.2-2-0.4-2.6c-0.5-0.5-1-1.1-1.6-1.5c-0.4-0.3-1.1-0.3-1.4-0.7
			c-0.2-0.4-0.8-1.7-0.4-2c0.3-0.3,0.6-0.6,0.9-0.9c0.5-0.5,0.8-0.4,1.5-0.3c3.2,0.3,6.4,0.6,9.6,0.6c1.4,0,3-0.2,4.4,0
			c0.7,0.1,1.3,0.4,2,0.6c0.4,0.1,0,0.9-0.1,1.2c-0.1,0.3-0.1,0.7-0.2,1c-0.1,0.6-0.4,0.6-0.9,0.9c-0.9,0.4-2.5,0.9-2.8,2
			c-0.4,1.4-0.3,3-0.4,4.5c-0.1,1.7-0.1,3.4-0.2,5.1c-0.1,3.3-0.1,6.6-0.2,9.8c0,1.6-0.1,3.2-0.1,4.8c0,0.8,0,1.6-0.1,2.4
			c0,0.7-0.2,1.6,0.2,2.3c0.6,1,1.6,1.8,2.3,2.7c0.2,0.3,2.2-0.3,2.5-0.4c1.3-0.3,2.3-1.2,3.4-2c0.6-0.4,0.7-1,0.9-1.6
			c0.3-0.9,0.5-1.7,0.8-2.6c1-3,1.9-6,2.7-9.1c0.7-3.1,1.5-6.2,2.3-9.2c0.3-1.1,0.6-2.3,0.9-3.4c0.2-0.8,0.8-2.2,0.3-3
			c-1-1.5-2.2-2.9-3-4.4c-0.2-0.4,0.4-0.8,0.7-1c0.6-0.5,1.1-0.3,1.8-0.1c2.3,0.5,4.7,0.9,7,1.4c0.5,0.1,1,0.2,1.5,0.3
			c0.4,0.1,0.6,0.7,0.8,0.9c0.6,0.8,1.4,1.6,1.8,2.6c0.4,0.8,0.4,1.9,0.5,2.7c0.2,1.3,0.3,2.5,0.5,3.8c0.3,2.4,0.4,4.9,0.6,7.3
			c0.2,2.5,0.3,5,1,7.4c1-0.6,1.4-1.6,2-2.6c0.8-1.4,1.7-2.7,2.5-4.1c1.6-2.7,3.3-5.4,5-8.1c0.7-1.2,1.4-2.4,2.2-3.6
			c0.6-0.9,2.5-1.5,3.5-1.3c1.4,0.2,2.9,0.4,4.3,0.7c1.6,0.3,3,0.8,4.5,1.3c0.4,0.2,0.5,0.3,0.7,0.7c0.1,0.3,0.6,1.7,0.5,2
			c-0.2,0.3-0.6,0.5-0.9,0.6c-0.5,0.3-1,0.6-1.5,1c-0.8,0.6-1.9,1.3-2.5,2.1c-0.3,0.5-0.4,1.1-0.5,1.6c-0.2,0.9-0.4,1.8-0.6,2.7
			c-1.4,6.2-2.4,12.6-3.5,18.9c-0.3,1.5-0.5,3-0.7,4.6c-0.1,0.5,1,1.9,1.4,2.2c0.6,0.4,1.2,0.8,1.8,1.2c0.4,0.3,1,0.1,1.5,0.1
			c0.5,0,1.1,0.2,1.6,0.1c0.6-0.1,1.1-0.7,1.6-1c1.2-0.7,2.1-1.9,3.1-2.9c1.2-1.2,2.3-2.4,3.5-3.6c2.2-2.3,4.5-4.6,6.8-6.8
			c2.3-2.2,4.6-4.2,6.8-6.4c1.1-1,2.1-2.1,3.1-3.2c0.3-0.4,0.8-1.1,1.3-1.3c0.4-0.2,1-0.1,1.4-0.2c0.7-0.1,3.2-0.9,3.6-0.3
			c0.2,0.3,0.4,0.6,0.6,0.9c0.3,0.5,0.2,0.9,0.1,1.4c-0.4,3.2-0.7,6.4-1.1,9.6c-0.6,6.3-1.3,12.6-2.1,18.9c-0.2,1.6-0.4,3.1-0.6,4.7
			c-0.1,0.7-0.1,1.4-0.3,2.1c-0.1,0.5-0.2,0.9,0.1,1.4c0.7,1,1.4,2.1,2.2,3.1c1,1.2,2.5,0.2,3.7-0.2c1.3-0.4,2.2-0.7,3-1.9
			c0.8-1.2,1.7-2.2,2.6-3.3c2-2.5,3.9-5,5.8-7.5c1.9-2.5,3.8-4.9,5.7-7.3c0.4-0.5,1-1,1.1-1.6c0.1-0.5,0-1.1,0-1.6
			c0-1.7,0-3.4,0-5.1c0.6,0.1,1.2,0.1,1.8,0.1c0.3,0,1-0.1,1.3,0.1c1.2,1,2.3,2,3.5,3.1c2.3,2.1,4.7,4,7.2,5.9c2.3,1.7,5,3.3,6.2,6
			c0.4,0.9,1.5,2,1.3,3c-0.2,1.6-0.5,3.1-0.6,4.7c0,0.5,0,1-0.2,1.5c-0.2,0.6-0.8,1-1.2,1.4c-1.1,1.1-2.3,2.2-3.3,3.4
			c-0.7,0.9-2.8,0.7-3.9,0.8c-0.7,0.1-1.3,0.1-2,0.2c-0.5,0.1-0.9,0.5-1.3,0.8c-0.3,0.2-0.7,0.3-1,0.6c-0.3,0.4-0.3,1.5-0.4,2
			c-0.3,1.6-0.6,3.2-0.9,4.8c-0.3,1.5-0.6,2.9-1,4.4c-0.4,1.3-1,2.7-0.9,4.1c0.1,1.4,0.2,2.8,0.2,4.2c0,0.2,0.2,0.7-0.1,0.9
			c-0.5,0.3-1.3,0.4-1.9,0.5c-1.3,0.1-2.6-1.5-3.5-2.2c-0.6-0.5-1.2-1-1.8-1.5c-0.5-0.4-1.7-1-2-1.6c-0.3-0.5-0.3-1.2-0.5-1.8
			c-0.2-0.6-0.4-1.2-0.3-1.8c0.3-1.4,0.9-2.8,1.3-4.2c0.9-3,1.7-6.1,2.6-9.1c0.2-0.7,0.5-1.4,0.5-2.1c0-0.4,0.1-1.3-0.1-1.6
			c-0.7-0.6-1.3-0.2-1.8,0.3c-1.4,1.5-2.6,3.2-3.9,4.8c-0.7,1-2,2.1-2.2,3.3c-0.1,1.1-0.1,2.5-0.1,3.6c0,0.6,0.1,1.2,0.3,1.8
			c0.3,0.8-0.2,0.8-0.8,1c-0.6,0.2-1.2,0.6-1.8,0.6c-0.5,0-1.3-1-1.6-1.3c-2.1-1.9-4.5-3.6-6.7-5.4c-2-1.6-3.9-3.6-6.2-4.7
			c-2.6-1.3-5.2-2.6-7.8-3.9c-1.1-0.6-2.3-1.1-3.6-1.6c-0.6-0.2-0.7-0.9-0.9-1.5c-0.2-0.7-0.5-1.4-0.7-2
			C280.4,56.8,281.5,56.7,282.6,56.6C283.1,55.5,281.5,56.7,282.6,56.6z M177.7,21c0.7-0.4,1.5-0.9,2.2-1.3c0.6-0.4,1.3-0.6,1.5-1.3
			c0.6-1.5,0.9-3.2,1.3-4.7c0.2-0.6,0.3-0.9-0.1-1.4c-0.3-0.4-0.7-0.8-1-1.2c-1.1-1.5-2.3-3.1-3.4-4.6c-0.1-0.1-2.4,0.9-2.5,1
			c-0.5,0.4,0,2.8,0,3.4c0.2,1.9,0.5,3.7,0.7,5.6c0.1,0.8,0.2,1.7,0.3,2.5C176.9,19.9,177.2,20.2,177.7,21
			C178.7,20.4,177.4,20.6,177.7,21z M330.7,50.6c-0.3-0.6-0.6-1.2-0.8-1.8c-0.1-0.3-0.3-1-0.6-1.1c-0.4-0.2-1,0.1-1.4,0.2
			c-0.5,0.1-1,0-1.5,0.1c-0.5,0.1-1.1,1.2-1.4,1.6c-0.5,0.7-1.1,1.4-1.6,2.1c-1.2,1.5-2.3,2.9-3.5,4.4c-0.3,0.3-0.1,1-0.1,1.4
			c0,0.6,0.7,0.5,1.1,0.6c0.7,0.2,1.4,0.3,2,0.6c0.8,0.3,0.9,0.3,1.7-0.1c0.8-0.4,1.5-0.9,2.3-1.3c0.8-0.4,1.2-0.6,1.5-1.4
			C329.2,54.1,329.9,52.4,330.7,50.6C330.5,50.2,330.1,52,330.7,50.6z M287,33.1c-1.9,1.1-3.1,2.8-4.7,4.2c-0.5,0.4-1.2,0.9-1.2,1.6
			c0.1,1,0,1.2,0.9,1.7c0.6,0.3,1.9,1.4,2.6,1c0.3-0.2,1.5-0.7,1.5-1C286.5,38.1,286.8,35.6,287,33.1
			C286.4,33.5,286.8,35.1,287,33.1z"/>
		<path d="M18,227.7c-2.9-2.1-5.7-4.2-8.8-6.1c-0.6-0.4-1.3-0.8-1.9-1.3c-0.4-0.3-0.9-0.7-1.4-0.4c-0.6,0.3-1,0.8-1.4,1.3
			c-0.3,0.4-0.6,0.8-0.9,1.3c-0.3,0.5-0.3,0.7-0.8,0.4c-0.5-0.3-1.2-0.6-1.4-1.1c-0.3-0.5-0.1-1.3-0.2-1.8c-0.2-1.8-0.3-3.7-0.5-5.5
			c-0.1-1.6-0.2-3.2-0.5-4.7c-0.1-0.4-0.2-1-0.1-1.4c0.2-0.6,1.2-1.5,1.6-1.9c1,1,1.8,1.8,2.5,3c0.8,1.5,1.7,3,2.5,4.5
			c0.3,0.6,0.6,1.1,1.2,1.5c0.6,0.5,1.2,0.9,1.9,1.4c1.3,1,2.6,1.9,3.9,2.9c0.4,0.3,0.7,0.7,1.2,0.9c0.5,0.1,1-0.1,1.5-0.1
			c1.2-0.2,2.1-1.4,3.1-2.2c2.4-2.1,4.8-4.2,7.2-6.4c1.2-1,2.3-2,3.5-3.1c1.2-1,2.7-2,3.6-3.3c0.8-1.1,1.5-2.3,2.3-3.5
			c0.4-0.6,1.3-2,2.1-1.3c1,0.8,2.3,1.4,2.4,2.8c0.1,1.7,0.2,3.3,0.3,5c0.1,1.5,0.2,3,0.4,4.5c0.2,1.4,0.5,2.8,0.5,4.2
			c0,0.6-1.2,2.6-1.9,2.2c-0.5-0.3-1-0.5-1.5-0.7c-0.6-0.3-0.7-0.6-1.1-1.1c-2.2,1.8-4.4,3.6-6.7,5.4c-1.1,0.9-2.2,1.7-3.3,2.6
			c-0.9,0.7-1.7,1.2-2.2,2.3c3-0.3,6.1-0.6,9.1-0.9c0.8-0.1,1.2,0,1.7-0.6c0.6-0.5,1.1-1.1,1.7-1.6c0.9-0.9,2-1.3,3.1-1.8
			c0.4-0.2,1-0.7,1.3-0.3c0.3,0.4,0.4,0.7,0.4,1.1c0.1,1.5,0.2,3,0.3,4.6c0.1,1.5,0.1,3,0.4,4.5c0.3,1.6,0.5,3.1,0.5,4.6
			c0.1,2.9,1,5.9,2,8.6c0.3,0.6,0.5,1.3,0.7,2c0.3,0.8,0.3,1,0,1.8c-0.5,1.2-0.8,2.9-1.7,3.8c-1,1-2.2,1.8-3.3,2.7
			c-1.2,1-2.4,2-3.6,3c-1.2,0.9-2.3,1.9-3.5,2.8c-0.6,0.5-0.9,0.7-1.1,1.4c-0.2,0.8-0.5,1.5-0.8,2.3c3-1,6-2,9-3.1
			c1.1-0.4,1.9-0.6,2.6-1.5c0.8-1,1.8-1.9,1.8-3.2c0-0.3-0.1-0.8,0.2-1.1c0.3-0.3,1.5-0.3,1.9-0.3c0.4-0.1,0.8-0.2,1.1,0.2
			c0.3,0.6,0.6,1.2,0.8,1.8c0.8,3,1.5,6.1,2.5,9c2.1,6.1,5.5,11.7,8.5,17.3c0.3,0.5,0.9,1.2,0.8,1.8c0,0.6-0.1,1.3-0.1,1.9
			c0,0.5,0.1,0.9-0.5,1c-0.4,0-1,0.1-1.3,0c-0.4-0.1-0.6-0.6-1-0.7c-0.3-0.1-0.6-0.1-0.9-0.1c-1,0-1.6,0.1-2.3,0.8c-1,1-2,2-3,3.1
			c-0.4,0.5-0.9,1-1.3,1.5c-0.4,0.5,0,1,0.3,1.5c0.7,1.3,1.4,2.7,2.2,4c0.3,0.6,0.6,1.2,1,1.8c0.2,0.4,1.1,0.6,1.5,0.7
			c1.2,0.3,2.7-0.6,3.9-0.9c0.7-0.2,1.4-0.4,2.1-0.6c0.3-0.1,0.5-0.9,0.6-1.1c0.2-0.4,0.5-0.8,0.6-1.2c0.1-0.4,0-1-0.1-1.4
			c-0.1-1-0.1-1.7,0.6-2.5c0.2-0.2,0.4-0.6,0.7-0.8c0.2-0.1,1.4,0.8,1.7,0.9c0.3,0.2,0.6,0.9,0.8,1.2c0.4,0.7,0.9,1.4,1.3,2.2
			c0.8,1.3,1.5,2.5,2.3,3.8c0.6,1.1,0.8,1.5,0.6,2.7c-0.1,0.4-0.1,0.7-0.3,1c-0.2,0.4-0.5,0.2-0.9,0.2c-1.7-0.1-3.3-0.3-5-0.6
			c-0.7-0.1-1.3-0.2-2-0.1c-0.6,0.1-1.2,0.3-1.8,0.4c-1.7,0.3-3.3,0.6-5,0.9c-6.2,1.2-12.4,2.6-18.6,3.6c-2.4,0.4-4.7,0.7-7.1,1
			c-0.5,0.1-1.4,0.3-1.9,0.1c-0.4-0.2-0.8-1.2-1-1.6c-0.3-0.6-0.7-0.8-0.4-1.5c1.3-2.7,3.5-5.1,5.5-7.3c2.1-2.3,4.1-4.6,6-7.1
			c3.9-5,7.7-10,12-14.7c0.8-0.9,1.2-2,0.7-3.1c-0.2-0.6-0.6-1.1-1-1.6c-0.3-0.5-0.4-1.2-0.9-1.5c-2.3-1.3-5.1,0-7.5,0.7
			c-3,0.9-5.9,2.1-8.8,3c-3,0.9-6,1.7-8.9,2.9c-1.4,0.6-2.9,1.1-4.3,1.7c-0.8,0.3-1.3,1.6-1.3,2.4c0,1-0.1,1.8-0.8,2.6
			c-0.3,0.3-1.9,0-2.1-0.4c-1.1-3-2.1-5.9-3.1-8.9c-1-2.9-2.1-5.8-2.8-8.9c-0.3-1.4-0.6-2.8-0.9-4.2c-0.4-1.5,0.4-2.9,0.8-4.3
			c0.3-1,0.5-2.4,1.4-3c0.7-0.4,1.3-0.9,2-1.3c0.7-0.4,1.4-1.1,2.2-1.3c1.3-0.4,2.8-0.4,4.1-0.5c0.6-0.1,1.5-0.4,2,0
			c0.7,0.5,1.5,0.9,2.2,1.3c0.9,0.5,1.8,1.5,2.8,1.5c0.7,0,0.9-0.1,1.5-0.6c0.6-0.6,1.3-1.2,1.9-1.8c2.4-2.3,4.7-4.5,7.1-6.8
			c0.9-0.8,2-1.7,2.8-2.6c0.3-0.3,0-1.6,0-2c0-0.7,0.1-1.5-0.2-2.2c-0.1-0.4-0.3-1.2-0.8-1.3c-0.5-0.2-1.1-0.3-1.6-0.5
			c-1.4-0.5-2.5-0.8-4-0.7c-3.2,0.3-6.3,0.8-9.5,1c-3,0.2-6.1,0.5-9.1,0.8c-1.5,0.2-3.1,0.3-4.6,0.5c-0.6,0.1-1,0-1.4,0.5
			c-0.4,0.5-0.9,1.1-1.3,1.6c-0.3,0.4-0.8,0.8-0.9,1.3c-0.1,0.3-0.2,0.9-0.5,1c-0.6,0.2-1.4,1-1.9,0.2c-1.3-2-1-4.5-1.2-6.8
			c-0.1-1.5-0.2-3-0.5-4.6c-0.2-1.4-0.6-2.9-0.7-4.4c0-0.8,0.2-1.9,0.5-2.7c0.2-0.4,1.6-0.6,1.9-0.2c0.8,1,1.2,1.7,2.4,2.2
			c0.7,0.3,1.3,0.6,1.9,0.9c0.8,0.4,1.2,0.4,2,0.4c1.5-0.1,2.9-0.2,4.4-0.4C15.5,228.4,18.1,228.5,18,227.7
			C15.5,225.9,18.1,228.3,18,227.7z M16.5,271.2c1.4-0.8,3-1.2,4.5-1.7c1.8-0.5,3.6-1.1,5.4-1.7c0.6-0.2,0.9-0.2,1.3-0.8
			c0.2-0.3,0.7-0.8,0.6-1.2c-0.2-0.4-0.6-0.8-0.8-1.2c-0.2-0.4-0.4-1.1-0.8-1.3c-1.3-0.5-2.8-1.5-4.1-1.1c-1.1,0.4-2.8,0.3-3.8,1.1
			c-1.2,1-2.1,2.6-3,3.8c-0.2,0.3-1.4,1.4-1.1,1.8C15.2,269.8,15.8,270.5,16.5,271.2C18.4,270.1,16,270.6,16.5,271.2z M41.7,304.8
			c0.1,0.8,3.9-0.2,4.3-0.3c1.1-0.3,2.3-0.5,3.4-0.7c0.4-0.1,0.6-0.3,0.8-0.7c0.4-0.5,0.2-0.7-0.1-1.3c-0.4-0.8-0.8-1.7-1.3-2.5
			c-0.4-0.7-1.1-0.7-1.8-0.6c-0.4,0.1-0.7,0.7-1,1c-0.5,0.6-1,1.1-1.5,1.7C43.6,302.5,42.7,303.6,41.7,304.8
			C41.8,305.5,43.1,303.1,41.7,304.8z"/>
		<path d="M30.3,163.6c-3.9-2.3-7.8-4.7-11.8-6.9c-2-1.1-4.1-1.8-6.1-2.7c-0.3-0.1-1.1,0.5-1.4,0.6c-0.9,0.5-1.8,1-2.7,1.5
			c-0.2-0.5-0.5-1.1-0.7-1.6c-0.2-0.3-0.6-0.8-0.5-1.2c0.2-1.6,0.4-3.1,0.6-4.7c0.1-0.5,0.1-1.1,0.2-1.6c0.1-0.5,0.8-0.9,1.2-1.3
			c0.3-0.3,1.2-1.6,1.7-1.2c1.7,1.4,2,3.8,3.9,5c2.8,1.7,5.5,3.4,8.3,5c5.6,3.3,11.3,6.5,17,9.7c1.3,0.8,2.7,1.5,4,2.3
			c0.4,0.3,0.7,0.6,1,1c0.2,0.3,1.3,1.5,1.1,1.9c-0.3,0.8-1.2,1.7-2,1.8c-1.7,0.3-3.4,0.6-5,0.9c-1.5,0.3-2.9,0.8-4.4,1
			c-1.4,0.2-2.7,0.3-4.1,0.6c2.1,2,4.5,3.5,6.9,5.1c1.1,0.8,2.3,1.5,3.4,2.4c0.6,0.4,1.1,0.9,1.7,1.3c0.6,0.5,0.2,0.8,0.1,1.4
			c-0.2,0.7-0.3,1.9-1,2.2c-0.6,0.3-1.4,0.3-2.1,0.4c-0.9,0.2-1.8,0.3-2.7,0.5c-3.1,0.5-6.1,1.3-9.2,1.9c-6.3,1.1-12.6,2.5-19,3.7
			c-0.8,0.1-1.5,0.3-2.3,0.5c-0.6,0.1-1.4,0.2-1.9,0.5c-0.8,0.7-0.8,1.7-2,2c-0.5,0.2-1.5,0.7-2,0.4c-0.5-0.4-0.5-0.9-0.4-1.5
			c0.2-1.5,0.2-3.1,0.4-4.6c0.4-2.9,0.8-5.8,1.9-8.5c0.6-1.4,0.5-2.8,0.6-4.3c0.1-1.6,0.2-3.3,0.3-4.9c0.3-3.1,1.2-6.2,1.7-9.3
			c0.2-1.2,0.2-3,1-4c0.3-0.5,1.9-2.3,2.4-1.8c1,1,2,2,3,3.1c1,1.1,1.9,2.3,3,3.3c0.8,0.7,1.9,1.4,2.9,1.8c1.2,0.5,2.6,0.5,3.8,0.7
			c1,0.2,2.4-0.4,3.4-0.6c0.7-0.1,1.3-0.2,2-0.3C27.2,164.9,30.3,164.5,30.3,163.6C26.4,161.3,30.3,164.5,30.3,163.6z M28.9,178.8
			c-0.4-0.6-0.7-1.4-1.4-1.8c-0.8-0.5-2.1-0.6-3-0.8c-1-0.2-2-0.6-3-0.6c-1.2,0-2.4,0.4-3.6,0.6c-2.2,0.4-4.5,0.8-6.7,1.1
			c-0.9,0.1-2.1,0.1-2.9,0.5c-1,0.4-1.8,1.4-2.7,2c-0.5,0.3-0.3,1.4,0,1.9c0.6,1,1.5,0.8,2.5,0.6c2.4-0.4,4.7-0.6,7.1-1.1
			C19.7,180.4,24.3,179.7,28.9,178.8C28.5,178.1,26.6,179.3,28.9,178.8z M13.2,167.5c0.1-0.3,0.2-0.5-0.1-0.7
			c-0.6-0.3-1.2-0.6-1.8-0.9c-0.7-0.4-2.4-0.9-2.5,0.3c-0.1,0.6-0.6,1.8,0.4,1.9C10.3,168.3,11.9,167.7,13.2,167.5
			C13.3,167,12,167.7,13.2,167.5z"/>
		<path d="M388.8,212.4c0-2.4,0-4.8,0-7.2c0-1.5,0.6-3.9-1.3-4.5c-0.4-0.1-0.9,0-1.3,0c-0.7,0-1.3,0-2,0c-1.3,0-2.7,0-4,0
			c-1.1,0-2.2,0-3.4,0c-1,0-1.5,0.3-2.3,1c-0.6,0.6-1.3,1.2-2,1.8c-0.3,0.3-0.7,0.7-1,1c-0.3,0.4-0.4,0.4-0.8,0.1
			c-0.6-0.5-1.5-0.9-1.9-1.5c-0.2-0.3,0-1.2,0-1.5c0-0.6,0.1-1.3,0.1-1.9c0.1-2.4,0.2-4.8,0.2-7.2c0-1.2,0-2.3,0-3.5
			c0-1.1,0.5-1.9,0.8-2.9c1.3,0.7,2.5,1.5,3.7,2.4c1,0.7,2.1,1.9,3.3,1.9c3.2,0.1,6.5,0.2,9.7,0.3c3.3,0.1,6.6,0,9.9,0
			c1.6,0,3.2-0.1,4.8-0.1c1.2,0,2.5-1,3.6-1.5c0.2-0.1,0.9-0.2,1-0.5c0.2-0.5,0.4-1.5,0.7-1.8c0.4-0.4,1.8-1,2.1-0.4
			c0.3,0.4,0.8,0.8,0.8,1.3c0,0.7,0.1,1.4,0.1,2.1c0.1,1.7,0.1,3.4,0.1,5.1c0,1.5,0,3.1,0,4.6c0,0.8,0,1.5,0,2.3
			c0,0.7,0.2,1.5-0.3,2.1c-0.3,0.3-0.6,0.7-0.8,1c-0.4,0.5-0.8,0.1-1.2-0.2c-1.4-1-2.7-1.9-4-2.9c-1.1-0.8-1.8-1.2-3.2-1.1
			c-1.5,0.1-3-0.2-4.5-0.1c-0.9,0.1-2.1,0-2.7,0.8c-0.5,0.6-0.1,2.1-0.1,2.8c0,1.6-0.1,3.2-0.1,4.7c0,0.7,0,1.4,0,2.2
			c0,0.5,0.3,0.7,0.7,1.1c0.3,0.3,1.2,0.1,1.6,0.1c0.8,0,1.6,0,2.4,0c1.7,0,3.4,0,5.1,0c0.5,0,1.1,0.1,1.6-0.2
			c0.3-0.2,0.6-0.6,0.9-0.8c1-0.8,1.7-1.9,2.4-3c0.2-0.3,1.9-0.3,2,0.2c0.1,0.7,0.3,1.3,0.4,1.9c0.1,0.8,0,1.6-0.1,2.4
			c-0.2,1.5-0.1,3-0.1,4.6c0,1.6-0.1,3.2,0.1,4.7c0.1,0.6,0.1,1.2,0.3,1.8c0.1,0.7-0.2,1.1-0.5,1.7c-0.2,0.5-0.4,1-0.7,1.5
			c-0.2,0.3-1-0.2-1.2-0.3c-1.1-0.4-1.1-1.2-1.6-2.2c-0.4-1-1.8-1.2-2.6-1.6c-1.2-0.5-2.5-0.4-3.8-0.4c-1.7,0-3.3,0-5,0
			c-3.3,0-6.7,0-10,0c-1.6,0-3.2,0-4.8,0c-0.8,0-1.6,0-2.3,0c-0.9,0-1.1,0.2-1.8,0.6c-1,0.7-2.2,1.3-3,2.3c-0.4,0.4-0.7,0.9-1.1,1.3
			c-0.3,0.4-0.9-0.2-1.2-0.5c-0.4-0.2-1.2-0.6-1.3-1c-0.1-0.4-0.1-0.8,0-1.2c0.1-1.2,0.1-2.5,0.2-3.7c0.1-3.3,0-6.5-0.1-9.7
			c0-0.6-0.1-0.9,0.2-1.4c0.2-0.3,0.5-1.4,0.9-1.3c0.8,0.1,2,0.6,2.4,1.3c0.6,1,1,2.2,2.2,2.5c1.4,0.4,3,0.4,4.4,0.5
			C382.4,212.2,385.6,212.2,388.8,212.4C388.8,210,384.4,212.1,388.8,212.4z"/>
		<path d="M114,58.9c-0.3,1.5-0.6,3-0.9,4.5c-0.1,0.7-0.3,1.5-0.4,2.2c-0.2,0.8-0.6,1.4-1,2.2c-0.8,1.4-1.5,2.7-2.3,4.1
			c-0.8,1.4-1.8,2.2-3,3.2c-2.4,2.1-5,3.8-7.6,5.7c-1.2,0.9-2.5,1.8-3.7,2.8c-0.8,0.6-1.6,1.7-2.6,1.9c-0.6,0.1-1.3-0.3-1.8-0.5
			c-0.5-0.2-0.4-0.2-0.4-0.7c0-1.1,0-2,0.4-3.1c0.2-0.5,0.6-1.1,0.5-1.7c-0.1-0.5-0.4-1-0.7-1.5c-0.8-1.2-1.5-2.4-2.3-3.5
			c-3.8-4.9-7.4-10-11.3-14.8c-0.7-0.8-1.3-1.8-1.9-2.6c-0.7-0.9-2.4-0.9-3.4-1c-0.7,0-1.4,0.1-2.1,0.1c-0.5,0-0.4-0.1-0.5-0.5
			c-0.1-0.4-0.6-1.9-0.4-2.2c0.9-1.2,1.8-2.4,2.7-3.6c0.9-1.2,2-2.1,3.1-3.2c2.4-2.2,5-4.2,7.5-6.2c0.9-0.7,2-1,3.1-1.4
			c1.5-0.6,2.9-1.3,4.5-1.7c1.3-0.3,2.7-0.3,4-0.3c0.7,0,1.4,0,2.1,0c0.6,0,1.5-0.2,2,0c1,0.4,2.4,0.6,3.2,1.4
			c1.3,1.1,2.5,2.3,3.8,3.4c1.2,1,2.3,2.1,3.5,3.1c1,0.9,2.6,1.8,3.1,3c0.6,1.6,1.2,3.1,1.8,4.7C113.9,54.7,113.8,56.9,114,58.9
			C113.5,61.3,113.9,57.8,114,58.9z M106.8,64.5c-0.4-2.8-1.8-5.4-2.8-8c-1.1-2.9-3.2-4.8-5.2-7c-1-1-1.9-2.4-3.1-3
			c-1.4-0.7-2.7-1.5-4.1-2.2c-1-0.6-2.2-0.1-3.3,0c-1.6,0.1-3.3,0.3-4.9,0.4c-0.2,0-0.7,2.8-0.7,2.9c-0.1,0.4-0.6,1.6-0.4,2
			c0.2,0.4,0.7,0.8,1,1.1c2,2.3,3.4,4.9,5.1,7.4c1.8,2.7,3.9,5.2,5.9,7.7c1,1.2,1.9,2.5,2.9,3.7c0.5,0.6,0.9,1.2,1.4,1.8
			c0.3,0.5,0.6,1.1,1.3,1.1c0.4,0,3.1,0.6,3.3,0.2C104.4,69.9,105.6,67.2,106.8,64.5C106.5,62.3,106.7,64.9,106.8,64.5z"/>
		<path d="M83.7,91.4c-0.4,1.4-0.8,2.7-1.1,4.1c-0.3,1.5-1.1,2.5-2,3.8c-0.9,1.3-1.9,2.6-2.8,3.9c-0.4,0.5-0.7,1.1-1.2,1.6
			c-0.5,0.6-1.4,0.9-2.1,1.3c-1.2,0.6-2.3,1.3-3.5,2c-1.3,0.7-2.9,0.8-4.3,1c-0.7,0.1-1.5,0.4-2.2,0.4c-0.6,0-1.3-0.1-1.9-0.2
			c-1.5-0.2-2.7-0.6-4.1-1.2c-1.3-0.5-2.6-0.9-3.9-1.5c-1.3-0.6-2.2-1.9-3.3-2.8c-2.1-1.9-4.7-3.7-5.9-6.3c-0.5-1-1.3-1.8-1.7-2.9
			c-0.5-1.4-0.6-3.1-0.9-4.6c-0.2-1.3-0.7-2.8-0.6-4.1c0.1-1.2,0-2.7,0.5-3.8c1-2.4,2.6-4.7,3.9-7c0.6-1,1.5-1.5,2.3-2.2
			c1-0.8,2-1.9,3.1-2.5c0.8-0.4,1.7-0.6,2.5-0.9c1.3-0.5,2.3-0.8,3.6-0.9c1.4-0.1,2.8-0.3,4.2-0.2c1.3,0.1,2.6,0.6,3.8,1
			c1.2,0.4,2.3,0.7,3.5,1c1.1,0.3,1.7,0.9,2.6,1.6c1,0.9,2.1,1.7,3.2,2.5c1,0.8,2.1,1.4,2.8,2.5c1.3,1.9,2.4,4.1,3.4,6.2
			C83.1,85.7,83.3,88.8,83.7,91.4C83.4,92.5,83.4,89.3,83.7,91.4z M47.5,81.5c-0.6,0,0.1,1.2,0.2,1.5c0.2,0.7,0.5,1.4,0.7,2.1
			c0.5,1.4,1.8,2.6,2.7,3.7c1.9,2.4,3.5,5.1,6,6.8c1,0.7,2.1,1.5,3.2,2.1c1.3,0.7,2.7,1.5,4.1,1.9c1.4,0.4,2.8,0.9,4.2,1.2
			c1.4,0.3,3.1,0.6,4.5,0.3c0.5-0.1,0.9-0.4,1.4-0.5c0.4-0.1,1-0.1,1.3-0.5c0.2-0.2,0.2-1,0.2-1.3c0.2-0.9,0.3-1.8,0.5-2.6
			c0.2-1.3,0.6-2.6,0.7-3.9c0-0.4-0.9-1.3-1.1-1.7c-0.5-0.7-1-1.4-1.6-2.2c-0.8-1.2-1.6-2.5-2.7-3.4c-1.2-1-2.4-2.1-3.6-3.1
			c-1-0.9-2.1-1.5-3.3-2.1c-1.3-0.6-2.5-1.3-3.8-1.9c-1.2-0.5-2.6-0.6-3.9-0.9c-1.5-0.3-3.1-0.6-4.6-0.9c-0.7-0.2-1.8,1.7-2.2,2.1
			C49.5,79.3,48.5,80.4,47.5,81.5C47.4,81.5,48.7,80.1,47.5,81.5z"/>
		<path d="M59.7,127.9c-0.3,1.5-0.6,3-0.9,4.5c-0.3,1.5-0.4,3-1.3,4.3c-0.8,1.1-1.6,2.2-2.5,3.2c-0.9,1.1-1.7,2.2-3,2.9
			c-1.2,0.7-2.5,1.3-3.7,2c-1.3,0.7-2.2,1.2-3.7,1.3c-1.3,0.1-2.7,0-4,0c-1.5,0-2.9,0.1-4.3-0.3c-1.2-0.4-2.4-0.8-3.6-1.1
			c-1.4-0.4-2.6-1.4-3.9-2.2c-1.1-0.7-2.3-1.3-3.3-2.2c-1.1-0.9-1.8-2.1-2.8-3.1c-2-1.9-3.1-4.9-3.8-7.5c-0.4-1.3-0.8-2.4-0.7-3.9
			c0.1-1.6,0.2-3.3,0.4-4.9c0-0.5,0-0.9,0.3-1.4c0.3-0.5,0.7-1,1-1.5c0.8-1.2,1.6-2.4,2.4-3.6c0.7-1.1,1.5-2.2,2.2-3.3
			c0.2-0.3,0.8-0.5,1.1-0.6c0.6-0.3,1.2-0.7,1.8-1c1.1-0.6,2.1-1.2,3.2-1.8c1-0.6,2.3-0.7,3.4-0.9c1.3-0.2,2.5-0.3,3.8-0.3
			c1.4,0,2.6,0.3,3.9,0.7c1,0.2,2.1,0.4,3.2,0.7c1.2,0.3,2.3,1.2,3.4,1.7c1.1,0.6,2.1,1.2,3.2,1.8c0.4,0.2,0.7,0.6,0.9,1
			c0.5,0.6,1,1.1,1.5,1.7c0.9,1,1.8,2,2.6,2.9c0.8,0.9,0.9,1.8,1.1,2.9C58.4,122.5,59.1,125.2,59.7,127.9
			C59.2,130.3,59.3,126,59.7,127.9z M22.2,121.8c0.1,0.5,0.1,1.1,0.2,1.6c0.2,0.6,0.7,1.1,1.2,1.6c1,1.1,1.9,2.3,2.8,3.5
			c0.8,1.1,2,1.7,3.1,2.4c1.4,0.9,2.7,1.7,4.2,2.4c1.3,0.7,2.6,1.4,4,1.9c1.4,0.5,3,0.8,4.5,1.2c1.3,0.3,2.6,0.8,4,0.9
			c1.7,0.1,3-0.8,4.4-1.5c1.4-0.7,2.8-1.4,4.2-2.1c0.2-0.1-0.1-1.7-0.1-2c-0.1-0.9-0.2-1.7-0.3-2.6c-0.1-0.8-0.1-1.6-0.2-2.3
			c0-0.4-0.6-0.8-0.9-1c-2.1-1.7-3.9-3.8-6.3-5.1c-2.4-1.4-4.9-2.6-7.7-3.3c-1.6-0.4-3.3-0.9-4.9-1.3c-0.6-0.2-1.3,0-2,0.1
			c-0.9,0.1-1.9,0.1-2.9,0.2c-1.4,0.1-3.4-0.3-4.3,0.9C24.4,118.7,23.3,120.2,22.2,121.8C22.3,122.8,23.4,120.1,22.2,121.8z"/>
		<path d="M385.7,271.4c-1.6-0.2-3.1-0.5-4.7-0.7c-0.7-0.1-1.5-0.1-2.2-0.4c-0.7-0.2-1.3-0.6-1.9-1c-1.3-0.7-2.7-1.3-4.1-2
			c-0.6-0.3-1.2-0.5-1.7-0.9c-0.7-0.5-1.3-1.3-1.9-1.9c-0.9-0.9-2-1.8-2.8-2.8c-1-1.2-1.4-3-2-4.4c-0.7-1.3-0.9-2.5-1-4
			c-0.2-1.6-0.4-3.2-0.1-4.9c0.5-2.8,1.3-5.5,2.8-7.9c0.7-1.2,1.9-2.3,2.8-3.3c0.5-0.5,0.9-1.1,1.5-1.4c0.7-0.4,1.4-0.7,2.1-1
			c1.3-0.6,2.6-1.2,3.9-2c1.3-0.8,2.9-0.7,4.4-0.7c1.5-0.1,3,0,4.5,0c1.7,0.1,3.2,0.5,4.8,1c1.2,0.3,2.3,0.7,3.4,1.3
			c0.9,0.5,2,0.9,2.8,1.5c1.7,1.3,3.7,2.9,4.9,4.8c0.7,1.1,1.4,2.1,2.1,3.2c0.6,0.9,0.7,1.8,1,2.8c0.3,1.2,0.7,2.4,1,3.6
			c0.2,0.8-0.3,2-0.4,2.8c-0.2,1.3-0.4,2.6-0.6,3.9c-0.2,1.1-0.2,1.9-0.9,2.9c-0.7,1-1.4,2.1-2.2,3.1c-0.7,1-1.4,2.2-2.3,3
			c-0.8,0.7-1.7,1.2-2.5,1.7c-1,0.7-2.1,1.7-3.3,2.2C390.7,270.8,388.1,271,385.7,271.4C383.5,271,387.4,271.1,385.7,271.4z
			 M366.4,249.4c0.1,0.6,0.1,1.2,0.3,1.8c0.2,0.6,0.8,1.1,1.2,1.5c1.1,1.1,2.1,2.3,3.3,3.3c1.1,0.8,2.3,1.3,3.4,1.9
			c1.4,0.6,2.7,1.3,4.1,1.7c2.8,0.8,5.8,0.9,8.7,1c1.5,0.1,3.1,0.1,4.6,0.2c1.4,0.1,3-0.9,4.3-1.4c0.7-0.3,1.4-0.5,2-0.8
			c0.3-0.1,0.7-0.2,1-0.5c0.4-0.4,0.5-1.1,0.7-1.6c0.3-0.8,0.6-1.6,0.9-2.4c0.2-0.5,0.5-1,0.6-1.5c0.1-0.4-0.3-0.9-0.6-1.2
			c-0.6-0.8-0.9-2.1-1.8-2.6c-1.4-0.8-2.7-1.6-4.1-2.4c-1.4-0.8-2.7-1.8-4.3-2.1c-1.5-0.3-2.9-0.8-4.4-1.2c-1.4-0.4-3.1-0.2-4.6-0.3
			c-1.5-0.1-3.3-0.5-4.8-0.3c-1.5,0.2-2.9,0.4-4.4,0.9c-0.5,0.1-1,0.2-1.4,0.4c-0.6,0.2-1.1,1.2-1.5,1.7
			C368.5,246.7,367.4,248,366.4,249.4C366.5,250.3,367.8,247.5,366.4,249.4z"/>
		<path d="M369.7,313.2c-1.4-0.2-2.8-0.5-4.2-0.7c-1.5-0.1-2.7-0.7-4.1-1.3c-1.4-0.6-2.8-1.3-4.2-1.9c-1.4-0.6-2.2-1.7-3.3-2.8
			c-1.1-1.1-2.1-2.2-3.2-3.3c-0.4-0.4-1.1-0.9-1.2-1.5c-0.2-0.7-0.2-1.4-0.3-2.1c-0.5-3.2-1-6.4-1.6-9.6c-0.1-0.6-0.4-1.4-0.2-2
			c0.2-0.6,0.6-1.2,0.9-1.7c0.8-1.5,1.7-3,2.5-4.5c0.4-0.7,0.8-1.4,1.2-2.1c0.3-0.5,0.4-1,0.9-1.3c1.4-0.9,2.9-1.9,4.3-2.8
			c1.1-0.7,2.2-1.6,3.5-1.9c1.4-0.3,2.7-0.3,4.2-0.3c1.5,0.1,3,0.1,4.4,0.2c1.4,0.1,2.9,0.8,4.3,1.3c2.1,0.7,4.1,1.7,5.9,2.9
			c2,1.3,3,3.3,4.3,5.3c0.7,1.1,1.4,2.1,2.1,3.2c0.5,0.8,1.2,1.6,1.7,2.4c0.5,0.9,0.3,2.5,0.3,3.5c0.1,1.3,0.2,2.6,0.2,3.9
			c0,0.8,0.3,1.8,0.2,2.6c-0.2,1.1-1,2.3-1.5,3.3c-0.3,0.6-0.5,1.1-0.8,1.7c-0.2,0.5-0.4,1.2-0.8,1.6c-0.8,0.8-2,1.5-2.9,2.1
			c-1.1,0.8-2.1,1.6-3.2,2.3c-0.8,0.6-1.6,1.4-2.5,1.9c-1,0.6-2.2,0.6-3.3,0.8C372.2,312.8,370.9,313,369.7,313.2
			C368.6,313,371.7,312.9,369.7,313.2z M359.9,282.5c-1.5,0.4-3.1,0.8-4.6,1.2c-0.5,0.1-1.7,0.2-2,0.5c-0.2,0.2-0.3,0.7-0.4,1
			c-0.2,0.7-0.3,1.5-0.5,2.2c-0.2,0.7-0.4,1.4-0.6,2.1c-0.1,0.5-0.5,1-0.1,1.5c1.5,1.9,3.3,3.5,4.8,5.4c0.9,1.1,1.8,1.9,3,2.5
			c1.2,0.7,2.3,1.6,3.6,2.2c1.3,0.6,2.8,1,4.1,1.5c1.5,0.5,2.9,1.2,4.5,1.3c1.5,0.1,3,0.3,4.5,0.5c1.4,0.2,2.2-0.1,3.5-0.8
			c1.2-0.6,2.3-1.1,3.5-1.6c0.5-0.2,0.4-0.8,0.5-1.3c0.1-0.9,0.3-1.8,0.4-2.7c0.1-0.4,0.4-1.3,0.2-1.7c-0.2-0.3-0.5-0.6-0.7-0.9
			c-0.9-0.9-1.7-1.9-2.5-2.8c-0.6-0.7-1.2-1.4-1.7-2.1c-0.6-0.8-1.2-1.2-2.1-1.7c-1.9-1.1-3.8-2.1-5.6-3.2c-0.7-0.4-1.4-1-2.2-1.2
			c-0.9-0.3-2-0.4-2.9-0.5C364.3,283.3,362.1,282.9,359.9,282.5C357.7,283,362.2,282.9,359.9,282.5z"/>
		<path d="M158.1,21.8c-0.3,1.5-0.6,3.1-0.9,4.6c-0.1,0.6-0.1,1.7-0.5,2.1c-0.5,0.6-1,1.1-1.5,1.6c-0.8,0.9-1.6,2-2.6,2.8
			c-0.4,0.3-1.5,0.4-2,0.5c-0.9,0.2-1.7,0.4-2.6,0.5c-0.7,0.1-1.5,0.2-2.3,0.3c-0.5,0-0.5,0.6-0.7,1c-0.3,0.8-0.3,1.1,0,1.9
			c0.3,0.9,0.6,1.8,0.9,2.6c0.4,1.3,0.7,2.5,1.3,3.7c0.5,0.9,0.7,2.4,1.9,2.7c1.2,0.3,2.2,0.5,3.2,1.1c0.3,0.1,1.3,0.5,1.2,0.9
			c-0.1,0.6-0.5,1.3-0.8,1.9c-0.3,0.8-2,1-2.8,1.2c-1.6,0.5-3.2,1-4.7,1.6c-1.4,0.5-2.8,1.1-4.2,1.7c-1.1,0.5-2.5,1.1-3.7,1.1
			c-0.6,0-1.5-0.8-1.5-1.4c0-1.3,0.4-1.9,1.3-2.7c0.6-0.6,1.5-2,1.3-2.8c-0.3-1.4-0.9-2.8-1.3-4.2c-0.9-3.1-2.1-6.1-3.2-9.2
			c-1.1-3-2.2-6.1-3.3-9.1c-0.4-1.2-0.9-2.5-1.4-3.7c-0.2-0.4-0.3-0.8-0.5-1.2c-0.3-0.4-1.2-0.4-1.6-0.5c-0.6-0.1-1.1-0.3-1.6-0.6
			c-0.3-0.2-1.7-0.8-1.7-1.1c0-0.3,0.3-0.7,0.4-1c0.3-0.6,0.6-1.2,0.9-1.8c0.1-0.2,0.8-0.3,1-0.3c0.6-0.1,1.2-0.3,1.7-0.5
			c1.6-0.5,3.2-1.1,4.7-1.7c3-1.1,6.1-2.1,9.2-3c0.9-0.3,2.3-1.1,3.3-1c1.5,0.2,3,0.5,4.6,0.5c1.3,0,1.7,0.4,2.6,1.2
			c0.9,0.9,1.9,1.8,2.9,2.7c1,0.9,1.2,2,1.6,3.2C157.2,18.9,157.7,20.3,158.1,21.8C157.7,24,157.4,19.6,158.1,21.8z M148.2,24.7
			c-0.4-1.6-0.7-3.3-1.1-4.9c-0.2-0.9-0.7-1-1.5-1.4c-1-0.5-2.1-0.9-3.1-1.4c-0.9-0.4-1.9-0.8-2.8-1.2c-0.4-0.2-0.9,0.8-1,1
			c-0.4,0.7-0.1,1.4-0.1,2.1c0.1,1.1,0.5,2.1,0.9,3.2c0.8,2,1.5,4.2,2.3,6.2c0.3,0.6,0.9,0.6,1.4,0.7c0.4,0.1,2.6,0.9,2.8,0.7
			c0.5-0.5,0.8-1.7,1-2.4C147.6,26.4,147.9,25.5,148.2,24.7C148,23.6,148,25.2,148.2,24.7z"/>
		<path d="M66.5,324.1c1.5-1.1,3-2.2,4.4-3.4c0.7-0.6,1.3-1.1,2-1.7c0.6-0.5,1.6-1.1,2-1.8c0.3-0.5,0.3-1.1,0.5-1.7
			c0.3-0.9,0.4-1.5,0.2-2.4c-0.1-0.5-0.3-1.2-0.3-1.7c0-0.7,1-1.7,1.4-2.3c1.8,2,3.7,4.1,5.5,6.2c1.8,2,3.4,4.3,5.3,6.2
			c0.8,0.8,1.1,1.2,1,2.3c0,0.4-0.1,0.9-0.1,1.3c-0.8,0-1.5,0-2.3-0.1c-1.3,0-2.6,0-3.9-0.1c-0.6,0-0.9-0.1-1.3,0.3
			c-0.6,0.5-1.1,1-1.7,1.5c-4.1,3.5-8.4,6.9-12.6,10.3c-2,1.6-3.9,3.4-5.7,5.2c-0.3,0.3-0.7,0.5-0.9,0.9c-0.3,0.4-0.2,1.3-0.2,1.7
			c-0.1,1.4-0.2,2.9-0.4,4.3c-0.9-0.3-2.3-0.4-3.2-1c-0.9-0.6-1.5-1.9-2.1-2.8c-1.8-2.4-3.7-4.8-5.7-7.2c-0.9-1.1-1.8-2.2-2.7-3.4
			c-0.8-1-2-2.1-2.3-3.4c-0.4-1.3-0.7-2.4-0.8-3.7c-0.1-1.3,0.5-2.4,1-3.5c0.6-1.3,1.1-2.7,1.7-4c0.5-1.1,0.7-2.3,1.9-2.8
			c1.4-0.7,2.8-1.2,4.2-1.8c1.3-0.5,2.5-1.1,4-1c1.2,0.1,2.5,0,3.6,0.5c0.7,0.3,1.4,0.6,2.2,1c0.5,0.2,1.2,0.4,1.5,0.9
			c0.7,0.9,1.2,2.1,1.7,3.2C64.9,321.5,65.6,322.8,66.5,324.1C69.3,322.1,65.3,322.3,66.5,324.1z M51.9,335.5
			c1.4-0.5,2.6-1.5,3.8-2.4c1.3-1.1,2.7-2.2,4-3.3c1.1-1,2.8-1.9,3.1-3.5c0.1-0.8,0-0.9-0.5-1.4c-0.5-0.5-1.2-1.6-2-1.7
			c-0.7-0.1-1.5-0.2-2.2-0.2c-0.9,0-1.5,0.5-2.2,0.9c-1.4,0.8-3.1,1.3-3.8,2.8c-0.8,1.6-1.6,3.2-2.4,4.8c-0.4,0.8-0.2,0.9,0.3,1.5
			C50.5,333.9,51.2,334.7,51.9,335.5C54.1,334.7,51.1,334.6,51.9,335.5z"/>
		<path d="M351.8,88.1c1.7-0.3,3.5-0.6,5.2-1c1.7-0.4,3.4-1,5.1-1.3c0.7-0.1,0.7-0.5,1-1.2c0.2-0.6,0.5-1.1,0.7-1.7
			c0.3-0.6-0.1-1.3-0.2-2c-0.1-0.6,0.1-0.8,0.4-1.3c0.6-0.8,1.1-0.2,2,0c1.4,0.3,2,1.9,2.8,3c1,1.4,2.3,2.6,3.5,3.9
			c0.6,0.6,1,0.9,1,1.8c0,0.8,0.1,1.7,0.1,2.5c-1.4,0-2.6,0-4-0.3c-1.4-0.3-2.8-0.8-4.2-0.6c-3,0.4-5.9,0.8-8.9,1.4
			c-1.3,0.3-2.5,0.6-3.8,0.6c-1.4,0.1-2.4,0.4-3.6,1.2c-2.3,1.6-4.6,3.2-6.7,5.1c-1,0.9-2.1,1.9-3.1,2.9c-0.4,0.3-0.3,1-0.4,1.4
			c0,0.7-0.1,1.4-0.2,2c-0.1,0.8-0.1,1.6-0.2,2.3c0,0.6-0.4,0.4-0.9,0.4c-0.4,0-0.8,0-1.2-0.1c-0.4-0.1-0.8-0.8-1.1-1.1
			c-1.9-2.2-3.7-4.5-5.6-6.7c-0.9-1-1.8-2-2.8-3c-0.9-0.9-0.7-2.6-0.7-3.7c1.5-0.1,3.1-0.2,4.6-0.3c1.3-0.1,2.7,0.1,3.8-0.8
			c1.1-1,2.3-2,3.5-2.9c1-0.8,2.1-1.6,2.9-2.6c0.9-1.1,1.2-2.3,1.7-3.6c0.5-1.6,1.1-3.1,1.6-4.7c1-3,2.1-6,3.2-9
			c0.5-1.2,0.8-2.2,0.7-3.6c-0.1-1.3-0.2-2.5,0.1-3.8c0-0.2,0.2-0.9,0.4-0.9c0.5,0,1-0.1,1.5-0.1c0.6,0,0.8,0.4,1.1,0.8
			c0.5,0.6,1.1,1.1,1.6,1.7c2.1,2.2,4.1,4.6,5.9,7.1c0.9,1.2,1.7,2.4,2.6,3.6c0.4,0.6,0,1.7-0.2,2.3c-0.3,0.9-1.8,0.3-2.5,0.5
			c-0.8,0.3-1.6,0.5-2.4,0.8c-0.6,0.2-1.1,0.2-1.3,0.8c-0.6,1.8-1.2,3.5-1.8,5.3C352.5,84.9,351.9,86.4,351.8,88.1
			C353.8,87.7,351.9,87,351.8,88.1z"/>
		<path d="M381.2,115.7c1.5,0.6,2.9,1.1,4.4,1.7c0.7,0.3,1.5,0.6,2.2,0.8c0.5,0.2,1.2,0.3,1.6,0.6c0.5,0.3,0.7,1.1,0.9,1.6
			c0.3,0.7,0.6,1.4,0.9,2.1c0.7,1.6,1.4,3.1,2.1,4.7c0.5,1.2,1.1,2.4,1.7,3.5c0.6,1.1-0.6,2-1.1,3c-0.6,1.1-2,1.3-3.2,1.7
			c-1,0.4-2.7,1.5-3.8,1.1c-0.4-0.1-0.7-0.2-1.1-0.4c-0.5-0.2-0.2-0.9-0.2-1.3c0-0.6,0-0.9,0.5-1.3c0.5-0.5,1-1,1.4-1.5
			c0.7-0.8,1.5-1.4,1.6-2.6c0.1-1.5,0.2-3.1,0.4-4.6c0.1-0.7-2-1.6-2.6-2c-0.5-0.3-1-0.2-1.6-0.1c-0.6,0.1-1.4,0-2,0.3
			c-0.5,0.2-1,1.1-1.3,1.5c-0.3,0.3-0.7,0.6-0.9,1c-0.3,0.5-0.1,1.5-0.2,2.1c-0.1,0.9-0.1,1.8-0.2,2.7c-0.2,2.6-0.2,5.3-0.7,7.9
			c-0.1,0.6-0.6,1-1,1.4c-0.5,0.6-1,1.1-1.6,1.7c-1,1.1-2.1,2.2-3.1,3.3c-0.8,0.9-1.9,1-3,1.3c-0.7,0.2-1.5,0.4-2.2,0.7
			c-0.6,0.2-1.4,0.6-2.1,0.6c-1.3-0.1-2.7-0.3-4-0.6c-1.3-0.4-2.5-1.2-3.7-1.8c-1.2-0.6-2-1.1-2.8-2.3c-0.8-1.2-1.8-2.4-2.7-3.6
			c-0.4-0.5-0.3-1.2-0.4-1.7c-0.1-0.8-0.2-1.6-0.3-2.4c-0.2-1.6-0.5-3.1-0.7-4.7c-0.1-0.4-0.4-1.3-0.2-1.7c0.2-0.3,0.5-0.6,0.8-0.9
			c0.7-0.7,1.2-1.5,2.1-1.9c1.3-0.6,2.6-1.2,3.8-1.7c1.1-0.5,2.1-0.1,3.3,0.1c-0.2,0.6-0.4,1.2-0.6,1.8c-0.2,0.6-0.3,1.3-0.7,1.7
			c-0.9,0.9-1.8,1.8-2.7,2.7c-0.6,0.7-1.7,1.2-1.5,2.3c0.2,1.1,0.3,2.3,0.3,3.5c0.1,1.4,0.7,2,1.7,2.9c0.5,0.6,1.3,1.8,2.1,1.6
			c1.9-0.5,3.7-1.3,5.6-1.8c0.4-0.1,0.9-0.2,1.3-0.4c0.3-0.2,0.4-1.5,0.5-1.9c0.3-1.3,0.6-2.6,0.7-4c0.4-2.7,0.4-5.9,1.5-8.4
			c0.6-1.2,1.1-2.5,1.6-3.8c0.4-0.9,1.2-1.3,2-1.8c0.9-0.5,1.6-1.4,2.6-1.8C378.2,116.2,379.8,116,381.2,115.7
			C383.5,116.6,379.8,116,381.2,115.7z"/>
		<path d="M368.6,171c0.5,1.3,1.1,2.6,1.5,4c0.4,1.4,1.7,1.7,3,2.2c1.1,0.5,2.3,0.9,3.4,1.4c1.3,0.5,2.3,1.9,3.3,2.8
			c0.4,0.4,0.2,0.5-0.1,0.9c-0.2,0.3-0.4,0.6-0.8,0.7c-1.5,0.3-3,0.4-4.4,0.7c-1.3,0.2-2,0.2-3.1-0.6c-1.2-1-2.5-1.9-3.6-3
			c-0.9-0.9-1.1-2.8-1.5-4c-0.5-1.6-1-3.2-1.5-4.7c-0.2-0.5-0.5-1-0.4-1.5c0.2-0.8,0.3-1.6,0.5-2.3c0.3-1.6,0.7-3.3,1-4.9
			c0.3-1.4,0.4-3.1,1-4.4c0.2-0.6,0.7-1,1.1-1.4c0.5-0.6,1-1.2,1.6-1.8c1-1,2.2-2,3.3-2.9c1-0.9,2.3-1.4,3.6-1.9
			c1.2-0.6,2.5-1,3.8-1.4c1.5-0.5,2.9-0.5,4.4-0.5c1.5,0,3-0.2,4.5,0.1c1.6,0.4,3.1,1,4.6,1.4c0.7,0.2,1.4,0.3,2.1,0.7
			c0.6,0.3,1,0.8,1.6,1.1c1.2,0.9,2.3,1.5,3.3,2.7c1,1.1,2.1,2.2,2.7,3.5c0.7,1.5,1.5,3,2.3,4.5c0.6,1.2,0.7,2.7,1,4
			c0.3,1.4,0.4,2.9,0.6,4.3c0.2,1.2-0.6,2.8-1,4c-0.4,1.2-1.3,1.4-2.4,1.8c-0.9,0.3-1.6,0.9-2.5,1.1c-0.6,0.2-2.9,0.2-2.9-0.6
			c0-1-0.4-1.9,0.4-2.8c0.8-0.9,1.5-1.7,1.9-2.9c0.4-1,0.7-1.9,1.1-2.9c0.2-0.5,0.4-1,0.5-1.5c0.1-0.3,0.5-1,0.4-1.3
			c-0.1-0.5-0.6-1-0.8-1.5c-0.4-1-0.9-1.3-1.9-1.7c-2-0.9-4-1.8-6-2.7c-0.8-0.4-1.7-1-2.6-1.2c-1-0.2-2.2,0.1-3.2,0.1
			c-0.9,0-1.9,0-2.8,0.1c-1.1,0.2-2.1,0.6-3.2,0.9c-1.9,0.6-4.1,0.9-5.8,2.1c-1.7,1.2-3.4,2.4-5.1,3.5c-0.8,0.5-1.1,1.9-1.5,2.8
			C369.5,168.8,369.1,169.9,368.6,171C369,172.1,369.4,169.2,368.6,171z"/>
		<path d="M331.5,329.7c-1.5-0.4-3.5-0.6-4.6-1.7c-1-1-1.9-2.1-3-3.1c-0.5-0.5-0.2-1.3-0.2-1.9c0-0.8-0.1-2,0.3-2.8
			c0.3-0.6,0.8-1.1,1.3-1.5c0.7-0.7,1.3-1.5,1.9-2.2c2.5-2.9,4.9-5.7,7.3-8.6c1.2-1.4,2.3-2.9,3.4-4.4c0.5-0.7,0.7-0.7,1.5-0.8
			c0.7,0,1.5-0.1,2.2-0.2c0.1,1.5,0.3,2.6,0.9,4c0.5,1.2,0.8,2.8,1.6,3.8c0.8,1,2,1.7,2.9,2.6c1.3,1.1,2.6,2.1,3.8,3.2
			c2.5,2.1,5,4.1,7.5,6.1c1.1,0.9,2.3,1.8,3.4,2.8c0.4,0.4,0.8,0.8,1.3,1c0.6,0.2,1.4,0,2,0c1.5,0,3,0,4.5,0.2
			c0.6,0.1,0.6,0.2,0.6,0.8c0,0.5,0,0.9,0,1.4c0,0.6-0.8,1.1-1.1,1.5c-0.5,0.6-1,1.2-1.5,1.8c-1.1,1.2-2.1,2.5-3.2,3.7
			c-1,1.2-1.9,2.3-2.8,3.5c-0.4,0.5-0.9,1-1.4,1.5c-0.5,0.5-1.1,0.2-1.7,0.1c-0.6,0-0.8-0.1-0.8-0.7c0-0.7-0.2-1.3-0.4-2
			c-0.4-1.4-0.7-3-1.3-4.3c-0.3-0.7-1-1.2-1.6-1.7c-0.7-0.7-1.5-1.3-2.2-2c-1.5-1.4-3.2-2.6-4.7-3.9c-3-2.5-5.9-5.2-9.1-7.5
			c-0.8-0.6-1.6-1.1-2.3-1.6c-0.6-0.4-1.1,0-1.7,0.2c-0.7,0.2-1.5,0.4-2.2,0.6c-0.8,0.2-0.8,0.2-1,1c-0.2,1-0.4,2-0.7,3
			c-0.2,0.8-0.6,1.7-0.3,2.5C330.8,325.8,331,327.8,331.5,329.7C330.3,329.4,331,327.8,331.5,329.7z"/>
	</g>
	<g id="_x3C_tree-straight_x3E__4_">
		<path fill="#872321" d="M239,118.3l-0.2-1.8l0.8-1l1.1,0.6l0.5,0.9l3.5,1.5l3-0.4l0.8-0.8l-0.5-1.5l-2.2,0.5l0.4-3.8l3.5-0.3
			l2.2,5.3l-2.4,1.7l3.6,2.5l0.1,0.5l4.5,5.7l0,2.7l-0.3,0.3l-15.5,0.6l-1.8,1.7l7.3,1.6l3.1-1.6l6.8,2.3l0.3,0.5l4.8,1.7l0.6,1.5
			l3.1-0.1l5.5,7.3l4.7-1.3l1.7,1.4l0.2,1.4l3.6,3.8l-0.1,1.8l-1.3,2.3l1.7,1.7l-0.3,0.7l-3.5,1.1l-5.4-1.8l-0.6,2.4l-0.7,0.1
			l-0.6-2.6l-0.5,1.1l0,2l-0.8,1.1l-3.1-1.1l-1.5,1.6l0.2,0.4l0,2.1l-9.4-0.6l-0.4-1.6l-0.3,0.6l0.2,0.8l-0.4,0.7l-29.1-11l1.5-2.7
			l-1.2-0.1l-15,10.6L211,162l17.6,4.3l5.1,6.7l-5.7,5.2l-19.7,2.8l-1.4-0.5l-1.8,0.3l-0.7,3.4l0.7,0.6l15.8-1.4l0.9,4.2l2.7,1.8
			l0.8-0.6l-0.8-0.9l5.7-7.8l7.5,0.4l0.3-0.8l-0.4-2.5l5.1-5.2l5-0.7l1.2-1.3l1.6,1.4l2.6-2.5l4.2,1.9l2.2-2.5l16.6,0.5l3.6,4
			l10.6,1.6l3.2,4.9l4.2,1.7l0.2,1.4l-3,2l2.3,3.8l5.3,0.6l5.9,9.6l-7.9,9.7l-4.1,1.4l-0.9,1.1l1.8,4.4l4.1,2.4l1.4-0.4l0.8-1.1
			l1.8-0.2l7.6,4.4l0.9,2.3l1.7,0.9l1.4-1.5l0.5,0.4l0.5,3.2l2.1,2l2.2,0.5l-0.3,3l-3.2,3.6l-12.7-0.3l-0.9-0.8l-3.3,2.1l2.5,4.2
			l-3.1,3.9l-5.1,0.2l-0.5,1.2l3,2.5l2-0.9l1.4-4.2l1.7,2.1l4.7-1.9l9.9,2.9l0.3,1l-4.9,2l-1.8-0.4l-1.4-1.1l-1.2,1.4l-19.4,3.5
			l-6.6-7.2l-1.6,1.9l-0.9-0.8l0.8-1.8l-9.5,1.5l-0.2,0.8l-20,20.9l-1,3.1l-19.8,6.7l-7.5,8.7l1.4,0.2l1.1,0.9l-21.6,25.8l2.7,15
			l-1,2.3l0.8,0.5l1.1-1.4l4.1,5.6l-2.1,3.4l-5.4,0l-0.2,0.4l-4.3,0.4l-1.3-3.8l1.1-1.5l-3.2,1.3l-0.4,1.4l0.7,1.9l-0.1,1.2
			l-1.3-0.2l-5.6-6.1l-0.5,0.1l-1.6-1.3l0.5-12.4l-3,13.8l5.9,6l-0.7,1l-6.8-2l-0.8-1.5l-3.8,0l-1.4-2.4l-0.1-1.1l-3.5,3.3l-3.5-1.1
			l-16.3,4l5.3-7.8l1.1,0.5l0.8,2.3l0.9,0.7l-0.1-0.9l7.2-7.6l0.3-3l4.3-3.3l1.4,0.1l0.7-2.7l-1.5-9.1l0.9-1.2l-1.9-6.2l3.1-2.4
			l-0.2-8.7l-4.5-1.1l-0.7-0.8l0.8-0.8l4.9-0.1l-0.9-1.2l-5.2-1.9l0.7-1.4l4.3,0.3l0.5-1.9l-19.5-3.7l-3.3,1.2l-1.6-1.9l-13.4,0.3
			l-5.3-4.3l-2.9-0.5l-4.4-6.2l9.2-12.9l-0.6-1.6l2.2-2.2l-6.1,0.2l0.1-3.3l5.1-0.6l-5.2-5.4l8-7.8l0.3-2.1l-5.8-1.9l-13.3,7.1
			l-1.8-0.8l-1.5-3.3l-6.1-1l-2.4,3.2l-1.2,0.3l-0.7-3.6l0.2-0.6l-1.8-5.1l0.1-1.2l2.7-3.8l-0.8-4.7l3-3.4l5.8-0.3l1.7-1.1l2,0.4
			l0.6,0.8l2.9-2.8l2.2,2.2l4.5-0.4l0.5,0.6l8.7,3.8l1.1,2.9l-4.4,2l-5.2-1.6l-0.1,0.7l2.8,1.5l2.3,3.2l5.5,1.9l3.8-0.7l2.6-4.4
			l-5.2-0.2l0.3-2l3-1.6l1.8-3.1l-0.8-0.5l-1.1-5.7l-4.5-2.6l-4.9,1l-0.7,0.7l-1.5,0.2l-0.2-1.5l1.3-1.7l-9.2,2.5l-2.7-2.1l-1.4,0.2
			l-3.1-6.6l1.5-2.3l2.3-0.5l1,0.5l0.8-0.1l-1.3-2.2l10.4-4.7l-0.4-0.7l-7,1l-2.1-1l1.4-1.3l-1.8,0.2l0.2,1.1l-0.9,1.6l-2.8,0.4
			l0-2.1l1.1-0.9l0.4-1.5l-2-0.5l-10.2,9.2l-1.6,0.2l-0.8-1.8l1.1-3.3l-1.6-0.7l-1.4-1.9l1.8-1.9l2.4,0.6l0.3-3.7l-0.8-0.9l-1.2-4
			l-9.9,6.1l-2.2-0.5l-1.5-1.9l-1.4-7.5l1.1-1.8l-1.4-0.1l-2.2-2.3l1.3-2.2l2-0.5l-0.4,1.9l1.2,0.4l1.4-0.2l-0.2-3.8l1.3-2.5l1,0.9
			l0.8,0.2l0.9-1.1l0-1.1l-1.5-1.9l-1.1,1.3l-1.6,0.7l-1.2-1.7l7.1-6.1l-0.3-3.9l2-2.5l5.3,0.9l0.9-1.8l1.5-1.1L123,145l2-1.2
			l-0.6-0.9l-8-2.4l1.8-5.2l8.8-0.8l1.3-3.2l7-5.7l-2.7,0.7l-1.6,2.3l-5.4-1.9l-3.5,1.4l0-12.1l2,3l1.4-2.1l0.8-7.2l2.4-1.1l6.8,6.8
			l1.5-1.9l2-0.3l1.4-1l-0.4-2l-3.6,1.8l-0.6-1l4-4l4,0.2l1.1-1.2l-0.1-1.1l1-0.8l2.1,2.4l11.2-6.1l0,2.2l5.2,0.1l0.9,1l4-0.7
			l2.7-2.1l-5.8,2.1l-0.5-2.1l6.4-7.7l-2.5-2.2l-1.4-0.2l-0.1-1.6l1.5-0.9l9.8,3.8l4.2-0.7l4-4.2l19.7,4.1l1.1-0.4l2.4,0.5l5.6,6.5
			l1.4,0.6l0.6,3.2l1.2-0.1l7,5.8l-0.4,3.7l-15,4.9l0.6,3l6.8,1.6l0.5-0.8l-1-2.8l7.3-1.1l1.7-2.2l0.3-3.7l2.4-0.8l7.6,6.4l0.2,1.7
			L239,118.3L239,118.3z M234.2,189.7l-4-3.7l-2.3,1.6l0.5,1.2l16.2,3l1.2-1.4l-2.4-1.6l-0.1,0.4L234.2,189.7L234.2,189.7z
			 M145.7,150.4l-0.9-1.2l-4.9-2.3l-2.3,0.2l-6.1-4.1l-1.9,2.4l0.8,1.9l3.1-2.5l2,1.7l-2.1,2.9L145.7,150.4l-6.6,6l-0.9,0.1
			l-0.6,0.6l1,2l4.4-0.8l2.6,4.1l2.9,0.7L145.7,150.4L145.7,150.4z M206.5,289.4l17.7-16.9l1.9-6.8l-5.7-6.9l-13.2,7.9l0.1,1.7
			l-4.1,1.2l-0.8,1.1l-2-2.1l-0.6,1.3l0.2,16.8l0.7,1.3L206.5,289.4L206.5,289.4z M155.1,116.9l11.6,0.7l1.2,1.5l0,1.8l-2.8,2.8
			l-2.1-0.5l-1.5,0.6l2.2,4.9l0.8-0.2l-0.1-2.2l1.8-0.2l0.7,1.4l-0.2,2.8l-12.1,4.2l-2.1-8.6l-3,1.6l-4.1-1.4l-9.6,3.1l0.8,1.2
			l1.5,0.2l5.4-2.4l6.5,1.3l0.1,4.5l3.7,1.2l1.2,1.6l18.3-1.9l1.2,1.3l4.5,0.5l3.3,4.1l1.1,0.5l0.4-0.3l-0.8-0.9l-0.5-0.2l-2.6-3.5
			l1.7-1.5l4.5,0.3l0.7-0.5l-2.7-0.7l-0.9-1.5l1.2-1.2l4.3,2l6.1-1.6l0.1-1.2l-1-1.3l-1.6-0.5l-3.6,3.5l-2.5-1.8l2.1-5.2l-1.1-2.7
			l-6.5-2.5l-2.9,0.8l-3.3-6.6l0,2.4l-0.4,0.9l-2.3-1.9L155.1,116.9L155.1,116.9z M197.1,93.7l2.2,2.5l-1.3,1.9l-8.7,4.1l-1.7,2.7
			l-0.1,6l-7.6,4.7l11.4,1.1l-2.2-1.5l0-1.6l3.4,0.1l1.6,1l-0.9,1.7l3.1,1.9l8.6-1.3l2.6-2.1l-3.6-0.9l-1.2-1.2l0.7-1.2l4.3-1.6
			l1.5-2.2l-1.8-1.9l-2,0.8l-2.2,3.6l-1.9-0.2l-0.5-1.1l-10.4-2.3l-0.2-1.6l3-3.9l0.7,1.1l1.2,0.6l1.4-0.5l1.8,3.3l3.3-2.5l-2.8-2.7
			l2.3-1.8l8.6-0.1l-1.9-1.8l2.6-1.3l1.3,1.2l0.7,4.7l0.9-1.7l0.1-2.8l-0.9-1.1L197.1,93.7L197.1,93.7z M190,150.4l-2,3.3l1.4,0.4
			l2.8,4.5l1.4-1l3.4-0.1l3.4,3.2l13.6-9.1l3.7-8.6l-0.5-2.8l-0.6-0.5l-1.6,3.1L209,145l-1.2-3.6l0.9-1.6l-6.2,4.9l-0.5,2l0.6,1.6
			L190,150.4L190,150.4z M181.4,94.5l-5.4,0.8l4.9,5.6l-0.7,2l-7.8,5l-3.6-0.6l-2.5-2.3l-17.6,10.8l-1.9-1.1l-2.1,0.6l-2.1,3.8
			l1.3,0.6l0.9-2.2l5.1,2.4l3-5.2l2.2,0l7.1-4.5l8.1,0l0.7,0.8l3.2-1l3.2,1.2l1.4-3.1l0.5-0.3l5.8-0.2l0.8-1.4l-2.9-0.4l1.4-7.2
			l6.7-2.9l-5.1-2.3l-4.6,2.7L181.4,94.5L181.4,94.5z M241.2,264l2.6-0.3l0.8-0.8l-6.6-7.2l-3.4-1.3l-2.8-3L231,255l-2.3,2.2
			l-0.1,6.5l3.7,2.6L241.2,264L241.2,264z M165.9,207l8.1,22.3l0.9-2.3l-1.8-18.7l-1.1-1.5L165.9,207L165.9,207z M227,193.6l-18.7-5
			l-4.9,1.9l-0.1,1.6l4.8,0l3.7,5.7l0.5-1.2l3.1-2.1l2.1,1.3L227,193.6L227,193.6z M152.9,160.2l3.9,4l3.4,1l1.6-0.4l1.3-7l-8-4.4
			L152.9,160.2L152.9,160.2z M165.7,230.7l-2.1-5.7l-4.1-3.5l-10,1.8l-1.7,3.7l1.9,0.7l-1.5,2.8l1.4-0.2l4.6-3.2l3.1,0.5l0.6-0.8
			l2.4,0L165.7,230.7L165.7,230.7z M145.2,187.4l1.2,0.2l1.5,4.2l1.2,0.1l0.9-3.5l-2.7-5.6l-2.1-1.2l-2.5-3.9l-3.6,2.2l-0.7,2.8
			l3.2,5.1L145.2,187.4L145.2,187.4z M255.3,254.4l-1.1-2.9l-5.8-2.6l-1.5,3l-2.9-0.5l-1.7,1.1l-0.2,1.4l6.3,5l1.7,0.1l4.3-3.1
			L255.3,254.4L255.3,254.4z M165,168.8l3.9-1.4l0.9-1.1l0.2-1.3l10.3-3.3l-1.3-2l-4.5-0.1l-0.6-0.9l-4.7,0.9l-3.8,3.8L165,168.8
			L165,168.8z M162.5,192.9l0.1,1.1l0.7,0.3l7.5-2.9l2.7,0.9l1.1-0.5l0.6-2.7l-1.5-1.6l-6.5,0.3l-2.6-3.8l-1.2,1.1L162.5,192.9
			L162.5,192.9z M197.3,211.4l-2.3,13.2l1.2,0.8l5.7-3.2l2.8-4.5l-0.7-1l-1.6,1.5l-5.4-5.7L197.3,211.4L197.3,211.4z M181,186.4
			l-0.5,5.2l1.8,1.1l0.7-3.9l9.1-0.4l-0.7,2.6l3.5-5.7l-0.8-1l-3.1-0.6l-0.1-2.3l1.4-0.6l-5.4,4.5L181,186.4L181,186.4z
			 M159.9,211.1l-0.5-2l-7.9-2.7l-0.2-1.2l4.1-3.4l0.1-1.4l-6.5-0.2l-1.2,2.4l9.8,9.7l2,0.6L159.9,211.1L159.9,211.1z M268.6,230.6
			l-1.5,0.9l1,1.2l-2.1,8.5l-7.9,6.3l1.3,0.8l12-11.1l0.2-5.5l-0.9-0.9L268.6,230.6L268.6,230.6z M153.7,147.6l1.6-2.3l7.3-0.1
			l-0.9-5.6l-8.3,4.3l-1.8-1.8l-0.6,1.4l0.8,5.7l1.2,0.6L153.7,147.6L153.7,147.6z M182.3,290.6l2,18.3l0.6,0.5l0.8-3l2.9,9.5
			l-2-11.7l-2-1.2l1-14.6l-0.5,1.2l0,0.8l-1.7,0.9L182.3,290.6L182.3,290.6z M187,211.9l-0.9-2.3l-3.8,0.2l-0.1,0.2l0.8,12.6
			l0.9-0.1L187,211.9L187,211.9z M195,304.2l-0.2,1.8l-1.9,0.2l-2.6-15.8l-0.5,0l1.8,21.8l0.5,0l1.2-4.5l1.7-0.5l1.9,3.5L195,304.2
			L195,304.2z M210.2,127.2l0.1,1.7l2.8,3.9l4.1,0.2l2.1-1.2l0.7-4l-0.8-1.4l-7.1,4.1L210.2,127.2L210.2,127.2z M127.7,150.5
			l-1.1-2.3l-8.7-2.2l-0.4,0.6l2,4.4l-1.9,4.2l2.2,1.1l0.8-0.7l-0.6-1.5l2.1-3.1L127.7,150.5L127.7,150.5z M209.1,227.9l2.2,1.5
			l2.6-0.8l1.7,0.8l0.5,0.9l0.7-0.8l2.1-0.3l1,0.8l3.7,0.9l0.3-0.3l-5.9-3L209.1,227.9L209.1,227.9z M224.4,148.7l-1.1-2.4l0.5-2
			l5.1-4.5l-0.4-0.8l-2.4-0.8l-2.2,0.9l-2.6,9.9L224.4,148.7L224.4,148.7z M204.1,296.3l-6.1,3.1l0.7,3.7l1.3,0.5l5-4.8L204.1,296.3
			L204.1,296.3z M128.5,179.4l5.4,4.2l1.1-0.6l0.5-3.7l-1.1-1.4L128.5,179.4L128.5,179.4z M118.9,228.8l3.9-3.1l6.5,0.8l2.3-1.8
			l0-0.9l-11.1,1.6L118.9,228.8L118.9,228.8z M314.2,226.9l-3.3-3.4l-3.1,0.6l4.1,4.8l1.3-0.1L314.2,226.9L314.2,226.9z
			 M275.8,230.1l-0.6,6l2.4,0l1.4-1.5l-0.3-3.3l-1,1.8L275.8,230.1L275.8,230.1z M169.5,139.5l-2.4,0.6l0.5,1.7l-1.9,1.7l0.7,0.9
			l3.4-0.9l1.3-1.4l0-0.8l-1.5-1.7L169.5,139.5L169.5,139.5z M182.3,334.6l1-8.4l-1.3-3.1l-3-0.7l0,1l2.7,1.2l0,7.6l-1.9,1.2
			L182.3,334.6L182.3,334.6z M231.3,230.5l-0.9-1.2l-2.1,0.4l-0.5,0.5l2.4,5.6L231.3,230.5L231.3,230.5z M234.8,217.8l-6-1.3
			l-1.7,1.4l-0.8,2.2L234.8,217.8L234.8,217.8z M151.9,174.1l-0.9-1.9l-5.2,5.2l0.4,0.7l5.7-2.6L151.9,174.1L151.9,174.1z
			 M244.5,235.8l3.1-0.7l1-1.8l-1.2-1.1l-5.3,2l0.8,1.4L244.5,235.8L244.5,235.8z M181.7,148.2l-1.5,3.8l1.5,3.7L181.7,148.2
			L181.7,148.2z M222.3,133.4l3.4-6.3l-0.3-0.9l-2.5,2.6L222.3,133.4L222.3,133.4z M207.4,129.5l0.5-0.2l-1.1-3.9l-0.8,0.3l-1.4,1.8
			l-3.6,0.1l-0.5-0.7l-0.4,0.5l0.6,0.8L207.4,129.5L207.4,129.5z M102.6,156.1l7.6-1.9l0.2-1l-5.1,0L102.6,156.1L102.6,156.1z
			 M189.6,125.8l6.5-0.5l-0.3-1.4l-3.6-1.2L189.6,125.8L189.6,125.8z M195.2,326.8l1.7,2.2l1.1-1.3l0.4-2.1l-1.5-0.9L195.2,326.8
			L195.2,326.8z M156.3,126.4l0.7,1.3l3,0.5l0.4-0.7l-2.4-2.6L156.3,126.4L156.3,126.4z M132.7,167.3l-1.2,0.3l0.9,0.5l0.6,1.2
			l-0.3,1.2l0.7,1.4l1.5-2.7l0.1-2.2L132.7,167.3L132.7,167.3z M222.3,107l-1.6,1.3l-0.9-1.8l0.1-1.3l-1-0.2l0,5l3.3-1.6L222.3,107
			L222.3,107z M185.3,162.4l3.2-1.5l0.7-1.6l-4,0.1l-0.4,2.8L185.3,162.4L185.3,162.4z M145.1,203.4l-1.8-3l-3.4,0.5L145.1,203.4
			L145.1,203.4z M201.3,291l2.4,2.2L203,294l-1,0.2l-0.6,0.7l0.4,0.7l3.3-2.7l0.1-0.7L201.3,291L201.3,291z M251.6,175.8l2.6,2.2
			l1.4-0.9l-0.5-2.1L251.6,175.8L251.6,175.8z M148.1,243.7l0.4,1.1l1.5-2.1l-2.4-1.9l-0.9,0.1L148.1,243.7L148.1,243.7z
			 M158.3,184.9l-0.7-0.8l-2,1.3l2,2.3L158.3,184.9L158.3,184.9z M258.9,182.1l-1.4-2.1l-1.2,2.5l2.4,0.7L258.9,182.1L258.9,182.1z"
			/>
		<polygon fill="#872321" points="238.4,109.2 236.8,110.7 236,108.6 233.8,110 232,109.3 228.4,105 228.3,103 236.9,102.1 
			246.4,108.8 247,110.9 246.1,111.8 238.4,109.2 		"/>
		<polygon fill="#872321" points="318.6,238.4 315.8,241.6 313.9,240.5 313.5,239.9 308.4,241.4 307.6,241.1 304.9,238.2 
			306.8,236.2 314.4,237 318.5,235.3 324.3,237.9 323.4,239.5 322,240.3 318.6,238.4 		"/>
		<polygon fill="#872321" points="143.1,102.5 139.1,102.9 131.7,108.5 131,106.8 137.5,97.7 139.3,97.3 144.7,101.7 143.1,102.5 		
			"/>
		<polygon fill="#872321" points="150.9,90 154.1,89 155.3,92.2 154.4,92.9 153.9,92.7 153,93.4 153.1,93.8 159.4,95 158.4,99.3 
			152.4,97.6 151.8,94.7 149.4,91.5 150.9,90 		"/>
		<polygon fill="#872321" points="166.4,90.9 166.6,92.1 165.9,92.9 163.3,92.1 160.1,93.3 157.1,91.4 156.1,89.7 164.5,88.6 
			166.4,90.9 		"/>
		<polygon fill="#872321" points="151.4,96.8 145,97.8 143.9,96.5 147.1,93.2 150.6,95.4 151.4,96.8 		"/>
		<polygon fill="#872321" points="244.1,112.1 244.6,115.5 243.9,117.1 242.4,116.3 241.9,111.9 243.1,110.9 244.1,112.1 		"/>
		<polygon fill="#872321" points="186.7,125.2 169.4,134.6 169.1,133.3 171.3,128.2 183.8,124.5 184.9,123.1 186.4,124.5 
			186.7,125.2 		"/>
		<polygon fill="#872321" points="199.5,115.5 197.8,116 195.8,115.3 196.7,113.6 200,113.4 201.2,114.7 199.5,115.5 		"/>
	</g>
</g>
<g>
</g>
<g>
</g>
<g>
</g>
<g>
</g>
<g>
</g>
<g>
</g>
<g>
</g>
<g>
</g>
<g>
</g>
<g>
</g>
<g>
</g>
<g>
</g>
<g>
</g>
<g>
</g>
<g>
</g>
</svg>
