<?xml version="1.0" encoding="utf-8"?>
<!-- Generator: Adobe Illustrator 17.0.0, SVG Export Plug-In . SVG Version: 6.00 Build 0)  -->
<!DOCTYPE svg PUBLIC "-//W3C//DTD SVG 1.1//EN" "http://www.w3.org/Graphics/SVG/1.1/DTD/svg11.dtd">
<svg version="1.1" id="Layer_1" xmlns="http://www.w3.org/2000/svg" xmlns:xlink="http://www.w3.org/1999/xlink" x="0px" y="0px"
	 width="410.1px" height="349.2px" viewBox="0 0 410.1 349.2" enable-background="new 0 0 410.1 349.2" xml:space="preserve">
<g id="tree-text-bezier-col.svg">
	<g id="_x3C_parkwood-primary-school_x3E__2_">
		<path d="M282.6,56.6c0.6-1.3,1.4-2.7,1.7-4.2c0.1-0.6,0.2-1.3,0.3-1.9c0.1-0.7,0.5-1.5,0.3-2.1c-0.1-0.3-0.2-1.1-0.5-1.3
			c-0.4-0.3-1-0.5-1.4-0.7c-1.4-0.7-2.9-1.4-4.3-2.1c-0.5-0.3-1.1-0.6-1.6-0.7c-0.7-0.2-1.1,0.3-1.5,0.8c-0.5,0.5-1,0.9-1.5,1.4
			c-0.6,0.5-0.9,1.4-1.3,2.1c-0.3,0.5-0.1,1.1-0.1,1.6c0.1,0.6,0,1.4,0.4,1.9c0.3,0.4,0.7,0.7,1,1.1c0.4,0.5,0.3,1.2,0.2,1.8
			c0,0.3,0.1,1-0.2,1.1c-0.3,0.1-0.7,0.1-1,0.2c-1.2,0.2-1.6,0.1-2.6-0.5c-1.4-0.8-2.8-1.5-4.2-2.3c-1.4-0.8-2.9-1.8-4.4-2.3
			c-1.3-0.5-2.7-0.7-4-1.1c-1.6-0.5-3.1-1-4.7-1.4c-1.4-0.4-2.9-0.7-4.4-1c-1.1-0.2-2.4-0.2-3.3-1.1c-0.7-0.7-1-1-0.5-1.8
			c0.9-1.2,1.9-1.7,3.2-2.3c0.4-0.2,1-0.4,1.4-0.6c0.4-0.3,0.5-1.2,0.6-1.7c0.4-1.6,0.8-3.2,1.1-4.8c0.7-3.2,1.4-6.3,1.9-9.5
			c0.1-0.5,0.9-3.3,0.4-3.5c-0.5-0.2-2.2,3-2.5,3.5c-1.7,2.7-3.4,5.5-5.1,8.3c-0.8,1.3-1.6,2.6-2.5,3.9c-0.9,1.3-1.9,2.6-2.5,4.1
			c-0.2,0.6-0.4,0.9-1,1.1c-0.6,0.3-1.3,0.5-1.9,0.9c-0.7,0.4-0.8,0.1-1.3-0.5c-0.4-0.6-0.8-1-0.9-1.7c-0.2-2.8-0.4-5.7-0.7-8.5
			c-0.3-2.7-0.6-5.4-0.9-8.1c-0.3-2.7-0.6-5.5-1.3-8.2c-1.8,4.8-2.9,9.9-4.2,14.9c-0.3,1.2-0.5,2.3-0.7,3.5c0,0.4-0.4,1.8-0.1,2.1
			c0.4,0.5,0.8,1,1.3,1.4c0.2,0.2,0.6,0.2,0.9,0.3c0.4,0.1,0.5,0.8,0.7,1.2c0.3,0.6,0.6,1.3,0.9,1.9c-0.6,0.2-1.3,0.4-1.9,0.7
			c-0.6,0.3-0.9,0.2-1.5,0c-1.5-0.4-3-0.9-4.5-1.2c-1.3-0.3-2.8-0.7-4.2-0.7c-1.6,0.1-3.2,0.6-4.9,0.7c-3.2,0.2-6.5-0.1-9.7,0
			c-1.4,0-2.7-0.3-4.1-0.5c-1.4-0.2-3.2-0.2-4.6,0c-1.5,0.2-3,0.5-4.4,0.7c-0.6,0.1-0.8,0.2-1.3-0.2c-0.4-0.3-0.8-0.6-1.2-0.9
			c-1.2-0.7-1.7-1.5-2.4-2.7c-0.8-1.5-1.7-2.9-2.5-4.4c-0.7-1.3-1.5-2.6-2.3-3.9c-0.8-1.2-1.4-2.6-2.4-3.7c-0.4-0.5-1.2-1.4-1.9-1.5
			c-0.4-0.1-0.2,3.3-0.1,3.7c0.2,1.4,0.5,2.8,0.8,4.2c0.2,1,0,2.4,0.6,3.3c0.8,1.2,2.2,2.2,3.2,3.2c0.6,0.6,1.6,1.1,2,1.7
			c0.2,0.4-1,1.4-1.2,1.7c-0.4,0.6-0.7,0.6-1.3,0.7c-0.9,0.2-1.8,0.3-2.7,0.5c-3.2,0.6-6.3,1.1-9.5,1.4c-0.6,0.1-1.2,0.2-1.8,0.3
			c-0.5,0-1-0.4-1.4-0.7c-0.2-0.1-0.9-0.4-0.9-0.7c0.1-0.7,0.4-1.4,0.6-2c0.3-0.9,1.4-1,2-1.5c1.2-0.9,0.6-2.7,0.5-4
			c-0.7-6.5-1.7-13-2.5-19.5c-0.2-1.2-0.4-2.5-0.6-3.7c-0.2-1.1-0.3-2.5-0.7-3.5c-0.3-0.7-1.2-0.8-1.8-1.1c-1-0.6-1.9-2-2.7-2.8
			c1.1-0.7,2-1.6,3.3-1.8c1.4-0.2,3-0.2,4.4-0.3c3.1-0.2,6-1,9.1-1.5c1.4-0.3,2.8-0.1,4.3,0.1c1.7,0.2,3.3,0.3,5,0.5
			c1,0.1,2-0.2,2.6,0.7c1,1.3,2.1,2.4,2.5,4c0.4,1.4,0.9,2.7,0.9,4.1c0,1.5-0.1,2.4-0.9,3.7c-0.8,1.2-1.5,2.4-2.3,3.6
			c-0.5,0.7-1.6,2.2-1,3.1c1.8,2.5,3.6,5.1,5.3,7.7c0.8,1.3,1.6,2.6,2.5,3.8c0.6,0.9,1.5,2.7,2.6,2.8c1.4,0.1,2.8,0.5,4.1,0.7
			c0.5,0.1,1.3-1.2,1.5-1.5c0.3-0.4,0.2-0.9,0.3-1.4c0.1-0.7,0.2-1.5,0.3-2.2c0.2-1.6,0.2-3.3,0.2-4.9c-0.1-3.2,0.1-6.4,0.3-9.6
			c0.1-1.5,0.3-3,0.3-4.5c0-1.6-0.3-3.2-0.4-4.8c0-0.8,0.2-2-0.4-2.6c-0.5-0.5-1-1.1-1.6-1.5c-0.4-0.3-1.1-0.3-1.4-0.7
			c-0.2-0.4-0.8-1.7-0.4-2c0.3-0.3,0.6-0.6,0.9-0.9c0.5-0.5,0.8-0.4,1.5-0.3c3.2,0.3,6.4,0.6,9.6,0.6c1.4,0,3-0.2,4.4,0
			c0.7,0.1,1.3,0.4,2,0.6c0.4,0.1,0,0.9-0.1,1.2c-0.1,0.3-0.1,0.7-0.2,1c-0.1,0.6-0.4,0.6-0.9,0.9c-0.9,0.4-2.5,0.9-2.8,2
			c-0.4,1.4-0.3,3-0.4,4.5c-0.1,1.7-0.1,3.4-0.2,5.1c-0.1,3.3-0.1,6.6-0.2,9.8c0,1.6-0.1,3.2-0.1,4.8c0,0.8,0,1.6-0.1,2.4
			c0,0.7-0.2,1.6,0.2,2.3c0.6,1,1.6,1.8,2.3,2.7c0.2,0.3,2.2-0.3,2.5-0.4c1.3-0.3,2.3-1.2,3.4-2c0.6-0.4,0.7-1,0.9-1.6
			c0.3-0.9,0.5-1.7,0.8-2.6c1-3,1.9-6,2.7-9.1c0.7-3.1,1.5-6.2,2.3-9.2c0.3-1.1,0.6-2.3,0.9-3.4c0.2-0.8,0.8-2.2,0.3-3
			c-1-1.5-2.2-2.9-3-4.4c-0.2-0.4,0.4-0.8,0.7-1c0.6-0.5,1.1-0.3,1.8-0.1c2.3,0.5,4.7,0.9,7,1.4c0.5,0.1,1,0.2,1.5,0.3
			c0.4,0.1,0.6,0.7,0.8,0.9c0.6,0.8,1.4,1.6,1.8,2.6c0.4,0.8,0.4,1.9,0.5,2.7c0.2,1.3,0.3,2.5,0.5,3.8c0.3,2.4,0.4,4.9,0.6,7.3
			c0.2,2.5,0.3,5,1,7.4c1-0.6,1.4-1.6,2-2.6c0.8-1.4,1.7-2.7,2.5-4.1c1.6-2.7,3.3-5.4,5-8.1c0.7-1.2,1.4-2.4,2.2-3.6
			c0.6-0.9,2.5-1.5,3.5-1.3c1.4,0.2,2.9,0.4,4.3,0.7c1.6,0.3,3,0.8,4.5,1.3c0.4,0.2,0.5,0.3,0.7,0.7c0.1,0.3,0.6,1.7,0.5,2
			c-0.2,0.3-0.6,0.5-0.9,0.6c-0.5,0.3-1,0.6-1.5,1c-0.8,0.6-1.9,1.3-2.5,2.1c-0.3,0.5-0.4,1.1-0.5,1.6c-0.2,0.9-0.4,1.8-0.6,2.7
			c-1.4,6.2-2.4,12.6-3.5,18.9c-0.3,1.5-0.5,3-0.7,4.6c-0.1,0.5,1,1.9,1.4,2.2c0.6,0.4,1.2,0.8,1.8,1.2c0.4,0.3,1,0.1,1.5,0.1
			c0.5,0,1.1,0.2,1.6,0.1c0.6-0.1,1.1-0.7,1.6-1c1.2-0.7,2.1-1.9,3.1-2.9c1.2-1.2,2.3-2.4,3.5-3.6c2.2-2.3,4.5-4.6,6.8-6.8
			c2.3-2.2,4.6-4.2,6.8-6.4c1.1-1,2.1-2.1,3.1-3.2c0.3-0.4,0.8-1.1,1.3-1.3c0.4-0.2,1-0.1,1.4-0.2c0.7-0.1,3.2-0.9,3.6-0.3
			c0.2,0.3,0.4,0.6,0.6,0.9c0.3,0.5,0.2,0.9,0.1,1.4c-0.4,3.2-0.7,6.4-1.1,9.6c-0.6,6.3-1.3,12.6-2.1,18.9c-0.2,1.6-0.4,3.1-0.6,4.7
			c-0.1,0.7-0.1,1.4-0.3,2.1c-0.1,0.5-0.2,0.9,0.1,1.4c0.7,1,1.4,2.1,2.2,3.1c1,1.2,2.5,0.2,3.7-0.2c1.3-0.4,2.2-0.7,3-1.9
			c0.8-1.2,1.7-2.2,2.6-3.3c2-2.5,3.9-5,5.8-7.5c1.9-2.5,3.8-4.9,5.7-7.3c0.4-0.5,1-1,1.1-1.6c0.1-0.5,0-1.1,0-1.6
			c0-1.7,0-3.4,0-5.1c0.6,0.1,1.2,0.1,1.8,0.1c0.3,0,1-0.1,1.3,0.1c1.2,1,2.3,2,3.5,3.1c2.3,2.1,4.7,4,7.2,5.9c2.3,1.7,5,3.3,6.2,6
			c0.4,0.9,1.5,2,1.3,3c-0.2,1.6-0.5,3.1-0.6,4.7c0,0.5,0,1-0.2,1.5c-0.2,0.6-0.8,1-1.2,1.4c-1.1,1.1-2.3,2.2-3.3,3.4
			c-0.7,0.9-2.8,0.7-3.9,0.8c-0.7,0.1-1.3,0.1-2,0.2c-0.5,0.1-0.9,0.5-1.3,0.8c-0.3,0.2-0.7,0.3-1,0.6c-0.3,0.4-0.3,1.5-0.4,2
			c-0.3,1.6-0.6,3.2-0.9,4.8c-0.3,1.5-0.6,2.9-1,4.4c-0.4,1.3-1,2.7-0.9,4.1c0.1,1.4,0.2,2.8,0.2,4.2c0,0.2,0.2,0.7-0.1,0.9
			c-0.5,0.3-1.3,0.4-1.9,0.5c-1.3,0.1-2.6-1.5-3.5-2.2c-0.6-0.5-1.2-1-1.8-1.5c-0.5-0.4-1.7-1-2-1.6c-0.3-0.5-0.3-1.2-0.5-1.8
			c-0.2-0.6-0.4-1.2-0.3-1.8c0.3-1.4,0.9-2.8,1.3-4.2c0.9-3,1.7-6.1,2.6-9.1c0.2-0.7,0.5-1.4,0.5-2.1c0-0.4,0.1-1.3-0.1-1.6
			c-0.7-0.6-1.3-0.2-1.8,0.3c-1.4,1.5-2.6,3.2-3.9,4.8c-0.7,1-2,2.1-2.2,3.3c-0.1,1.1-0.1,2.5-0.1,3.6c0,0.6,0.1,1.2,0.3,1.8
			c0.3,0.8-0.2,0.8-0.8,1c-0.6,0.2-1.2,0.6-1.8,0.6c-0.5,0-1.3-1-1.6-1.3c-2.1-1.9-4.5-3.6-6.7-5.4c-2-1.6-3.9-3.6-6.2-4.7
			c-2.6-1.3-5.2-2.6-7.8-3.9c-1.1-0.6-2.3-1.1-3.6-1.6c-0.6-0.2-0.7-0.9-0.9-1.5c-0.2-0.7-0.5-1.4-0.7-2
			C280.4,56.8,281.5,56.7,282.6,56.6C283.1,55.5,281.5,56.7,282.6,56.6z M177.7,21c0.7-0.4,1.5-0.9,2.2-1.3c0.6-0.4,1.3-0.6,1.5-1.3
			c0.6-1.5,0.9-3.2,1.3-4.7c0.2-0.6,0.3-0.9-0.1-1.4c-0.3-0.4-0.7-0.8-1-1.2c-1.1-1.5-2.3-3.1-3.4-4.6c-0.1-0.1-2.4,0.9-2.5,1
			c-0.5,0.4,0,2.8,0,3.4c0.2,1.9,0.5,3.7,0.7,5.6c0.1,0.8,0.2,1.7,0.3,2.5C176.9,19.9,177.2,20.2,177.7,21
			C178.7,20.4,177.4,20.6,177.7,21z M330.7,50.6c-0.3-0.6-0.6-1.2-0.8-1.8c-0.1-0.3-0.3-1-0.6-1.1c-0.4-0.2-1,0.1-1.4,0.2
			c-0.5,0.1-1,0-1.5,0.1c-0.5,0.1-1.1,1.2-1.4,1.6c-0.5,0.7-1.1,1.4-1.6,2.1c-1.2,1.5-2.3,2.9-3.5,4.4c-0.3,0.3-0.1,1-0.1,1.4
			c0,0.6,0.7,0.5,1.1,0.6c0.7,0.2,1.4,0.3,2,0.6c0.8,0.3,0.9,0.3,1.7-0.1c0.8-0.4,1.5-0.9,2.3-1.3c0.8-0.4,1.2-0.6,1.5-1.4
			C329.2,54.1,329.9,52.4,330.7,50.6C330.5,50.2,330.1,52,330.7,50.6z M287,33.1c-1.9,1.1-3.1,2.8-4.7,4.2c-0.5,0.4-1.2,0.9-1.2,1.6
			c0.1,1,0,1.2,0.9,1.7c0.6,0.3,1.9,1.4,2.6,1c0.3-0.2,1.5-0.7,1.5-1C286.5,38.1,286.8,35.6,287,33.1
			C286.4,33.5,286.8,35.1,287,33.1z"/>
		<path d="M18,227.7c-2.9-2.1-5.7-4.2-8.8-6.1c-0.6-0.4-1.3-0.8-1.9-1.3c-0.4-0.3-0.9-0.7-1.4-0.4c-0.6,0.3-1,0.8-1.4,1.3
			c-0.3,0.4-0.6,0.8-0.9,1.3c-0.3,0.5-0.3,0.7-0.8,0.4c-0.5-0.3-1.2-0.6-1.4-1.1c-0.3-0.5-0.1-1.3-0.2-1.8c-0.2-1.8-0.3-3.7-0.5-5.5
			c-0.1-1.6-0.2-3.2-0.5-4.7c-0.1-0.4-0.2-1-0.1-1.4c0.2-0.6,1.2-1.5,1.6-1.9c1,1,1.8,1.8,2.5,3c0.8,1.5,1.7,3,2.5,4.5
			c0.3,0.6,0.6,1.1,1.2,1.5c0.6,0.5,1.2,0.9,1.9,1.4c1.3,1,2.6,1.9,3.9,2.9c0.4,0.3,0.7,0.7,1.2,0.9c0.5,0.1,1-0.1,1.5-0.1
			c1.2-0.2,2.1-1.4,3.1-2.2c2.4-2.1,4.8-4.2,7.2-6.4c1.2-1,2.3-2,3.5-3.1c1.2-1,2.7-2,3.6-3.3c0.8-1.1,1.5-2.3,2.3-3.5
			c0.4-0.6,1.3-2,2.1-1.3c1,0.8,2.3,1.4,2.4,2.8c0.1,1.7,0.2,3.3,0.3,5c0.1,1.5,0.2,3,0.4,4.5c0.2,1.4,0.5,2.8,0.5,4.2
			c0,0.6-1.2,2.6-1.9,2.2c-0.5-0.3-1-0.5-1.5-0.7c-0.6-0.3-0.7-0.6-1.1-1.1c-2.2,1.8-4.4,3.6-6.7,5.4c-1.1,0.9-2.2,1.7-3.3,2.6
			c-0.9,0.7-1.7,1.2-2.2,2.3c3-0.3,6.1-0.6,9.1-0.9c0.8-0.1,1.2,0,1.7-0.6c0.6-0.5,1.1-1.1,1.7-1.6c0.9-0.9,2-1.3,3.1-1.8
			c0.4-0.2,1-0.7,1.3-0.3c0.3,0.4,0.4,0.7,0.4,1.1c0.1,1.5,0.2,3,0.3,4.6c0.1,1.5,0.1,3,0.4,4.5c0.3,1.6,0.5,3.1,0.5,4.6
			c0.1,2.9,1,5.9,2,8.6c0.3,0.6,0.5,1.3,0.7,2c0.3,0.8,0.3,1,0,1.8c-0.5,1.2-0.8,2.9-1.7,3.8c-1,1-2.2,1.8-3.3,2.7
			c-1.2,1-2.4,2-3.6,3c-1.2,0.9-2.3,1.9-3.5,2.8c-0.6,0.5-0.9,0.7-1.1,1.4c-0.2,0.8-0.5,1.5-0.8,2.3c3-1,6-2,9-3.1
			c1.1-0.4,1.9-0.6,2.6-1.5c0.8-1,1.8-1.9,1.8-3.2c0-0.3-0.1-0.8,0.2-1.1c0.3-0.3,1.5-0.3,1.9-0.3c0.4-0.1,0.8-0.2,1.1,0.2
			c0.3,0.6,0.6,1.2,0.8,1.8c0.8,3,1.5,6.1,2.5,9c2.1,6.1,5.5,11.7,8.5,17.3c0.3,0.5,0.9,1.2,0.8,1.8c0,0.6-0.1,1.3-0.1,1.9
			c0,0.5,0.1,0.9-0.5,1c-0.4,0-1,0.1-1.3,0c-0.4-0.1-0.6-0.6-1-0.7c-0.3-0.1-0.6-0.1-0.9-0.1c-1,0-1.6,0.1-2.3,0.8c-1,1-2,2-3,3.1
			c-0.4,0.5-0.9,1-1.3,1.5c-0.4,0.5,0,1,0.3,1.5c0.7,1.3,1.4,2.7,2.2,4c0.3,0.6,0.6,1.2,1,1.8c0.2,0.4,1.1,0.6,1.5,0.7
			c1.2,0.3,2.7-0.6,3.9-0.9c0.7-0.2,1.4-0.4,2.1-0.6c0.3-0.1,0.5-0.9,0.6-1.1c0.2-0.4,0.5-0.8,0.6-1.2c0.1-0.4,0-1-0.1-1.4
			c-0.1-1-0.1-1.7,0.6-2.5c0.2-0.2,0.4-0.6,0.7-0.8c0.2-0.1,1.4,0.8,1.7,0.9c0.3,0.2,0.6,0.9,0.8,1.2c0.4,0.7,0.9,1.4,1.3,2.2
			c0.8,1.3,1.5,2.5,2.3,3.8c0.6,1.1,0.8,1.5,0.6,2.7c-0.1,0.4-0.1,0.7-0.3,1c-0.2,0.4-0.5,0.2-0.9,0.2c-1.7-0.1-3.3-0.3-5-0.6
			c-0.7-0.1-1.3-0.2-2-0.1c-0.6,0.1-1.2,0.3-1.8,0.4c-1.7,0.3-3.3,0.6-5,0.9c-6.2,1.2-12.4,2.6-18.6,3.6c-2.4,0.4-4.7,0.7-7.1,1
			c-0.5,0.1-1.4,0.3-1.9,0.1c-0.4-0.2-0.8-1.2-1-1.6c-0.3-0.6-0.7-0.8-0.4-1.5c1.3-2.7,3.5-5.1,5.5-7.3c2.1-2.3,4.1-4.6,6-7.1
			c3.9-5,7.7-10,12-14.7c0.8-0.9,1.2-2,0.7-3.1c-0.2-0.6-0.6-1.1-1-1.6c-0.3-0.5-0.4-1.2-0.9-1.5c-2.3-1.3-5.1,0-7.5,0.7
			c-3,0.9-5.9,2.1-8.8,3c-3,0.9-6,1.7-8.9,2.9c-1.4,0.6-2.9,1.1-4.3,1.7c-0.8,0.3-1.3,1.6-1.3,2.4c0,1-0.1,1.8-0.8,2.6
			c-0.3,0.3-1.9,0-2.1-0.4c-1.1-3-2.1-5.9-3.1-8.9c-1-2.9-2.1-5.8-2.8-8.9c-0.3-1.4-0.6-2.8-0.9-4.2c-0.4-1.5,0.4-2.9,0.8-4.3
			c0.3-1,0.5-2.4,1.4-3c0.7-0.4,1.3-0.9,2-1.3c0.7-0.4,1.4-1.1,2.2-1.3c1.3-0.4,2.8-0.4,4.1-0.5c0.6-0.1,1.5-0.4,2,0
			c0.7,0.5,1.5,0.9,2.2,1.3c0.9,0.5,1.8,1.5,2.8,1.5c0.7,0,0.9-0.1,1.5-0.6c0.6-0.6,1.3-1.2,1.9-1.8c2.4-2.3,4.7-4.5,7.1-6.8
			c0.9-0.8,2-1.7,2.8-2.6c0.3-0.3,0-1.6,0-2c0-0.7,0.1-1.5-0.2-2.2c-0.1-0.4-0.3-1.2-0.8-1.3c-0.5-0.2-1.1-0.3-1.6-0.5
			c-1.4-0.5-2.5-0.8-4-0.7c-3.2,0.3-6.3,0.8-9.5,1c-3,0.2-6.1,0.5-9.1,0.8c-1.5,0.2-3.1,0.3-4.6,0.5c-0.6,0.1-1,0-1.4,0.5
			c-0.4,0.5-0.9,1.1-1.3,1.6c-0.3,0.4-0.8,0.8-0.9,1.3c-0.1,0.3-0.2,0.9-0.5,1c-0.6,0.2-1.4,1-1.9,0.2c-1.3-2-1-4.5-1.2-6.8
			c-0.1-1.5-0.2-3-0.5-4.6c-0.2-1.4-0.6-2.9-0.7-4.4c0-0.8,0.2-1.9,0.5-2.7c0.2-0.4,1.6-0.6,1.9-0.2c0.8,1,1.2,1.7,2.4,2.2
			c0.7,0.3,1.3,0.6,1.9,0.9c0.8,0.4,1.2,0.4,2,0.4c1.5-0.1,2.9-0.2,4.4-0.4C15.5,228.4,18.1,228.5,18,227.7
			C15.5,225.9,18.1,228.3,18,227.7z M16.5,271.2c1.4-0.8,3-1.2,4.5-1.7c1.8-0.5,3.6-1.1,5.4-1.7c0.6-0.2,0.9-0.2,1.3-0.8
			c0.2-0.3,0.7-0.8,0.6-1.2c-0.2-0.4-0.6-0.8-0.8-1.2c-0.2-0.4-0.4-1.1-0.8-1.3c-1.3-0.5-2.8-1.5-4.1-1.1c-1.1,0.4-2.8,0.3-3.8,1.1
			c-1.2,1-2.1,2.6-3,3.8c-0.2,0.3-1.4,1.4-1.1,1.8C15.2,269.8,15.8,270.5,16.5,271.2C18.4,270.1,16,270.6,16.5,271.2z M41.7,304.8
			c0.1,0.8,3.9-0.2,4.3-0.3c1.1-0.3,2.3-0.5,3.4-0.7c0.4-0.1,0.6-0.3,0.8-0.7c0.4-0.5,0.2-0.7-0.1-1.3c-0.4-0.8-0.8-1.7-1.3-2.5
			c-0.4-0.7-1.1-0.7-1.8-0.6c-0.4,0.1-0.7,0.7-1,1c-0.5,0.6-1,1.1-1.5,1.7C43.6,302.5,42.7,303.6,41.7,304.8
			C41.8,305.5,43.1,303.1,41.7,304.8z"/>
		<path d="M30.3,163.6c-3.9-2.3-7.8-4.7-11.8-6.9c-2-1.1-4.1-1.8-6.1-2.7c-0.3-0.1-1.1,0.5-1.4,0.6c-0.9,0.5-1.8,1-2.7,1.5
			c-0.2-0.5-0.5-1.1-0.7-1.6c-0.2-0.3-0.6-0.8-0.5-1.2c0.2-1.6,0.4-3.1,0.6-4.7c0.1-0.5,0.1-1.1,0.2-1.6c0.1-0.5,0.8-0.9,1.2-1.3
			c0.3-0.3,1.2-1.6,1.7-1.2c1.7,1.4,2,3.8,3.9,5c2.8,1.7,5.5,3.4,8.3,5c5.6,3.3,11.3,6.5,17,9.7c1.3,0.8,2.7,1.5,4,2.3
			c0.4,0.3,0.7,0.6,1,1c0.2,0.3,1.3,1.5,1.1,1.9c-0.3,0.8-1.2,1.7-2,1.8c-1.7,0.3-3.4,0.6-5,0.9c-1.5,0.3-2.9,0.8-4.4,1
			c-1.4,0.2-2.7,0.3-4.1,0.6c2.1,2,4.5,3.5,6.9,5.1c1.1,0.8,2.3,1.5,3.4,2.4c0.6,0.4,1.1,0.9,1.7,1.3c0.6,0.5,0.2,0.8,0.1,1.4
			c-0.2,0.7-0.3,1.9-1,2.2c-0.6,0.3-1.4,0.3-2.1,0.4c-0.9,0.2-1.8,0.3-2.7,0.5c-3.1,0.5-6.1,1.3-9.2,1.9c-6.3,1.1-12.6,2.5-19,3.7
			c-0.8,0.1-1.5,0.3-2.3,0.5c-0.6,0.1-1.4,0.2-1.9,0.5c-0.8,0.7-0.8,1.7-2,2c-0.5,0.2-1.5,0.7-2,0.4c-0.5-0.4-0.5-0.9-0.4-1.5
			c0.2-1.5,0.2-3.1,0.4-4.6c0.4-2.9,0.8-5.8,1.9-8.5c0.6-1.4,0.5-2.8,0.6-4.3c0.1-1.6,0.2-3.3,0.3-4.9c0.3-3.1,1.2-6.2,1.7-9.3
			c0.2-1.2,0.2-3,1-4c0.3-0.5,1.9-2.3,2.4-1.8c1,1,2,2,3,3.1c1,1.1,1.9,2.3,3,3.3c0.8,0.7,1.9,1.4,2.9,1.8c1.2,0.5,2.6,0.5,3.8,0.7
			c1,0.2,2.4-0.4,3.4-0.6c0.7-0.1,1.3-0.2,2-0.3C27.2,164.9,30.3,164.5,30.3,163.6C26.4,161.3,30.3,164.5,30.3,163.6z M28.9,178.8
			c-0.4-0.6-0.7-1.4-1.4-1.8c-0.8-0.5-2.1-0.6-3-0.8c-1-0.2-2-0.6-3-0.6c-1.2,0-2.4,0.4-3.6,0.6c-2.2,0.4-4.5,0.8-6.7,1.1
			c-0.9,0.1-2.1,0.1-2.9,0.5c-1,0.4-1.8,1.4-2.7,2c-0.5,0.3-0.3,1.4,0,1.9c0.6,1,1.5,0.8,2.5,0.6c2.4-0.4,4.7-0.6,7.1-1.1
			C19.7,180.4,24.3,179.7,28.9,178.8C28.5,178.1,26.6,179.3,28.9,178.8z M13.2,167.5c0.1-0.3,0.2-0.5-0.1-0.7
			c-0.6-0.3-1.2-0.6-1.8-0.9c-0.7-0.4-2.4-0.9-2.5,0.3c-0.1,0.6-0.6,1.8,0.4,1.9C10.3,168.3,11.9,167.7,13.2,167.5
			C13.3,167,12,167.7,13.2,167.5z"/>
		<path d="M388.8,212.4c0-2.4,0-4.8,0-7.2c0-1.5,0.6-3.9-1.3-4.5c-0.4-0.1-0.9,0-1.3,0c-0.7,0-1.3,0-2,0c-1.3,0-2.7,0-4,0
			c-1.1,0-2.2,0-3.4,0c-1,0-1.5,0.3-2.3,1c-0.6,0.6-1.3,1.2-2,1.8c-0.3,0.3-0.7,0.7-1,1c-0.3,0.4-0.4,0.4-0.8,0.1
			c-0.6-0.5-1.5-0.9-1.9-1.5c-0.2-0.3,0-1.2,0-1.5c0-0.6,0.1-1.3,0.1-1.9c0.1-2.4,0.2-4.8,0.2-7.2c0-1.2,0-2.3,0-3.5
			c0-1.1,0.5-1.9,0.8-2.9c1.3,0.7,2.5,1.5,3.7,2.4c1,0.7,2.1,1.9,3.3,1.9c3.2,0.1,6.5,0.2,9.7,0.3c3.3,0.1,6.6,0,9.9,0
			c1.6,0,3.2-0.1,4.8-0.1c1.2,0,2.5-1,3.6-1.5c0.2-0.1,0.9-0.2,1-0.5c0.2-0.5,0.4-1.5,0.7-1.8c0.4-0.4,1.8-1,2.1-0.4
			c0.3,0.4,0.8,0.8,0.8,1.3c0,0.7,0.1,1.4,0.1,2.1c0.1,1.7,0.1,3.4,0.1,5.1c0,1.5,0,3.1,0,4.6c0,0.8,0,1.5,0,2.3
			c0,0.7,0.2,1.5-0.3,2.1c-0.3,0.3-0.6,0.7-0.8,1c-0.4,0.5-0.8,0.1-1.2-0.2c-1.4-1-2.7-1.9-4-2.9c-1.1-0.8-1.8-1.2-3.2-1.1
			c-1.5,0.1-3-0.2-4.5-0.1c-0.9,0.1-2.1,0-2.7,0.8c-0.5,0.6-0.1,2.1-0.1,2.8c0,1.6-0.1,3.2-0.1,4.7c0,0.7,0,1.4,0,2.2
			c0,0.5,0.3,0.7,0.7,1.1c0.3,0.3,1.2,0.1,1.6,0.1c0.8,0,1.6,0,2.4,0c1.7,0,3.4,0,5.1,0c0.5,0,1.1,0.1,1.6-0.2
			c0.3-0.2,0.6-0.6,0.9-0.8c1-0.8,1.7-1.9,2.4-3c0.2-0.3,1.9-0.3,2,0.2c0.1,0.7,0.3,1.3,0.4,1.9c0.1,0.8,0,1.6-0.1,2.4
			c-0.2,1.5-0.1,3-0.1,4.6c0,1.6-0.1,3.2,0.1,4.7c0.1,0.6,0.1,1.2,0.3,1.8c0.1,0.7-0.2,1.1-0.5,1.7c-0.2,0.5-0.4,1-0.7,1.5
			c-0.2,0.3-1-0.2-1.2-0.3c-1.1-0.4-1.1-1.2-1.6-2.2c-0.4-1-1.8-1.2-2.6-1.6c-1.2-0.5-2.5-0.4-3.8-0.4c-1.7,0-3.3,0-5,0
			c-3.3,0-6.7,0-10,0c-1.6,0-3.2,0-4.8,0c-0.8,0-1.6,0-2.3,0c-0.9,0-1.1,0.2-1.8,0.6c-1,0.7-2.2,1.3-3,2.3c-0.4,0.4-0.7,0.9-1.1,1.3
			c-0.3,0.4-0.9-0.2-1.2-0.5c-0.4-0.2-1.2-0.6-1.3-1c-0.1-0.4-0.1-0.8,0-1.2c0.1-1.2,0.1-2.5,0.2-3.7c0.1-3.3,0-6.5-0.1-9.7
			c0-0.6-0.1-0.9,0.2-1.4c0.2-0.3,0.5-1.4,0.9-1.3c0.8,0.1,2,0.6,2.4,1.3c0.6,1,1,2.2,2.2,2.5c1.4,0.4,3,0.4,4.4,0.5
			C382.4,212.2,385.6,212.2,388.8,212.4C388.8,210,384.4,212.1,388.8,212.4z"/>
		<path d="M114,58.9c-0.3,1.5-0.6,3-0.9,4.5c-0.1,0.7-0.3,1.5-0.4,2.2c-0.2,0.8-0.6,1.4-1,2.2c-0.8,1.4-1.5,2.7-2.3,4.1
			c-0.8,1.4-1.8,2.2-3,3.2c-2.4,2.1-5,3.8-7.6,5.7c-1.2,0.9-2.5,1.8-3.7,2.8c-0.8,0.6-1.6,1.7-2.6,1.9c-0.6,0.1-1.3-0.3-1.8-0.5
			c-0.5-0.2-0.4-0.2-0.4-0.7c0-1.1,0-2,0.4-3.1c0.2-0.5,0.6-1.1,0.5-1.7c-0.1-0.5-0.4-1-0.7-1.5c-0.8-1.2-1.5-2.4-2.3-3.5
			c-3.8-4.9-7.4-10-11.3-14.8c-0.7-0.8-1.3-1.8-1.9-2.6c-0.7-0.9-2.4-0.9-3.4-1c-0.7,0-1.4,0.1-2.1,0.1c-0.5,0-0.4-0.1-0.5-0.5
			c-0.1-0.4-0.6-1.9-0.4-2.2c0.9-1.2,1.8-2.4,2.7-3.6c0.9-1.2,2-2.1,3.1-3.2c2.4-2.2,5-4.2,7.5-6.2c0.9-0.7,2-1,3.1-1.4
			c1.5-0.6,2.9-1.3,4.5-1.7c1.3-0.3,2.7-0.3,4-0.3c0.7,0,1.4,0,2.1,0c0.6,0,1.5-0.2,2,0c1,0.4,2.4,0.6,3.2,1.4
			c1.3,1.1,2.5,2.3,3.8,3.4c1.2,1,2.3,2.1,3.5,3.1c1,0.9,2.6,1.8,3.1,3c0.6,1.6,1.2,3.1,1.8,4.7C113.9,54.7,113.8,56.9,114,58.9
			C113.5,61.3,113.9,57.8,114,58.9z M106.8,64.5c-0.4-2.8-1.8-5.4-2.8-8c-1.1-2.9-3.2-4.8-5.2-7c-1-1-1.9-2.4-3.1-3
			c-1.4-0.7-2.7-1.5-4.1-2.2c-1-0.6-2.2-0.1-3.3,0c-1.6,0.1-3.3,0.3-4.9,0.4c-0.2,0-0.7,2.8-0.7,2.9c-0.1,0.4-0.6,1.6-0.4,2
			c0.2,0.4,0.7,0.8,1,1.1c2,2.3,3.4,4.9,5.1,7.4c1.8,2.7,3.9,5.2,5.9,7.7c1,1.2,1.9,2.5,2.9,3.7c0.5,0.6,0.9,1.2,1.4,1.8
			c0.3,0.5,0.6,1.1,1.3,1.1c0.4,0,3.1,0.6,3.3,0.2C104.4,69.9,105.6,67.2,106.8,64.5C106.5,62.3,106.7,64.9,106.8,64.5z"/>
		<path d="M83.7,91.4c-0.4,1.4-0.8,2.7-1.1,4.1c-0.3,1.5-1.1,2.5-2,3.8c-0.9,1.3-1.9,2.6-2.8,3.9c-0.4,0.5-0.7,1.1-1.2,1.6
			c-0.5,0.6-1.4,0.9-2.1,1.3c-1.2,0.6-2.3,1.3-3.5,2c-1.3,0.7-2.9,0.8-4.3,1c-0.7,0.1-1.5,0.4-2.2,0.4c-0.6,0-1.3-0.1-1.9-0.2
			c-1.5-0.2-2.7-0.6-4.1-1.2c-1.3-0.5-2.6-0.9-3.9-1.5c-1.3-0.6-2.2-1.9-3.3-2.8c-2.1-1.9-4.7-3.7-5.9-6.3c-0.5-1-1.3-1.8-1.7-2.9
			c-0.5-1.4-0.6-3.1-0.9-4.6c-0.2-1.3-0.7-2.8-0.6-4.1c0.1-1.2,0-2.7,0.5-3.8c1-2.4,2.6-4.7,3.9-7c0.6-1,1.5-1.5,2.3-2.2
			c1-0.8,2-1.9,3.1-2.5c0.8-0.4,1.7-0.6,2.5-0.9c1.3-0.5,2.3-0.8,3.6-0.9c1.4-0.1,2.8-0.3,4.2-0.2c1.3,0.1,2.6,0.6,3.8,1
			c1.2,0.4,2.3,0.7,3.5,1c1.1,0.3,1.7,0.9,2.6,1.6c1,0.9,2.1,1.7,3.2,2.5c1,0.8,2.1,1.4,2.8,2.5c1.3,1.9,2.4,4.1,3.4,6.2
			C83.1,85.7,83.3,88.8,83.7,91.4C83.4,92.5,83.4,89.3,83.7,91.4z M47.5,81.5c-0.6,0,0.1,1.2,0.2,1.5c0.2,0.7,0.5,1.4,0.7,2.1
			c0.5,1.4,1.8,2.6,2.7,3.7c1.9,2.4,3.5,5.1,6,6.8c1,0.7,2.1,1.5,3.2,2.1c1.3,0.7,2.7,1.5,4.1,1.9c1.4,0.4,2.8,0.9,4.2,1.2
			c1.4,0.3,3.1,0.6,4.5,0.3c0.5-0.1,0.9-0.4,1.4-0.5c0.4-0.1,1-0.1,1.3-0.5c0.2-0.2,0.2-1,0.2-1.3c0.2-0.9,0.3-1.8,0.5-2.6
			c0.2-1.3,0.6-2.6,0.7-3.9c0-0.4-0.9-1.3-1.1-1.7c-0.5-0.7-1-1.4-1.6-2.2c-0.8-1.2-1.6-2.5-2.7-3.4c-1.2-1-2.4-2.1-3.6-3.1
			c-1-0.9-2.1-1.5-3.3-2.1c-1.3-0.6-2.5-1.3-3.8-1.9c-1.2-0.5-2.6-0.6-3.9-0.9c-1.5-0.3-3.1-0.6-4.6-0.9c-0.7-0.2-1.8,1.7-2.2,2.1
			C49.5,79.3,48.5,80.4,47.5,81.5C47.4,81.5,48.7,80.1,47.5,81.5z"/>
		<path d="M59.7,127.9c-0.3,1.5-0.6,3-0.9,4.5c-0.3,1.5-0.4,3-1.3,4.3c-0.8,1.1-1.6,2.2-2.5,3.2c-0.9,1.1-1.7,2.2-3,2.9
			c-1.2,0.7-2.5,1.3-3.7,2c-1.3,0.7-2.2,1.2-3.7,1.3c-1.3,0.1-2.7,0-4,0c-1.5,0-2.9,0.1-4.3-0.3c-1.2-0.4-2.4-0.8-3.6-1.1
			c-1.4-0.4-2.6-1.4-3.9-2.2c-1.1-0.7-2.3-1.3-3.3-2.2c-1.1-0.9-1.8-2.1-2.8-3.1c-2-1.9-3.1-4.9-3.8-7.5c-0.4-1.3-0.8-2.4-0.7-3.9
			c0.1-1.6,0.2-3.3,0.4-4.9c0-0.5,0-0.9,0.3-1.4c0.3-0.5,0.7-1,1-1.5c0.8-1.2,1.6-2.4,2.4-3.6c0.7-1.1,1.5-2.2,2.2-3.3
			c0.2-0.3,0.8-0.5,1.1-0.6c0.6-0.3,1.2-0.7,1.8-1c1.1-0.6,2.1-1.2,3.2-1.8c1-0.6,2.3-0.7,3.4-0.9c1.3-0.2,2.5-0.3,3.8-0.3
			c1.4,0,2.6,0.3,3.9,0.7c1,0.2,2.1,0.4,3.2,0.7c1.2,0.3,2.3,1.2,3.4,1.7c1.1,0.6,2.1,1.2,3.2,1.8c0.4,0.2,0.7,0.6,0.9,1
			c0.5,0.6,1,1.1,1.5,1.7c0.9,1,1.8,2,2.6,2.9c0.8,0.9,0.9,1.8,1.1,2.9C58.4,122.5,59.1,125.2,59.7,127.9
			C59.2,130.3,59.3,126,59.7,127.9z M22.2,121.8c0.1,0.5,0.1,1.1,0.2,1.6c0.2,0.6,0.7,1.1,1.2,1.6c1,1.1,1.9,2.3,2.8,3.5
			c0.8,1.1,2,1.7,3.1,2.4c1.4,0.9,2.7,1.7,4.2,2.4c1.3,0.7,2.6,1.4,4,1.9c1.4,0.5,3,0.8,4.5,1.2c1.3,0.3,2.6,0.8,4,0.9
			c1.7,0.1,3-0.8,4.4-1.5c1.4-0.7,2.8-1.4,4.2-2.1c0.2-0.1-0.1-1.7-0.1-2c-0.1-0.9-0.2-1.7-0.3-2.6c-0.1-0.8-0.1-1.6-0.2-2.3
			c0-0.4-0.6-0.8-0.9-1c-2.1-1.7-3.9-3.8-6.3-5.1c-2.4-1.4-4.9-2.6-7.7-3.3c-1.6-0.4-3.3-0.9-4.9-1.3c-0.6-0.2-1.3,0-2,0.1
			c-0.9,0.1-1.9,0.1-2.9,0.2c-1.4,0.1-3.4-0.3-4.3,0.9C24.4,118.7,23.3,120.2,22.2,121.8C22.3,122.8,23.4,120.1,22.2,121.8z"/>
		<path d="M385.7,271.4c-1.6-0.2-3.1-0.5-4.7-0.7c-0.7-0.1-1.5-0.1-2.2-0.4c-0.7-0.2-1.3-0.6-1.9-1c-1.3-0.7-2.7-1.3-4.1-2
			c-0.6-0.3-1.2-0.5-1.7-0.9c-0.7-0.5-1.3-1.3-1.9-1.9c-0.9-0.9-2-1.8-2.8-2.8c-1-1.2-1.4-3-2-4.4c-0.7-1.3-0.9-2.5-1-4
			c-0.2-1.6-0.4-3.2-0.1-4.9c0.5-2.8,1.3-5.5,2.8-7.9c0.7-1.2,1.9-2.3,2.8-3.3c0.5-0.5,0.9-1.1,1.5-1.4c0.7-0.4,1.4-0.7,2.1-1
			c1.3-0.6,2.6-1.2,3.9-2c1.3-0.8,2.9-0.7,4.4-0.7c1.5-0.1,3,0,4.5,0c1.7,0.1,3.2,0.5,4.8,1c1.2,0.3,2.3,0.7,3.4,1.3
			c0.9,0.5,2,0.9,2.8,1.5c1.7,1.3,3.7,2.9,4.9,4.8c0.7,1.1,1.4,2.1,2.1,3.2c0.6,0.9,0.7,1.8,1,2.8c0.3,1.2,0.7,2.4,1,3.6
			c0.2,0.8-0.3,2-0.4,2.8c-0.2,1.3-0.4,2.6-0.6,3.9c-0.2,1.1-0.2,1.9-0.9,2.9c-0.7,1-1.4,2.1-2.2,3.1c-0.7,1-1.4,2.2-2.3,3
			c-0.8,0.7-1.7,1.2-2.5,1.7c-1,0.7-2.1,1.7-3.3,2.2C390.7,270.8,388.1,271,385.7,271.4C383.5,271,387.4,271.1,385.7,271.4z
			 M366.4,249.4c0.1,0.6,0.1,1.2,0.3,1.8c0.2,0.6,0.8,1.1,1.2,1.5c1.1,1.1,2.1,2.3,3.3,3.3c1.1,0.8,2.3,1.3,3.4,1.9
			c1.4,0.6,2.7,1.3,4.1,1.7c2.8,0.8,5.8,0.9,8.7,1c1.5,0.1,3.1,0.1,4.6,0.2c1.4,0.1,3-0.9,4.3-1.4c0.7-0.3,1.4-0.5,2-0.8
			c0.3-0.1,0.7-0.2,1-0.5c0.4-0.4,0.5-1.1,0.7-1.6c0.3-0.8,0.6-1.6,0.9-2.4c0.2-0.5,0.5-1,0.6-1.5c0.1-0.4-0.3-0.9-0.6-1.2
			c-0.6-0.8-0.9-2.1-1.8-2.6c-1.4-0.8-2.7-1.6-4.1-2.4c-1.4-0.8-2.7-1.8-4.3-2.1c-1.5-0.3-2.9-0.8-4.4-1.2c-1.4-0.4-3.1-0.2-4.6-0.3
			c-1.5-0.1-3.3-0.5-4.8-0.3c-1.5,0.2-2.9,0.4-4.4,0.9c-0.5,0.1-1,0.2-1.4,0.4c-0.6,0.2-1.1,1.2-1.5,1.7
			C368.5,246.7,367.4,248,366.4,249.4C366.5,250.3,367.8,247.5,366.4,249.4z"/>
		<path d="M369.7,313.2c-1.4-0.2-2.8-0.5-4.2-0.7c-1.5-0.1-2.7-0.7-4.1-1.3c-1.4-0.6-2.8-1.3-4.2-1.9c-1.4-0.6-2.2-1.7-3.3-2.8
			c-1.1-1.1-2.1-2.2-3.2-3.3c-0.4-0.4-1.1-0.9-1.2-1.5c-0.2-0.7-0.2-1.4-0.3-2.1c-0.5-3.2-1-6.4-1.6-9.6c-0.1-0.6-0.4-1.4-0.2-2
			c0.2-0.6,0.6-1.2,0.9-1.7c0.8-1.5,1.7-3,2.5-4.5c0.4-0.7,0.8-1.4,1.2-2.1c0.3-0.5,0.4-1,0.9-1.3c1.4-0.9,2.9-1.9,4.3-2.8
			c1.1-0.7,2.2-1.6,3.5-1.9c1.4-0.3,2.7-0.3,4.2-0.3c1.5,0.1,3,0.1,4.4,0.2c1.4,0.1,2.9,0.8,4.3,1.3c2.1,0.7,4.1,1.7,5.9,2.9
			c2,1.3,3,3.3,4.3,5.3c0.7,1.1,1.4,2.1,2.1,3.2c0.5,0.8,1.2,1.6,1.7,2.4c0.5,0.9,0.3,2.5,0.3,3.5c0.1,1.3,0.2,2.6,0.2,3.9
			c0,0.8,0.3,1.8,0.2,2.6c-0.2,1.1-1,2.3-1.5,3.3c-0.3,0.6-0.5,1.1-0.8,1.7c-0.2,0.5-0.4,1.2-0.8,1.6c-0.8,0.8-2,1.5-2.9,2.1
			c-1.1,0.8-2.1,1.6-3.2,2.3c-0.8,0.6-1.6,1.4-2.5,1.9c-1,0.6-2.2,0.6-3.3,0.8C372.2,312.8,370.9,313,369.7,313.2
			C368.6,313,371.7,312.9,369.7,313.2z M359.9,282.5c-1.5,0.4-3.1,0.8-4.6,1.2c-0.5,0.1-1.7,0.2-2,0.5c-0.2,0.2-0.3,0.7-0.4,1
			c-0.2,0.7-0.3,1.5-0.5,2.2c-0.2,0.7-0.4,1.4-0.6,2.1c-0.1,0.5-0.5,1-0.1,1.5c1.5,1.9,3.3,3.5,4.8,5.4c0.9,1.1,1.8,1.9,3,2.5
			c1.2,0.7,2.3,1.6,3.6,2.2c1.3,0.6,2.8,1,4.1,1.5c1.5,0.5,2.9,1.2,4.5,1.3c1.5,0.1,3,0.3,4.5,0.5c1.4,0.2,2.2-0.1,3.5-0.8
			c1.2-0.6,2.3-1.1,3.5-1.6c0.5-0.2,0.4-0.8,0.5-1.3c0.1-0.9,0.3-1.8,0.4-2.7c0.1-0.4,0.4-1.3,0.2-1.7c-0.2-0.3-0.5-0.6-0.7-0.9
			c-0.9-0.9-1.7-1.9-2.5-2.8c-0.6-0.7-1.2-1.4-1.7-2.1c-0.6-0.8-1.2-1.2-2.1-1.7c-1.9-1.1-3.8-2.1-5.6-3.2c-0.7-0.4-1.4-1-2.2-1.2
			c-0.9-0.3-2-0.4-2.9-0.5C364.3,283.3,362.1,282.9,359.9,282.5C357.7,283,362.2,282.9,359.9,282.5z"/>
		<path d="M158.1,21.8c-0.3,1.5-0.6,3.1-0.9,4.6c-0.1,0.6-0.1,1.7-0.5,2.1c-0.5,0.6-1,1.1-1.5,1.6c-0.8,0.9-1.6,2-2.6,2.8
			c-0.4,0.3-1.5,0.4-2,0.5c-0.9,0.2-1.7,0.4-2.6,0.5c-0.7,0.1-1.5,0.2-2.3,0.3c-0.5,0-0.5,0.6-0.7,1c-0.3,0.8-0.3,1.1,0,1.9
			c0.3,0.9,0.6,1.8,0.9,2.6c0.4,1.3,0.7,2.5,1.3,3.7c0.5,0.9,0.7,2.4,1.9,2.7c1.2,0.3,2.2,0.5,3.2,1.1c0.3,0.1,1.3,0.5,1.2,0.9
			c-0.1,0.6-0.5,1.3-0.8,1.9c-0.3,0.8-2,1-2.8,1.2c-1.6,0.5-3.2,1-4.7,1.6c-1.4,0.5-2.8,1.1-4.2,1.7c-1.1,0.5-2.5,1.1-3.7,1.1
			c-0.6,0-1.5-0.8-1.5-1.4c0-1.3,0.4-1.9,1.3-2.7c0.6-0.6,1.5-2,1.3-2.8c-0.3-1.4-0.9-2.8-1.3-4.2c-0.9-3.1-2.1-6.1-3.2-9.2
			c-1.1-3-2.2-6.1-3.3-9.1c-0.4-1.2-0.9-2.5-1.4-3.7c-0.2-0.4-0.3-0.8-0.5-1.2c-0.3-0.4-1.2-0.4-1.6-0.5c-0.6-0.1-1.1-0.3-1.6-0.6
			c-0.3-0.2-1.7-0.8-1.7-1.1c0-0.3,0.3-0.7,0.4-1c0.3-0.6,0.6-1.2,0.9-1.8c0.1-0.2,0.8-0.3,1-0.3c0.6-0.1,1.2-0.3,1.7-0.5
			c1.6-0.5,3.2-1.1,4.7-1.7c3-1.1,6.1-2.1,9.2-3c0.9-0.3,2.3-1.1,3.3-1c1.5,0.2,3,0.5,4.6,0.5c1.3,0,1.7,0.4,2.6,1.2
			c0.9,0.9,1.9,1.8,2.9,2.7c1,0.9,1.2,2,1.6,3.2C157.2,18.9,157.7,20.3,158.1,21.8C157.7,24,157.4,19.6,158.1,21.8z M148.2,24.7
			c-0.4-1.6-0.7-3.3-1.1-4.9c-0.2-0.9-0.7-1-1.5-1.4c-1-0.5-2.1-0.9-3.1-1.4c-0.9-0.4-1.9-0.8-2.8-1.2c-0.4-0.2-0.9,0.8-1,1
			c-0.4,0.7-0.1,1.4-0.1,2.1c0.1,1.1,0.5,2.1,0.9,3.2c0.8,2,1.5,4.2,2.3,6.2c0.3,0.6,0.9,0.6,1.4,0.7c0.4,0.1,2.6,0.9,2.8,0.7
			c0.5-0.5,0.8-1.7,1-2.4C147.6,26.4,147.9,25.5,148.2,24.7C148,23.6,148,25.2,148.2,24.7z"/>
		<path d="M66.5,324.1c1.5-1.1,3-2.2,4.4-3.4c0.7-0.6,1.3-1.1,2-1.7c0.6-0.5,1.6-1.1,2-1.8c0.3-0.5,0.3-1.1,0.5-1.7
			c0.3-0.9,0.4-1.5,0.2-2.4c-0.1-0.5-0.3-1.2-0.3-1.7c0-0.7,1-1.7,1.4-2.3c1.8,2,3.7,4.1,5.5,6.2c1.8,2,3.4,4.3,5.3,6.2
			c0.8,0.8,1.1,1.2,1,2.3c0,0.4-0.1,0.9-0.1,1.3c-0.8,0-1.5,0-2.3-0.1c-1.3,0-2.6,0-3.9-0.1c-0.6,0-0.9-0.1-1.3,0.3
			c-0.6,0.5-1.1,1-1.7,1.5c-4.1,3.5-8.4,6.9-12.6,10.3c-2,1.6-3.9,3.4-5.7,5.2c-0.3,0.3-0.7,0.5-0.9,0.9c-0.3,0.4-0.2,1.3-0.2,1.7
			c-0.1,1.4-0.2,2.9-0.4,4.3c-0.9-0.3-2.3-0.4-3.2-1c-0.9-0.6-1.5-1.9-2.1-2.8c-1.8-2.4-3.7-4.8-5.7-7.2c-0.9-1.1-1.8-2.2-2.7-3.4
			c-0.8-1-2-2.1-2.3-3.4c-0.4-1.3-0.7-2.4-0.8-3.7c-0.1-1.3,0.5-2.4,1-3.5c0.6-1.3,1.1-2.7,1.7-4c0.5-1.1,0.7-2.3,1.9-2.8
			c1.4-0.7,2.8-1.2,4.2-1.8c1.3-0.5,2.5-1.1,4-1c1.2,0.1,2.5,0,3.6,0.5c0.7,0.3,1.4,0.6,2.2,1c0.5,0.2,1.2,0.4,1.5,0.9
			c0.7,0.9,1.2,2.1,1.7,3.2C64.9,321.5,65.6,322.8,66.5,324.1C69.3,322.1,65.3,322.3,66.5,324.1z M51.9,335.5
			c1.4-0.5,2.6-1.5,3.8-2.4c1.3-1.1,2.7-2.2,4-3.3c1.1-1,2.8-1.9,3.1-3.5c0.1-0.8,0-0.9-0.5-1.4c-0.5-0.5-1.2-1.6-2-1.7
			c-0.7-0.1-1.5-0.2-2.2-0.2c-0.9,0-1.5,0.5-2.2,0.9c-1.4,0.8-3.1,1.3-3.8,2.8c-0.8,1.6-1.6,3.2-2.4,4.8c-0.4,0.8-0.2,0.9,0.3,1.5
			C50.5,333.9,51.2,334.7,51.9,335.5C54.1,334.7,51.1,334.6,51.9,335.5z"/>
		<path d="M351.8,88.1c1.7-0.3,3.5-0.6,5.2-1c1.7-0.4,3.4-1,5.1-1.3c0.7-0.1,0.7-0.5,1-1.2c0.2-0.6,0.5-1.1,0.7-1.7
			c0.3-0.6-0.1-1.3-0.2-2c-0.1-0.6,0.1-0.8,0.4-1.3c0.6-0.8,1.1-0.2,2,0c1.4,0.3,2,1.9,2.8,3c1,1.4,2.3,2.6,3.5,3.9
			c0.6,0.6,1,0.9,1,1.8c0,0.8,0.1,1.7,0.1,2.5c-1.4,0-2.6,0-4-0.3c-1.4-0.3-2.8-0.8-4.2-0.6c-3,0.4-5.9,0.8-8.9,1.4
			c-1.3,0.3-2.5,0.6-3.8,0.6c-1.4,0.1-2.4,0.4-3.6,1.2c-2.3,1.6-4.6,3.2-6.7,5.1c-1,0.9-2.1,1.9-3.1,2.9c-0.4,0.3-0.3,1-0.4,1.4
			c0,0.7-0.1,1.4-0.2,2c-0.1,0.8-0.1,1.6-0.2,2.3c0,0.6-0.4,0.4-0.9,0.4c-0.4,0-0.8,0-1.2-0.1c-0.4-0.1-0.8-0.8-1.1-1.1
			c-1.9-2.2-3.7-4.5-5.6-6.7c-0.9-1-1.8-2-2.8-3c-0.9-0.9-0.7-2.6-0.7-3.7c1.5-0.1,3.1-0.2,4.6-0.3c1.3-0.1,2.7,0.1,3.8-0.8
			c1.1-1,2.3-2,3.5-2.9c1-0.8,2.1-1.6,2.9-2.6c0.9-1.1,1.2-2.3,1.7-3.6c0.5-1.6,1.1-3.1,1.6-4.7c1-3,2.1-6,3.2-9
			c0.5-1.2,0.8-2.2,0.7-3.6c-0.1-1.3-0.2-2.5,0.1-3.8c0-0.2,0.2-0.9,0.4-0.9c0.5,0,1-0.1,1.5-0.1c0.6,0,0.8,0.4,1.1,0.8
			c0.5,0.6,1.1,1.1,1.6,1.7c2.1,2.2,4.1,4.6,5.9,7.1c0.9,1.2,1.7,2.4,2.6,3.6c0.4,0.6,0,1.7-0.2,2.3c-0.3,0.9-1.8,0.3-2.5,0.5
			c-0.8,0.3-1.6,0.5-2.4,0.8c-0.6,0.2-1.1,0.2-1.3,0.8c-0.6,1.8-1.2,3.5-1.8,5.3C352.5,84.9,351.9,86.4,351.8,88.1
			C353.8,87.7,351.9,87,351.8,88.1z"/>
		<path d="M381.2,115.7c1.5,0.6,2.9,1.1,4.4,1.7c0.7,0.3,1.5,0.6,2.2,0.8c0.5,0.2,1.2,0.3,1.6,0.6c0.5,0.3,0.7,1.1,0.9,1.6
			c0.3,0.7,0.6,1.4,0.9,2.1c0.7,1.6,1.4,3.1,2.1,4.7c0.5,1.2,1.1,2.4,1.7,3.5c0.6,1.1-0.6,2-1.1,3c-0.6,1.1-2,1.3-3.2,1.7
			c-1,0.4-2.7,1.5-3.8,1.1c-0.4-0.1-0.7-0.2-1.1-0.4c-0.5-0.2-0.2-0.9-0.2-1.3c0-0.6,0-0.9,0.5-1.3c0.5-0.5,1-1,1.4-1.5
			c0.7-0.8,1.5-1.4,1.6-2.6c0.1-1.5,0.2-3.1,0.4-4.6c0.1-0.7-2-1.6-2.6-2c-0.5-0.3-1-0.2-1.6-0.1c-0.6,0.1-1.4,0-2,0.3
			c-0.5,0.2-1,1.1-1.3,1.5c-0.3,0.3-0.7,0.6-0.9,1c-0.3,0.5-0.1,1.5-0.2,2.1c-0.1,0.9-0.1,1.8-0.2,2.7c-0.2,2.6-0.2,5.3-0.7,7.9
			c-0.1,0.6-0.6,1-1,1.4c-0.5,0.6-1,1.1-1.6,1.7c-1,1.1-2.1,2.2-3.1,3.3c-0.8,0.9-1.9,1-3,1.3c-0.7,0.2-1.5,0.4-2.2,0.7
			c-0.6,0.2-1.4,0.6-2.1,0.6c-1.3-0.1-2.7-0.3-4-0.6c-1.3-0.4-2.5-1.2-3.7-1.8c-1.2-0.6-2-1.1-2.8-2.3c-0.8-1.2-1.8-2.4-2.7-3.6
			c-0.4-0.5-0.3-1.2-0.4-1.7c-0.1-0.8-0.2-1.6-0.3-2.4c-0.2-1.6-0.5-3.1-0.7-4.7c-0.1-0.4-0.4-1.3-0.2-1.7c0.2-0.3,0.5-0.6,0.8-0.9
			c0.7-0.7,1.2-1.5,2.1-1.9c1.3-0.6,2.6-1.2,3.8-1.7c1.1-0.5,2.1-0.1,3.3,0.1c-0.2,0.6-0.4,1.2-0.6,1.8c-0.2,0.6-0.3,1.3-0.7,1.7
			c-0.9,0.9-1.8,1.8-2.7,2.7c-0.6,0.7-1.7,1.2-1.5,2.3c0.2,1.1,0.3,2.3,0.3,3.5c0.1,1.4,0.7,2,1.7,2.9c0.5,0.6,1.3,1.8,2.1,1.6
			c1.9-0.5,3.7-1.3,5.6-1.8c0.4-0.1,0.9-0.2,1.3-0.4c0.3-0.2,0.4-1.5,0.5-1.9c0.3-1.3,0.6-2.6,0.7-4c0.4-2.7,0.4-5.9,1.5-8.4
			c0.6-1.2,1.1-2.5,1.6-3.8c0.4-0.9,1.2-1.3,2-1.8c0.9-0.5,1.6-1.4,2.6-1.8C378.2,116.2,379.8,116,381.2,115.7
			C383.5,116.6,379.8,116,381.2,115.7z"/>
		<path d="M368.6,171c0.5,1.3,1.1,2.6,1.5,4c0.4,1.4,1.7,1.7,3,2.2c1.1,0.5,2.3,0.9,3.4,1.4c1.3,0.5,2.3,1.9,3.3,2.8
			c0.4,0.4,0.2,0.5-0.1,0.9c-0.2,0.3-0.4,0.6-0.8,0.7c-1.5,0.3-3,0.4-4.4,0.7c-1.3,0.2-2,0.2-3.1-0.6c-1.2-1-2.5-1.9-3.6-3
			c-0.9-0.9-1.1-2.8-1.5-4c-0.5-1.6-1-3.2-1.5-4.7c-0.2-0.5-0.5-1-0.4-1.5c0.2-0.8,0.3-1.6,0.5-2.3c0.3-1.6,0.7-3.3,1-4.9
			c0.3-1.4,0.4-3.1,1-4.4c0.2-0.6,0.7-1,1.1-1.4c0.5-0.6,1-1.2,1.6-1.8c1-1,2.2-2,3.3-2.9c1-0.9,2.3-1.4,3.6-1.9
			c1.2-0.6,2.5-1,3.8-1.4c1.5-0.5,2.9-0.5,4.4-0.5c1.5,0,3-0.2,4.5,0.1c1.6,0.4,3.1,1,4.6,1.4c0.7,0.2,1.4,0.3,2.1,0.7
			c0.6,0.3,1,0.8,1.6,1.1c1.2,0.9,2.3,1.5,3.3,2.7c1,1.1,2.1,2.2,2.7,3.5c0.7,1.5,1.5,3,2.3,4.5c0.6,1.2,0.7,2.7,1,4
			c0.3,1.4,0.4,2.9,0.6,4.3c0.2,1.2-0.6,2.8-1,4c-0.4,1.2-1.3,1.4-2.4,1.8c-0.9,0.3-1.6,0.9-2.5,1.1c-0.6,0.2-2.9,0.2-2.9-0.6
			c0-1-0.4-1.9,0.4-2.8c0.8-0.9,1.5-1.7,1.9-2.9c0.4-1,0.7-1.9,1.1-2.9c0.2-0.5,0.4-1,0.5-1.5c0.1-0.3,0.5-1,0.4-1.3
			c-0.1-0.5-0.6-1-0.8-1.5c-0.4-1-0.9-1.3-1.9-1.7c-2-0.9-4-1.8-6-2.7c-0.8-0.4-1.7-1-2.6-1.2c-1-0.2-2.2,0.1-3.2,0.1
			c-0.9,0-1.9,0-2.8,0.1c-1.1,0.2-2.1,0.6-3.2,0.9c-1.9,0.6-4.1,0.9-5.8,2.1c-1.7,1.2-3.4,2.4-5.1,3.5c-0.8,0.5-1.1,1.9-1.5,2.8
			C369.5,168.8,369.1,169.9,368.6,171C369,172.1,369.4,169.2,368.6,171z"/>
		<path d="M331.5,329.7c-1.5-0.4-3.5-0.6-4.6-1.7c-1-1-1.9-2.1-3-3.1c-0.5-0.5-0.2-1.3-0.2-1.9c0-0.8-0.1-2,0.3-2.8
			c0.3-0.6,0.8-1.1,1.3-1.5c0.7-0.7,1.3-1.5,1.9-2.2c2.5-2.9,4.9-5.7,7.3-8.6c1.2-1.4,2.3-2.9,3.4-4.4c0.5-0.7,0.7-0.7,1.5-0.8
			c0.7,0,1.5-0.1,2.2-0.2c0.1,1.5,0.3,2.6,0.9,4c0.5,1.2,0.8,2.8,1.6,3.8c0.8,1,2,1.7,2.9,2.6c1.3,1.1,2.6,2.1,3.8,3.2
			c2.5,2.1,5,4.1,7.5,6.1c1.1,0.9,2.3,1.8,3.4,2.8c0.4,0.4,0.8,0.8,1.3,1c0.6,0.2,1.4,0,2,0c1.5,0,3,0,4.5,0.2
			c0.6,0.1,0.6,0.2,0.6,0.8c0,0.5,0,0.9,0,1.4c0,0.6-0.8,1.1-1.1,1.5c-0.5,0.6-1,1.2-1.5,1.8c-1.1,1.2-2.1,2.5-3.2,3.7
			c-1,1.2-1.9,2.3-2.8,3.5c-0.4,0.5-0.9,1-1.4,1.5c-0.5,0.5-1.1,0.2-1.7,0.1c-0.6,0-0.8-0.1-0.8-0.7c0-0.7-0.2-1.3-0.4-2
			c-0.4-1.4-0.7-3-1.3-4.3c-0.3-0.7-1-1.2-1.6-1.7c-0.7-0.7-1.5-1.3-2.2-2c-1.5-1.4-3.2-2.6-4.7-3.9c-3-2.5-5.9-5.2-9.1-7.5
			c-0.8-0.6-1.6-1.1-2.3-1.6c-0.6-0.4-1.1,0-1.7,0.2c-0.7,0.2-1.5,0.4-2.2,0.6c-0.8,0.2-0.8,0.2-1,1c-0.2,1-0.4,2-0.7,3
			c-0.2,0.8-0.6,1.7-0.3,2.5C330.8,325.8,331,327.8,331.5,329.7C330.3,329.4,331,327.8,331.5,329.7z"/>
	</g>
	<g id="_x3C_tree-bezier_x3E__1_">
		<path fill="#872321" d="M236.7,117.7c-0.1-0.6-0.2-1.2-0.2-1.7c0-0.5,0.2-0.9,0.8-1c0.5-0.1,0.9-0.1,1.1,0.5
			c0.1,0.3,0.3,0.6,0.5,0.9c0.9,1.1,1.7,2.2,3.5,1.4c0.9-0.4,2-0.3,3-0.4c0.5-0.1,0.8-0.3,0.8-0.8c-0.1-0.5,0.2-1.2-0.5-1.5
			c-0.5-0.2-0.9-0.1-1.2,0.5c-0.3,0.7-0.7,0.5-1.1,0c-0.4-0.5-0.1-3.6,0.4-3.8c0.8-0.3,1.6-0.7,2.5-0.5c0.3,0.1,0.7,0.1,1,0.2
			c2.7,0.7,2.8,0.9,1.2,3.1c-0.4,0.6,0,0.6,0.3,0.8c0.5,0.3,0.9,0.7,0.8,1.4c-0.1,0.7-0.7,0.7-1.2,0.8c-0.6,0.1-1.3,0.2-1.2,0.9
			c0.1,0.7,1,0.6,1.6,0.6c2.1-0.2,2.1-0.2,2.1,1.9c0,0.2,0.1,0.5,0.1,0.5c1.4,0.1,1.6,1.5,2.2,2.3c0.8,1,1.4,2.3,2.3,3.3
			c0.6,0.6,0,1.8,0,2.7c0,0.1-0.2,0.2-0.3,0.3c-0.8,0.7-3.3,0.5-4-0.4c-0.6-0.8-1.2-1.5-2.3-0.6c-0.1,0.1-0.2,0.1-0.3,0.1
			c-1.8-0.8-3.3,0.2-4.9,0.6c-0.9,0.2-1.9,0.2-2.6,1c-0.4,0.4-0.9,0.2-1.4,0.2c-1.2,0-1.8,0.6-1.8,1.7c0,1.3,0.9,1.1,1.4,0.7
			c1.6-1.5,2.6-0.3,3.6,0.6c0.8,0.7,1.3,0.9,2.3,0.3c1-0.6,2.1-1,3.1-1.6c1.2-0.7,2.1-0.3,2.7,0.9c0.3,0.5,0.6,0.8,1.1,0.4
			c1.5-1.3,2.1,0.2,3,0.9c0.2,0.1,0,0.6,0.3,0.5c2-0.6,3.1,1.6,4.9,1.7c0.8,0.1,0.7,0.7,0.6,1.4c1.1-1.4,2.1-1.1,3.1-0.1
			c0.1,0.1,0.3,0.3,0.3,0.2c2.2-0.6,2.1,1.2,2.7,2.3c0.4,0.8,0.8,1.5,1.6,2.1c0.7,0.5,0.8,1.2,0.9,2.5c1.4-2.3,3.1-1.1,4.7-1.3
			c0.9-0.1,1.5,0.5,1.7,1.4c0.1,0.5,0.1,0.9,0.2,1.4c0.2,1.9,0.2,1.9,2.2,1.8c1.3,0,1.9,0.7,1.4,1.9c-0.2,0.6-0.3,1.1-0.1,1.7
			c0.4,1.1-0.3,1.8-1.3,2.3c1.1,0.1,1.8,0.5,1.8,1.6c0,0.3,0,0.7-0.3,0.7c-1.3,0.1-2,1.4-3.5,1.1c-1.5-0.3-3-0.2-4.2-1.4
			c-0.3-0.3-0.8-0.5-1.2-0.3c-0.4,0.2-0.1,0.5-0.1,0.7c0.1,0.6,0.1,1.2-0.5,1.6c-0.2,0.1-0.5,0.2-0.7,0.1c-0.5-0.5-0.8-1.1-0.6-1.8
			c0.1-0.3,0.2-0.5,0.1-0.8c-0.7,0.1-0.5,0.6-0.5,1.1c0,0.6,0.2,1.3,0,2c-0.1,0.5-0.4,0.9-0.8,1.1c-0.6,0.2-0.7-0.2-1-0.6
			c-0.5-0.8-1.4-0.6-2.1-0.5c-0.7,0.2-1,1-1.5,1.6c-0.2,0.2,0.1,0.3,0.2,0.4c0.9,0.7,0.4,1.3,0,2.1c-0.5,0.9-0.9,0.7-1.6,0.3
			c-0.4-0.2-0.8,0-1.2,0.3c-0.6,0.6-1.3,0.8-1.7-0.3c-0.4-0.9-0.9-0.4-1.5-0.1c-1.4,0.9-2.6,0.6-3.4-0.7c-0.3-0.4-0.2-0.7-0.1-1
			c0.1-0.3,0.1-0.6-0.3-0.6c-0.4,0-0.4,0.3-0.3,0.6c0.1,0.3,0.2,0.5,0.2,0.8c0,0.3,0,0.6-0.4,0.7c-0.3,0.1-0.4-0.1-0.6-0.3
			c-1.2-1.3-2-1.4-3.6-0.5c-0.8,0.5-1.8,0.7-2.4,0.1c-1.4-1.8-3.6-1.2-5.3-1.8c-0.1,0-0.3,0-0.4-0.1c-1.2-1-2.3-1.9-3.9-0.6
			c-0.1,0.1-0.5-0.1-0.6-0.3c-1.4-1.7-3.6-2-5.3-3.2c-0.3-0.2-0.4-0.2-0.7,0c-1.2,0.5-2,0.1-2.5-1.1c-0.2-0.6-0.6-1-1.4-0.9
			c-1.5,0.2-2.1-0.8-2.3-2c-0.2-1-0.1-2.2,1.4-2.5c0,0,0.1-0.2,0.1-0.3c-0.4-0.4-0.8-0.3-1.2-0.1c-2.8,1.1-5.5,2.5-7.4,4.9
			c-0.1,0.1-0.3,0.3-0.3,0.5c0,1.8-1.4,2.2-2.8,2.3c-2.1,0.2-3.1,1.9-4.4,3c-0.2,0.1-0.8,0.7-0.2,0.9c0.6,0.2,1.2,1,1.9,0.3
			c1.2-1.1,2.7-1,4.1-1.1c0.3,0,0.7,0,0.8,0.1c0.8,1,1.9,0.9,3,1.1c0.9,0.2,1.6,1.1,2.8,0.4c0.6-0.4,1.2,0.6,1.5,1.2
			c0.7,1.6,1.7,2.2,3.5,2.1c1.5-0.1,2.8,1.5,2.4,2.9c-0.4,1.5,0,2.2,1.5,2.6c0.6,0.2,1.3,0.2,1.2,1c-0.1,0.9-0.8,0.7-1.3,0.8
			c-1.4,0.1-2.2,0.8-2.6,2.1c-0.3,1-1.2,2.2-1.7,2.4c-1.1,0.3-2.4,1.1-3.6,0.4c-1.1-0.7-2-0.6-2.9,0.3c-0.5,0.5-0.9,0.6-1.5,0.1
			c-0.5-0.4-1.2-0.4-1.6,0.2c-0.5,0.8-1.3,1.1-2.1,0.9c-1.8-0.3-3.6,0.9-5.5,0.3c-0.7-0.2-1.4,1-2.5,0.7c-0.5-0.1-1-0.1-1.4-0.5
			c-0.8-0.7-1.4-0.4-1.8,0.4c-0.6,1.1-0.7,2.2-0.7,3.4c0,0.6,0.3,0.6,0.7,0.6c1.3,0.2,2.7,0.1,4,0.5c1.1,0.4,2.5-0.3,3.8-0.5
			c1.5-0.2,3-0.6,4.5-0.5c0.8,0.1,1.1-0.6,1.7-0.9c0.5-0.2,1.1-0.8,1.7-0.2c0.6,0.5,0.8,1.2,0.3,1.9c-0.8,1.1-0.6,1.8,0.7,2.3
			c0.6,0.2,1.1,0.7,1.4,1.2c0.3,0.6,0.8,0.6,1.3,0.6c0.4,0,0.6-0.3,0.8-0.6c0.2-0.3-0.2-0.3-0.4-0.5c-0.1-0.1-0.3-0.2-0.4-0.4
			c-0.6-1,1.1-4.5,2.2-4.3c1.4,0.2,1.7-0.7,2.2-1.5c0.4-0.7,0.3-1.8,1.2-2c1-0.1,2,0.3,3,0.4c0.1,0,0.2,0.1,0.3,0.1
			c1.5,1.3,2.8,0.1,4.2-0.2c0.4-0.1,0.3-0.4,0.2-0.8c-0.2-0.8-0.3-1.7-0.4-2.5c-0.1-1,0.7-1.7,1.3-1.7c1.5,0,1.8-1.2,2.6-1.9
			c0.5-0.5,0.7-1.1,1.1-1.6c0.9-1.1,2.3-1.3,3.4-0.4c0.9,0.8,1.3,0.7,1.6-0.4c0.2-0.6,0.4-1.2,1.2-1.3c0.7-0.1,0.9,0.5,1.1,1.1
			c0.1,0.2,0.3,0.5,0.5,0.4c0.4-0.2,1.1-0.4,1.1-1c0.1-1,0.6-1.7,1.5-1.6c1.2,0.2,3-1,3.6,1.2c0.1,0.3,0.2,0.7,0.7,0.6
			c0.5-0.1,0.4-0.5,0.4-0.8c0.1-1,0.8-1.4,1.8-1.7c1.5-0.4,2.6-0.3,3.6,0.9c0.5,0.6,1.2,0.4,1.7,0c0.9-0.6,1.8-0.5,2.7-0.1
			c1,0.5,1.7,0.5,2.5-0.5c0.5-0.8,1.4-1.5,2.6-0.7c0.4,0.3,0.8,0,1.2-0.2c1.2-0.6,1.9-0.4,2.3,0.9c0.1,0.4,0.1,0.8,0.6,0.8
			c2.2-0.1,2.6,1.6,3,3.1c0.5,1.8,1.2,2,2.6,0.7c1.6-1.4,2-1.4,3.7-0.3c0.8,0.5,1.6,0.3,2.4,0.2c0.9-0.1,1.5,0.1,1.9,0.9
			c0.6,1.5,1.4,2.8,2.8,3.7c0.4,0.3,0.4,0.7,0.5,1.1c0.3,1.9,1.3,2.4,3,1.4c0.5-0.3,0.8-0.1,1.2,0.2c0.5,0.4,0.6,0.9,0.2,1.4
			c-0.7,0.9-1.2,2.1-3,2c1,0.7,1.4,1.3,1.5,2.2c0,0.6,0.4,1.1,0.9,1.5c0.5,0.6,0.7,0.7,1.4,0c0.9-1,3.4-0.7,3.9,0.5
			c0.4,1,1.2,1.3,1.9,1.7c1.4,0.8,2.3,1.7,2.3,3.4c0,0.7,0.2,1.3,0.9,1.8c0.9,0.6,1.2,1.5,0.8,2.6c-0.5,1.5-0.7,3-2.4,3.9
			c-1,0.6-1.7,1.4-2.9,2c-0.9,0.4-2.5,1.3-2.2,3c0,0.3-0.2,0.9-0.3,0.9c-1.5,0.1-2.6,1.6-4.1,1.5c-1.2-0.1-1.3,0.6-0.9,1.1
			c1.2,1.2,0.9,3,1.8,4.3c0.5,0.8,1.1,1.2,1.9,0.8c0.9-0.5,1.3-0.2,1.4,0.7c0.1,0.5,0.2,0.8,0.7,0.9c0.5,0,1.1,0.1,1.4-0.4
			c0.3-0.4,0.5-0.8,0.8-1.1c0.5-0.5,1.3-0.8,1.8-0.2c1.4,1.5,3.2,1.9,5.1,2.2c1.3,0.2,2.4,0.6,2.6,2.1c0.1,0.8,0.6,1.6,1,2.3
			c0.3,0.7,0.9,0.9,1.7,0.9c0.7,0,0.9-0.4,0.9-1c0-0.3,0.2-0.4,0.4-0.5c0.3,0,0.5,0.1,0.5,0.4c0.1,1.1,1.1,1.9,0.6,3.2
			c-0.4,1,1,2,2.1,2c0.7,0,1.8-0.4,2.2,0.5c0.4,0.9,0.7,2-0.3,3c-0.4,0.4-0.9,0.9-0.9,1.5c0,1.5-0.8,2-2.3,2c-0.5,0-1.2,0-1.5,0.3
			c-1.1,0.8-2.1,1.1-3.1-0.2c-0.1-0.1-0.3-0.1-0.4-0.1c-1.2,1-2.2,0.1-3.1-0.5c-1.2-0.7-1.9,0.1-2.6,0.7c-1.4,1.1-1.5,1.1-2-0.4
			c-0.2-0.5-0.4-0.7-0.9-0.8c-1.6-0.1-2.9,0.7-3.3,2.1c-0.4,1.3,0.2,2.5,1.7,3.2c0.5,0.2,0.8,0.5,0.9,1c0,0.5-0.4,0.7-0.8,0.9
			c-1.2,0.7-2.5,1.2-2.2,3c0.1,0.9-1.5,1.3-2.6,0.6c-0.8-0.5-1.6-0.4-2.5-0.3c-0.8,0.1-1,0.5-0.5,1.2c0.8,1.1,1.9,1.9,3.1,2.4
			c0.8,0.4,1.8,0,2-0.9c0.2-1,0.8-2,0.7-3.1c0-0.5,0-1,0.6-1.1c0.5-0.1,0.7,0.4,0.9,0.8c0.3,0.4-0.1,1.3,0.8,1.3
			c0.8,0.1,1.1-0.6,1.5-1.2c0.8-1.2,2.1-0.9,3.2-0.8c0.8,0.1,1.7,0.4,2.2,0.9c1.2,1.2,2.6,1.7,4.3,1.9c0.7,0.1,1.3,0.3,1.9-0.2
			c0.5-0.3,1-0.3,1.5,0.1c0.3,0.3,0.5,0.6,0.3,1c-0.2,0.6-0.7,0.8-1.4,0.9c-1.3,0-2.5,0.4-3.5,1.2c-0.9,0.7-1.4,0.5-1.8-0.3
			c-0.3-0.6-0.6-1.3-1.4-1.1c-0.7,0.1-1,0.7-1.2,1.4c-0.8,2.6-3.7,3.3-5.7,1.3c-0.5-0.5-0.7-0.4-1,0c-0.4,0.6-1.1,1-1.7,1.3
			c-1,0.6-2,1.1-3.2-0.1c-1.1-1.1-4.1-0.7-5.3,0.4c-0.7,0.7-1.5,1-2.5,0.7c-0.7-0.2-1.1-0.5-1-1.3c0.2-0.9-0.4-1.1-1.1-0.9
			c-2.2,0.5-4.3-1.4-3.7-3.6c0.3-1-0.2-1.1-0.9-1.4c-0.4-0.2-0.8-0.2-0.7,0.5c0.1,0.7-0.1,1.3-0.8,1.4c-0.5,0.1-0.7-0.4-0.9-0.8
			c-0.4-0.7,0-1.1,0.6-1.5c0.1,0,0.1-0.1,0.2-0.3c-1.1-0.2-2.4,0.6-3.4-0.5c0,0-0.3,0-0.4,0.1c-0.9,1.2-2,0.8-3.2,0.4
			c-1.4-0.5-1.9,0.7-2.5,1.6c-0.1,0.2-0.2,0.5-0.2,0.8c-0.6,1.7-1.1,3.5-3.6,3.3c-0.8-0.1-1.1,0.6-1.6,1c-1.7,1.4-3.4,2.8-4.9,4.5
			c-0.7,0.9-1.3,1.8-1.5,2.8c-0.2,0.7-0.6,1.2-1.2,1.7c-1,0.7-1.8,1.3-2.1,2.7c-0.3,1.1-1.8,2-2.9,3c-0.7,0.6-1.3,1.3-2,2
			c-0.8,0.9-1.2,1.8-1,3.1c0.3,1.6-0.7,2.3-2.3,1.7c-3.1-1.3-6.1-0.9-9,0.5c-2.9,1.4-6,2.6-8.5,4.7c-1.6,1.3-2.7,3-4,4.6
			c-1.1,1.4-2.3,2.8-3.5,4.2c0.4,0.5,0.9,0.2,1.4,0.2c0.6,0.1,1.1,0.3,1.1,0.9c0.1,0.7-0.6,0.7-1,0.7c-1.7-0.1-2.6,0.9-3.1,2.2
			c-0.3,0.8-0.9,1.3-1.5,1.8c-0.9,0.7-2,1.3-2.6,2.3c-0.2,0.2-0.3,0.5-0.6,0.5c-1.7-0.1-2.4,1.1-3.4,2.1c-1.6,1.7-3.2,3.3-4.4,5.3
			c-0.6,1.1-1.4,2-1.8,3.2c-0.2,0.7-0.7,1.3-1.1,1.9c-1.2,1.7-2.3,3.5-1.7,5.7c0.2,0.6,0.3,1.3,0.8,1.8c0.3,0.3,0.5,0.6,0.4,1
			c-0.4,2.3,1.1,4.3,1.1,6.5c0,1.9-0.5,3.8,0.6,5.6c0.3,0.5,0.3,1.4-0.7,1.6c-0.3,0.1-0.4,0.4-0.2,0.7c0.2,0.3,0.4,0.5,0.8,0.5
			c0.4,0,0.5-0.1,0.6-0.4c0-0.4-0.2-1.1,0.5-1c0.6,0.1,0.8,0.7,0.7,1.3c-0.1,1.1,0.4,1.8,1.5,2.3c0.9,0.4,1.5,1.2,2,1.9
			c1.2,2.1,0.4,3.3-2.1,3.4c-0.6,0-1.2,0.1-1.8,0.3c-0.9,0.4-1.7,0.4-2.3-0.4c-0.5-0.6-0.9-0.5-1.3,0.1c-0.1,0.1-0.1,0.3-0.2,0.4
			c-0.3,0.3-3.9,0.7-4.3,0.5c-0.9-0.5-1.6-2.6-1.3-3.8c0.2-0.6,0.4-1.2,1.1-1.5c-1,0.6-2.2,0.9-3.2,1.4c-0.4,0.2-0.7,0.8-0.4,1.4
			c0.3,0.6,0.5,1.2,0.7,1.8c0.2,0.4,0.4,0.9-0.1,1.2c-0.5,0.3-0.9,0.1-1.3-0.2c-1-0.8-1.9-1.5-2.6-2.7c-0.7-1.3-2.3-2-3.1-3.3
			c-0.1-0.2-0.3,0-0.5,0.1c-1.2,0.5-1.9,0-1.7-1.3c0.2-1.2,0.6-2.4,1-3.5c0.5-1.2,0.3-2.3,0.1-3.5c-0.2-1.4-0.2-2.8-0.3-4.3
			c0-0.4,0.2-1.2-0.4-1.2c-0.7,0-0.8,0.7-0.8,1.3c-0.1,1.5,0.4,2.9,0.3,4.4c-0.1,1-0.3,1.9-1.1,2.5c-0.7,0.6-0.8,1.2-0.8,2
			c0.1,1.2,0.3,2.4-0.5,3.5c-0.3,0.4,0.1,0.7,0.5,0.8c1.2,0.2,1.8,1.1,2.7,1.8c0.1,0.1,0.4,0.3,0.3,0.4c-0.2,1.4,0.3,2.3,1.9,2.2
			c0.3,0,0.5,0.4,0.5,0.8c-0.1,0.4-0.2,0.8-0.7,1c-1.5,0.6-2.8,0.4-3.9-0.6c-0.4-0.4-0.8-0.8-1.5-0.5c-0.6,0.2-1.1-0.2-1.4-0.8
			c-0.3-0.5-0.6-1-0.8-1.5c-0.4-0.6-0.5-1.2-1.2-0.1c-0.5,0.8-1.8,0.7-2.6,0.1c-0.8-0.5-1.7-1.1-1.4-2.3c0.1-0.3,0.8-0.9-0.1-1.1
			c-0.8-0.2-1,0.6-0.9,1c0.1,1.9-1.2,2.1-2.6,2.4c-0.4,0.1-0.9,0-1-0.4c-0.3-2-1.7-0.9-2.5-0.7c-1.5,0.4-3,1.1-4.5,1.6
			c-0.6,0.2-1.1,0.5-1.4,1c-0.7,1.1-2,1-2.9,1.7c-0.2,0.2-0.4,0-0.7-0.1c-1.4-0.5-2.7-0.7-3.8,0.5c-0.4,0.5-2.6,0-2.9-0.6
			c-0.4-0.9,0.1-1.3,0.8-1.8c0.8-0.5,1-1.8,2-2.1c1.1-0.3,1.1-1,1-1.9c-0.1-1,0.6-1.5,1.4-2c0.6-0.4,0.9,0.1,1.1,0.5
			c0.3,0.7,0.5,1.5,0.8,2.2c0.2,0.4,0.4,0.9,0.9,0.7c0.6-0.3,0-0.6-0.1-0.9c-0.4-1,0.3-1.6,0.9-2.2c0.6-0.5,1.2-0.9,1.9-1.2
			c0.9-0.4,1.6-1.3,2.3-1.7c1.2-0.7,1.5-1.5,2-2.6c0.2-0.6,0.3-0.9-0.1-1.3c-0.5-0.6-0.5-1.4,0.3-1.6c1.6-0.4,2-2.1,3.3-2.8
			c0.3-0.2,0.6-0.4,1-0.6c0.6-0.2,1.2,0.6,1.4,0.1c0.4-0.8,0.7-1.8,0.7-2.7c0-0.9,0.1-2-0.8-2.8c-0.1-0.1-0.1-0.2-0.1-0.2
			c0.3-2.1-1-4-0.6-6.1c0.1-0.5,0.4-0.9,0.9-1.2c1.2-0.8,1-1.9-0.3-2.5c-1.3-0.6-2.2-2.4-1.7-3.7c0.3-0.8,1-0.8,1.6-0.7
			c1.5,0.3,1.8-0.5,1.5-1.7c-0.1-0.8,0.1-1.5,0.4-2.3c0.7-2.2,0.2-4.3-0.6-6.4c-0.2-0.4-0.7-0.6-1.1-0.5c-1.2,0.3-2.3-0.3-3.4-0.5
			c-0.5-0.1-0.7-0.4-0.8-0.8c0-0.6,0.4-0.7,0.8-0.8c1.2-0.2,2.3-0.1,3.4,0.1c0.6,0.1,1.2,0.4,1.5-0.3c0.3-0.7-0.5-0.8-0.9-1.2
			c-1.1-0.9-2.5-0.7-3.8-1c-0.6-0.1-1.1-0.3-1.4-0.8c-0.3-0.7-0.2-1.4,0.7-1.4c0.9,0,1.9-0.3,2.8,0.4c0.4,0.3,1.1,0.3,1.5-0.1
			c0.5-0.5,0.6-1.2,0.5-1.8c-0.1-0.6-0.8-0.4-1.1-0.2c-1.4,0.6-2.8-0.1-4.3,0.4c-0.9,0.3-2.1-0.4-3-0.8c-1.8-0.8-3.4-1.6-5.4-1.2
			c-0.5,0.1-1-0.1-1.4-0.3c-0.6-0.4-1.1-1.2-2.1-0.4c-0.3,0.2-1.5-0.6-2.2-0.9c-0.7-0.3-1.2-0.2-1.8,0.3c-0.4,0.4-0.7,1.2-1.4,0.9
			c-0.8-0.3-1.5-0.9-1.6-1.8c-0.2-1.4-0.7-1.2-1.5-0.4c-0.5,0.5-1,0.6-1.6,0.1c-0.5-0.4-1-0.4-1.5,0.2c-0.7,0.8-1.6,0.8-2.6,0.4
			c-1.5-0.6-2.9-0.3-4.2,0.5c-0.8,0.5-1.4,0.7-2.1-0.3c-0.5-0.9-1.3-1.8-2.2-2.3c-1.1-0.6-2-1.4-3.1-2c-1-0.6-1.9-0.7-2.9-0.5
			c-1.6,0.3-2.4-0.6-1.9-2.1c0.4-1.3-0.1-2-1.3-2.1c-1.4-0.1-1.8-0.7-1.2-1.9c0.2-0.5,0.5-1,1-1.3c0.3-0.2,0.5-0.3,0.5-0.8
			c-0.3-2.4,1.3-3.9,2.7-5.5c0.3-0.4,0.8-0.6,0.8-1.1c-0.1-2.3,1.5-2.8,3.4-3.1c0.7-0.1,0.9-0.5,0.7-1.1c-0.2-0.5-1-0.8-0.7-1.6
			c0.3-0.8,0.9-1.3,1.6-1.7c0.2-0.1,0.3-0.2,0.5-0.5c-1.3-0.5-2.4,0-3.5,0.4c-0.9,0.3-2,0.8-2.5-0.2c-0.6-1-0.6-2.2,0.1-3.3
			c0.3-0.4,0.6-0.6,1.3-0.5c1.2,0.3,2.5,0.3,3.7-0.2c-0.4-0.5-0.7-0.5-1.2-0.4c-1.6,0.4-2.2-0.2-1.9-1.7c0.2-0.9,0-1.3-0.9-1.6
			c-0.7-0.2-1.4-0.7-1.2-1.6c0.2-0.9,0.4-1.9,1.7-1.9c1.7-0.1,2.2-1.3,2.7-2.6c0.7-1.7,1.5-3,3.5-3.3c0.9-0.2,1.1-1.4,0.3-2.1
			c-1.7-1.3-3.4-2.4-5.8-1.9c-1.7,0.4-2.7,1.6-3.7,2.7c-0.8,0.9-1.7,0.9-2.6,1c-1,0.1-1.6,0.3-1.6,1.5c0,1.4-0.7,1.7-2.1,1.4
			c-1.1-0.2-2.1,0.7-3.2,0.6c-0.8,0-1.2,0.1-1.8-0.8c-0.7-1.1-1.4-2-1.5-3.3c0-0.5-0.5-0.5-0.9-0.5c-0.9,0.1-1.8,0-2.6,0.2
			c-1.1,0.2-1.8,0.1-2.7-0.6c-0.3,1-0.2,2.2-1.7,2.2c-0.5,0-0.6,0.6-0.7,1c-0.2,0.8-0.6,0.9-1.2,0.3c-1-0.9-1.3-2.3-0.7-3.6
			c0.1-0.2,0.3-0.6,0.2-0.6c-1.8-1.3,0.2-3.8-1.8-5c-0.6-0.4-0.2-0.9,0.1-1.2c1.3-1,1.5-2.7,2.6-3.8c0.6-0.6,0.6-1.3,0-1.9
			c-0.8-0.8-0.7-1.8-0.8-2.8c0-0.4,2.6-3.6,2.9-3.4c2,0.7,3.9-0.4,5.8-0.3c0.9,0,1.2-0.7,1.7-1.1c1.1-0.9,1.4-0.8,2,0.4
			c0.2,0.3,0.1,0.8,0.6,0.8c0.6,0,0.9-0.3,1.2-0.7c0.1-0.1,0.2-0.2,0.2-0.4c0.3-0.8,0.4-1.8,1.5-1.7c1,0.1,1.7,0.8,1.9,1.8
			c0,0.1,0.2,0.2,0.3,0.4c1.4-2,3-0.4,4.5-0.4c0.3,0,0.4,0.4,0.5,0.6c0.7,1.8,2.4,2.4,3.9,1.2c0.7-0.5,1-0.4,1.7,0.2
			c1,0.8,1.6,2.1,3,2.3c0.7,0.1,1.5,2.2,1.1,2.9c-0.3,0.6-0.8,0.8-1.5,0.4c-0.7-0.4-1-0.2-1.1,0.6c-0.1,1.2-0.8,1.2-1.8,1
			c-1.6-0.3-2.8-1.5-4.4-1.6c-0.3,0-0.6-0.4-0.9,0c-0.1,0.2-0.1,0.5-0.1,0.7c0.1,0.4,0.5,0.4,0.8,0.3c1-0.3,1.5,0.2,2,1.1
			c0.6,1.1,1.4,2.2,2.3,3.1c1.1,1.2,2.8,0.8,4.2,1.2c0.5,0.1,1,0.2,1.4,0.6c1.4,1.4,2.7,1,3.8-0.7c0.9-1.4,1.1-3.1,2.5-4.4
			c-1.1-0.3-2.1-0.7-3.1-0.1c-0.6,0.3-1.3,0.9-2,0c-0.6-0.8,0-1.3,0.3-2c0.6-1.4,2-1.2,3-1.6c1.2-0.5,2.1-1.9,1.8-3.1
			c-0.1-0.4-0.5-0.3-0.8-0.5c-0.8-0.6-1-1.3-0.4-2.2c0.9-1.3,0.6-2.7-0.7-3.5c-1.5-0.9-3-1.7-4.6-2.5c-1-0.5-4.1,0.2-4.9,1
			c-0.2,0.2-0.5,0.5-0.7,0.7c-0.4,0.5-1,0.6-1.5,0.2c-0.5-0.4-0.6-0.9-0.2-1.5c0.3-0.6,0.7-1.2,1.2-1.7c-2.2,0.1-3.9,1.6-5.7,2.5
			c-1.2,0.6-2.3,0.1-3.5,0.1c-0.4,0-0.8-0.4-0.8-0.9c-0.1-1.3-0.9-1.4-1.9-1.2c-0.5,0.1-1,0.1-1.4,0.2c-1.8,0.2-2.3-0.5-1.6-2.1
			c0.5-1,0.1-1.3-0.8-1.7c-1.6-0.6-1.8-1.4-0.8-2.7c0.6-0.7,1.1-1.4,1.5-2.3c0.3-0.9,1.4-0.8,2.3-0.5c0.3,0.1,0.6,0.5,1,0.5
			c0.3,0,0.6,0.2,0.8-0.1c0.1-0.3-0.1-0.5-0.3-0.6c-0.7-0.3-1.3-0.8-1-1.6c0.4-1,0.9-1.9,2.2-2c1,0,1.9,0.1,2.3-1.2
			c0.1-0.5,0.9-0.3,1.3-0.1c1.2,0.7,1.6,0,1.9-0.9c0.3-1,0.8-1.4,1.8-0.7c0.3,0.2,0.7,0.3,0.9,0c0.2-0.4-0.2-0.5-0.5-0.7
			c-2-1.6-3.9-1.4-5.5,0.6c-0.4,0.5-0.9,0.5-1.4,0.5c-0.3,0-0.5-0.3-0.8-0.3c-0.5-0.1-1.2,0.2-1.3-0.7c-0.2-0.9,0.6-1,1.3-1.3
			c-0.8-0.5-1.3,0-1.8,0.2c-0.4,0.2,0,0.8,0.2,1.1c0.5,0.9,0.1,1.4-0.9,1.6c-0.4,0.1-0.7,0.1-1,0.4c-0.6,0.5-1.3,0.6-1.8,0
			c-0.5-0.6-0.6-1.4,0-2.1c0.3-0.4,0.7-0.8,1.1-0.9c1.1-0.3,1-1,0.4-1.5c-0.5-0.4-1-1.8-2-0.5c-0.3,0.3-0.7,0.5-1.1,0.6
			c-1,0.2-1.2,0.9-1.3,1.8c-0.1,2.3-1.8,3.5-4.1,3.1c-0.6-0.1-0.8-0.1-0.7,0.6c0.2,1.6-0.5,2.5-2.1,2.7c-0.3,0-0.6,0.3-0.8,0.5
			c-0.5,0.3-1,0.7-1.6,0.2c-0.6-0.5-1-1-0.8-1.8c0.2-0.7,0.4-1.3,0.8-1.8c0.4-0.5,0.6-0.9,0.2-1.5c-0.4-0.5-0.7-0.9-1.6-0.7
			c-1.2,0.3-1.8-0.8-1.4-1.9c0.4-0.9,1.1-1.4,1.8-2c0.7-0.5,1-0.4,2.4,0.6c0.4-1.2-0.6-2.5,0.2-3.7c0.1-0.1-0.5-0.7-0.8-0.9
			c-0.9-0.5-1-1.2-0.6-2c0.5-0.9,0-1.5-0.6-1.9c-0.7-0.5-1.2-0.1-1.7,0.5c-1,1.1-2.2,2-3.9,1.9c-1.1,0-1.5,1-1.4,1.8
			c0.1,1.4-0.5,1.8-1.8,1.5c-0.4-0.1-0.7,0.2-1,0.4c-1.1,0.8-1.7,0.8-2.2-0.4c-0.4-0.8-0.8-1.5-1.6-1.9c-0.8-0.5-0.9-1-0.2-1.8
			c1.1-1.4,0.8-2.7-0.7-3.4c-1.5-0.7-1.6-1.1-0.5-2.3c0.2-0.2,0.4-0.3,0.5-0.5c0.2-0.4,0.9-0.8,0.6-1.3c-0.3-0.4-0.9-0.1-1.4-0.1
			c-1.7,0.1-2.4-0.6-2.2-2.2c0.1-1,0.5-1.7,1.3-2.2c0.6-0.5,1.3-1.1,2-0.5c0.7,0.6,0.1,1.3-0.4,1.9c0.5,0.2,0.8,0.3,1.2,0.4
			c0.5,0.3,1,0.3,1.4-0.3c0.4-0.6,0-0.9-0.4-1.3c-1.3-1.1-1.3-1.6,0.2-2.5c0.5-0.3,0.7-0.7,0.6-1.3c-0.1-0.5-0.2-1.1,0.6-1.2
			c0.7-0.1,0.9,0.3,1,0.9c0.1,0.6,0.4,0.7,0.8,0.1c0.3-0.4,0.6-0.8,0.9-1.1c0.4-0.4,0.6-0.7,0-1.1c-0.2-0.1-0.3-0.3-0.4-0.4
			c-0.2-0.6-0.3-1.4-1.1-1.4c-0.9,0-0.8,0.8-1.1,1.3c-0.4,0.7-0.8,1-1.6,0.7c-0.8-0.3-1.3-0.8-1.2-1.7c0.2-1.6,1.2-2.7,2.8-2.7
			c1.2,0,1.4-0.6,1.5-1.4c0-1.2,0.7-1.3,1.6-1c1.1,0.4,1.4,0,1.1-1c-0.3-1.3,0.1-2.6-0.4-3.9c-0.3-0.9,0.9-2.4,2-2.5
			c1.8-0.2,3.5-0.1,5.2,0.8c-0.2-0.8,0.2-1.4,0.9-1.8c0.5-0.3,1-0.7,1.5-1.1c0.8-0.7,1.7-0.9,2.5-0.4c0.8,0.5,1.4,0.3,2.1-0.2
			c1.1-0.8,2.1-0.9,3.3-0.1c1.6,1.1,3.5,1.3,5.2,2c1.1,0.5,1.3-0.8,1.9-1.2c0.5-0.3-0.3-0.7-0.7-0.9c-1.2-0.8-6.9-1.5-8-2.3
			c-1.1-0.7,0.5-4.6,1.7-5.2c0.8-0.4,4.9-0.1,5.4-0.8c1.2-1.9,1.9-1.9,3.4-0.1c0.4-1.1,1.4-1.8,1.3-3.1c-0.1-1.3,1.2-2.1,2.6-1.8
			c0.4,0.1,0.9,0.1,1-0.2c0.6-1.7,1.9-2.7,3.3-3.7c-0.9,0.3-1.8,0.6-2.7,0.7c-0.5,0-0.5,0.4-0.5,0.9c0,0.7-0.3,1.3-1.1,1.5
			c-0.7,0.2-1.2-0.3-1.5-0.8c-1.1-1.4-2.3-1.8-3.8-1c-1,0.5-2.8-7.5-1.5-7.7c1.3-0.3,1.7-1,1.4-2.1c-0.7-2.5,0.2-4.8,0.8-7.2
			c0.3-1.3,1.4-1.3,2.4-1.1c1.1,0.2,0.8,1,0.6,1.6c-0.2,0.8,0.4,1,0.8,0.9c1.4-0.3,2.2,0.5,2.6,1.6c0.5,1.3,1.6,1.9,2.8,2.6
			c0.5-0.6,0.8-1.4,1.4-1.9c0.6-0.5,1.2-0.8,2-0.3c0.9,0.5,1.6,0,1.4-1c-0.2-0.7,0.5-1.7-0.5-2c-1-0.4-1,0.9-1.6,1.3
			c-0.6,0.5-1.2,0.9-1.9,0.5c-0.4-0.2-0.7-0.6-0.6-1c0.1-0.8,0.5-1.5,1.4-1.6c1.3,0,1.8-0.7,1.9-1.8c0-0.3,0.3-0.9,0.7-0.7
			c1.3,0.8,2.7-0.5,4,0.2c0.6,0.3,1.6-0.1,1.1-1.2c-0.1-0.3-0.2-0.8-0.1-1.1c0.1-0.5,0.5-0.9,1-0.8c0.5,0.1,1.1,0.4,0.9,1
			c-0.3,1.1,0.5,1.1,1.2,1.4c0.9,0.4,0.9-0.4,1.1-0.8c0.1-0.1,0.2-0.3,0.3-0.3c1.7-0.2,2.2-1.6,2.9-2.9c0.3-0.5,0.8-0.7,1.3-0.6
			c1.7,0.3,3.2-0.1,4.3-1.5c0.4-0.5,0.9-0.2,1.3,0c0.5,0.2,0.5,0.7,0.2,1.1c-0.3,0.4-0.6,0.7-0.2,1.1c0.4,0.4,0.8,0.6,1.3,0.2
			c1.3-1,2.6-0.1,3.9-0.2c0.3,0,0.5,0.2,0.6,0.5c0.1,0.2,0.2,0.5,0.2,0.5c0.7-0.1,1.3-0.5,2.1,0c0.8,0.5,1.5,0,1.9-0.7
			c0.2-0.4,0.6-0.4,1-0.4c1-0.1,1.5-0.7,1.6-1.7c-0.9,1.3-2.5,1-3.6,2c-0.5,0.5-1.5,0.6-2.2,0.2c-0.7-0.5-0.6-1.3-0.5-2.1
			c0-0.8,0.6-1.3,1.4-1.4c1-0.1,1.1-0.6,0.9-1.5c-0.3-1,0.1-1.5,1.3-2c1.2-0.5,2-1.7,2.8-2.8c0.4-0.6-1.8-2.4-2.5-2.2
			c-0.6,0.2-1.1,0.3-1.4-0.2c-0.3-0.5-0.4-1.1-0.1-1.6c0.3-0.5,0.7-1.1,1.4-1c0.9,0.2,1.9,0.4,2.7,0.9c0.5,0.3,0.9,0.5,1.5,0.5
			c1,0,1.8,0.5,2.3,1.4c0.7,1.2,2.3,1.7,3.3,0.8c1.1-1.1,2-1.8,3.3-0.6c0.3,0.3,0.7,0.2,0.8-0.2c0.6-1.7,2.6-2.2,3.3-3.8
			c0.1-0.3,0.4-0.4,0.7-0.4c1.4,0.1,2.7-0.1,4-0.5c0.2,0,0.5,0.1,0.6,0.2c0.7,0.7,1.4,1.2,2.5,1c0.4-0.1,1,0.3,1.3,0.7
			c1.2,1.6,2.3,2,4.1,1.1c1.1-0.5,1.9-0.1,2.8,0.2c1.4,0.4,2.7,1.7,4.4,1.1c0.4-0.1,0.8-0.1,1.1-0.4c1-1,1.8-0.5,2.4,0.4
			c0.6,0.9,1.3,1.6,2.5,1.9c0.8,0.2,1.2,0.9,1.7,1.6c0.5,0.6,1.2,1,0.7,2c-0.3,0.6,0.4,0.7,0.7,0.9c0.4,0.3,1,0.4,1.4,0.6
			c0.9,0.5,1.5,1.1,0.7,2.1c-0.2,0.3-0.5,0.7-0.1,1c0.4,0.3,0.8,0.1,1.2-0.1c1.6-1,2-0.8,2.2,1c0.1,1.1,0.4,1.5,1.6,1.3
			c2.8-0.4,3.7,0.7,3.3,3.4c0,0,0,0.1,0,0.1c-1.3,1.1-0.4,2.4-0.4,3.6c0,1.2-0.5,1.5-1.5,0.9c-1-0.6-1.9-0.1-2.5,0.4
			c-0.9,0.7-1.9,1.3-2.8,2.1c-0.3,0.2-0.6,0.5-0.9,0.4c-1.8-0.7-3.5,0.3-5.3,0.2c-1.1-0.1-2,0.4-2,1.1c-0.1,0.9-0.9,2.3,0.6,3
			c0.1,0,0.2,0.1,0.3,0.1c1.7,2.8,4.3,1.3,6.6,1.3c0.5,0,0.6-0.4,0.5-0.8c-0.1-0.5-0.4-1-0.7-1.4c-0.4-0.4-0.6-0.9-0.3-1.4
			c0.3-0.6,0.8-0.8,1.4-0.7c0.4,0.1,0.8,0.1,1.1-0.2c1.3-0.9,2.7-1.3,4.1-0.2c0.3,0.2,0.7,0.2,0.7-0.1c-0.4-1.5,2.4-0.9,1.7-2.2
			c-0.8-1.4-0.3-2.5,0.3-3.6c0.5-1.1,1.4-1.4,2.4-0.9c1,0.6,2.4,0.8,2.4,2.5c0,1.2,1.4,2,2.9,1.9c1.6-0.1,2.2,0.4,2.4,1.9
			c0.1,0.6,0.2,1.1,0.2,1.7C235.3,117.3,235.7,117.8,236.7,117.7z M232.6,188.7c-0.7-0.8-1.2-1.8-2.4-1.8c-1.1-0.1-1.8-0.5-1.7-1.8
			c-0.9,0.5-1.7,0.9-2.2,1.6c-0.6,0.8-0.3,1.2,0.5,1.2C228.7,188.1,230.6,188.5,232.6,188.7c0.6,0.7,1.3,0.6,2.1,0.5
			c0.7-0.1,1.4-0.2,2,0.3c1.6,1.3,3.7,1,5.6,1.3c0.2,0,0.5,0,0.7-0.1c0.6-0.3,1.1-0.8,1.2-1.5c0.1-0.7-0.7-0.4-1.1-0.5
			c-0.5-0.2-0.7-0.8-1.3-1c0,0.1-0.1,0.2-0.1,0.4c-0.6,1.8-1.2,1.9-2.6,0.7c-0.5-0.5-1.1-0.5-1.8-0.4
			C235.7,188.6,234.2,189.6,232.6,188.7z M143.8,150.6c-0.3-0.4-0.7-0.8-0.9-1.2c-1.1-1.9-2.8-2.6-4.9-2.2c-0.8,0.1-1.5,0.2-2.3,0.3
			c-0.6,0.1-1-0.1-1.1-0.8c-0.4-3.2-1.8-3.3-5.1-3.3c-1.9,0-2.3,0.6-1.8,2.4c0.2,0.6-0.2,1.5,0.8,1.9c0.1-1.5,1.3-2.4,3.1-2.5
			c1.3-0.1,1.6,0.9,2,1.7c0.4,0.8-0.5,1-1,1.3c-0.2,0.1-0.4,0.4-0.7,0.5c-0.4,0.3-0.6,0.6-0.5,1.1c0.2,0.6,0.7,0.5,1.1,0.4
			c2-0.5,3.3,0.7,4.8,1.5c0.9,0.5,1.4,0.4,2-0.2C140.8,149.9,141.7,149.7,143.8,150.6c0.2,1.5-0.1,2.1-1.5,2.3
			c-0.8,0.1-1.1,0.5-1.5,1.1c-0.8,1.2-1.5,2.8-3.5,2.6c-0.3,0-0.6,0-0.9,0.1c-0.3,0.1-0.8,0.2-0.6,0.6c0.3,0.7,0.6,1.3,1.1,1.9
			c0.2,0.3,0.5-0.1,0.7-0.2c1.1-1,2.3-1,3.7-0.6c1.4,0.4,1.2,1.2,0.9,2c-0.6,1.7-0.3,2.2,1.7,2c1-0.1,2-0.2,2.9,0.7
			c0.1-1.8-0.5-3.3-0.7-4.9C145.8,155.5,146,152.7,143.8,150.6z M205.8,288.3c0.6-0.1,1.2-0.1,1.7-0.6c2-1.7,3.9-3.5,6-5.1
			c2.5-1.9,5.4-3.7,6-7.2c0-0.2,0.2-0.4,0.3-0.5c1.5-0.9,2.4-2.5,3.5-3.7c1.8-2,2.6-3.8,1.9-6.7c-0.9-3.4-3.3-4.9-5.7-6.8
			c-1.2-0.9-2-0.3-1.8,1.2c0.1,1-0.3,1.4-1.2,1.7c-0.7,0.2-1.3,0.4-2,0.3c-1.2-0.2-2.2-0.1-2.9,1.1c-0.3,0.5-0.9,0.9-1.7,0.9
			c-0.6,0-1.1,0.3-1.1,0.9c-0.1,1.3-0.7,1.6-1.9,1.3c-0.5-0.1-0.9,0-0.5,0.5c0.4,0.6,0.8,1.1,0.1,1.7c-0.7,0.6-1.5,0.7-2.3,0.3
			c-1.2-0.7-1.6-0.3-1.8,0.9c-0.1,0.4,0,1.2-0.8,1.1c-0.5-0.1-1.1-0.3-1.3-0.9c-0.1-0.4,0.1-1.3-0.7-1.2c-0.6,0.1-0.4,0.8-0.6,1.3
			c-0.3,0.8,0,1.6,0,2.4c0,0.5,0.2,1.1,0,1.5c-0.8,1.2-0.4,2.4-0.3,3.7c0.2,1.5,0.6,3.1,0.2,4.6c-0.4,1.6,0.6,3,0.3,4.6
			c-0.1,0.4,0.2,1.2,0.7,1.3C202,287.3,203.8,288.4,205.8,288.3z M152.9,117.2c0.8,0.9,1,1,2,0.6c0.7-0.2,1.1-0.2,1.5,0.4
			c1.1,1.3,1.8,1.2,2.7-0.3c0.4-0.7,1.1-1.1,1.6-0.7c1.2,1,2.3,0.8,3.7,0.6c1.1-0.2,1.6,0.5,1.2,1.5c-0.2,0.6-0.2,1.1,0,1.7
			c0.6,1.7-1,3.2-2.7,2.8c-0.7-0.2-1.4-0.3-2.1-0.5c-0.6-0.1-1.2,0.1-1.5,0.6c-0.4,0.6,0.2,0.9,0.6,1.1c1.1,0.7,1.4,1.7,1.4,2.9
			c0,0.3-0.2,0.7,0.2,0.9c0.3,0.1,0.6,0,0.8-0.2c0.3-0.3,0.1-0.6-0.1-0.9c-0.3-0.4-0.5-0.9,0-1.3c0.5-0.4,1.2-0.5,1.8-0.2
			c0.6,0.3,1,0.9,0.7,1.4c-0.7,1-0.2,1.9-0.2,2.8c0.1,1.8-0.8,2.4-2.5,1.6c-0.5-0.2-0.8-0.4-1.3-0.1c-1.7,0.9-3.2,2.1-5.1,2.7
			c-1,0.4-2.2,0.8-3.2,0.1c-0.9-0.7-0.5-1.7-0.4-2.6c0.1-0.9,0.4-2.1-0.4-2.6c-1-0.7-0.9-1.3-0.6-2.1c0.2-0.7,0.1-1.2-0.7-1.1
			c-0.5,0-0.8,0.6-1,1c-0.5,0.9-1.1,1-2,0.6c-1.3-0.6-3-0.2-4.1-1.4c-0.1-0.1-0.7,0-1,0.2c-2.2,1.5-4.7,2.1-7.3,2.2
			c-0.6,0-1.2,0.2-1.4,0.8c-0.2,0.7,0.5,0.8,0.9,1.2c0.4,0.5,1,0.3,1.5,0.2c2-0.3,3.3-2,5.4-2.5c0.8-0.2,1.1,0.1,1.3,0.5
			c1.1,1.6,1.5,1.6,3.1,0.7c0.6-0.4,1.4-0.4,2.1,0c0.7,0.5-0.1,0.9-0.2,1.3c-0.3,1.1-0.1,2.1,0.3,3.1c0.2,0.5,0.7,0.8,1.3,0.4
			c1.1-0.7,1.8-0.3,2.4,0.7c0.3,0.6,0.9,0.9,1.2,1.5c0.4,0.7,2.1,1,2.5,0.3c0.7-1,1.4-1.2,2.4-0.7c0.2,0.1,0.4,0.1,0.5-0.1
			c0.7-1.2,1.7-1,2.8-0.8c0.4,0.1,0.9-0.1,1.3-0.2c1.3-0.4,2.6-0.4,3.8,0.1c0.7,0.2,1.1,0.2,1.7-0.1c1-0.5,2.1-0.5,3.2-0.6
			c0.7-0.1,0.8,0.9,1.2,1.3c0.7,0.6,1.4,1.1,2.3,0.1c0.7-0.7,1.9-1,2.2,0.3c0.4,1.7,1.3,2.6,2.8,3.3c0.3,0.1,0.5,0.5,0.6,0.8
			c0.2,0.5,0.6,0.6,1.1,0.4c0.2,0,0.4-0.2,0.4-0.3c0-0.5-0.4-0.7-0.8-0.9c-0.1-0.1-0.4-0.1-0.5-0.2c-1.5-0.7-2.6-1.6-2.6-3.5
			c0-1.4,0.1-1.6,1.7-1.5c1.5,0.1,2.9,1.1,4.5,0.3c0.3-0.1,0.7-0.1,0.7-0.5c0-0.5-0.4-0.4-0.6-0.3c-0.8,0.2-1.3-0.4-2.1-0.4
			c-1,0-1.2-0.7-0.9-1.5c0.2-0.6,0.5-1.3,1.2-1.2c0.9,0.1,2.1-0.1,2.5,1c0.3,0.9,0.8,1.3,1.8,1c0.3-0.1,0.6-0.2,0.8-0.1
			c1.2,0.6,1.7-0.2,2.1-1.1c0.5-1.1,1.1-1.4,2.1-0.6c0.3,0.3,0.7,0.3,1.1,0.1c0.4-0.3,0.3-0.8,0.1-1.2c-0.2-0.5-0.8-0.8-1-1.3
			c-0.3-0.6-1-0.8-1.6-0.5c-0.7,0.3-1.9,0.2-1.8,1.5c0.2,1.4-0.8,1.8-1.8,2.1c-1.1,0.3-3-1.1-2.5-1.7c0.8-1.2,1-2.7,1.9-3.7
			c0.6-0.6,0.5-1.1,0.1-1.5c-0.7-0.8-1.1-1.6-1.1-2.7c0-0.7-0.6-0.7-1.2-1c-1.5-0.7-2.9-1.9-4.8-1c-0.1,0.1-0.4-0.2-0.6-0.4
			c-0.5-0.4-0.8-0.4-1.2,0.2c-0.4,0.6-1.1,0.9-1.8,0.7c-1-0.3-2.4-2.6-2.2-3.7c0.2-1.1-0.5-2-1.1-2.8c-0.1,0.8,0,1.6,0.1,2.4
			c0,0.4,0.2,0.8-0.4,0.9c-0.5,0.1-0.7-0.3-0.8-0.7c-0.2-0.9-0.9-1.3-1.6-1.2c-1.5,0.2-3-0.1-4.4,0.2c-0.5,0.1-1,0.2-1.5-0.1
			c-1.2-0.7-2.5-0.5-3.6,0C157.6,116.8,155.3,117.1,152.9,117.2z M194.6,93.6c0.1,0.5,0.5,0.5,0.6,0.5c1.5-0.1,1.6,0.9,1.6,1.9
			c0,1-0.7,1.3-1.3,1.9c-1.2,1.1-2.4,1.8-4.1,1.5c-0.2,0-0.6,0.1-0.8,0.3c-0.9,0.7-1.8,1.4-2.9,1.7c-0.4,0.1-0.7,0.3-0.9,0.7
			c-0.5,0.9-1.1,1.8-1.7,2.7c-0.4,0.7-0.6,1.4-0.1,2.3c0.6,1,0.7,2.5,0,3.7c-0.8,1.3-2.2,2.1-3.4,2.8c-1.2,0.7-2.4,1.8-4.1,2
			c1.7,0.7,2.2,0.7,3.7,0.2c2-0.7,3.1-0.5,4.5,1c1.7,1.7,1.7,1.7,3.2-0.3c-0.7-0.5-1.7-0.7-2.2-1.5c-0.3-0.5-0.4-1-0.1-1.5
			c0.4-0.5,0.8-0.4,1.3-0.2c0.7,0.3,1.4,0.4,2.1,0.3c0.8-0.1,1.3,0.4,1.6,0.9c0.4,0.5-0.1,0.9-0.5,1.3c-0.1,0.1-0.3,0.3-0.3,0.4
			c0,0.8,2.3,2.3,3.1,1.9c2.4-1.3,5-1.2,7.6-0.9c0.4,0.1,0.8,0,0.9-0.5c0.4-1.2,1.5-1.6,2.5-2.1c-1.2-0.5-2.4-0.7-3.6-0.9
			c-0.6-0.1-1.2-0.4-1.2-1.2c-0.1-0.6,0-1,0.6-1.2c1.5-0.4,2.8-1.4,4.2-1.6c1.7-0.3,1.5-1.1,1.5-2.2c0.1-1.3-0.8-1.4-1.8-1.9
			c-1.4-0.6-1.8-0.6-2,0.8c-0.2,1.6-1.7,2.2-2.2,3.6c-0.2,0.5-1.3,0.5-1.9-0.2c-0.3-0.3-0.4-0.8-0.5-1.1c-0.5-1.1-1-1.1-1.9-0.3
			c-1.1,1-2.2,0.9-2.7-0.5c-0.3-1.1-0.9-1.2-1.9-1.4c-0.9-0.1-1.6-0.7-2.6-0.1c-0.4,0.3-0.9,0.6-1.4,0.2c-0.4-0.4-0.4-1-0.2-1.6
			c0.2-0.6,0.6-1.2,1.2-1.5c0.5-0.3,0.8-0.6,0.9-1.2c0-0.6,0.1-1.2,0.9-1.2c0.8,0,0.7,0.7,0.7,1.1c0.1,0.8,0.5,1.2,1.2,0.6
			c0.4-0.4,0.8-1,1.4-0.5c0.6,0.5,1.4,1.2,1,2c-0.4,1,0.4,0.9,0.9,1.3c0.7,0.5,0.8,0.1,1.1-0.4c0.2-0.3,0.5-0.5,0.9-0.7
			c0.6-0.3,1.4-0.4,1.3-1.4c-0.1-1-0.9-0.9-1.6-1c-0.9-0.1-1.3-0.7-1.3-1.6c0-0.8,0.3-1.4,1.3-1.4c0.4,0,0.7-0.1,1-0.4
			c1.8-2.1,3.1-2.2,5.1-0.4c1.7,1.5,1.7,1.5,3.4,0.2c-0.1-0.1-0.2-0.2-0.4-0.2c-1.1,0-1.7-0.6-1.6-1.6c0.1-1.6,1.6-1.1,2.6-1.3
			c1-0.2,1.3,0.4,1.3,1.2c0,1.6,0.1,3.1,0.7,4.7c-0.3-0.9,0.3-1.3,0.9-1.7c1.2-0.9,1.2-1.8,0.1-2.8c-0.3-0.3-0.6-0.7-0.9-1.1
			c-1.2-1.6-2.5-3.1-4.9-2.3c-0.4,0.1-1,0.1-1.4,0.2c-1.2,0.1-2.5,0.6-3.5-0.6c-0.3-0.3-0.6,0.1-0.9,0
			C197.7,92.9,196.5,94.9,194.6,93.6z M188,150.2c0.3,1.6,0.1,2.5-1.5,2.4c-0.7,0-0.7,0.4-0.4,0.9c0.3,0.6,0.9,0.4,1.4,0.4
			c1.8-0.1,2.1,0.2,1.8,2c-0.2,1,0.5,1.9,1.1,2.4c0.5,0.4,1-0.5,1.4-1c0.8-0.9,2.4-0.9,3.4-0.2c1,0.8,2.4,1.3,2.9,2.7
			c0.1,0.2,0.3,0.3,0.6,0.4c2,0.4,3.5,0,4.7-1.8c1.1-1.5,2.4-3.3,4.4-3.7c2.2-0.4,3.5-1.5,4.2-3.5c0-0.1,0.1-0.1,0.2-0.2
			c2.3-2.4,3.4-5.4,3.7-8.6c0.1-0.9,0-1.9-0.5-2.7c-0.1-0.2-0.2-0.6-0.6-0.5c-0.4,0.1-0.4,0.3-0.4,0.6c0,1-0.6,1.7-1.2,2.5
			c-0.5,0.6-1.2,0.7-1.6,0.3c-1.1-1.1-1.3-0.5-1.7,0.5c-0.6,1.4-1.8,2-2.7,1.4c-2.1-1.3-2.3-2-1.2-3.6c0.4-0.5,1.1-1.5,0.9-1.6
			c-0.9-0.4-1.1,0.7-1.8,1c-0.1,0-0.2,0.2-0.2,0.4c-0.8,1.9-2.7,2.6-4.2,3.5c-1.5,0.9-1.6,0.7-0.5,2c0.4,0.4,0.9,0.9,0.6,1.6
			c-0.3,0.8-0.9,0.9-1.6,1c-0.7,0.1-1.3,0.2-2,0.2c-0.6,0-0.8,0.1-1,0.6c-0.5,1.3-1.1,1.3-2.2,0.4c-1.1-0.9-1.9-0.8-2.6,0.4
			C190.5,151.6,189.2,151.7,188,150.2z M178.9,94.7c-1.1,0.1-2.2,0.2-3.3,0.4c-0.7,0.1-1.8-0.2-2.1,0.5c-0.3,0.5,0.8,0.8,1.1,1.4
			c0.1,0.2,0.2,0.3,0.3,0.5c0.5,0.8,0.9,1.5,2.1,1.6c1.1,0.1,1.2,1.2,1.4,2c0.3,0.8-0.1,2-0.7,1.9c-1.9-0.1-2.4,1.1-3,2.3
			c-0.9,1.7-2.6,2.1-4.3,2.5c-0.1,0-0.3,0.1-0.4,0.2c-1.9,1.2-2.1,1.1-3.6-0.5c-0.8-0.8-1.4-1.7-2.5-2.2c-0.5-0.2-0.7-0.3-0.9,0.3
			c-0.4,1.1-0.7,2.3-2.4,2.1c-0.1,0-0.4,0.1-0.5,0.3c-0.6,1.2-1.9,1.7-2.8,2.6c-1.7,1.5-3.9,2.3-6.2,2.1c-1.3-0.1-1.9,0-2.5,1.2
			c-0.4,1-1.2,1.9-2.2,2.3c-0.7,0.2-1.3-0.6-1.9-1c-0.6-0.5-2.1-0.1-2.1,0.6c-0.1,1.4-1,2.2-1.9,3c-0.3,0.3-0.5,0.5-0.2,0.8
			c0.3,0.3,0.7,0.7,1.3,0.5c0.5-0.1,0.3-0.4,0.2-0.8c-0.2-0.6-0.2-1.3,0.6-1.5c0.7-0.2,0.9,0.3,1.2,0.9c0.7,1.7,2.8,2.6,3.9,1.4
			c1.1-1.2,2.3-2.4,2.5-4.2c0-0.4,0-0.8,0.4-1c0.4-0.2,0.8,0,1,0.2c0.7,1,0.9,0.3,1.2-0.3c0.3-0.6,0.4-1.6,1.3-1.5
			c1.8,0.1,3-1.1,4.5-1.6c0.7-0.3,1.1-0.7,1.3-1.4c0.3-1.1,0.9-1.1,1.8-0.4c1.9,1.6,1.9,1.6,3.8,0.1c0.9-0.7,1.7-0.7,2.5,0.2
			c0.2,0.3,0.5,0.6,0.8,0.8c0.7,0.8,1.3,0.7,1.5-0.3c0.3-1.1,0.9-1.1,1.7-0.7c1,0.4,2.2,0.3,3.2,1.1c-0.8-1.7-0.3-2.6,1.3-3.1
			c0.2,0,0.4-0.2,0.5-0.3c1.2-1.4,2.5-1.1,3.8-0.3c0.7,0.5,1.4,0.3,2.1,0c0.5-0.2,1.1-0.8,0.7-1.4c-0.2-0.4-0.8-0.9-1.4-0.1
			c-0.3,0.4-1.1,0.4-1.5-0.3c-0.5-1-0.9-2.3-0.2-3.2c0.9-1.2,1.3-2.5,1.5-4c0.2-1.3,1.9-2.2,3.1-1.4c0.8,0.5,1.2,0.6,1.9-0.1
			c0.5-0.5,1.6-0.3,1.8-1.5c-1.3,0.1-2.1-0.5-2.8-1.6c-0.5-0.8-1.2-1-2.3-0.6c-1.3,0.5-1.8,1.7-3.1,2.2c-0.5,0.2-0.9,0.9-1.5,0.5
			C178.2,95.8,179,95.3,178.9,94.7z M240.2,262.6c0.7-0.1,1.6-0.2,2.6-0.3c0.5-0.1,0.8-0.3,0.8-0.8c0-0.6-2.2-3.4-2.8-3.5
			c-2.3-0.2-3.1-1.9-3.8-3.6c-0.4-1-1-1.6-2.2-1c-0.5,0.3-1.2,0.1-1.2-0.2c0-1.6-1.9-1.5-2.3-2.6c-0.1-0.2-0.3-0.4-0.6-0.3
			c-0.4,0.2-0.3,0.5-0.1,0.7c1.2,1.3,0.2,2-0.7,2.9c-0.8,0.7-1.8,1-2.3,2.2c-0.7,2.2-0.6,4.3-0.1,6.5c0.5,1.9,1.9,3.3,3.7,2.6
			c2.5-1,5.5-0.2,7.7-2.1C239.2,262.7,239.6,262.8,240.2,262.6z M164.6,206.7c0,2.7,0.1,3,1.7,4.8c0.3,0.3,0.5,0.6,0.5,1
			c0.4,3.1,1.3,6,2.6,8.9c0.4,0.9,0.5,1.9,1.2,2.8c0.5,0.7,0.8,1.7,1,2.6c0.2,0.8,0.1,2.2,1.2,2.1c1-0.1,0.7-1.4,0.9-2.3
			c0-0.2,0-0.5-0.1-0.7c-1-3.4-1-6.9-1.1-10.4c0-1-0.8-2-0.3-2.9c0.8-1.7,0.6-3.1-0.5-4.6c-0.4-0.5-0.1-1.7-1.1-1.5
			c-0.7,0.2-1.7-0.1-2.2,0.4C167.1,208.1,165.9,207.5,164.6,206.7z M225.4,192.7c-0.8-0.6-1.6-0.7-2.3-0.4c-1,0.5-1.6,0.1-2.4-0.4
			c-1.4-0.9-2.4-2.3-4-2.9c-3.2-1.3-6.8-0.4-10.1-1.1c-1.5,1-3.4,0.9-4.9,1.9c-0.9,0.6-0.7,1-0.1,1.6c0.7,0.7,1,0.4,1.6-0.2
			c1.3-1.5,2.1-1.4,3.2,0.1c0.3,0.5,0.7,1,1.3,1.3c0.5,0.3,1,0.9,0.9,1.3c-0.2,0.9,0.3,1.5,0.6,2.1c0.2,0.4,0.4,1,0.9,0.9
			c0.7-0.1,0.4-0.8,0.5-1.2c0.5-1.7,1.7-2.6,3.1-2.2c0.8,0.3,1.7,0.7,2.2,1.3c1,1.4,1.9,0.7,2.7-0.1c0.6-0.6,1.2-0.7,1.8-0.1
			c0.7,0.6,1.3,0.5,1.6-0.4c0.4-1.3,1-2.3,2.7-1.5C224.9,192.9,225.1,192.8,225.4,192.7z M151.1,160.3c0.3,2.4,0.6,2.9,2,2.7
			c1.1-0.2,1.7,0.2,2,1.2c0.2,0.6,0.5,1.2,1.2,0.7c0.9-0.5,1.5-0.3,2.2,0.2c0.6,0.4,1.4,0.5,1.6-0.4c0.5-2.3,0.9-4.7,1.2-7
			c0.2-1.2-1-2.1-2.4-2.2c-0.8,0-1.6-0.3-2-1.1c-0.3-0.5-0.6-0.8-1.3-0.6c-0.3,0.1-0.7,0-1-0.2c-0.4-0.3-0.7-1-1.4-0.3
			c-0.5,0.4-1,0.8-1.1,1.4c-0.2,1-0.2,2.1-0.7,3C151.1,158.8,151,159.6,151.1,160.3z M164.6,230.2c-1.1-1.9-1.6-3.8-2.2-5.6
			c-0.5-1.7-1.1-3.5-3.6-3.2c-0.2,0-0.5-0.1-0.6-0.3c-0.4-1-0.9-0.4-1.3-0.1c-0.7,0.7-1.4,0.8-2.2,0.3c-0.4-0.3-0.8-0.2-1.2-0.2
			c-2,0.1-3.3,1.8-5.2,2c-0.1,0-0.3,0.3-0.4,0.4c-0.6,1-1.1,2.1-1.3,3.2c0.7,0.2,1.7-0.5,1.9,0.7c0.2,1.3-0.1,2.3-1.5,2.8
			c0.6,0.4,1.1,0.2,1.4-0.2c1.1-1.7,2.8-2.3,4.5-3.3c1.4-0.8,2.2-1.1,3.1,0.5c0.3-0.4,0.4-0.6,0.6-0.8c0.9-1.2,1.4-1.2,2.4,0
			c0.6,0.8,1.3,1.7,2.6,1.5c0.6-0.1,1,0.2,1,0.8C162.6,229.8,163.3,230.1,164.6,230.2z M143.7,187.4c0.5-0.3,0.9-0.3,1.2,0.2
			c0.5,0.9,1.2,1.8,0.7,2.9c-0.5,1,0.6,0.9,0.8,1.3c0.2,0.3,0.7,0.4,1.1,0.1c1.8-1.3,1.8-1.5,0.9-3.5c-0.9-1.9-1.4-3.9-2.8-5.6
			c-0.4-0.4,0.1-1.7-1.2-0.8c-0.3,0.2-0.6-0.1-0.8-0.4c-0.7-1.1-2-1.8-2-3.3c0-0.3-0.1-0.5-0.5-0.6c-1.5-0.2-3,0.8-3.5,2.2
			c-0.4,0.9-0.5,1.9-0.6,2.8c-0.4,2.1,1.2,4.7,3.3,5.1c0.1,0,0.3,0,0.4,0C141.6,187.1,142.7,187.2,143.7,187.4z M254.2,252.9
			c-0.2-0.5-0.4-1-0.7-1.4c-0.3-0.5-0.4-1-0.4-1.5c-0.2-1.6-0.9-1.9-2.2-0.8c-0.7,0.6-1.1,0.5-1.6-0.2c-0.2-0.3-0.5-0.6-0.7-0.9
			c-0.4-0.4-0.6-1-1.4-0.6c-0.7,0.4-1.2,0.7-1.1,1.6c0.1,0.5,0.4,1.1-0.3,1.4c-0.6,0.2-1.1,0-1.5-0.5c-0.4-0.5-1.1-0.4-1.3,0
			c-0.3,0.8-1,0.9-1.7,1.2c-1,0.3-1,0.8-0.2,1.4c2.1,1.6,4.2,3.3,6.3,4.9c0.5,0.4,1,0.4,1.7,0.1c1.7-0.8,2.7-2.3,4.3-3.2
			C253.9,254.2,254.1,253.5,254.2,252.9z M163.3,168.7c1.1-1.1,2-2.3,3.9-1.5c0.7,0.3,1.1-0.4,0.9-1.1c-0.2-0.5-0.2-1.2,0.2-1.3
			c1.2-0.3,2-1.4,3.4-1.3c1.3,0.1,3,0.4,3.7-1.3c0.5-1.2,1.2-1.1,2.1-0.5c0.5,0.4,0.8,0.6,1.1-0.3c0.6-1.8,0.6-1.9-1.3-2
			c-0.2,0-0.4,0-0.6-0.1c-0.7-0.5-1.3-0.3-1.9,0.3c-0.8,0.8-1.5,0.4-2-0.3c-0.2-0.3-0.2-0.7-0.6-0.9c-0.7-0.3-4.1,0.5-4.6,0.9
			c-1.1,0.9-2,2.1-3.2,2.7c-0.5,0.2-0.6,0.6-0.5,1c0.2,1.4,0.2,2.8-0.5,4.1C163,167.7,163.1,168.1,163.3,168.7z M161.1,192.7
			c0,0.4,0.1,0.7,0.1,1.1c0.1,0.4,0.3,0.6,0.7,0.3c1.1-0.9,2.5-0.8,3.8-1c0.8-0.1,1.3-0.3,1.7-1.1c0.3-0.8,1.2-1.2,2-0.9
			c0.9,0.4,1.9,0.3,2.7,0.9c0.7,0.5,1.1,0,1.1-0.5c-0.1-1,0.4-1.8,0.5-2.7c0.2-1.2-0.3-1.7-1.5-1.6c-0.5,0-1,0.2-1.4,0
			c-1-0.6-1.5-0.2-2.1,0.6c-1.2,1.6-1.8,1.5-3-0.3c-0.2-0.4-0.6-0.6-0.9-0.8c-0.7-0.4-1-0.9-1.1-1.7c0-0.5,0.1-1.2-0.7-1.2
			c-0.6,0-1.1,0.4-1.2,1.1C161.6,187.4,161,190,161.1,192.7z M195.9,210.8c-1,0.5-2.2,3.4-2,4.6c0.2,1.1,0.1,2.3,0,3.4
			c-0.2,1.7-0.2,3.4-0.2,5.1c0,0.7,0.5,1.3,1.2,0.8c1.4-1,3.4-0.8,4.5-2.3c0.3-0.4,0.8-0.7,1.2-0.9c1.7-1.1,2.1-2.8,2.7-4.5
			c0.2-0.5-0.3-0.8-0.7-0.9c-0.4-0.1-0.5,0.4-0.5,0.7c-0.1,0.6-0.5,0.8-1,0.8c-0.5,0.1-0.8-0.2-1-0.6c-0.3-0.6-0.7-0.8-1.4-0.8
			c-2.7-0.3-3.7-0.9-3-4.2C195.8,211.5,196.1,211.2,195.9,210.8z M179.4,186c0.2,1.8-0.7,3.4-0.4,5.2c0.1,0.9,0.2,1.9,1.8,1.1
			c1.4-0.6,1.1-0.9,0.3-1.7c-0.9-0.9-0.7-1.7,0.3-2.2c0.9-0.5,1.9-0.8,2.8-0.5c1.8,0.7,3.3,0.6,4.9-0.3c0.5-0.3,1-0.1,1.4,0.4
			c0.4,0.4,0.2,0.8-0.1,1.3c-0.3,0.4-0.7,0.7-0.6,1.3c1,0.1,1.3-0.5,1.4-1.3c0.1-0.5,0.1-1,0.5-1.2c1.4-0.7,1.2-2,1.5-3.1
			c0.1-0.5-0.3-1.5-0.8-1c-1.4,1.1-2.2-0.2-3.1-0.5c-1.2-0.4-1.2-1.6-0.1-2.3c0.4-0.3,0.9-0.4,1.4-0.6c-2.9,0.4-3.1,0.6-3.7,3.3
			c-0.2,0.9-0.9,1.6-1.6,1.1c-1.3-0.8-1.8,0.1-2.5,0.8C181.5,187.1,180.9,187.1,179.4,186z M158.6,210.8c-0.2-0.6,0.1-1.5-0.5-2
			c-1.3-1-2.4-2.5-4.5-2c-0.3,0.1-0.8,0-1.1-0.3c-0.4-0.4-0.8-0.5-1.3-0.2c-0.4,0.2-0.7,0.3-1-0.1c-0.3-0.4-0.4-0.7-0.3-1.2
			c0.3-0.8,0.9-1.7,1.7-1.8c1.1-0.2,1.6-1,2.4-1.6c0.7-0.5,0.5-0.8,0.1-1.4c-0.4-0.5-0.8-0.8-1.4-0.3c-1.2,1.1-2.4,1.1-3.8,0.3
			c-0.3-0.2-0.9-0.7-1.2-0.1c-0.4,0.8-1.7,1.3-1.1,2.4c0.7,1.4,1.4,3,2.5,4c2.3,2.1,4.1,4.8,7.3,5.6c0.7,0.2,1.3,1,2,0.6
			C159.2,212.4,158.5,211.5,158.6,210.8z M267.2,229.1c-0.4,0.3-1.2,0.2-1.5,0.9c-0.3,0.8,0.6,0.9,1,1.1c1.2,0.8,1.2,1.5,0.2,2.5
			c-0.3,0.3-0.5,0.7-0.9,0.9c-0.8,0.4-0.8,0.8-0.6,1.6c0.4,1.3,0.5,2.6-0.7,3.5c-0.8,0.6-1.5,1.3-2.1,2.1c-1.3,1.6-2.8,2.7-4.9,3
			c-0.7,0.1-1,0.6-0.8,1.2c0.1,0.6,0.6,1,1.3,0.7c0.9-0.3,1.8-0.7,2.5-1.3c2.6-1.9,4.8-4.3,7.2-6.3c1.1-0.9,1.8-2,2.2-3.6
			c0.4-1.9-0.4-3.6,0.1-5.4c0.2-0.5-0.4-0.8-0.9-0.9C268.7,229.1,268,229.1,267.2,229.1z M151.8,147.7c0.2-1-0.1-2.2,1.5-2.3
			c0.3,0,0.6-0.2,1-0.3c1.8-0.2,3.7-1.3,5.5,0.2c0.3,0.2,0.6,0.3,0.9-0.1c0.5-0.8,1-1.6,0.1-2.5c-0.4-0.4-0.6-0.9-0.7-1.5
			c0-0.5,0.7-1.2-0.3-1.5c-0.8-0.2-1.6-0.7-2.3,0.2c-0.3,0.3-0.9,0.4-1.2,0.6c-1.3,0.9-3.4,0.8-3.7,3c0,0.4-0.6,0.6-1,0.6
			c-0.6,0.1-0.7-0.4-0.8-0.8c-0.1-0.6-0.2-1.2-1.1-0.9c-0.7,0.2-0.7,0.9-0.6,1.4c0.3,0.8,0.3,1.6,0.5,2.5c0.1,1.1,0.2,2.1,0.4,3.2
			c0.1,0.6,0.3,1,1.2,0.6C152.5,149.4,152.2,148.6,151.8,147.7z M181.6,289.7c0,0.4,0,0.7,0.1,1c0.7,1.2,1,2.4,0.8,3.8
			c-0.1,0.4,0.1,0.8,0.2,1.2c0.4,1.4,0.5,2.8-0.2,4.2c-0.3,0.5-0.2,1,0,1.5c0.4,1.7,1,3.4,0.9,5.2c0,0.4,0.3,0.9,0.4,1.3
			c0.1,0.3,0.3,0.5,0.6,0.5c0.4,0,0.4-0.4,0.3-0.6c0-0.2-0.1-0.5-0.1-0.7c0-0.6-0.5-1.5,0.5-1.6c0.7-0.1,0.8,0.9,0.9,1.5
			c0.1,0.3,0.1,0.7,0.1,1c0,0.6,0.2,1,0.8,1.3c0.9,0.5,1.1,1.3,1,2.3c-0.1,1.1-0.3,2.2,0.2,3.3c0.1-0.2,0.1-0.4,0.1-0.6
			c1.1-2.1,0.6-4.5-0.3-6.2c-0.8-1.6-1.5-3.1-1.9-4.7c-0.1-0.4-0.3-0.9-1-0.4c-0.6,0.3-0.9-0.2-1-0.8c-0.2-1.3,0-2.6,0.3-3.9
			c0.3-1.3,0.9-2.7,0.7-4c-0.2-1.9,0.5-3.7,0-5.6c-0.1-0.4,0.7-1.1-0.2-1.1c-0.8-0.1-0.5,0.7-0.5,1.2c0,0.3,0.1,0.6,0,0.8
			c-0.3,0.8-0.7,1.4-1.6,0.9C182.5,290.2,182.1,290,181.6,289.7z M185.7,211.3c0.2-1-0.1-2.1-1-2.3c-1.2-0.2-2.5,0.1-3.8,0.2
			c-0.1,0-0.1,0.2-0.1,0.2c0.1,1.3-0.8,2.6-0.2,4c0.8,1.8,1.1,3.6,0.5,5.5c-0.3,0.9-0.1,2.2,0.6,3.1c0.4,0.5,0.6,0.7,0.9-0.1
			c0.5-1.1,0.8-2.1,0.7-3.4c-0.1-1-0.1-2.2,0.8-3.1C185.4,214.4,186.2,213,185.7,211.3z M194.5,303.1c0,0.3-0.1,0.4-0.1,0.5
			c0.2,0.5,0.5,0.9-0.2,1.3c-0.6,0.4-1.3,0.5-1.9,0.2c-0.5-0.3-0.7-0.8-0.5-1.3c0.3-1,0.1-1.8-0.5-2.6c-0.4-0.6-0.6-1.4-0.6-2.1
			c-0.3-2.8-0.5-5.6-0.4-8.4c0-0.6-0.3-1-0.7-1.3c-0.1-0.1-0.5-0.1-0.5,0c-0.3,0.4-0.4,0.9-0.2,1.3c0.4,1.1,0.3,2.2,0.3,3.3
			c0,1.2,0.4,2.6-0.3,3.7c-0.5,0.7-0.4,1.4-0.4,2.1c0.1,1.8,0.9,3.3,2.2,4.5c1.3,1.2,1.5,2.5,0.8,4.1c-0.2,0.5-0.3,1-0.4,1.5
			c-0.1,0.3-0.3,0.7,0,1.1c0.2,0.2,0.3,0.1,0.5,0c0.4-0.3,0.6-0.6,0.5-1.1c-0.3-1.2,0.3-2.3,0.7-3.4c0.3-0.9,0.8-1,1.6-0.5
			c1.2,0.6,1.1,1.7,1.3,2.8c0.1,0.4,0.1,0.9,0.7,0.6c0.5-0.2,0.1-0.6,0-0.8c-0.6-1.2-1-2.5-1.1-3.9
			C195.1,304.1,194.8,303.6,194.5,303.1z M208,126.9c0,0.7,0.3,1.1,0.1,1.7c-0.8,2.1,0.6,3.9,2.8,3.9c0.4,0,0.9-0.1,1.3-0.1
			c0.9-0.1,1.8-0.2,2.8,0.3c0.9,0.5,2.1-0.1,2-1.2c0-1.4,0.5-2.6,0.7-4c0.1-0.7,0-1.3-0.8-1.4c-0.7-0.1-1.6-0.2-1.7,0.8
			c-0.2,1.3-1.1,1.6-2.2,1.6c-0.9,0-1.4,0.4-1.9,1c-0.3,0.4-0.5,1-1.2,0.8c-0.7-0.2-0.5-0.8-0.6-1.3
			C209.1,128.2,209.1,127.4,208,126.9z M125.9,150.9c-0.2-0.3-0.4-0.6-0.6-1c-0.2-0.4-0.3-0.9-0.6-1.3c-0.5-1.1-2-1.5-3-0.8
			c-2.6,1.6-2.8,1.5-4.7-0.9c-0.3-0.3-0.6-0.5-1-0.3c-0.3,0.1-0.5,0.4-0.4,0.6c0.6,0.7,0.4,1.9,1.3,2.3c1,0.5,1,1.4,0.7,2
			c-0.6,1-0.2,2.4-1.6,3c-0.4,0.2-0.5,0.8-0.2,1.3c0.5,0.9,1.4,0.8,2.2,1.1c0.5,0.1,0.6-0.4,0.7-0.7c0.4-0.7-0.3-1-0.6-1.4
			c-0.8-1.4-0.4-2.3,1.2-2.2c0.8,0,0.8-0.4,0.9-0.9c0.4-1.3,1.1-1.5,2.1-0.5c0.4,0.4,0.7,0.2,1,0.2
			C124.3,151.1,125.1,151,125.9,150.9z M207.8,227c0.7,0.3,1.2,0.6,1.5,1.1c0.1,0.3,0.3,0.7,0.7,0.3c0.7-0.6,1.7-0.3,2.6-0.8
			c0.8-0.4,1.3,0.1,1.7,0.8c0.2,0.3,0,0.9,0.5,0.8c0.4,0,0.6-0.5,0.7-0.8c0.5-1.2,1.2-1.1,2.1-0.3c0.3,0.3,0.7,0.5,1,0.8
			c0.9,0.8,2.6,1.2,3.7,0.8c0.1,0,0.1-0.1,0.3-0.3c-1.8-1.2-4-1.9-5.9-2.9C213.8,225.1,210.9,225.5,207.8,227z M222.4,148.1
			c-1.2-0.9-1.5-1.4-1.1-2.3c0.3-0.7,0.4-1.3,0.5-2c0.2-2.4,1.8-3.8,4.2-3.9c0.5,0,0.7-0.3,0.9-0.6c0.3-0.4-0.1-0.5-0.4-0.8
			c-0.7-0.6-1.7-0.4-2.4-0.8c-1.4-0.9-1.6,0.1-2.2,0.9c-1.4,1.8-1.3,3.9-1.7,5.9c-0.2,1.3-0.7,2.6-0.8,3.9
			C220.3,148.3,221.2,148.2,222.4,148.1z M203.5,295.1c-0.6,1.2-1.6,1.6-2.6,1.5c-1.5,0-2.4,1-3.4,1.6c-2,1.2,0.4,2.1,0.5,3.2
			c0,0.2,0.1,0.3,0.2,0.5c0.2,0.8,0.7,0.8,1.3,0.4c0.9-0.4,1.4-1.2,1.8-2.1c0.5-0.9,0.6-2.4,2.5-1.7c0.7,0.3,1-0.7,0.6-1.1
			C203.8,296.9,203.8,296.1,203.5,295.1z M127,179.6c0.5,1.1,0,2.9,2.2,2.6c0.2,0,0.5,0.2,0.6,0.4c0.7,0.9,1.7,0.8,2.7,1.1
			c0.6,0.2,1-0.1,1-0.6c0.2-1.2,0.4-2.5,0.5-3.7c0.1-0.8-0.5-1.5-1.1-1.4c-1.1,0.2-2.5,0.4-3.1,1.2
			C128.9,180.3,128.2,180.5,127,179.6z M117.9,228.9c0.7-0.4,0.8-1,1.1-1.5c0.6-1.5,1.2-1.9,2.8-1.6c1.1,0.2,2.3,0.3,3.4-0.2
			c1-0.5,1.6-0.2,2,0.7c0.3,0.6,0.8,0.7,1.1,0.3c0.5-1,1.4-1.3,2.2-1.8c0.5-0.3,0.7-0.8,0-0.9c-1.1-0.2-2.2-0.9-3.5-0.3
			c-0.4,0.2-0.9,0.5-1.5,0.4c-2.3-0.5-4,1.4-6.1,1.6c-0.4,0-0.7,0.6-0.7,1C118.6,227.3,118.2,228,117.9,228.9z M312.8,225
			c-1.4-0.8-1.9-2.6-3.4-3.4c-0.3-0.2-0.7-0.7-1.2-0.1c-0.5,0.6-1.7,0-1.9,0.7c-0.3,0.8,0.9,1,1.2,1.7c0,0,0.1,0.1,0.1,0.1
			c0,1.8,1,2.7,2.7,2.8c0,0,0.1,0.1,0.1,0.1c0.5,0.3,0.9,0.3,1.3-0.1C312.2,226.3,312.7,225.8,312.8,225z M274.5,228.5
			c-0.2,1.2-0.4,2.3-0.9,3.3c-0.5,1-0.3,2,0.4,2.7c0.7,0.7,1.7,0.3,2.4-0.1c0.6-0.3,1.8-0.6,1.4-1.5c-0.3-0.7-0.4-1.3-0.1-1.9
			c0.2-0.5,0.2-1-0.3-1.3c-0.5,0.3-0.3,0.6-0.3,0.9c0,0.5-0.1,0.9-0.7,0.9c-0.6-0.1-1.1-0.7-0.9-1.1
			C276.5,229,275,229.1,274.5,228.5z M167.5,139.5c-0.8,0.2-1.6,0.4-2.4,0.6c0.2,0.6,0.3,1.1,0.5,1.7c0.3,1-0.1,1.5-1.1,1.2
			c-0.6-0.2-0.8-0.1-0.7,0.5c0.1,0.4-0.2,0.9,0.7,0.9c1.3,0,2.2-1.2,3.4-0.9c1.3,0.3,1.5-0.4,1.3-1.4c0-0.3-0.1-0.6,0-0.8
			c0.3-1.7,0.3-1.7-1.5-1.7C167.7,139.5,167.6,139.5,167.5,139.5z M182.1,333.4c0-1.1,0.9-2.1,0.1-2.9c-0.8-0.8-0.7-1.7-0.3-2.4
			c0.6-1,0.6-2.1,1.1-3c0.4-0.7-0.9-3.4-1.3-3.1c-1.1,0.8-1.5,0-2.2-0.5c-0.3-0.2-0.5-0.5-0.8-0.2c-0.3,0.3-0.3,0.7,0,1
			c0.3,0.4,0.7,0.4,1.1,0.5c0.6,0.1,1.5,0.2,1.6,0.7c0.2,1.4,1.1,2.9-0.2,4.2c-0.3,0.3-0.7,0.7-0.3,1.1c0.7,0.7,0.6,1.4,0.6,2.2
			c0,1.1-1.3,0.6-1.9,1.2C180.3,333,181.3,332.8,182.1,333.4z M230,229.4c0.2-0.8-0.1-1.4-0.9-1.2c-0.7,0.2-1.4,0.3-2.1,0.4
			c-0.3,0.1-0.6,0.3-0.5,0.5c0.4,0.9,0.1,2.1,1.2,2.6c0.9,0.4,1,1.1,0.9,1.8c0,0.4-0.4,1.1,0.3,1.1c0.8,0,0.8-0.7,0.7-1.3
			c-0.1-0.6-0.3-1.4,0.3-1.7c0.9-0.5,0.9-0.9,0.3-1.6C230,230,230,229.6,230,229.4z M233.4,216.7c-0.3-0.7-0.9-0.7-1.4-0.6
			c-1,0.2-1.8,0.1-2.5-0.8c-0.6-0.8-1.4-0.6-2,0.2c-0.5,0.6-0.9,1.2-1.7,1.4c-0.5,0.2-1.1,2.1-0.8,2.2c0.8,0.2,1.4,0,2.1-0.5
			c1.5-1.1,2.8-2.7,5.1-1.4C232.5,217.5,233.1,217.4,233.4,216.7z M150.3,174.1c-0.3-0.7,0.2-1.7-0.9-1.9c-1.2-0.2-0.9,0.9-1.3,1.4
			c-0.8,1.2-1,2.9-2.8,3.3c-0.4,0.1-0.9,0-1,0.6c-0.1,0.3,0.2,0.5,0.4,0.7c0.4,0.2,0.9,0.3,1.3,0c0.4-0.3,0.8-0.7,1.2-1
			c0.8-0.6,1.2-1.8,2.6-1.1c0.3,0.2,0.5-0.3,0.5-0.6C150.3,175,150.3,174.6,150.3,174.1z M243.3,234.5c1-0.4,2-0.5,3-0.7
			c0.9-0.2,1-1.1,1-1.8c0-0.6-0.7-0.9-1.2-1.1c-0.3-0.2-0.5,0.1-0.6,0.4c-0.7,1.4-1.8,1.7-3.2,1.1c-0.5-0.2-1.1-0.3-1.4,0.5
			c-0.2,0.8,0.1,1.2,0.8,1.4C242.2,234.5,242.7,234.6,243.3,234.5z M179.8,148c-0.5,1.4-1,2.6-1.5,3.8c-0.7,2-0.6,2.4,1.6,3.7
			C180.4,153.1,181.1,150.7,179.8,148z M220.2,133c1.9-1.2,2-1.4,2.3-3.4c0.2-1,0.2-2,1-2.8c0.4-0.4,0.3-0.8-0.3-0.9
			c-1.5-0.2-2.9,1.2-2.4,2.6c0.3,1,0.2,1.8-0.2,2.7C220.2,131.6,220.1,132.2,220.2,133z M205.2,129.2c0.2-0.1,0.4-0.1,0.5-0.2
			c0.2-0.3-0.1-0.5-0.3-0.7c-0.8-0.7-1.1-1.5-0.7-2.5c0.1-0.3,0.2-0.6-0.1-0.7c-0.4-0.2-0.6,0.1-0.8,0.4c-0.4,0.6-0.8,1.2-1.3,1.8
			c-0.8,0.9-2.9,1-3.5,0.2c-0.2-0.2,0-0.8-0.5-0.7c-0.2,0-0.4,0.3-0.4,0.5c-0.1,0.5,0.2,0.6,0.6,0.8c1,0.4,2,1,3.2,0.5
			c0.8-0.3,1.7-0.2,2.4,0.4C204.5,129,204.9,129.1,205.2,129.2z M100.8,156.7c1.7-1.6,1.7-1.5,4-1.1c1.2,0.2,2.4-0.3,3.5-0.9
			c0.4-0.2,0.3-0.7,0.1-1c-0.1-0.2-0.4-0.3-0.6-0.1c-0.8,1-1.7,0.9-2.8,0.4c-0.5-0.2-1.1-0.2-1.6-0.3
			C102,153.5,101.2,154.4,100.8,156.7z M187.5,125.6c1.7-1.5,3.6-1.8,5.4-0.7c0.3,0.2,0.7,0.7,1.1,0.1c0.3-0.5,0.5-1.1-0.3-1.4
			c-0.6-0.3-1.2-0.4-1.6-0.9c-0.6-0.9-1.4-0.6-2-0.2C188.8,123.2,187.9,124.3,187.5,125.6z M194.9,325.5c0,1.2,1,1.8,1.8,2.2
			c0.7,0.4,0.7-0.6,0.9-1.2c0-0.1,0.1-0.1,0.2-0.2c1.2-0.5,0.7-1.4,0.4-2.1c-0.3-0.5-1.1-1.3-1.5-0.9
			C196,324.1,194.6,324.2,194.9,325.5z M154.2,126.6c0,0.5,0.2,1.2,0.7,1.3c1,0.3,2,0.4,3,0.5c0.4,0,0.6-0.3,0.4-0.7
			c-0.6-1.1-0.6-2.5-2.4-2.6C154.7,125.1,154.1,125.4,154.2,126.6z M131,167.5c-0.4,0.2-1.1-0.1-1.2,0.3c-0.2,0.7,0.6,0.3,0.9,0.5
			c0.4,0.3,0.7,0.6,0.6,1.1c-0.1,0.4-0.1,0.9-0.3,1.2c-0.6,1,0.4,1.3,0.8,1.4c0.6,0.2,0.6-0.5,0.7-0.9c0.2-0.6,0.3-1.3,0.8-1.8
			c0.7-0.7,0.4-1.6,0.1-2.2c-0.4-0.9-0.9,0.2-1.4,0.2C131.6,167.4,131.3,167.5,131,167.5z M219.9,106.6c-0.5,0.5-0.7,1.2-1.6,1.3
			c-0.9,0-1.4-0.9-0.9-1.8c0.3-0.4,0.5-0.9,0.1-1.3c-0.2-0.3-0.6-0.3-1-0.2c-0.7,0.2-0.2,0.7-0.3,1c-0.6,1.4,0.6,2.6,0.3,4
			c0.8-0.5,1.5-1.3,2.6-1c0.4,0.1,0.7-0.2,0.7-0.7C219.8,107.6,219.9,107.1,219.9,106.6z M183.5,162.1c0.6-1.4,2.2-0.9,3.2-1.5
			c0.5-0.3,0.9-0.9,0.7-1.6c-0.1-0.6-0.5-0.8-0.8-0.3c-0.6,0.9-1.3,0.7-2.1,0.3c-0.3-0.2-1.1-0.5-1,0.1c0.2,1-1,1.8-0.4,2.8
			C183.1,162.1,183.3,162.1,183.5,162.1z M143.7,203.3c-0.6-1-1.1-2.1-1.8-2.9c-0.6-0.7-1.3,0.3-2,0.2c-0.2,0-0.4,0-0.6,0
			c-0.3,0-0.7-0.1-0.8,0.3c-0.1,0.4,0.3,0.4,0.5,0.5C140.3,202.5,142.2,202.4,143.7,203.3z M200.7,289.9c0.3,0.9,1.2,0.9,1.8,1.2
			c0.5,0.2,0.7,0.5,0.6,1c-0.1,0.4-0.3,0.7-0.7,0.7c-0.3,0.1-0.7,0.1-1,0.2c-0.4,0.1-0.6,0.3-0.6,0.7c0,0.3,0,0.6,0.4,0.7
			c0.4,0.1,0.6-0.1,0.9-0.4c0.7-0.9,1.5-1.7,2.4-2.4c0.3-0.2,0.6-0.5,0.1-0.7C203.4,290.3,202.3,289.5,200.7,289.9z M249.8,174.8
			c0.8,0.4,1.8,0.6,1.9,1.7c0,0.4,0.4,0.5,0.8,0.5c0.7,0,1.3-0.2,1.4-0.9c0.1-0.7,0.3-1.6-0.5-2c-0.6-0.4-1.3-0.4-1.8,0.2
			C251,174.9,250.5,174.8,249.8,174.8z M147.2,243.3c-0.2,0.5,0,1.1,0.4,1.1c0.4,0,0.8-0.6,1-1c0.2-0.3,0.8-0.8,0.4-1.1
			c-0.8-0.6-0.9-2.2-2.5-1.9c-0.3,0.1-0.7-0.4-0.9,0.1c-0.2,0.4,0,0.8,0.4,0.9C147,241.9,147,242.6,147.2,243.3z M156.7,184.7
			c-0.2-0.5-0.2-1.2-0.7-0.8c-0.6,0.5-2.1-0.1-1.9,1.3c0.1,0.8,1.6,2.5,2,2.3C157.3,186.8,156.1,185.6,156.7,184.7z M257.1,181
			c0.1-1.1-0.6-1.7-1.4-2.1c-0.3-0.2-1.4,1.9-1.1,2.5c0.5,0.9,1.6,0.2,2.4,0.6C257.4,182.2,257,181.3,257.1,181z"/>
		<path fill="#872321" d="M236,108.6c-0.2,1-0.6,1.8-1.6,1.6c-1.1-0.2-1.1-1.1-0.8-2.2c-1,0.2-1.5,0.9-2.1,1.4
			c-0.9,0.7-1.7,0.5-1.8-0.6c-0.1-1.8-1.2-2.8-2.6-3.6c-0.4-0.2-0.8-0.4-1.1-0.7c-0.6-0.6-0.9-1.4-0.1-2c1-0.8,2.3-1,3.4-1.5
			c1.9-0.7,3.5,0.1,5.2,0.4c0.3,0.1,0.7,0.1,0.8,0.4c0.5,1.5,1.6,2.3,3.1,2.5c0,0,0.1,0,0.1,0c1.3,1.9,3.7,2.2,5.4,3.6
			c0.8,0.6,0.8,1.3,0.7,2.1c-0.1,0.5-0.4,0.9-1,0.9c-0.8,0-1.4,0-1.8-0.9c-0.4-0.8-1.6-0.7-2.5-0.4
			C237.2,110.5,237.2,110.5,236,108.6z"/>
		<path fill="#872321" d="M317.2,236.4c0,1.8-1.7,2.2-2.8,3.2c-0.9,0.8-1.8,0.1-1.9-1c0-0.3-0.3-0.7-0.4-0.6c-0.8,0.5-2,0.2-2.6,1.2
			c-0.8,1.2-1.3,1.3-2.4,0.3c-0.3-0.3-0.5-0.3-0.8-0.3c-1.4,0.2-2.4-0.9-2.8-2.8c-0.2-1,0.6-1.5,1.9-2.1c1.6-0.6,3,0.3,4.4,0.3
			c0.6,0,1,0.4,1.7-0.1c0.5-0.4,1,0.2,1.5,0.5c0.4,0.3,0.7,0.4,1.1-0.2c0.6-1,1.7-1.4,2.9-1.5c0.4,0,0.9,0,1.1,0.3
			c0.7,1.3,1.6,1.4,2.9,1c0.8-0.2,1.6,0.6,1.9,1.2c0.3,0.7-0.1,1.3-0.9,1.6c-0.5,0.2-0.8,0.6-1.3,0.8c-1.9,0.8-2.3,0.6-2.9-1.3
			C317.7,236.7,317.7,236.4,317.2,236.4z"/>
		<path fill="#872321" d="M140.8,103c-0.5,0.2-1,0.4-1.5,0.5c-0.8,0.2-1.6,0.4-2.5-0.1c-1.4-0.8-2.4-0.2-3,1.3
			c-0.4,1.1-0.7,2.2-2.2,2.3c-0.7,0.1-0.6,0.7-0.9,1.2c-0.3,0.6-0.6,1.2-1.4,0.9c-0.7-0.3-1.1-0.9-0.7-1.7c0.2-0.4,0.2-0.9,0.6-1.3
			c0.6-0.6,1.4-1.2,0.8-2.2c-0.1-0.2,0.1-0.6,0.3-0.7c1.8-1.4,3.3-3.2,4.8-4.9c0.5-0.5,1.1-0.7,1.8-0.5c0.2,0.1,0.4,0.3,0.5,0.2
			c1.9-0.5,2.7,0.4,2.8,2.2c0,0.4,0.4,0.5,0.8,0.7c0.6,0.2,1.4,0.5,1.3,1.2C142.3,102.9,141.7,103.4,140.8,103z"/>
		<path fill="#872321" d="M148.5,90.4c0.9,0.3,1.6,0.1,2.1-0.9c0.2-0.4,0.7-0.4,1.1-0.1c0.4,0.3,1.4,2.7,1.2,3.1
			c-0.1,0.5-0.4,0.7-0.9,0.7c-0.2,0-0.4-0.2-0.5-0.2c-0.4,0-0.6,0.4-0.9,0.7c0,0.1,0,0.3,0.1,0.3c0.3,0.2,0.7,0.2,0.9,0
			c1.1-0.9,1.7-0.3,2.3,0.5c0.4,0.6,0.9,0.3,1.4,0.1c0.7-0.3,1.2,0,1.6,0.5c0.5,0.5,0.2,0.9-0.2,1.3c-0.3,0.3-0.4,0.6-0.2,1
			c0.3,0.7-0.2,1.4-0.5,2c-0.5,0.9-1.7,1-2.2,0.1c-0.5-0.8-1.1-1-1.9-0.6c-1.1,0.5-1.6,0-1.8-1c-0.2-1-0.5-1.9-0.6-2.9
			c-0.1-0.8-0.8-0.9-1.4-1.2c-0.8-0.4-1.4-1-1.1-2C147.2,91.2,147.5,90.5,148.5,90.4z"/>
		<path fill="#872321" d="M164,91.2c0,0.4,0.1,0.8,0.1,1.2c0,0.4-0.3,0.7-0.6,0.9c-0.4,0.2-0.8,0.2-1-0.1c-0.4-0.7-1-0.5-1.6-0.6
			c-0.8-0.2-1.3-0.1-1.6,0.8c-0.2,0.7-1.2,1.1-1.6,0.4c-0.7-1.2-2-1.3-3-1.9c-0.8-0.4-1.3-1-1.1-1.8c0.2-0.8,0.8-1.2,1.8-1.2
			c1.1,0,2.3,0.3,3.4-0.5c0.6-0.4,1.7-0.5,2.4,0.2c0.2,0.2,0.5,0.3,0.8,0.3C163.6,88.9,164,89.9,164,91.2z"/>
		<path fill="#872321" d="M149,97.2c0.1,1-0.4,1.1-1.1,0.8c-0.8-0.4-1.4-0.5-2,0.3c-0.3,0.4-1,0.5-1.3,0.2c-0.6-0.4-1.2-0.3-1.9-0.2
			c-0.9,0.1-1.3-0.4-1.2-1.3c0.2-1.3,2.1-3.1,3.2-3.3c1.1-0.2,2.9,0.9,3.4,2.1C148.4,96.3,149,96.7,149,97.2z"/>
		<path fill="#872321" d="M241.7,111.5c-0.4,1.2-0.2,2.2,0.5,3.3c0.3,0.5,0,1.4-0.7,1.6c-0.7,0.3-1.2-0.2-1.5-0.8
			c-0.1-0.2-0.1-0.5-0.2-0.5c-2.1-1.1-1-2.5-0.4-3.8c0.3-0.5,0.5-1,1.2-1C241.4,110.3,241.4,111.1,241.7,111.5z"/>
		<path fill="#872321" d="M184.5,125.1c0.1,1,0,1.6-1,1c-0.6-0.3-0.8-0.2-0.9,0.5c-0.1,0.6-0.6,0.9-1.4,1c-1.2,0-2.3,0.4-2.7,1.8
			c-0.1,0.3-0.2,0.5-0.5,0.7c-2.5,2-4.7,4.5-8.4,4c-0.3,0-0.7,0.2-1.1,0.3c-0.4,0.1-0.8,0.7-1.3,0.2c-0.4-0.3-0.4-0.9-0.2-1.3
			c0.7-1.7,1.1-3.5,2.1-5c0.6-0.9,1.7-0.8,2.6-0.4c1.6,0.7,2.1,0.6,2.9-1c1.3-2.5,3.5-3.3,6.2-2.3c0.3,0.1,0.8,0.5,0.8-0.2
			c0.1-0.7,0.1-1.3,1-1.4c1-0.1,1.2,0.7,1.6,1.4C184.4,124.7,184.5,125,184.5,125.1z"/>
		<path fill="#872321" d="M197.2,115.4c-0.6-0.1-1.1,0.3-1.6,0.5c-0.8,0.2-1.6,0.2-2.1-0.7c-0.5-0.9,0.2-1.3,0.9-1.7
			c1.1-0.6,2.2-0.9,3.4-0.2c0.5,0.3,1.4,0.4,1.1,1.2C198.7,115.2,198,115.5,197.2,115.4z"/>
	</g>
</g>
<g>
</g>
<g>
</g>
<g>
</g>
<g>
</g>
<g>
</g>
<g>
</g>
<g>
</g>
<g>
</g>
<g>
</g>
<g>
</g>
<g>
</g>
<g>
</g>
<g>
</g>
<g>
</g>
<g>
</g>
</svg>
