<?xml version="1.0" encoding="utf-8"?>
<!-- Generator: Adobe Illustrator 17.0.0, SVG Export Plug-In . SVG Version: 6.00 Build 0)  -->
<!DOCTYPE svg PUBLIC "-//W3C//DTD SVG 1.1//EN" "http://www.w3.org/Graphics/SVG/1.1/DTD/svg11.dtd">
<svg version="1.1" id="Layer_1" xmlns="http://www.w3.org/2000/svg" xmlns:xlink="http://www.w3.org/1999/xlink" x="0px" y="0px"
	 width="410px" height="345.3px" viewBox="0 0 410 345.3" style="enable-background:new 0 0 410 345.3;" xml:space="preserve">
<g id="parkwood-primary-school.svg_1_">
	<path d="M204.1,39.5c0-0.1,0.1-0.3,0.2-0.3c0-0.9-0.1-1.9-1.1-3.1c-0.8-0.9-2-2-2.6-2.9c-0.8-1.3-1.6-2.6-2.4-3.9
		c-1.6-2.7-3.4-5.2-5.1-7.8c-0.6-0.9,0.5-2.4,1.1-3.1c0.9-1.1,1.6-2.3,2.4-3.5c0.8-1.2,0.9-2.2,1-3.6c0-1.4-0.4-2.8-0.8-4.1
		c-0.4-1.6-1.5-2.7-2.4-4.1c-0.6-0.9-1.7-0.6-2.6-0.8c-1.6-0.2-3.3-0.4-4.9-0.6c-1.4-0.2-2.8-0.4-4.3-0.2c-3.1,0.5-6,1.2-9.1,1.3
		c-1.5,0.1-3,0-4.4,0.1c-1.3,0.1-2.3,1.1-3.4,1.7c0.8,0.9,1.6,2.3,2.6,2.9c0.6,0.4,1.5,0.5,1.8,1.2c0.4,1,0.5,2.4,0.6,3.5
		c0.2,1.2,0.4,2.5,0.5,3.7c0.7,6.5,1.5,13,2,19.5c0.1,1.2,0.6,3.1-0.6,4c-0.7,0.5-1.8,0.6-2.1,1.5c-0.2,0.6-0.6,1.3-0.7,2
		c0,0.3,0.6,0.6,0.8,0.7c0.4,0.3,0.9,0.7,1.4,0.7c0.6,0,1.2-0.2,1.8-0.2c3.2-0.3,6.4-0.7,9.5-1.2c0.9-0.1,1.8-0.3,2.7-0.4
		c0.7-0.1,1-0.1,1.3-0.7c0.2-0.3,1.4-1.3,1.2-1.7c-0.4-0.7-1.4-1.2-2-1.8c-1-1-2.3-2.1-3.1-3.3c-0.6-0.9-0.4-2.3-0.5-3.3
		c-0.2-1.4-0.5-2.8-0.7-4.2c0-0.5-0.2-3.8,0.2-3.7c0.7,0.1,1.5,1,1.9,1.5c0.9,1.1,1.5,2.5,2.3,3.8c0.8,1.3,1.5,2.6,2.2,3.9
		c0.8,1.5,1.6,3,2.4,4.5c0.6,1.2,1.1,2,2.3,2.7c0.4,0.3,0.8,0.6,1.2,0.9c0.5,0.4,0.7,0.4,1.3,0.3c1.5-0.2,3-0.4,4.5-0.6
		c1-0.1,1.1-0.2,2.2-0.2C202.9,40.3,204.1,39.9,204.1,39.5z M187.6,13.2c-0.5,1.5-0.8,3.2-1.4,4.6c-0.3,0.7-1,0.9-1.6,1.3
		c-0.7,0.4-1.5,0.8-2.2,1.2c-0.5-0.7-0.8-1.1-0.9-2c-0.1-0.8-0.2-1.7-0.2-2.5c-0.2-1.9-0.4-3.8-0.6-5.6c-0.1-0.6-0.5-3,0.1-3.4
		c0.2-0.1,2.5-1,2.5-0.9c1.1,1.6,2.2,3.1,3.3,4.7c0.3,0.4,0.7,0.8,0.9,1.2C187.9,12.3,187.8,12.5,187.6,13.2z"/>
	<path d="M225.2,1.7c-0.7-0.3-1.3-0.6-2-0.7c-1.4-0.2-2.9,0-4.4-0.1c-3.2-0.1-6.4-0.5-9.6-0.9c-0.7-0.1-1-0.2-1.5,0.3
		c-0.3,0.3-0.6,0.6-0.9,0.8c-0.4,0.3,0.2,1.6,0.4,2c0.2,0.4,1,0.5,1.3,0.8c0.6,0.4,1.1,1,1.6,1.5c0.6,0.6,0.4,1.8,0.4,2.6
		c0,1.6,0.3,3.2,0.3,4.8c0,1.5-0.2,3-0.4,4.5c-0.3,3.2-0.6,6.4-0.6,9.6c0,1.6-0.1,3.3-0.3,4.9c-0.1,0.7-0.2,1.5-0.3,2.2
		c-0.1,0.5,0,1-0.3,1.4c-0.2,0.3-1.1,1.6-1.6,1.5c-1.3-0.2-1.9,1.1-2.2,2.3c0,0.1,0.1,0.2,0.1,0.3c-0.1,0.5,0.1,1,0.1,1.4
		c0.1,0-0.1,0,0,0c1.4,0.2,2.6,0.6,4.1,0.6c3.2,0,6.5,0.4,9.7,0.3c1,0,1.3-0.1,2.4-0.3c0-1.1,0.8-2.2,0.8-3.3c-0.2,0-0.3,0-0.3-0.1
		c-0.7-0.9-1.7-1.8-2.3-2.8c-0.4-0.7-0.2-1.5-0.1-2.3c0-0.8,0.1-1.6,0.1-2.4c0.1-1.6,0.2-3.2,0.2-4.8c0.2-3.3,0.3-6.6,0.5-9.8
		c0.1-1.7,0.1-3.4,0.3-5.1c0.1-1.4,0.1-3.1,0.5-4.5c0.3-1.1,1.9-1.5,2.8-1.9c0.5-0.3,0.8-0.3,0.9-0.9c0.1-0.3,0.1-0.7,0.3-1
		C225.2,2.7,225.6,1.9,225.2,1.7z"/>
	<path d="M263.5,51.4c0.8-1.1,0.9-1.1,1.6-2.3c-0.2-0.2,0.2-1.5,0-1.7c-0.4-0.3-1.4-1.7-1.3-2.2c0.2-1.5,0.5-3,0.8-4.5
		c1.3-6.3,2.4-12.6,4-18.8c0.2-0.9,0.5-1.8,0.7-2.7c0.1-0.5,0.2-1.1,0.5-1.6c0.6-0.8,1.7-1.5,2.5-2c0.5-0.4,1-0.7,1.5-0.9
		c0.3-0.1,0.8-0.3,0.9-0.6c0.2-0.3-0.3-1.6-0.4-2c-0.1-0.5-0.2-0.6-0.6-0.7c-1.5-0.6-2.9-1.1-4.5-1.5c-1.4-0.3-2.9-0.5-4.3-0.8
		c-1-0.2-2.9,0.4-3.6,1.2c-0.8,1.1-1.5,2.3-2.3,3.5c-1.8,2.7-3.5,5.3-5.2,8c-0.9,1.4-1.7,2.7-2.6,4.1c-0.6,0.9-1.1,1.9-2.1,2.5
		c-0.7-2.4-0.7-4.9-0.9-7.4c-0.1-2.4-0.2-4.9-0.4-7.3c-0.1-1.3-0.2-2.5-0.4-3.8c-0.1-0.9-0.1-1.9-0.4-2.7c-0.4-0.9-1.2-1.8-1.7-2.6
		c-0.2-0.3-0.4-0.9-0.8-1c-0.5-0.1-1-0.2-1.5-0.4c-2.3-0.5-4.7-0.9-7-1.5c-0.7-0.2-1.2-0.4-1.8,0c-0.3,0.2-1,0.6-0.8,1
		c0.8,1.6,1.9,3,2.9,4.5c0.5,0.7-0.2,2.2-0.4,2.9c-0.3,1.1-0.6,2.3-1,3.4c-0.9,3-1.7,6.1-2.6,9.2c-0.8,3.1-1.9,6-2.9,9
		c-0.3,0.8-0.6,1.7-0.9,2.5c-0.2,0.7-0.3,1.2-0.9,1.6c-1.1,0.8-2.1,1.7-3.5,1.9c-0.1,0-0.1,0.1-0.7,0.2c0,0.1-0.5,0.2-0.5,0.3
		c0,1-0.2,1-0.1,2c0.3,0,0.6,1,0.8,0.9c1.4,0,2.8,0.5,4.1,0.8c1.5,0.3,3,0.8,4.5,1.3c0.6,0.2,0.9,0.3,1.5,0c0.6-0.3,1.3-0.5,1.9-0.7
		l-0.8-1.9c-0.2-0.4-0.3-1-0.7-1.2c-0.3-0.1-0.7-0.1-0.9-0.3c-0.4-0.5-0.8-1-1.2-1.5c-0.3-0.3,0.1-1.7,0.2-2.1
		c0.2-1.2,0.4-2.3,0.8-3.5c1.4-5,2.7-10,4.6-14.8c0.6,2.7,0.8,5.5,1.1,8.2c0.3,2.7,0.5,5.4,0.7,8.1c0.2,2.9,0.3,5.7,0.5,8.6
		c0,0.7,0.5,1.1,0.9,1.7c0.4,0.6,0.6,0.9,1.3,0.5c0.6-0.3,1.3-0.5,1.9-0.8c0.6-0.2,0.7-0.6,1-1.1c0.7-1.4,1.8-2.7,2.6-4
		c0.9-1.3,1.8-2.6,2.6-3.9c1.8-2.7,3.5-5.5,5.3-8.2c0.3-0.5,2.1-3.7,2.6-3.5c0.5,0.2-0.4,3-0.5,3.5c-0.6,3.2-1.4,6.3-2.2,9.4
		c-0.4,1.6-0.8,3.2-1.2,4.8c-0.1,0.5-0.2,1.4-0.6,1.7c-0.4,0.2-1,0.4-1.4,0.6c-1.3,0.6-2.3,1.1-3.3,2.3c-0.6,0.8-0.2,1.1,0.4,1.8
		c0.8,0.9,2.1,0.9,3.2,1.1c1.5,0.3,2.9,0.7,4.3,1.1c1.6,0.5,3.1,1,4.7,1.5C262.3,51,262.9,51.2,263.5,51.4z"/>
	<path d="M299.2,65.5c-0.6-0.8-1.1-1.7-1.6-2.5c-0.3-0.5-0.2-0.9-0.1-1.4c0.2-0.7,0.2-1.4,0.3-2.1c0.2-1.6,0.5-3.1,0.7-4.7
		c0.9-6.3,1.8-12.6,2.6-18.9c0.4-3.2,0.8-6.4,1.3-9.6c0.1-0.5,0.3-0.9,0-1.4c-0.2-0.3-0.4-0.6-0.6-0.9c-0.4-0.6-2.9,0.2-3.6,0.3
		c-0.5,0.1-1,0-1.4,0.2c-0.5,0.2-1,0.9-1.3,1.3c-1,1-2.1,2.1-3.2,3.1c-2.3,2.1-4.7,4.1-7,6.2c-2.4,2.2-4.7,4.4-7,6.7
		c-1.2,1.2-2.4,2.4-3.6,3.5c-1,1-1.9,2.2-3.1,2.9c-0.5,0.3-1,0.8-1.6,0.9c-0.5,0.1-1.1-0.1-1.6-0.2c-0.5,0-1.1,0.1-1.5-0.2
		c-0.1-0.1,0.1,0.1,0,0c-0.6,1.1-0.9,0.9-1.6,2c0.4,0.1,0.1,1.3,0.5,1.4c1.5,0.6,3,1.6,4.4,2.4c1.4,0.8,2.7,1.6,4.1,2.4
		c1,0.6,1.4,0.7,2.6,0.5c0.3,0,0.7-0.1,1-0.2c0.4-0.1,0.2-0.8,0.3-1.1c0.1-0.6,0.2-1.3-0.2-1.8c-0.3-0.4-0.7-0.7-0.9-1.1
		c-0.3-0.5-0.3-1.3-0.3-1.9c-0.1-0.6-0.2-1.1,0.1-1.6c0.4-0.7,0.8-1.5,1.4-2c0.5-0.5,1.1-0.9,1.6-1.4c0.5-0.4,0.9-0.9,1.6-0.7
		c0.6,0.2,1.1,0.5,1.6,0.8c1.4,0.7,2.8,1.5,4.3,2.2c0.5,0.2,1,0.4,1.4,0.7c0.3,0.2,0.4,1,0.4,1.3c0.1,0.7-0.2,1.5-0.4,2.1
		c-0.1,0.6-0.2,1.3-0.4,1.9c-0.4,1.4-1.2,2.8-1.8,4.1c-1.1,0.1-2.2,0.2-3.3,0.3l0.7,2.1c0.2,0.6,0.3,1.2,0.9,1.5
		c1.2,0.5,2.4,1.1,3.5,1.7c2.4,1.3,4.1,2.3,6.5,3.6C295.9,66.8,297.9,66.3,299.2,65.5z M290.2,42.7c-0.1,0.4-1.2,0.8-1.6,1
		c-0.7,0.4-1.9-0.7-2.6-1c-0.9-0.5-0.8-0.8-0.8-1.7c0-0.7,0.7-1.2,1.2-1.6c1.7-1.4,2.9-3,4.9-4.1C291,37.8,290.7,40.2,290.2,42.7z"
		/>
	<path d="M341.9,54c-1.2-2.7-3.8-4.4-6.1-6.1c-2.5-2-4.8-3.9-7.1-6.1c-1.1-1.1-2.3-2.1-3.4-3.2c-0.3-0.3-0.9-0.2-1.3-0.2
		c-0.6,0-1.2-0.1-1.8-0.2c-0.1,1.7-0.1,3.4-0.1,5.1c0,0.5,0.1,1.1,0,1.6c-0.1,0.6-0.7,1.1-1.1,1.5c-2,2.4-3.9,4.8-5.9,7.2
		c-2,2.4-4,4.9-6,7.3c-0.9,1.1-1.9,2.1-2.7,3.3c-0.8,1.2-1.7,1.4-3.1,1.8c-1.2,0.4-2.6,1.2-3.6,0.2c-1.2,0.8-1.6,2-2.8,2.9
		c2.1,1.2,3,2.5,4.8,4c2.2,1.8,4.5,3.6,6.6,5.5c0.3,0.3,1.1,1.4,1.6,1.3c0.6,0,1.3-0.4,1.8-0.6c0.7-0.2,1.1-0.2,0.8-1
		c-0.2-0.6-0.2-1.2-0.3-1.8c0-1.1,0-2.5,0.1-3.6c0.2-1.2,1.5-2.3,2.3-3.3c1.3-1.6,2.6-3.2,4-4.7c0.5-0.5,1.2-0.9,1.8-0.3
		c0.3,0.3,0.2,1.2,0.1,1.6c-0.1,0.7-0.4,1.4-0.6,2.1c-0.9,3-1.8,6.1-2.8,9.1c-0.4,1.4-1,2.7-1.4,4.1c-0.2,0.6,0.1,1.2,0.3,1.8
		c0.1,0.6,0.2,1.3,0.5,1.8c0.3,0.6,1.4,1.3,1.9,1.7c0.6,0.5,1.2,1,1.8,1.5c0.9,0.7,2.2,2.4,3.4,2.3c0.6-0.1,1.4-0.2,1.9-0.4
		c0.3-0.1,0.2-0.6,0.2-0.9c0-1.4-0.1-2.8-0.1-4.3c-0.1-1.4,0.6-2.7,1-4.1c0.4-1.4,0.8-2.9,1.2-4.3c0.4-1.6,0.8-3.2,1.1-4.8
		c0.1-0.5,0.1-1.6,0.4-2c0.3-0.3,0.7-0.4,1-0.6c0.4-0.2,0.8-0.7,1.3-0.7l2-0.2c1.1-0.1,3.2,0.2,3.9-0.7c1-1.2,2.3-2.3,3.4-3.4
		c0.4-0.4,1.1-0.8,1.3-1.4c0.2-0.5,0.2-1,0.2-1.5c0.1-1.6,0.5-3.1,0.7-4.7C343.3,56,342.3,54.9,341.9,54z M332.1,59.1
		c-0.4,0.8-0.8,1-1.6,1.4c-0.8,0.4-1.6,0.8-2.3,1.2c-0.7,0.4-0.9,0.4-1.7,0.1c-0.7-0.3-1.3-0.4-2-0.6c-0.4-0.1-1.1-0.1-1.1-0.7
		c0-0.4-0.1-1.1,0.2-1.4c1.2-1.4,2.4-2.8,3.6-4.3c0.6-0.7,1.1-1.4,1.7-2.1c0.3-0.4,0.9-1.5,1.4-1.6c0.5-0.1,1,0,1.5-0.1
		c0.4-0.1,1-0.3,1.4-0.1c0.3,0.2,0.4,0.8,0.5,1.1c0.2,0.6,0.5,1.2,0.8,1.8C333.7,55.7,332.9,57.4,332.1,59.1z"/>
	<path d="M68,298.1c-0.7-1.3-1.4-2.6-2.2-3.9c-0.4-0.7-0.8-1.5-1.3-2.2c-0.2-0.3-0.4-1.1-0.7-1.2c-0.2-0.1-1.5-1.1-1.6-1
		c-0.3,0.2-0.5,0.5-0.7,0.7c-0.7,0.8-0.8,1.5-0.7,2.5c0,0.4,0.2,1,0.1,1.4c-0.1,0.4-0.4,0.8-0.6,1.2c-0.1,0.2-0.3,1-0.6,1.1
		c-0.7,0.2-1.4,0.4-2.1,0.6c-1.1,0.3-2.7,1.1-3.9,0.8c-0.4-0.1-1.3-0.3-1.5-0.7c-0.3-0.6-0.6-1.2-0.9-1.8c-0.7-1.4-1.4-2.7-2.1-4.1
		c-0.3-0.6-0.8-1-0.3-1.5c0.4-0.5,0.9-1,1.3-1.5c1-1,2-2,3.1-3c0.7-0.7,1.3-0.8,2.3-0.7c0.3,0,0.7,0,0.9,0.1
		c0.4,0.2,0.5,0.6,0.9,0.7c0.4,0.1,0.9,0.1,1.3,0c0.6-0.1,0.5-0.4,0.5-1c0-0.6,0.1-1.3,0.1-1.9c0.1-0.6-0.5-1.3-0.8-1.9
		c-2.1-4.1-3.9-7.3-5.8-11.7c-1.3,0.5-1.8-0.5-3,0.1c0,0-1,1.1-1,1.2c0.3,0.5,0.4,0.5,0.6,1.1c0.5,1.1,0,2.3-0.8,3.1
		c-4.4,4.6-8.3,9.5-12.4,14.4c-2,2.4-4.1,4.6-6.2,6.9c-2.1,2.2-4.3,4.5-5.7,7.2c-0.3,0.7,0,0.9,0.4,1.5c0.2,0.4,0.6,1.4,0.9,1.6
		c0.5,0.2,1.4,0,1.9,0c2.4-0.2,4.7-0.5,7.1-0.8c6.3-0.8,12.4-2.1,18.7-3.1c1.7-0.3,3.3-0.5,5-0.8c0.6-0.1,1.2-0.3,1.9-0.4
		c0.7-0.1,1.3,0,2,0.1c1.7,0.3,3.3,0.5,5,0.7c0.4,0,0.8,0.3,0.9-0.2c0.1-0.3,0.2-0.7,0.3-1C68.8,299.7,68.6,299.2,68,298.1z
		 M47.6,298.9c-0.2,0.3-0.4,0.6-0.8,0.7c-1.2,0.2-2.3,0.4-3.5,0.6c-0.4,0.1-3.9,0.9-4.3,0.3c0,0,0-0.1,0-0.1c1-1.1,2-2.3,3-3.4
		c0.5-0.6,1-1.1,1.5-1.7c0.3-0.3,0.6-0.9,1-0.9c0.7-0.1,1.4,0,1.8,0.7c0.5,0.8,0.8,1.7,1.2,2.5C47.8,298.2,48,298.4,47.6,298.9z"/>
	<path d="M13.9,233.9c3-0.2,6.1-0.5,9.1-0.6c3.2-0.1,6.3-0.5,9.5-0.8c1.5-0.1,2.6,0.3,4,0.8c0.5,0.2,1.1,0.4,1.6,0.6
		c0.4,0.2,0.6,0.9,0.7,1.3c1.4,0,2.7-0.1,4.1-0.2c-0.1-0.7-0.1-1.3-0.1-2c0-1.6-0.2-3.1-0.4-4.7c-0.2-1.5-0.2-3-0.3-4.5
		c0-1.5-0.1-3-0.1-4.6c0-0.5-0.1-0.8-0.4-1.1c-0.3-0.5-0.9,0-1.3,0.2c-1.1,0.5-2.2,0.9-3.1,1.8c-0.6,0.5-1.2,1.1-1.7,1.6
		c-0.6,0.5-1,0.5-1.7,0.5c-3,0.2-6.1,0.4-9.1,0.6c0.5-1.1,1.3-1.5,2.2-2.2c1.1-0.8,2.2-1.6,3.3-2.5c2.3-1.7,4.5-3.5,6.8-5.2
		c0.4,0.5,0.5,0.9,1.1,1.1c0.5,0.2,1,0.5,1.5,0.8c0.7,0.4,1.9-1.5,1.9-2.2c0-1.4-0.3-2.8-0.4-4.2c-0.1-1.5-0.2-3-0.2-4.5
		c0-1.7-0.1-3.3-0.1-5c0-1.3-1.4-2-2.3-2.8c-0.8-0.7-1.7,0.7-2.1,1.3c-0.8,1.1-1.5,2.3-2.4,3.4c-1,1.3-2.5,2.2-3.7,3.2
		c-1.2,1-2.4,2-3.6,3c-2.4,2.1-4.9,4.1-7.4,6.2c-1,0.8-1.9,1.9-3.1,2.1c-0.5,0.1-1,0.2-1.5,0.1c-0.5-0.2-0.8-0.6-1.2-0.9
		c-1.3-1-2.6-2-3.9-3c-0.6-0.5-1.2-1-1.8-1.4c-0.6-0.4-0.8-0.9-1.1-1.5c-0.8-1.5-1.6-3-2.4-4.6c-0.7-1.3-1.4-2.1-2.4-3.1
		c-0.4,0.5-1.5,1.3-1.6,1.9c-0.1,0.4,0,1,0.1,1.4c0.2,1.6,0.3,3.2,0.3,4.7c0.1,1.8,0.2,3.7,0.3,5.5c0,0.5-0.1,1.3,0.1,1.8
		c0.3,0.5,0.9,0.8,1.4,1.1c0.5,0.3,0.5,0.1,0.8-0.4c0.3-0.4,0.6-0.8,0.9-1.2c0.4-0.5,0.8-1,1.4-1.3c0.6-0.3,1,0.1,1.4,0.5
		c0.6,0.5,1.2,0.9,1.9,1.3c3,2,5.8,4.1,8.6,6.3c0.1,0.9-2.5,0.7-3,0.7c-1.5,0.1-2.9,0.2-4.4,0.3c-0.8,0-1.2-0.1-2-0.4
		c-0.6-0.3-1.3-0.7-1.9-0.9c-1.2-0.5-1.6-1.2-2.4-2.2c-0.3-0.4-1.7-0.3-1.9,0.2c-0.3,0.8-0.6,1.8-0.6,2.6c0,1.5,0.4,2.9,0.5,4.4
		c0.2,1.5,0.3,3,0.4,4.6c0.1,2.3-0.2,4.8,1,6.9c0.4,0.8,1.3,0,1.9-0.2c0.3-0.1,0.4-0.7,0.5-1c0.2-0.5,0.6-0.9,1-1.3
		c0.4-0.5,0.9-1.1,1.3-1.6c0.4-0.5,0.8-0.4,1.4-0.4C10.8,234.1,12.3,234,13.9,233.9z"/>
	<path d="M50.7,263.3c-1-3-1.5-6.1-2.3-9.1c-0.2-0.7-0.4-1.2-0.7-1.8c-0.2-0.4-0.7-0.2-1.1-0.2c-0.4,0-1.6,0-1.9,0.3
		c-0.2,0.2-0.2,0.8-0.2,1.1c-0.1,1.3-1.1,2.2-1.9,3.2c-0.7,0.9-1.5,1.1-2.6,1.4c-3,0.9-6.1,1.9-9.1,2.8c0.3-0.8,0.6-1.5,0.8-2.3
		c0.2-0.7,0.5-1,1.1-1.4c1.2-0.9,2.4-1.8,3.5-2.7c1.2-1,2.5-1.9,3.7-2.9c1.1-0.8,2.3-1.6,3.3-2.6c0.9-0.9,1.3-2.6,1.8-3.8
		c0.3-0.8,0.3-1,0-1.8c-0.2-0.7-0.4-1.3-0.7-2c-0.7-1.8-1.4-2.9-1.7-4.8c-1.3,0.1-1.2-0.6-2.5-0.6c0,0.4-1.4,0.8-1.4,1.2
		c0,0.4,0.2,1.7-0.1,2c-0.8,0.9-1.9,1.7-2.9,2.5c-2.4,2.2-4.8,4.4-7.3,6.6c-0.7,0.6-1.3,1.2-2,1.8c-0.6,0.5-0.8,0.6-1.5,0.6
		c-1.1,0-2-1-2.8-1.5c-0.7-0.4-1.5-0.8-2.1-1.3c-0.5-0.4-1.4-0.1-2,0c-1.3,0.1-2.9,0-4.1,0.4c-0.8,0.2-1.5,0.8-2.2,1.3
		c-0.7,0.4-1.3,0.8-2,1.2c-1,0.6-1.1,2-1.5,3c-0.5,1.4-1.3,2.8-0.9,4.3c0.3,1.4,0.6,2.8,0.8,4.2c0.6,3.1,1.6,6,2.6,8.9
		c0.9,3,1.9,6,2.8,9c0.1,0.4,1.8,0.8,2,0.5c0.7-0.8,0.8-1.6,0.8-2.6c0.1-0.8,0.6-2.1,1.4-2.4c1.4-0.5,2.9-1,4.3-1.6
		c3-1.1,5.9-1.8,9-2.7c3-0.8,5.9-1.9,8.9-2.7c2.4-0.6,5.2-1.8,7.5-0.5c0.2,0.1,0.1-0.1,0.2,0.1c1.3-0.6,2.5-1.5,3.8-2
		C51.3,265.2,51.1,264.7,50.7,263.3z M25.9,262.4c-0.4,0.5-0.7,0.5-1.3,0.7c-1.8,0.5-3.6,1.1-5.4,1.5c-1.5,0.4-3.1,0.8-4.5,1.6
		c-0.6-0.7-1.3-1.4-1.8-2.1c-0.3-0.4,0.9-1.5,1.1-1.8c1-1.2,1.9-2.7,3.1-3.7c1-0.8,2.7-0.7,3.8-1c1.4-0.4,2.8,0.6,4.1,1.2
		c0.4,0.2,0.6,1,0.8,1.3c0.2,0.4,0.6,0.7,0.8,1.2C26.7,261.6,26.1,262.1,25.9,262.4z"/>
	<path d="M31.3,159c-3.9-2.4-7.7-4.9-11.6-7.2c-1.9-1.1-4-1.9-6.1-2.8c-0.3-0.2-1.1,0.5-1.4,0.6c-0.9,0.5-1.8,1-2.7,1.5
		c-0.2-0.5-0.4-1.1-0.7-1.6c-0.2-0.3-0.5-0.8-0.5-1.2c0.3-1.6,0.5-3.1,0.8-4.7c0.1-0.5,0.1-1.1,0.2-1.6c0.1-0.5,0.8-0.9,1.2-1.2
		c0.3-0.3,1.3-1.6,1.7-1.2c1.6,1.5,1.9,3.9,3.8,5.1c2.7,1.7,5.4,3.5,8.2,5.2c5.5,3.5,11.2,6.8,16.7,10.2c1.3,0.8,2.6,1.6,3.9,2.4
		c0.4,0.3,0.7,0.6,1,1c0.2,0.3,1.3,1.5,1.1,1.9c-0.3,0.8-1.2,1.6-2,1.8c-1.7,0.3-3.4,0.5-5,0.8c-1.5,0.3-3,0.7-4.5,0.9
		c-1.4,0.1-2.7,0.2-4.1,0.5c2,2,4.4,3.6,6.8,5.3c1.1,0.8,2.2,1.6,3.3,2.4c0.6,0.4,1.1,0.9,1.6,1.3c0.6,0.5,0.2,0.8,0,1.4
		c-0.2,0.6-0.3,1.8-1,2.2c-0.6,0.3-1.5,0.2-2.1,0.3c-0.9,0.1-1.8,0.3-2.7,0.4c-3.1,0.5-6.2,1.2-9.3,1.6c-6.4,0.9-12.7,2.2-19.1,3.2
		c-0.8,0.1-1.6,0.2-2.3,0.4C6,188,5.1,188,4.6,188.3c-0.9,0.6-0.9,1.7-2,2c-0.5,0.1-1.5,0.7-2,0.3c-0.5-0.4-0.5-0.9-0.4-1.5
		c0.3-1.5,0.3-3.1,0.5-4.6c0.4-2.9,0.9-5.8,2.1-8.5c0.6-1.4,0.6-2.8,0.8-4.3c0.2-1.6,0.3-3.3,0.5-4.9c0.4-3.1,1.3-6.2,2-9.3
		c0.3-1.2,0.3-3,1.1-4c0.4-0.5,2-2.2,2.5-1.7c1,1.1,1.9,2.1,2.9,3.2c1,1.1,1.9,2.3,3,3.4c0.8,0.7,1.9,1.4,2.9,1.9
		c1.2,0.6,2.6,0.5,3.8,0.8c1,0.2,2.4-0.4,3.4-0.5c0.7-0.1,1.3-0.2,2-0.3C28.1,160.2,31.3,159.9,31.3,159
		C27.5,156.6,31.3,159.9,31.3,159z M29.5,174.2c-0.4-0.7-0.7-1.4-1.3-1.9c-0.8-0.5-2.1-0.6-3-0.8c-0.9-0.2-2-0.6-3-0.6
		c-1.2,0-2.4,0.3-3.6,0.5c-2.3,0.3-4.5,0.7-6.8,0.9c-0.9,0.1-2.1,0.1-3,0.4c-1,0.4-1.8,1.3-2.7,1.9c-0.5,0.3-0.4,1.4-0.1,1.9
		c0.6,1,1.5,0.8,2.5,0.7c2.4-0.3,4.7-0.5,7.1-0.9C20.3,175.5,24.9,175,29.5,174.2C29.1,173.5,27.2,174.6,29.5,174.2z M14.1,162.5
		c0.1-0.3,0.2-0.5-0.1-0.7c-0.6-0.4-1.2-0.7-1.8-1c-0.7-0.4-2.3-1-2.6,0.2c-0.1,0.6-0.6,1.8,0.3,1.9
		C11.2,163.2,12.8,162.7,14.1,162.5C14.2,161.9,12.9,162.6,14.1,162.5z"/>
	<path d="M409.3,229.2c-0.1-0.6-0.2-1.2-0.2-1.8c-0.2-1.6,0-3.2,0-4.7c0-1.5,0.1-3,0.3-4.6c0.1-0.8,0.3-1.6,0.2-2.4
		c-0.1-0.7-0.3-1.3-0.4-2c-0.1-0.5-1.7-0.6-2-0.3c-0.8,1.1-1.4,2.1-2.5,2.9c-0.3,0.2-0.6,0.5-0.9,0.8c-0.5,0.3-1,0.2-1.6,0.2
		c-1.7,0-3.4-0.1-5.1-0.2c-0.8,0-1.6-0.1-2.4-0.1c-0.4,0-1.2,0.1-1.6-0.2c-0.4-0.3-0.7-0.6-0.6-1.1l0.1-2.2c0.1-1.6,0.2-3.1,0.2-4.7
		c0-0.7-0.3-2.2,0.2-2.8c0.6-0.8,1.7-0.7,2.7-0.7c1.5-0.1,3,0.2,4.4,0.2c1.4,0,2,0.4,3.2,1.2c1.3,1,2.6,2,4,3
		c0.4,0.3,0.8,0.8,1.2,0.3c0.3-0.4,0.6-0.7,0.9-1c0.5-0.5,0.3-1.4,0.4-2.1c0-0.8,0-1.5,0.1-2.3c0-1.5,0.1-3.1,0.1-4.6
		c0-1.7,0.1-3.4,0-5.1c0-0.7,0-1.4,0-2.1c0-0.5-0.5-1-0.8-1.4c-0.4-0.6-1.7-0.1-2.1,0.3c-0.4,0.3-0.6,1.3-0.8,1.8
		c-0.1,0.3-0.7,0.3-1,0.5c-1.1,0.5-2.4,1.4-3.6,1.4c-1.6,0-3.2,0-4.8,0c-3.3,0-6.6-0.1-9.9-0.2c-3.2-0.1-6.5-0.3-9.7-0.5
		c-1.2-0.1-2.3-1.3-3.3-2c-1.2-0.9-2.4-1.7-3.6-2.5c-0.4,1-0.9,1.8-0.9,2.9c0,1.2-0.1,2.3-0.1,3.5c0,2.4-0.2,4.8-0.4,7.2
		c-0.1,0.6-0.1,1.3-0.2,1.9c0,0.3-0.3,1.2-0.1,1.5c0.4,0.6,1.3,1.1,1.9,1.6c0.4,0.3,0.5,0.3,0.8-0.1c0.3-0.4,0.6-0.7,1-1
		c0.6-0.6,1.4-1.1,2-1.7c0.8-0.7,1.2-1,2.3-0.9c1.1,0,2.2,0.1,3.4,0.1c1.3,0,2.7,0.1,4,0.1l2,0.1c0.4,0,1-0.1,1.3,0.1
		c1.8,0.7,1.2,3,1.2,4.5c-0.1,2.4-0.1,4.8-0.2,7.2c-0.1,0-0.3,0-0.4,0c-0.1,0-0.2,0.1-0.3,0.1c-0.3,0-0.5-0.1-0.7-0.1
		c-2.7-0.2-5.4-0.2-8.2-0.5c-1.4-0.1-3-0.2-4.4-0.6c-1.1-0.4-1.6-1.6-2.1-2.6c-0.4-0.7-1.5-1.2-2.3-1.3c-0.4-0.1-0.8,1-0.9,1.3
		c-0.3,0.5-0.2,0.9-0.2,1.4c0,3.3,0,6.5-0.1,9.7c-0.1,1.2-0.1,2.5-0.3,3.7c0,0.4-0.1,0.8,0,1.2c0.1,0.4,1,0.8,1.3,1.1
		c0.3,0.2,0.9,0.9,1.2,0.5c0.3-0.4,0.7-0.9,1.1-1.3c0.9-0.9,2-1.5,3.1-2.2c0.7-0.5,1-0.6,1.8-0.6c0.8,0,1.6,0,2.3,0.1
		c1.6,0,3.2,0.1,4.8,0.1c3.3,0.1,6.7,0.2,10,0.3c1.7,0,3.3,0.1,5,0.1c1.3,0,2.6-0.1,3.8,0.5c0.8,0.4,2.2,0.7,2.6,1.7
		c0.4,1,0.4,1.8,1.5,2.2c0.2,0.1,1,0.6,1.2,0.3c0.3-0.5,0.5-1,0.7-1.5C409.1,230.3,409.4,229.8,409.3,229.2z"/>
	<path d="M117.7,56.6c-0.3,1.5-0.7,3-1,4.5c-0.2,0.7-0.3,1.5-0.5,2.2c-0.2,0.8-0.6,1.4-1,2.1c-0.8,1.3-1.6,2.7-2.4,4
		c-0.8,1.4-1.8,2.2-3.1,3.2c-2.5,2-5.1,3.7-7.7,5.5c-1.3,0.9-2.5,1.8-3.8,2.7c-0.8,0.6-1.6,1.7-2.6,1.8c-0.6,0.1-1.3-0.4-1.8-0.6
		c-0.5-0.2-0.4-0.3-0.4-0.7c0-1.1,0.1-2,0.5-3c0.2-0.5,0.6-1.1,0.6-1.7c0-0.5-0.4-1-0.6-1.5c-0.8-1.2-1.4-2.4-2.2-3.5
		c-3.6-5-7.1-10.2-10.9-15.1c-0.7-0.8-1.2-1.8-1.9-2.6c-0.7-0.9-2.3-1-3.4-1.1c-0.7-0.1-1.4,0-2.1,0.1c-0.5,0-0.4-0.1-0.5-0.6
		c-0.1-0.4-0.5-1.9-0.3-2.2c0.9-1.2,1.9-2.3,2.8-3.5c1-1.2,2-2.1,3.2-3.1c2.4-2.2,5.1-4,7.7-6c0.9-0.7,2.1-0.9,3.2-1.3
		c1.5-0.5,3-1.2,4.5-1.6c1.3-0.3,2.7-0.3,4-0.2c0.7,0,1.4,0.1,2.1,0.1c0.6,0,1.5-0.1,2,0.1c1,0.4,2.4,0.7,3.2,1.4
		c1.2,1.2,2.5,2.3,3.7,3.5c1.1,1.1,2.3,2.1,3.4,3.2c1,0.9,2.5,1.9,3,3.1c0.6,1.6,1.1,3.2,1.7,4.7C117.7,52.4,117.6,54.5,117.7,56.6
		C117.2,58.9,117.6,55.4,117.7,56.6z M110.4,62c-0.3-2.8-1.7-5.4-2.6-8c-1-2.9-3.1-4.9-5.1-7.2c-0.9-1.1-1.8-2.4-3.1-3.1
		c-1.4-0.8-2.7-1.6-4-2.3c-1-0.6-2.2-0.2-3.3-0.1c-1.6,0.1-3.3,0.2-4.9,0.3c-0.2,0-0.7,2.7-0.8,2.9c-0.1,0.4-0.6,1.6-0.5,2
		c0.2,0.4,0.7,0.8,0.9,1.2c1.9,2.3,3.3,5,4.9,7.5c1.8,2.7,3.8,5.3,5.7,7.9c0.9,1.3,1.9,2.5,2.8,3.8c0.4,0.6,0.9,1.2,1.3,1.8
		c0.3,0.5,0.6,1.1,1.3,1.1c0.4,0,3.1,0.7,3.3,0.3C107.8,67.3,109.1,64.6,110.4,62C110.1,59.8,110.2,62.3,110.4,62z"/>
	<path d="M86.6,88.2c-0.4,1.3-0.9,2.7-1.2,4.1c-0.3,1.5-1.1,2.5-2.1,3.7c-1,1.3-1.9,2.5-2.9,3.8c-0.4,0.5-0.7,1.1-1.2,1.6
		c-0.5,0.6-1.5,0.9-2.2,1.2c-1.2,0.6-2.4,1.3-3.6,1.9c-1.3,0.7-2.9,0.7-4.3,0.9c-0.7,0.1-1.5,0.3-2.2,0.3c-0.6,0-1.3-0.1-1.9-0.2
		c-1.5-0.2-2.7-0.7-4.1-1.3c-1.3-0.6-2.6-1-3.8-1.6c-1.3-0.6-2.2-1.9-3.2-2.9c-2-2-4.6-3.8-5.7-6.5c-0.5-1-1.3-1.9-1.6-2.9
		c-0.4-1.5-0.5-3.1-0.7-4.6c-0.2-1.4-0.6-2.8-0.5-4.1c0.1-1.2,0.1-2.7,0.6-3.8c1.1-2.4,2.8-4.6,4.1-6.9c0.6-1,1.5-1.4,2.4-2.1
		c1-0.8,2.1-1.8,3.2-2.4c0.8-0.4,1.7-0.5,2.5-0.8c1.3-0.5,2.3-0.7,3.7-0.8c1.4,0,2.8-0.2,4.2-0.1c1.3,0.2,2.6,0.6,3.8,1.1
		c1.2,0.4,2.3,0.8,3.5,1.1c1.1,0.3,1.7,0.9,2.5,1.7c1,0.9,2.1,1.7,3.1,2.6c0.9,0.8,2.1,1.5,2.7,2.5c1.2,2,2.3,4.2,3.2,6.3
		C86.1,82.6,86.2,85.6,86.6,88.2C86.3,89.3,86.3,86.2,86.6,88.2z M50.6,77.4c-0.6,0,0.1,1.2,0.2,1.5c0.2,0.7,0.5,1.4,0.7,2.1
		c0.4,1.4,1.8,2.6,2.6,3.8c1.8,2.4,3.4,5.1,5.9,6.9c1,0.8,2.1,1.6,3.2,2.2c1.3,0.7,2.7,1.6,4.1,2c1.4,0.4,2.8,1,4.2,1.3
		c1.4,0.3,3.1,0.6,4.5,0.4c0.5-0.1,0.9-0.4,1.4-0.5c0.4-0.1,1-0.1,1.3-0.4c0.2-0.2,0.2-1,0.3-1.3c0.2-0.9,0.4-1.7,0.5-2.6
		c0.3-1.3,0.7-2.6,0.8-3.9c0-0.4-0.8-1.3-1.1-1.7c-0.5-0.7-1-1.5-1.5-2.2c-0.8-1.2-1.5-2.5-2.6-3.5c-1.2-1.1-2.4-2.1-3.6-3.2
		c-1-0.9-2.1-1.6-3.3-2.2c-1.3-0.7-2.5-1.4-3.8-2c-1.2-0.5-2.6-0.7-3.8-1c-1.5-0.4-3-0.7-4.6-1.1c-0.7-0.2-1.9,1.6-2.3,2.1
		C52.7,75.3,51.7,76.3,50.6,77.4C50.5,77.4,51.9,76.1,50.6,77.4z"/>
	<path d="M61.6,124.1c-0.3,1.5-0.7,3-1,4.5c-0.3,1.5-0.5,3-1.4,4.3c-0.8,1.1-1.6,2.1-2.5,3.1c-1,1-1.8,2.2-3.1,2.9
		c-1.2,0.7-2.5,1.2-3.7,1.9c-1.3,0.7-2.3,1.2-3.7,1.2c-1.3,0-2.7-0.1-4-0.1c-1.5-0.1-2.9,0.1-4.3-0.4c-1.2-0.4-2.4-0.8-3.6-1.2
		c-1.4-0.4-2.6-1.5-3.8-2.3c-1.1-0.7-2.3-1.4-3.3-2.3c-1-0.9-1.8-2.2-2.8-3.2c-1.9-1.9-2.9-5-3.6-7.6c-0.4-1.4-0.8-2.5-0.6-3.9
		c0.2-1.6,0.3-3.3,0.5-4.9c0.1-0.5,0-0.9,0.3-1.4c0.3-0.5,0.7-1,1-1.5c0.8-1.2,1.6-2.4,2.5-3.6c0.8-1.1,1.5-2.2,2.3-3.3
		c0.2-0.3,0.9-0.5,1.1-0.6c0.6-0.3,1.2-0.7,1.8-1c1.1-0.6,2.2-1.2,3.3-1.8c1-0.6,2.3-0.6,3.5-0.8c1.3-0.2,2.5-0.2,3.8-0.2
		c1.4,0,2.6,0.4,3.9,0.8c1,0.3,2.1,0.4,3.1,0.7c1.2,0.3,2.3,1.2,3.4,1.8c1.1,0.6,2.1,1.2,3.2,1.9c0.4,0.2,0.6,0.6,0.9,1
		c0.4,0.6,1,1.1,1.4,1.7c0.9,1,1.7,2,2.6,3c0.8,0.9,0.8,1.8,1.1,3C60.5,118.7,61.1,121.4,61.6,124.1
		C61.1,126.4,61.2,122.2,61.6,124.1z M24.3,117c0,0.5,0,1.1,0.2,1.6c0.2,0.6,0.7,1.1,1.1,1.6c0.9,1.2,1.9,2.3,2.7,3.5
		c0.8,1.1,2,1.7,3.1,2.5c1.3,0.9,2.7,1.8,4.1,2.5c1.3,0.7,2.6,1.4,4,2c1.4,0.6,2.9,0.9,4.4,1.3c1.3,0.3,2.6,0.8,4,1
		c1.7,0.1,3-0.7,4.5-1.4c1.4-0.7,2.9-1.3,4.3-2c0.3-0.1,0-1.7-0.1-2c-0.1-0.9-0.2-1.8-0.2-2.6c0-0.8-0.1-1.6-0.1-2.3
		c0-0.4-0.6-0.8-0.9-1.1c-2.1-1.7-3.8-3.9-6.2-5.3c-2.4-1.4-4.9-2.7-7.6-3.5c-1.6-0.5-3.2-0.9-4.8-1.4c-0.6-0.2-1.3,0-2,0
		c-1,0.1-1.9,0.1-2.9,0.1c-1.4,0.1-3.4-0.4-4.3,0.8C26.5,113.9,25.4,115.5,24.3,117C24.4,118,25.5,115.4,24.3,117z"/>
	<path d="M383.8,276.1c-1.6-0.3-3.1-0.6-4.7-0.8c-0.7-0.1-1.5-0.2-2.2-0.4c-0.7-0.2-1.3-0.7-1.9-1c-1.3-0.8-2.7-1.4-4.1-2.1
		c-0.6-0.3-1.2-0.5-1.7-0.9c-0.7-0.6-1.2-1.3-1.8-1.9c-0.9-0.9-2-1.8-2.8-2.8c-0.9-1.2-1.3-3-1.9-4.4c-0.6-1.3-0.8-2.5-0.9-4
		c-0.2-1.6-0.4-3.2,0-4.9c0.6-2.8,1.5-5.4,3-7.9c0.8-1.2,2-2.2,2.9-3.2c0.5-0.5,0.9-1,1.5-1.4c0.7-0.4,1.4-0.6,2.1-1
		c1.3-0.6,2.7-1.2,3.9-1.9c1.3-0.7,2.9-0.6,4.4-0.6c1.5,0,3,0,4.5,0.1c1.7,0.1,3.2,0.6,4.8,1.1c1.2,0.4,2.3,0.8,3.4,1.4
		c0.9,0.6,1.9,0.9,2.8,1.6c1.7,1.4,3.6,3,4.8,4.9c0.7,1.1,1.3,2.1,2,3.2c0.6,0.9,0.7,1.8,0.9,2.8c0.3,1.2,0.6,2.4,0.9,3.6
		c0.2,0.8-0.3,1.9-0.5,2.8c-0.2,1.3-0.5,2.6-0.7,3.8c-0.2,1.1-0.3,1.9-1,2.9c-0.7,1-1.5,2-2.2,3c-0.7,1-1.4,2.1-2.4,2.9
		c-0.8,0.6-1.7,1.1-2.6,1.7c-1.1,0.7-2.2,1.7-3.3,2.1C388.7,275.6,386.1,275.7,383.8,276.1C381.6,275.7,385.5,275.8,383.8,276.1z
		 M365,253.6c0.1,0.6,0.1,1.2,0.3,1.8c0.2,0.6,0.7,1.1,1.2,1.6c1,1.1,2,2.4,3.2,3.3c1,0.8,2.2,1.4,3.4,2c1.3,0.7,2.6,1.4,4.1,1.8
		c2.8,0.9,5.8,1.1,8.7,1.2c1.5,0.1,3,0.2,4.6,0.3c1.4,0.1,3-0.8,4.3-1.3c0.7-0.2,1.4-0.5,2.1-0.7c0.3-0.1,0.7-0.2,1-0.5
		c0.4-0.4,0.5-1.1,0.7-1.6c0.3-0.8,0.6-1.6,1-2.4c0.2-0.5,0.5-1,0.6-1.5c0.1-0.4-0.3-0.9-0.5-1.2c-0.6-0.8-0.8-2.1-1.7-2.7
		c-1.3-0.8-2.7-1.7-4-2.5c-1.4-0.9-2.7-1.9-4.2-2.3c-1.5-0.4-2.9-0.9-4.4-1.3c-1.4-0.4-3.1-0.3-4.6-0.5c-1.5-0.1-3.3-0.6-4.8-0.4
		c-1.5,0.2-2.9,0.4-4.4,0.8c-0.5,0.1-1,0.2-1.4,0.4c-0.6,0.2-1.2,1.2-1.6,1.7C367.2,251,366.1,252.3,365,253.6
		C365.1,254.5,366.5,251.8,365,253.6z"/>
	<path d="M366.7,317.5c-1.4-0.3-2.8-0.6-4.2-0.8c-1.5-0.2-2.7-0.8-4-1.4c-1.4-0.7-2.7-1.3-4.1-2c-1.4-0.7-2.2-1.8-3.2-2.9
		c-1-1.1-2-2.3-3.1-3.4c-0.4-0.4-1.1-0.9-1.2-1.5c-0.1-0.7-0.2-1.4-0.2-2.2c-0.4-3.2-0.9-6.4-1.3-9.6c-0.1-0.6-0.4-1.4-0.2-2
		c0.2-0.6,0.6-1.2,1-1.7c0.9-1.5,1.7-3,2.6-4.4c0.4-0.7,0.8-1.4,1.2-2c0.3-0.5,0.5-1,0.9-1.3c1.5-0.9,2.9-1.8,4.4-2.7
		c1.1-0.7,2.3-1.6,3.6-1.8c1.4-0.2,2.7-0.3,4.2-0.2c1.5,0.1,3,0.2,4.4,0.3c1.4,0.1,2.9,0.9,4.3,1.4c2.1,0.8,4.1,1.8,5.9,3.1
		c2,1.4,3,3.4,4.2,5.4c0.7,1.1,1.3,2.2,2,3.3c0.5,0.8,1.2,1.6,1.6,2.5c0.5,0.9,0.2,2.5,0.2,3.5c0,1.3,0.1,2.6,0.1,3.9
		c0,0.8,0.3,1.8,0.1,2.6c-0.2,1.1-1.1,2.3-1.6,3.3c-0.3,0.6-0.6,1.1-0.8,1.7c-0.2,0.5-0.4,1.2-0.8,1.6c-0.8,0.8-2,1.4-3,2.1
		c-1.1,0.8-2.2,1.5-3.3,2.3c-0.8,0.6-1.6,1.3-2.5,1.8c-1,0.5-2.3,0.5-3.4,0.7C369.2,317.1,367.9,317.3,366.7,317.5
		C365.5,317.3,368.7,317.2,366.7,317.5z M357.6,286.5c-1.6,0.4-3.1,0.7-4.7,1.1c-0.5,0.1-1.7,0.2-2,0.5c-0.2,0.2-0.3,0.7-0.4,1
		c-0.2,0.7-0.3,1.4-0.6,2.2c-0.2,0.7-0.4,1.4-0.6,2.1c-0.2,0.5-0.5,1-0.1,1.5c1.4,1.9,3.2,3.6,4.7,5.5c0.8,1.1,1.7,1.9,2.9,2.6
		c1.2,0.7,2.3,1.6,3.5,2.2c1.3,0.6,2.7,1.1,4.1,1.6c1.5,0.6,2.9,1.3,4.5,1.4c1.5,0.1,3,0.4,4.5,0.6c1.4,0.2,2.2-0.1,3.5-0.7
		c1.2-0.5,2.3-1.1,3.5-1.6c0.5-0.2,0.5-0.7,0.6-1.3c0.2-0.9,0.3-1.8,0.5-2.7c0.1-0.4,0.4-1.3,0.2-1.7c-0.2-0.3-0.5-0.6-0.7-0.9
		c-0.9-0.9-1.6-1.9-2.4-2.9c-0.6-0.7-1.2-1.4-1.7-2.2c-0.6-0.8-1.1-1.3-2-1.8c-1.9-1.1-3.7-2.2-5.6-3.4c-0.7-0.4-1.4-1-2.2-1.3
		c-0.9-0.4-2-0.4-2.9-0.6C362.1,287.4,359.9,286.9,357.6,286.5C355.4,287,360,287,357.6,286.5z"/>
	<path d="M162.8,20.6c-0.3,1.5-0.7,3.1-1,4.6c-0.1,0.5-0.2,1.7-0.5,2.1c-0.5,0.6-1.1,1-1.6,1.6c-0.9,0.9-1.7,2-2.6,2.7
		c-0.4,0.3-1.5,0.3-2,0.4c-0.9,0.2-1.7,0.3-2.6,0.4c-0.8,0.1-1.5,0.2-2.3,0.2c-0.5,0-0.6,0.6-0.7,1c-0.3,0.8-0.3,1.1-0.1,1.9
		c0.3,0.9,0.5,1.8,0.8,2.7c0.4,1.3,0.7,2.5,1.2,3.7c0.4,0.9,0.7,2.4,1.8,2.7c1.2,0.3,2.1,0.6,3.2,1.2c0.3,0.1,1.3,0.5,1.2,0.9
		c-0.1,0.6-0.6,1.3-0.8,1.9c-0.3,0.8-2.1,0.9-2.8,1.2c-1.6,0.5-3.2,0.9-4.7,1.5c-1.4,0.5-2.9,1.1-4.3,1.6c-1.1,0.4-2.5,1-3.7,1
		c-0.6,0-1.5-0.8-1.5-1.4c0.1-1.3,0.5-1.9,1.4-2.7c0.6-0.5,1.5-1.9,1.4-2.8c-0.3-1.4-0.8-2.9-1.2-4.3c-0.8-3.1-1.9-6.2-2.9-9.3
		c-1-3.1-2-6.1-3-9.2c-0.4-1.3-0.8-2.5-1.3-3.7c-0.1-0.4-0.3-0.8-0.5-1.2c-0.3-0.4-1.1-0.4-1.6-0.6c-0.6-0.2-1.1-0.3-1.6-0.6
		c-0.3-0.2-1.6-0.9-1.6-1.1c0-0.3,0.3-0.7,0.4-1c0.3-0.6,0.6-1.2,0.9-1.7c0.1-0.2,0.8-0.3,1-0.3c0.6-0.1,1.2-0.3,1.7-0.5
		c1.6-0.5,3.2-1,4.8-1.6c3.1-1,6.2-1.9,9.3-2.8c1-0.3,2.4-1,3.4-0.9c1.5,0.2,3,0.5,4.5,0.6c1.3,0.1,1.7,0.4,2.6,1.3
		c0.9,0.9,1.8,1.9,2.8,2.8c1,0.9,1.1,2,1.5,3.3C162,17.7,162.4,19.1,162.8,20.6C162.3,22.8,162.2,18.4,162.8,20.6z M152.8,23.2
		c-0.4-1.6-0.6-3.3-1-4.9c-0.2-0.9-0.6-1-1.5-1.4c-1-0.5-2.1-1-3.1-1.5c-0.9-0.4-1.8-0.9-2.7-1.3c-0.4-0.2-0.9,0.8-1,1
		c-0.4,0.7-0.2,1.4-0.1,2.1c0.1,1.1,0.5,2.1,0.8,3.2c0.7,2.1,1.3,4.2,2.2,6.2c0.2,0.6,0.9,0.6,1.4,0.7c0.4,0.1,2.5,0.9,2.8,0.7
		c0.5-0.4,0.8-1.7,1.1-2.3C152.1,24.9,152.5,24.1,152.8,23.2C152.6,22.1,152.6,23.7,152.8,23.2z"/>
	<path d="M63.2,320.4c1.6-1,3.1-2.1,4.5-3.3c0.7-0.5,1.4-1.1,2-1.6c0.6-0.5,1.6-1,2.1-1.7c0.3-0.5,0.4-1.1,0.6-1.6
		c0.3-0.9,0.4-1.5,0.3-2.4c-0.1-0.5-0.3-1.2-0.2-1.7c0-0.7,1.1-1.7,1.4-2.3c1.8,2.1,3.6,4.2,5.3,6.3c1.7,2.1,3.3,4.4,5.1,6.3
		c0.7,0.8,1,1.2,0.9,2.3c-0.1,0.4-0.1,0.9-0.2,1.3c-0.8,0-1.5-0.1-2.3-0.1c-1.3-0.1-2.6-0.1-3.9-0.2c-0.6,0-0.9-0.1-1.4,0.3
		c-0.6,0.5-1.2,0.9-1.7,1.4c-4.2,3.4-8.6,6.7-12.9,10c-2,1.6-3.9,3.3-5.8,5c-0.3,0.3-0.7,0.5-0.9,0.8c-0.3,0.4-0.2,1.2-0.2,1.7
		c-0.2,1.4-0.3,2.9-0.5,4.3c-0.9-0.3-2.3-0.5-3.1-1.1c-0.9-0.7-1.4-2-2.1-2.9c-1.8-2.5-3.6-4.9-5.5-7.4c-0.9-1.1-1.8-2.3-2.6-3.4
		c-0.8-1.1-1.9-2.1-2.3-3.4c-0.3-1.3-0.6-2.4-0.7-3.8c-0.1-1.3,0.5-2.3,1.1-3.5c0.6-1.3,1.2-2.6,1.8-3.9c0.5-1.1,0.7-2.2,1.9-2.8
		c1.4-0.6,2.8-1.1,4.3-1.6c1.3-0.5,2.6-1.1,4-0.9c1.2,0.2,2.5,0.1,3.6,0.6c0.7,0.3,1.4,0.7,2.1,1c0.5,0.3,1.1,0.4,1.5,0.9
		c0.7,1,1.1,2.2,1.7,3.2C61.8,317.7,62.5,319.1,63.2,320.4C66.2,318.5,62.1,318.5,63.2,320.4z M48.4,331.4c1.4-0.5,2.7-1.4,3.9-2.3
		c1.4-1.1,2.7-2.1,4.1-3.2c1.2-0.9,2.9-1.9,3.2-3.4c0.1-0.7,0-0.9-0.5-1.4c-0.5-0.5-1.2-1.6-1.9-1.7c-0.7-0.1-1.5-0.2-2.2-0.3
		c-0.9,0-1.5,0.4-2.3,0.8c-1.4,0.7-3.1,1.2-3.8,2.7c-0.8,1.6-1.7,3.2-2.6,4.8c-0.4,0.8-0.3,0.8,0.3,1.5
		C47.1,329.8,47.7,330.6,48.4,331.4C50.6,330.6,47.6,330.5,48.4,331.4z"/>
	<path d="M354.7,91.9c1.7-0.3,3.5-0.5,5.2-0.9c1.7-0.3,3.4-0.9,5.1-1.1c0.7-0.1,0.8-0.5,1-1.1c0.2-0.6,0.5-1.1,0.7-1.6
		c0.3-0.6,0-1.3-0.2-2c-0.1-0.6,0.1-0.8,0.5-1.3c0.6-0.8,1.1-0.1,2,0.1c1.4,0.4,2,1.9,2.7,3c1,1.5,2.2,2.7,3.4,4c0.6,0.6,1,1,1,1.8
		c0,0.8,0,1.7,0.1,2.5c-1.4-0.1-2.6-0.1-4-0.4c-1.3-0.3-2.8-0.9-4.2-0.7c-3,0.3-6,0.6-8.9,1.1c-1.3,0.2-2.5,0.5-3.8,0.5
		c-1.4,0-2.5,0.4-3.6,1.2c-2.3,1.6-4.7,3.1-6.8,4.9c-1.1,0.9-2.1,1.8-3.2,2.8c-0.4,0.3-0.4,1-0.4,1.4c0,0.7-0.1,1.4-0.2,2
		c-0.1,0.8-0.1,1.6-0.2,2.3c-0.1,0.6-0.4,0.4-0.9,0.4c-0.4,0-0.8,0-1.2-0.1c-0.4-0.1-0.8-0.8-1-1.2c-1.8-2.3-3.6-4.6-5.5-6.8
		c-0.9-1-1.8-2.1-2.7-3.1c-0.8-0.9-0.6-2.6-0.7-3.7c1.5-0.1,3.1-0.1,4.6-0.2c1.3,0,2.7,0.2,3.8-0.7c1.2-1,2.4-1.9,3.5-2.8
		c1-0.8,2.1-1.6,3-2.6c0.9-1,1.3-2.3,1.7-3.6c0.6-1.5,1.1-3.1,1.7-4.6c1.1-3,2.3-5.9,3.4-8.9c0.5-1.2,0.9-2.2,0.8-3.5
		c0-1.3-0.2-2.5,0.2-3.8c0.1-0.2,0.2-0.9,0.5-0.9c0.5,0,1-0.1,1.5,0c0.6,0,0.8,0.4,1.1,0.8c0.5,0.6,1,1.2,1.5,1.7
		c2,2.3,4,4.7,5.8,7.2c0.8,1.2,1.7,2.4,2.5,3.6c0.4,0.6,0,1.7-0.3,2.3c-0.3,0.9-1.8,0.2-2.5,0.4c-0.8,0.2-1.6,0.5-2.4,0.7
		c-0.6,0.2-1.1,0.1-1.3,0.8c-0.7,1.7-1.3,3.5-2,5.2C355.5,88.8,354.8,90.3,354.7,91.9C356.6,91.6,354.8,90.8,354.7,91.9z"/>
	<path d="M383.3,120.3c1.4,0.6,2.9,1.2,4.3,1.8c0.7,0.3,1.4,0.6,2.2,0.9c0.5,0.2,1.1,0.3,1.6,0.6c0.5,0.3,0.6,1.1,0.8,1.6
		c0.3,0.7,0.6,1.4,0.9,2.1c0.7,1.6,1.3,3.2,2,4.7c0.5,1.2,1,2.4,1.6,3.6c0.6,1.1-0.6,2-1.2,2.9c-0.6,1.1-2.1,1.3-3.2,1.7
		c-1,0.3-2.8,1.4-3.8,1c-0.4-0.1-0.7-0.2-1.1-0.4c-0.5-0.2-0.2-0.9-0.2-1.3c0-0.6,0-0.9,0.5-1.3c0.5-0.4,1-1,1.5-1.5
		c0.8-0.8,1.5-1.4,1.7-2.5c0.2-1.5,0.2-3.1,0.5-4.6c0.1-0.7-2-1.6-2.5-2c-0.5-0.4-1-0.2-1.6-0.1c-0.6,0.1-1.4,0-2,0.2
		c-0.5,0.2-1,1-1.4,1.4c-0.3,0.3-0.7,0.6-0.9,1c-0.3,0.5-0.2,1.5-0.2,2.1c-0.1,0.9-0.2,1.8-0.2,2.7c-0.3,2.6-0.4,5.3-0.9,7.8
		c-0.1,0.6-0.6,1-1,1.4c-0.5,0.5-1.1,1.1-1.6,1.6c-1.1,1.1-2.1,2.2-3.2,3.3c-0.8,0.8-1.9,0.9-3.1,1.2c-0.7,0.2-1.5,0.4-2.2,0.6
		c-0.6,0.2-1.5,0.6-2.1,0.5c-1.3-0.1-2.7-0.3-4-0.7c-1.3-0.4-2.5-1.2-3.7-1.9c-1.2-0.7-1.9-1.2-2.7-2.3c-0.8-1.3-1.7-2.5-2.6-3.7
		c-0.3-0.5-0.3-1.2-0.3-1.7c-0.1-0.8-0.2-1.6-0.3-2.4c-0.2-1.6-0.4-3.2-0.6-4.7c-0.1-0.4-0.4-1.3-0.1-1.7c0.2-0.3,0.5-0.6,0.8-0.9
		c0.7-0.6,1.2-1.4,2.1-1.8c1.3-0.5,2.6-1.1,3.9-1.6c1.2-0.5,2.1,0,3.3,0.2c-0.2,0.6-0.4,1.2-0.6,1.7c-0.2,0.5-0.3,1.3-0.8,1.7
		c-1,0.8-1.8,1.8-2.8,2.6c-0.7,0.6-1.7,1.2-1.6,2.2c0.2,1.1,0.2,2.3,0.2,3.5c0,1.4,0.7,2,1.6,3c0.5,0.6,1.2,1.9,2.1,1.7
		c1.9-0.5,3.8-1.2,5.7-1.7c0.4-0.1,0.9-0.2,1.3-0.3c0.3-0.1,0.4-1.5,0.5-1.8c0.3-1.3,0.6-2.6,0.8-3.9c0.4-2.7,0.5-5.9,1.7-8.4
		c0.6-1.2,1.1-2.5,1.7-3.7c0.4-0.9,1.2-1.3,2.1-1.7c0.9-0.5,1.6-1.3,2.6-1.7C380.3,120.7,381.9,120.6,383.3,120.3
		C385.6,121.2,381.9,120.6,383.3,120.3z"/>
	<path d="M369.3,175.2c0.5,1.3,1,2.6,1.4,4c0.4,1.5,1.7,1.7,2.9,2.3c1.1,0.5,2.3,1,3.4,1.5c1.3,0.6,2.2,1.9,3.2,2.9
		c0.4,0.4,0.2,0.5-0.2,0.9c-0.2,0.3-0.4,0.6-0.8,0.6c-1.5,0.2-3,0.4-4.4,0.6c-1.3,0.2-2,0.2-3-0.7c-1.1-1-2.4-2-3.5-3.1
		c-0.9-0.9-1.1-2.8-1.4-4c-0.5-1.6-0.9-3.2-1.4-4.8c-0.1-0.5-0.5-1-0.3-1.6c0.2-0.8,0.4-1.5,0.6-2.3c0.4-1.6,0.8-3.3,1.2-4.9
		c0.3-1.4,0.5-3.1,1.1-4.4c0.2-0.6,0.7-0.9,1.1-1.4c0.5-0.6,1-1.2,1.6-1.8c1-1,2.2-1.9,3.3-2.8c1.1-0.9,2.4-1.3,3.6-1.8
		c1.2-0.5,2.5-0.9,3.8-1.3c1.5-0.5,2.9-0.4,4.4-0.4c1.5,0.1,3-0.1,4.5,0.3c1.6,0.4,3.1,1,4.6,1.5c0.7,0.2,1.4,0.4,2,0.7
		c0.6,0.3,1,0.8,1.5,1.2c1.2,0.9,2.3,1.6,3.3,2.8c1,1.1,2,2.2,2.6,3.6c0.7,1.5,1.4,3.1,2.2,4.6c0.6,1.2,0.6,2.7,0.8,4
		c0.2,1.4,0.3,2.9,0.5,4.3c0.2,1.2-0.7,2.8-1.1,3.9c-0.4,1.2-1.3,1.3-2.4,1.7c-0.9,0.3-1.6,0.8-2.5,1.1c-0.6,0.2-2.9,0.2-2.9-0.7
		c0.1-1-0.3-2,0.4-2.8c0.9-0.9,1.6-1.7,2-2.8c0.4-1,0.8-1.9,1.1-2.9c0.2-0.5,0.4-1,0.6-1.4c0.1-0.3,0.5-1,0.5-1.3
		c-0.1-0.5-0.5-1-0.7-1.5c-0.4-1-0.9-1.3-1.8-1.8c-2-0.9-4-1.9-6-2.8c-0.8-0.4-1.7-1-2.5-1.2c-1-0.2-2.2,0-3.2,0
		c-0.9,0-1.9,0-2.8,0.1c-1.1,0.1-2.1,0.6-3.2,0.9c-1.9,0.6-4.1,0.8-5.8,1.9c-1.7,1.1-3.5,2.3-5.2,3.4c-0.9,0.5-1.2,1.9-1.6,2.7
		C370.3,173.1,369.8,174.2,369.3,175.2C369.7,176.3,370.1,173.5,369.3,175.2z"/>
	<path d="M328,332.9c-1.5-0.5-3.5-0.7-4.6-1.9c-1-1.1-1.9-2.2-2.9-3.2c-0.5-0.5-0.2-1.3-0.1-1.9c0.1-0.8,0-2,0.3-2.8
		c0.3-0.6,0.9-1,1.3-1.5c0.7-0.7,1.3-1.4,2-2.2c2.5-2.8,5.1-5.6,7.6-8.5c1.2-1.4,2.4-2.9,3.6-4.3c0.5-0.7,0.7-0.7,1.5-0.7
		c0.7,0,1.5-0.1,2.2-0.1c0.1,1.5,0.3,2.6,0.8,4c0.4,1.2,0.7,2.8,1.5,3.8c0.8,1,1.9,1.8,2.9,2.6c1.3,1.1,2.5,2.2,3.8,3.3
		c2.4,2.1,4.9,4.2,7.3,6.3c1.1,0.9,2.3,1.8,3.3,2.9c0.4,0.4,0.8,0.9,1.3,1c0.6,0.2,1.4,0,2,0c1.5,0,3,0.1,4.4,0.3
		c0.6,0.1,0.6,0.2,0.6,0.8c-0.1,0.5,0,0.9,0,1.4c-0.1,0.6-0.8,1.1-1.2,1.5c-0.5,0.6-1,1.1-1.6,1.7c-1.1,1.2-2.2,2.4-3.3,3.6
		c-1,1.1-2,2.3-2.9,3.4c-0.5,0.5-0.9,1-1.4,1.5c-0.5,0.5-1.1,0.1-1.7,0.1c-0.6,0-0.8-0.1-0.8-0.8c0-0.7-0.1-1.3-0.3-2
		c-0.4-1.4-0.6-3-1.2-4.3c-0.3-0.7-1-1.2-1.6-1.7c-0.7-0.7-1.4-1.3-2.2-2c-1.5-1.4-3.1-2.6-4.6-4c-2.9-2.6-5.7-5.3-8.9-7.7
		c-0.8-0.6-1.5-1.1-2.3-1.7c-0.6-0.4-1.1,0-1.7,0.1c-0.7,0.2-1.5,0.4-2.2,0.5c-0.8,0.1-0.8,0.2-1.1,1c-0.3,1-0.5,2-0.8,3
		c-0.2,0.8-0.7,1.7-0.3,2.5C327.4,329.1,327.6,331,328,332.9C326.8,332.6,327.6,331,328,332.9z"/>
</g>
<g>
</g>
<g>
</g>
<g>
</g>
<g>
</g>
<g>
</g>
<g>
</g>
<g>
</g>
<g>
</g>
<g>
</g>
<g>
</g>
<g>
</g>
<g>
</g>
<g>
</g>
<g>
</g>
<g>
</g>
</svg>
