<?xml version="1.0" encoding="utf-8"?>
<!-- Generator: Adobe Illustrator 17.0.0, SVG Export Plug-In . SVG Version: 6.00 Build 0)  -->
<!DOCTYPE svg PUBLIC "-//W3C//DTD SVG 1.1//EN" "http://www.w3.org/Graphics/SVG/1.1/DTD/svg11.dtd">
<svg version="1.1" id="Layer_1" xmlns="http://www.w3.org/2000/svg" xmlns:xlink="http://www.w3.org/1999/xlink" x="0px" y="0px"
	 width="234.7px" height="252.8px" viewBox="0 0 234.7 252.8" style="enable-background:new 0 0 234.7 252.8;" xml:space="preserve"
	>
<g id="tree-straight-col.svg">
	<path style="fill:#872321;" d="M149.4,31.4l-0.2-1.8l0.8-1l1.1,0.6l0.5,0.9l3.5,1.5l3-0.4l0.8-0.8l-0.5-1.5l-2.2,0.5l0.4-3.8
		l3.5-0.3l2.2,5.3l-2.4,1.7l3.6,2.5l0.1,0.5l4.5,5.7l0,2.7l-0.3,0.3l-15.5,0.6l-1.8,1.7l7.3,1.6l3.1-1.6l6.8,2.3l0.3,0.5l4.8,1.7
		l0.6,1.5l3.1-0.1l5.5,7.3l4.7-1.3l1.7,1.4l0.2,1.4l3.6,3.8l-0.1,1.8l-1.3,2.3l1.7,1.7l-0.3,0.7l-3.5,1.1l-5.4-1.8l-0.6,2.4
		l-0.7,0.1l-0.6-2.6l-0.5,1.1l0,2l-0.8,1.1l-3.1-1.1l-1.5,1.6l0.2,0.4l0,2.1l-9.4-0.6l-0.4-1.6l-0.3,0.6l0.2,0.8l-0.4,0.7l-29.1-11
		l1.5-2.7l-1.2-0.1l-15,10.6l-0.2,0.9l17.6,4.3L144,86l-5.7,5.2L118.6,94l-1.4-0.5l-1.8,0.3l-0.7,3.4l0.7,0.6l15.8-1.4l0.9,4.2
		l2.7,1.8l0.8-0.6l-0.8-0.9l5.7-7.8l7.5,0.4l0.3-0.8l-0.4-2.5l5.1-5.2l5-0.7l1.2-1.3l1.6,1.4l2.6-2.5l4.2,1.9l2.2-2.5l16.6,0.5
		l3.6,4l10.6,1.6l3.2,4.9l4.2,1.7l0.2,1.4l-3,2l2.3,3.8l5.3,0.6l5.9,9.6l-7.9,9.7l-4.1,1.4l-0.9,1.1l1.8,4.4l4.1,2.4l1.4-0.4
		l0.8-1.1l1.8-0.2l7.6,4.4l0.9,2.3l1.7,0.9l1.4-1.5l0.5,0.4l0.5,3.2l2.1,2l2.2,0.5l-0.3,3l-3.2,3.6l-12.7-0.3l-0.9-0.8l-3.3,2.1
		l2.5,4.2l-3.1,3.9l-5.1,0.2l-0.5,1.2l3,2.5l2-0.9l1.4-4.2l1.7,2.1l4.7-1.9l9.9,2.9l0.3,1l-4.9,2l-1.8-0.4L221,160l-1.2,1.4
		l-19.4,3.5l-6.6-7.2l-1.6,1.9l-0.9-0.8l0.8-1.8l-9.5,1.5l-0.2,0.8l-20,20.9l-1,3.1l-19.8,6.7l-7.5,8.7l1.4,0.2l1.1,0.9L115,225.5
		l2.7,15l-1,2.3l0.8,0.5l1.1-1.4l4.1,5.6l-2.1,3.4l-5.4,0l-0.2,0.4l-4.3,0.4l-1.3-3.8l1.1-1.5l-3.2,1.3l-0.4,1.4l0.7,1.9l-0.1,1.2
		l-1.3-0.2l-5.6-6.1l-0.5,0.1l-1.6-1.3l0.5-12.4l-3,13.8l5.9,6l-0.7,1l-6.8-2l-0.8-1.5l-3.8,0l-1.4-2.4l-0.1-1.1l-3.5,3.3l-3.5-1.1
		l-16.3,4l5.3-7.8l1.1,0.5l0.8,2.3l0.9,0.7l-0.1-0.9l7.2-7.6l0.3-3l4.3-3.3l1.4,0.1l0.7-2.7l-1.5-9.1l0.9-1.2l-1.9-6.2l3.1-2.4
		l-0.2-8.7l-4.5-1.1L82,201l0.8-0.8l4.9-0.1l-0.9-1.2l-5.2-1.9l0.7-1.4l4.3,0.3l0.5-1.9l-19.5-3.7l-3.3,1.2l-1.6-1.9l-13.4,0.3
		l-5.3-4.3l-2.9-0.5l-4.4-6.2l9.2-12.9l-0.6-1.6l2.2-2.2l-6.1,0.2l0.1-3.3l5.1-0.6l-5.2-5.4l8-7.8l0.3-2.1l-5.8-1.9l-13.3,7.1
		l-1.8-0.8l-1.5-3.3l-6.1-1l-2.4,3.2l-1.2,0.3l-0.7-3.6l0.2-0.6l-1.8-5.1l0.1-1.2l2.7-3.8l-0.8-4.7l3-3.4l5.8-0.3l1.7-1.1l2,0.4
		l0.6,0.8l2.9-2.8l2.2,2.2l4.5-0.4l0.5,0.6l8.7,3.8l1.1,2.9l-4.4,2l-5.2-1.6l-0.1,0.7l2.8,1.5l2.3,3.2l5.5,1.9l3.8-0.7l2.6-4.4
		l-5.2-0.2l0.3-2l3-1.6l1.8-3.1l-0.8-0.5l-1.1-5.7l-4.5-2.6l-4.9,1l-0.7,0.7l-1.5,0.2l-0.2-1.5l1.3-1.7l-9.2,2.5l-2.7-2.1l-1.4,0.2
		l-3.1-6.6l1.5-2.3l2.3-0.5l1,0.5l0.8-0.1l-1.3-2.2l10.4-4.7l-0.4-0.7l-7,1l-2.1-1l1.4-1.3l-1.8,0.2l0.2,1.1l-0.9,1.6l-2.8,0.4
		l0-2.1L31,99l0.4-1.5l-2-0.5l-10.2,9.2l-1.6,0.2l-0.8-1.8l1.1-3.3l-1.6-0.7l-1.4-1.9l1.8-1.9l2.4,0.6l0.3-3.7l-0.8-0.9l-1.2-4
		l-9.9,6.1l-2.2-0.5l-1.5-1.9l-1.4-7.5l1.1-1.8l-1.4-0.1L0,80.8l1.3-2.2l2-0.5L2.9,80l1.2,0.4l1.4-0.2l-0.2-3.8l1.3-2.5l1,0.9
		l0.8,0.2l0.9-1.1l0-1.1l-1.5-1.9l-1.1,1.3l-1.6,0.7l-1.2-1.7l7.1-6.1l-0.3-3.9l2-2.5l5.3,0.9l0.9-1.8l1.5-1.1l13.1,1.5l2-1.2
		L34.7,56l-8-2.4l1.8-5.2l8.8-0.8l1.3-3.2l7-5.7l-2.7,0.7l-1.6,2.3l-5.4-1.9l-3.5,1.4l0-12.1l2,3l1.4-2.1l0.8-7.2l2.4-1.1l6.8,6.8
		l1.5-1.9l2-0.3l1.4-1l-0.4-2l-3.6,1.8l-0.6-1l4-4l4,0.2l1.1-1.2l-0.1-1.1l1-0.8l2.1,2.4l11.2-6.1l0,2.2l5.2,0.1l0.9,1l4-0.7
		l2.7-2.1l-5.8,2.1L76,13.8l6.4-7.7l-2.5-2.2l-1.4-0.2l-0.1-1.6l1.5-0.9l9.8,3.8l4.2-0.7l4-4.2l19.7,4.1l1.1-0.4l2.4,0.5l5.6,6.5
		l1.4,0.6l0.6,3.2l1.2-0.1l7,5.8l-0.4,3.7l-15,4.9l0.6,3l6.8,1.6l0.5-0.8l-1-2.8l7.3-1.1l1.7-2.2l0.3-3.7l2.4-0.8l7.6,6.4l0.2,1.7
		L149.4,31.4L149.4,31.4z M144.6,102.8l-4-3.7l-2.3,1.6l0.5,1.2l16.2,3l1.2-1.4l-2.4-1.6l-0.1,0.4L144.6,102.8L144.6,102.8z
		 M56,63.5l-0.9-1.2L50.1,60l-2.3,0.2l-6.1-4.1l-1.9,2.4l0.8,1.9l3.1-2.5l2,1.7l-2.1,2.9L56,63.5l-6.6,6l-0.9,0.1L48,70.1l1,2
		l4.4-0.8l2.6,4.1l2.9,0.7L56,63.5L56,63.5z M116.8,202.6l17.7-16.9l1.9-6.8l-5.7-6.9l-13.2,7.9l0.1,1.7l-4.1,1.2l-0.8,1.1l-2-2.1
		l-0.6,1.3l0.2,16.8l0.7,1.3L116.8,202.6L116.8,202.6z M65.4,30.1L77,30.7l1.2,1.5l0,1.8l-2.8,2.8l-2.1-0.5l-1.5,0.6l2.2,4.9
		l0.8-0.2l-0.1-2.2l1.8-0.2l0.7,1.4l-0.2,2.8l-12.1,4.2l-2.1-8.6l-3,1.6l-4.1-1.4L46,42.3l0.8,1.2l1.5,0.2l5.4-2.4l6.5,1.3l0.1,4.5
		l3.7,1.2l1.2,1.6l18.3-1.9l1.2,1.3l4.5,0.5l3.3,4.1l1.1,0.5l0.4-0.3L93.2,53l-0.5-0.2l-2.6-3.5l1.7-1.5l4.5,0.3l0.7-0.5l-2.7-0.7
		l-0.9-1.5l1.2-1.2l4.3,2l6.1-1.6l0.1-1.2l-1-1.3l-1.6-0.5l-3.6,3.5l-2.5-1.8l2.1-5.2l-1.1-2.7L90.9,33L88,33.9l-3.3-6.6l0,2.4
		l-0.4,0.9L82,28.6L65.4,30.1L65.4,30.1z M107.4,6.8l2.2,2.5l-1.3,1.9l-8.7,4.1L98,18l-0.1,6l-7.6,4.7l11.4,1.1l-2.2-1.5l0-1.6
		l3.4,0.1l1.6,1l-0.9,1.7l3.1,1.9l8.6-1.3l2.6-2.1l-3.6-0.9l-1.2-1.2l0.7-1.2l4.3-1.6l1.5-2.2l-1.8-1.9l-2,0.8l-2.2,3.6l-1.9-0.2
		l-0.5-1.1l-10.4-2.3l-0.2-1.6l3-3.9l0.7,1.1l1.2,0.6l1.4-0.5l1.8,3.3l3.3-2.5l-2.8-2.7l2.3-1.8l8.6-0.1l-1.9-1.8l2.6-1.3l1.3,1.2
		l0.7,4.7l0.9-1.7l0.1-2.8l-0.9-1.1L107.4,6.8L107.4,6.8z M100.3,63.6l-2,3.3l1.4,0.4l2.8,4.5l1.4-1l3.4-0.1l3.4,3.2l13.6-9.1
		l3.7-8.6l-0.5-2.8l-0.6-0.5l-1.6,3.1l-6.1,2.1l-1.2-3.6l0.9-1.6l-6.2,4.9l-0.5,2l0.6,1.6L100.3,63.6L100.3,63.6z M91.7,7.7
		l-5.4,0.8l4.9,5.6l-0.7,2l-7.8,5l-3.6-0.6l-2.5-2.3L59.1,28.9l-1.9-1.1L55,28.4l-2.1,3.8l1.3,0.6l0.9-2.2l5.1,2.4l3-5.2l2.2,0
		l7.1-4.5l8.1,0l0.7,0.8l3.2-1l3.2,1.2l1.4-3.1l0.5-0.3l5.8-0.2l0.8-1.4l-2.9-0.4l1.4-7.2l6.7-2.9l-5.1-2.3l-4.6,2.7L91.7,7.7
		L91.7,7.7z M151.5,177.2l2.6-0.3l0.8-0.8l-6.6-7.2l-3.4-1.3l-2.8-3l-0.8,3.6l-2.3,2.2l-0.1,6.5l3.7,2.6L151.5,177.2L151.5,177.2z
		 M76.3,120.1l8.1,22.3l0.9-2.3l-1.8-18.7l-1.1-1.5L76.3,120.1L76.3,120.1z M137.4,106.7l-18.7-5l-4.9,1.9l-0.1,1.6l4.8,0l3.7,5.7
		l0.5-1.2l3.1-2.1l2.1,1.3L137.4,106.7L137.4,106.7z M63.3,73.4l3.9,4l3.4,1l1.6-0.4l1.3-7l-8-4.4L63.3,73.4L63.3,73.4z M76,143.8
		l-2.1-5.7l-4.1-3.5l-10,1.8l-1.7,3.7l1.9,0.7l-1.5,2.8l1.4-0.2l4.6-3.2l3.1,0.5l0.6-0.8l2.4,0L76,143.8L76,143.8z M55.6,100.5
		l1.2,0.2l1.5,4.2l1.2,0.1l0.9-3.5l-2.7-5.6l-2.1-1.2l-2.5-3.9L49.6,93l-0.7,2.8l3.2,5.1L55.6,100.5L55.6,100.5z M165.6,167.5
		l-1.1-2.9l-5.8-2.6l-1.5,3l-2.9-0.5l-1.7,1.1l-0.2,1.4l6.3,5l1.7,0.1l4.3-3.1L165.6,167.5L165.6,167.5z M75.4,81.9l3.9-1.4l0.9-1.1
		l0.2-1.3l10.3-3.3l-1.3-2l-4.5-0.1l-0.6-0.9l-4.7,0.9l-3.8,3.8L75.4,81.9L75.4,81.9z M72.9,106l0.1,1.1l0.7,0.3l7.5-2.9l2.7,0.9
		l1.1-0.5l0.6-2.7l-1.5-1.6l-6.5,0.3L74.9,97l-1.2,1.1L72.9,106L72.9,106z M107.7,124.5l-2.3,13.2l1.2,0.8l5.7-3.2l2.8-4.5l-0.7-1
		l-1.6,1.5l-5.4-5.7L107.7,124.5L107.7,124.5z M91.3,99.5l-0.5,5.2l1.8,1.1l0.7-3.9l9.1-0.4l-0.7,2.6l3.5-5.7l-0.8-1l-3.1-0.6
		l-0.1-2.3l1.4-0.6l-5.4,4.5L91.3,99.5L91.3,99.5z M70.3,124.2l-0.5-2l-7.9-2.7l-0.2-1.2l4.1-3.4l0.1-1.4l-6.5-0.2l-1.2,2.4l9.8,9.7
		l2,0.6L70.3,124.2L70.3,124.2z M178.9,143.7l-1.5,0.9l1,1.2l-2.1,8.5l-7.9,6.3l1.3,0.8l12-11.1l0.2-5.5l-0.9-0.9L178.9,143.7
		L178.9,143.7z M64,60.7l1.6-2.3l7.3-0.1L72,52.7l-8.3,4.3l-1.8-1.8l-0.6,1.4l0.8,5.7l1.2,0.6L64,60.7L64,60.7z M92.6,203.8l2,18.3
		l0.6,0.5l0.8-3l2.9,9.5l-2-11.7l-2-1.2l1-14.6l-0.5,1.2l0,0.8l-1.7,0.9L92.6,203.8L92.6,203.8z M97.4,125l-0.9-2.3l-3.8,0.2
		l-0.1,0.2l0.8,12.6l0.9-0.1L97.4,125L97.4,125z M105.3,217.3l-0.2,1.8l-1.9,0.2l-2.6-15.8l-0.5,0l1.8,21.8l0.5,0l1.2-4.5l1.7-0.5
		l1.9,3.5L105.3,217.3L105.3,217.3z M120.5,40.4l0.1,1.7l2.8,3.9l4.1,0.2l2.1-1.2l0.7-4l-0.8-1.4l-7.1,4.1L120.5,40.4L120.5,40.4z
		 M38,63.7l-1.1-2.3l-8.7-2.2l-0.4,0.6l2,4.4l-1.9,4.2l2.2,1.1l0.8-0.7l-0.6-1.5l2.1-3.1L38,63.7L38,63.7z M119.4,141l2.2,1.5
		l2.6-0.8l1.7,0.8l0.5,0.9l0.7-0.8l2.1-0.3l1,0.8l3.7,0.9l0.3-0.3l-5.9-3L119.4,141L119.4,141z M134.7,61.8l-1.1-2.4l0.5-2l5.1-4.5
		l-0.4-0.8l-2.4-0.8l-2.2,0.9l-2.6,9.9L134.7,61.8L134.7,61.8z M114.5,209.4l-6.1,3.1l0.7,3.7l1.3,0.5l5-4.8L114.5,209.4
		L114.5,209.4z M38.9,92.5l5.4,4.2l1.1-0.6l0.5-3.7l-1.1-1.4L38.9,92.5L38.9,92.5z M29.3,141.9l3.9-3.1l6.5,0.8l2.3-1.8l0-0.9
		l-11.1,1.6L29.3,141.9L29.3,141.9z M224.6,140l-3.3-3.4l-3.1,0.6l4.1,4.8l1.3-0.1L224.6,140L224.6,140z M186.2,143.2l-0.6,6l2.4,0
		l1.4-1.5l-0.3-3.3l-1,1.8L186.2,143.2L186.2,143.2z M79.9,52.6l-2.4,0.6l0.5,1.7L76,56.6l0.7,0.9l3.4-0.9l1.3-1.4l0-0.8L80,52.6
		L79.9,52.6L79.9,52.6z M92.6,247.7l1-8.4l-1.3-3.1l-3-0.7l0,1l2.7,1.2l0,7.6l-1.9,1.2L92.6,247.7L92.6,247.7z M141.6,143.6
		l-0.9-1.2l-2.1,0.4l-0.5,0.5l2.4,5.6L141.6,143.6L141.6,143.6z M145.1,130.9l-6-1.3l-1.7,1.4l-0.8,2.2L145.1,130.9L145.1,130.9z
		 M62.3,87.2l-0.9-1.9l-5.2,5.2l0.4,0.7l5.7-2.6L62.3,87.2L62.3,87.2z M154.8,148.9l3.1-0.7l1-1.8l-1.2-1.1l-5.3,2l0.8,1.4
		L154.8,148.9L154.8,148.9z M92.1,61.3l-1.5,3.8l1.5,3.7L92.1,61.3L92.1,61.3z M132.7,46.6l3.4-6.3l-0.3-0.9l-2.5,2.6L132.7,46.6
		L132.7,46.6z M117.7,42.6l0.5-0.2l-1.1-3.9l-0.8,0.3l-1.4,1.8l-3.6,0.1l-0.5-0.7l-0.4,0.5l0.6,0.8L117.7,42.6L117.7,42.6z
		 M12.9,69.3l7.6-1.9l0.2-1l-5.1,0L12.9,69.3L12.9,69.3z M100,38.9l6.5-0.5l-0.3-1.4l-3.6-1.2L100,38.9L100,38.9z M105.5,239.9
		l1.7,2.2l1.1-1.3l0.4-2.1l-1.5-0.9L105.5,239.9L105.5,239.9z M66.6,39.5l0.7,1.3l3,0.5l0.4-0.7L68.3,38L66.6,39.5L66.6,39.5z
		 M43,80.4l-1.2,0.3l0.9,0.5l0.6,1.2L43,83.6l0.7,1.4l1.5-2.7l0.1-2.2L43,80.4L43,80.4z M132.6,20.1l-1.6,1.3l-0.9-1.8l0.1-1.3
		l-1-0.2l0,5l3.3-1.6L132.6,20.1L132.6,20.1z M95.7,75.5l3.2-1.5l0.7-1.6l-4,0.1l-0.4,2.8L95.7,75.5L95.7,75.5z M55.4,116.5l-1.8-3
		l-3.4,0.5L55.4,116.5L55.4,116.5z M111.7,204.2l2.4,2.2l-0.8,0.7l-1,0.2l-0.6,0.7l0.4,0.7l3.3-2.7l0.1-0.7L111.7,204.2L111.7,204.2
		z M162,88.9l2.6,2.2l1.4-0.9l-0.5-2.1L162,88.9L162,88.9z M58.5,156.8l0.4,1.1l1.5-2.1l-2.4-1.9L57,154L58.5,156.8L58.5,156.8z
		 M68.6,98l-0.7-0.8l-2,1.3l2,2.3L68.6,98L68.6,98z M169.3,95.2l-1.4-2.1l-1.2,2.5l2.4,0.7L169.3,95.2L169.3,95.2z"/>
	<polygon style="fill:#872321;" points="148.7,22.3 147.1,23.9 146.3,21.7 144.1,23.1 142.3,22.4 138.7,18.1 138.6,16.2 147.2,15.2 
		156.7,21.9 157.4,24 156.4,24.9 148.7,22.3 	"/>
	<polygon style="fill:#872321;" points="229,151.5 226.1,154.7 224.3,153.7 223.8,153 218.8,154.5 217.9,154.2 215.2,151.4 
		217.1,149.3 224.7,150.1 228.8,148.4 234.7,151 233.7,152.6 232.4,153.4 229,151.5 	"/>
	<polygon style="fill:#872321;" points="53.4,15.6 49.4,16 42,21.6 41.4,19.9 47.9,10.8 49.7,10.4 55.1,14.8 53.4,15.6 	"/>
	<polygon style="fill:#872321;" points="61.3,3.1 64.5,2.2 65.7,5.3 64.7,6 64.2,5.8 63.4,6.5 63.4,6.9 69.7,8.1 68.7,12.4 
		62.8,10.7 62.2,7.9 59.7,4.6 61.3,3.1 	"/>
	<polygon style="fill:#872321;" points="76.8,4 76.9,5.2 76.3,6 73.7,5.2 70.5,6.5 67.4,4.6 66.4,2.8 74.8,1.7 76.8,4 	"/>
	<polygon style="fill:#872321;" points="61.7,9.9 55.4,10.9 54.2,9.6 57.5,6.3 60.9,8.5 61.7,9.9 	"/>
	<polygon style="fill:#872321;" points="154.4,25.3 154.9,28.6 154.2,30.2 152.7,29.4 152.2,25 153.4,24 154.4,25.3 	"/>
	<polygon style="fill:#872321;" points="97,38.3 79.7,47.7 79.5,46.4 81.6,41.3 94.1,37.6 95.2,36.2 96.7,37.6 97,38.3 	"/>
	<polygon style="fill:#872321;" points="109.8,28.7 108.2,29.1 106.1,28.4 107,26.7 110.4,26.6 111.5,27.8 109.8,28.7 	"/>
</g>
<g>
</g>
<g>
</g>
<g>
</g>
<g>
</g>
<g>
</g>
<g>
</g>
<g>
</g>
<g>
</g>
<g>
</g>
<g>
</g>
<g>
</g>
<g>
</g>
<g>
</g>
<g>
</g>
<g>
</g>
</svg>
