<?xml version="1.0" encoding="utf-8"?>
<!-- Generator: Adobe Illustrator 17.0.0, SVG Export Plug-In . SVG Version: 6.00 Build 0)  -->
<!DOCTYPE svg PUBLIC "-//W3C//DTD SVG 1.1//EN" "http://www.w3.org/Graphics/SVG/1.1/DTD/svg11.dtd">
<svg version="1.1" id="Layer_1" xmlns="http://www.w3.org/2000/svg" xmlns:xlink="http://www.w3.org/1999/xlink" x="0px" y="0px"
	 width="410px" height="345.3px" viewBox="0 0 410 345.3" style="enable-background:new 0 0 410 345.3;" xml:space="preserve">
<g id="tree-text-bezier-337ab7.svg">
	<g id="_x3C_parkwood-primary-school_x3E__1_">
		<path style="fill:#337AB7;" d="M204.2,39.5c0-0.1,0.1-0.3,0.2-0.3c0-0.9-0.1-1.9-1.1-3.1c-0.8-0.9-2-2-2.6-2.9
			c-0.8-1.3-1.6-2.6-2.4-3.9c-1.6-2.7-3.4-5.2-5.1-7.8c-0.6-0.9,0.5-2.4,1.1-3.1c0.9-1.1,1.6-2.3,2.4-3.5c0.8-1.2,0.9-2.2,1-3.6
			c0-1.4-0.4-2.8-0.8-4.1c-0.4-1.6-1.5-2.7-2.4-4.1c-0.6-0.9-1.7-0.6-2.6-0.8c-1.6-0.2-3.3-0.4-4.9-0.6c-1.4-0.2-2.8-0.4-4.3-0.2
			c-3.1,0.5-6,1.2-9.1,1.3c-1.5,0.1-3,0-4.4,0.1c-1.3,0.1-2.3,1.1-3.4,1.7c0.8,0.9,1.6,2.3,2.6,2.9c0.6,0.4,1.5,0.5,1.8,1.2
			c0.4,1,0.5,2.4,0.6,3.5c0.2,1.2,0.4,2.5,0.5,3.7c0.7,6.5,1.5,13,2,19.5c0.1,1.2,0.6,3.1-0.6,4c-0.7,0.5-1.8,0.6-2.1,1.5
			c-0.2,0.6-0.6,1.3-0.7,2c0,0.3,0.6,0.6,0.8,0.7c0.4,0.3,0.9,0.7,1.4,0.7c0.6,0,1.2-0.2,1.8-0.2c3.2-0.3,6.4-0.7,9.5-1.2
			c0.9-0.1,1.8-0.3,2.7-0.4c0.7-0.1,1-0.1,1.3-0.7c0.2-0.3,1.4-1.3,1.2-1.7c-0.4-0.7-1.4-1.2-2-1.8c-1-1-2.3-2.1-3.1-3.3
			c-0.6-0.9-0.4-2.3-0.5-3.3c-0.2-1.4-0.5-2.8-0.7-4.2c0-0.5-0.2-3.8,0.2-3.7c0.7,0.1,1.5,1,1.9,1.5c0.9,1.1,1.5,2.5,2.3,3.8
			c0.8,1.3,1.5,2.6,2.2,3.9c0.8,1.5,1.6,3,2.4,4.5c0.6,1.2,1.1,2,2.3,2.7c0.4,0.3,0.8,0.6,1.2,0.9c0.5,0.4,0.7,0.4,1.3,0.3
			c1.5-0.2,3-0.4,4.5-0.6c1-0.1,1.1-0.2,2.2-0.2C202.9,40.3,204.1,39.9,204.2,39.5z M187.6,13.1c-0.5,1.5-0.8,3.2-1.4,4.6
			c-0.3,0.7-1,0.9-1.6,1.3c-0.7,0.4-1.5,0.8-2.2,1.2c-0.5-0.7-0.8-1.1-0.9-2c-0.1-0.8-0.2-1.7-0.2-2.5c-0.2-1.9-0.4-3.8-0.6-5.6
			c-0.1-0.6-0.5-3,0.1-3.4c0.2-0.1,2.5-1,2.5-0.9c1.1,1.6,2.2,3.1,3.3,4.7c0.3,0.4,0.7,0.8,0.9,1.2C188,12.3,187.8,12.5,187.6,13.1z
			"/>
		<path style="fill:#337AB7;" d="M225.2,1.7c-0.7-0.3-1.3-0.6-2-0.7c-1.4-0.2-2.9,0-4.4-0.1c-3.2-0.1-6.4-0.5-9.6-0.9
			c-0.7-0.1-1-0.2-1.5,0.3c-0.3,0.3-0.6,0.6-0.9,0.8c-0.4,0.3,0.2,1.6,0.4,2c0.2,0.4,1,0.5,1.3,0.8c0.6,0.4,1.1,1,1.6,1.5
			c0.6,0.6,0.4,1.8,0.4,2.6c0,1.6,0.3,3.2,0.3,4.8c0,1.5-0.2,3-0.4,4.5c-0.3,3.2-0.6,6.4-0.6,9.6c0,1.6-0.1,3.3-0.3,4.9
			c-0.1,0.7-0.2,1.5-0.3,2.2c-0.1,0.5,0,1-0.3,1.4c-0.2,0.3-1.1,1.6-1.6,1.5c-1.3-0.2-1.9,1.1-2.2,2.3c0,0.1,0.1,0.2,0.1,0.3
			c-0.1,0.5,0.1,1,0.1,1.4c0.1,0-0.1,0,0,0c1.4,0.2,2.6,0.6,4.1,0.6c3.2,0,6.5,0.4,9.7,0.3c1,0,1.3-0.1,2.4-0.3
			c0-1.1,0.8-2.2,0.8-3.3c-0.2,0-0.3,0-0.3-0.1c-0.7-0.9-1.7-1.8-2.3-2.8c-0.4-0.7-0.2-1.5-0.1-2.3c0-0.8,0.1-1.6,0.1-2.4
			c0.1-1.6,0.2-3.2,0.2-4.8c0.2-3.3,0.3-6.6,0.5-9.8c0.1-1.7,0.1-3.4,0.3-5.1c0.1-1.4,0.1-3.1,0.5-4.5c0.3-1.1,1.9-1.5,2.8-1.9
			c0.5-0.3,0.8-0.3,0.9-0.9c0.1-0.3,0.1-0.7,0.3-1C225.2,2.7,225.6,1.9,225.2,1.7z"/>
		<path style="fill:#337AB7;" d="M263.5,51.4c0.8-1.1,0.9-1.1,1.6-2.3c-0.2-0.2,0.2-1.5,0-1.7c-0.4-0.3-1.4-1.7-1.3-2.2
			c0.2-1.5,0.5-3,0.8-4.5c1.3-6.3,2.4-12.6,4-18.8c0.2-0.9,0.5-1.8,0.7-2.7c0.1-0.5,0.2-1.1,0.5-1.6c0.6-0.8,1.7-1.5,2.5-2
			c0.5-0.4,1-0.7,1.5-0.9c0.3-0.1,0.8-0.3,0.9-0.6c0.2-0.3-0.3-1.6-0.4-2c-0.1-0.5-0.2-0.6-0.6-0.7c-1.5-0.6-2.9-1.1-4.5-1.5
			c-1.4-0.3-2.9-0.5-4.3-0.8c-1-0.2-2.9,0.4-3.6,1.2c-0.8,1.1-1.6,2.3-2.3,3.5c-1.8,2.7-3.5,5.3-5.2,8c-0.9,1.4-1.7,2.7-2.6,4.1
			c-0.6,0.9-1.1,1.9-2.1,2.5c-0.7-2.4-0.7-4.9-0.8-7.4c-0.1-2.4-0.2-4.9-0.4-7.3c-0.1-1.3-0.2-2.5-0.4-3.8c-0.1-0.9-0.1-1.9-0.4-2.7
			c-0.4-0.9-1.2-1.8-1.7-2.6c-0.2-0.3-0.4-0.9-0.8-1c-0.5-0.1-1-0.2-1.5-0.4c-2.3-0.5-4.7-0.9-7-1.5c-0.7-0.2-1.2-0.4-1.8,0
			c-0.3,0.2-1,0.6-0.8,1c0.8,1.6,1.9,3,2.9,4.5c0.5,0.7-0.2,2.2-0.4,2.9c-0.3,1.1-0.6,2.3-1,3.4c-0.9,3-1.7,6.1-2.6,9.2
			c-0.8,3.1-1.9,6-2.9,9c-0.3,0.8-0.6,1.7-0.9,2.5c-0.2,0.7-0.3,1.2-0.9,1.6c-1.1,0.8-2.1,1.7-3.5,1.9c-0.1,0-0.1,0.1-0.7,0.2
			c0,0.1-0.5,0.2-0.5,0.3c0,1-0.2,1-0.1,2c0.3,0,0.6,1,0.8,0.9c1.4,0,2.8,0.5,4.1,0.8c1.5,0.3,3,0.8,4.5,1.3c0.6,0.2,0.9,0.3,1.5,0
			c0.6-0.3,1.3-0.5,1.9-0.7l-0.8-1.9c-0.2-0.4-0.3-1-0.7-1.2c-0.3-0.1-0.7-0.1-0.9-0.3c-0.4-0.5-0.8-1-1.2-1.5
			c-0.3-0.3,0.1-1.7,0.2-2.1c0.2-1.2,0.4-2.3,0.8-3.5c1.4-4.9,2.7-10,4.6-14.8c0.6,2.7,0.8,5.5,1.1,8.2c0.3,2.7,0.5,5.4,0.7,8.1
			c0.2,2.9,0.3,5.7,0.5,8.6c0,0.7,0.5,1.1,0.9,1.7c0.4,0.6,0.6,0.9,1.3,0.5c0.6-0.3,1.3-0.5,1.9-0.8c0.6-0.2,0.7-0.6,1-1.1
			c0.7-1.4,1.8-2.7,2.7-4c0.9-1.3,1.8-2.6,2.6-3.9c1.8-2.7,3.5-5.5,5.3-8.2c0.3-0.5,2.1-3.7,2.6-3.5c0.5,0.2-0.4,3-0.5,3.5
			c-0.6,3.2-1.4,6.3-2.2,9.4c-0.4,1.6-0.8,3.2-1.2,4.8c-0.1,0.5-0.2,1.4-0.6,1.7c-0.4,0.2-1,0.4-1.4,0.6c-1.3,0.6-2.3,1.1-3.3,2.3
			c-0.6,0.8-0.2,1.1,0.4,1.8c0.8,0.9,2.1,0.9,3.2,1.2c1.5,0.3,2.9,0.7,4.3,1.1c1.6,0.5,3.1,1,4.7,1.5
			C262.3,51,262.9,51.2,263.5,51.4z"/>
		<path style="fill:#337AB7;" d="M299.2,65.5c-0.6-0.8-1.1-1.7-1.6-2.5c-0.3-0.5-0.2-0.9-0.1-1.4c0.2-0.7,0.2-1.4,0.3-2.1
			c0.2-1.6,0.5-3.1,0.7-4.7c0.9-6.3,1.8-12.6,2.6-18.9c0.4-3.2,0.8-6.4,1.3-9.6c0.1-0.5,0.3-0.9,0-1.4c-0.2-0.3-0.4-0.6-0.6-0.9
			c-0.4-0.6-2.9,0.2-3.6,0.2c-0.5,0.1-1,0-1.4,0.2c-0.5,0.2-1,0.9-1.3,1.3c-1,1-2.1,2.1-3.2,3.1c-2.3,2.1-4.7,4.1-7,6.2
			c-2.4,2.2-4.7,4.4-7,6.7c-1.2,1.2-2.4,2.4-3.6,3.5c-1,1-1.9,2.2-3.1,2.9c-0.5,0.3-1,0.8-1.6,0.9c-0.5,0.1-1.1-0.1-1.6-0.2
			c-0.5,0-1.1,0.1-1.5-0.2c-0.1-0.1,0.1,0.1,0,0c-0.6,1.1-0.9,0.9-1.6,2c0.4,0.1,0.1,1.3,0.5,1.4c1.5,0.6,3,1.6,4.4,2.4
			c1.4,0.8,2.7,1.6,4.1,2.4c1,0.6,1.4,0.7,2.6,0.5c0.3,0,0.7-0.1,1-0.2c0.4-0.1,0.2-0.8,0.3-1.1c0.1-0.6,0.2-1.3-0.2-1.8
			c-0.3-0.4-0.7-0.7-0.9-1.1c-0.3-0.5-0.3-1.3-0.3-1.9c-0.1-0.6-0.2-1.1,0.1-1.6c0.4-0.7,0.8-1.5,1.4-2c0.5-0.5,1.1-0.9,1.6-1.4
			c0.5-0.4,0.9-0.9,1.6-0.7c0.6,0.2,1.1,0.5,1.6,0.8c1.4,0.7,2.8,1.5,4.3,2.2c0.5,0.2,1,0.4,1.4,0.7c0.3,0.2,0.4,1,0.4,1.3
			c0.1,0.7-0.2,1.5-0.4,2.1c-0.1,0.6-0.2,1.3-0.4,1.9c-0.4,1.4-1.2,2.8-1.8,4.1c-1.1,0.1-2.2,0.2-3.3,0.3l0.7,2.1
			c0.2,0.6,0.3,1.2,0.9,1.5c1.2,0.5,2.4,1.1,3.5,1.7c2.4,1.3,4.1,2.3,6.5,3.6C295.9,66.8,297.9,66.3,299.2,65.5z M290.2,42.7
			c-0.1,0.4-1.2,0.8-1.6,1c-0.7,0.4-1.9-0.7-2.6-1c-0.9-0.5-0.8-0.8-0.8-1.7c0-0.7,0.7-1.2,1.2-1.6c1.7-1.4,2.9-3,4.9-4.1
			C291.1,37.8,290.7,40.3,290.2,42.7z"/>
		<path style="fill:#337AB7;" d="M342,54c-1.2-2.7-3.8-4.4-6.1-6.1c-2.5-2-4.8-3.9-7.1-6.1c-1.1-1.1-2.3-2.1-3.4-3.2
			c-0.3-0.3-0.9-0.2-1.3-0.2c-0.6,0-1.2-0.1-1.8-0.2c-0.1,1.7-0.1,3.4-0.1,5.1c0,0.5,0.1,1.1,0,1.6c-0.1,0.6-0.7,1.1-1.1,1.5
			c-2,2.4-3.9,4.8-5.9,7.2c-2,2.4-4,4.9-6,7.3c-0.9,1.1-1.9,2.1-2.7,3.3c-0.8,1.2-1.7,1.4-3.1,1.8c-1.2,0.4-2.6,1.2-3.6,0.2
			c-1.2,0.8-1.6,2-2.8,2.9c2.1,1.2,3,2.5,4.8,4c2.2,1.8,4.5,3.6,6.6,5.5c0.3,0.3,1.1,1.4,1.6,1.3c0.6,0,1.3-0.4,1.8-0.6
			c0.7-0.2,1.1-0.2,0.8-1c-0.2-0.6-0.2-1.2-0.3-1.8c0-1.1,0-2.5,0.1-3.6c0.2-1.2,1.5-2.3,2.3-3.3c1.3-1.6,2.6-3.2,4-4.7
			c0.5-0.5,1.2-0.9,1.8-0.3c0.3,0.3,0.1,1.2,0.1,1.6c-0.1,0.7-0.4,1.4-0.6,2.1c-0.9,3-1.8,6.1-2.8,9.1c-0.4,1.4-1,2.7-1.4,4.1
			c-0.2,0.6,0.1,1.2,0.3,1.8c0.1,0.6,0.2,1.3,0.5,1.8c0.3,0.6,1.4,1.3,1.9,1.7c0.6,0.5,1.2,1,1.8,1.5c0.9,0.7,2.2,2.4,3.4,2.3
			c0.6-0.1,1.4-0.2,1.9-0.4c0.3-0.1,0.2-0.6,0.2-0.9c0-1.4-0.1-2.8-0.1-4.3c-0.1-1.4,0.6-2.7,1-4.1c0.4-1.4,0.8-2.9,1.2-4.3
			c0.4-1.6,0.8-3.2,1.1-4.8c0.1-0.5,0.1-1.6,0.4-2c0.3-0.3,0.7-0.4,1-0.6c0.4-0.2,0.8-0.7,1.3-0.7l2-0.2c1.1-0.1,3.2,0.2,3.9-0.7
			c1-1.2,2.3-2.3,3.4-3.4c0.4-0.4,1.1-0.8,1.3-1.4c0.2-0.5,0.2-1,0.2-1.5c0.1-1.6,0.5-3.1,0.7-4.7C343.4,56,342.4,54.9,342,54z
			 M332.2,59.1c-0.4,0.8-0.8,1-1.6,1.4c-0.8,0.4-1.6,0.8-2.3,1.2c-0.7,0.4-0.9,0.4-1.7,0.1c-0.7-0.3-1.3-0.4-2-0.6
			c-0.4-0.1-1.1-0.1-1.1-0.7c0-0.4-0.1-1.1,0.2-1.4c1.2-1.4,2.4-2.8,3.6-4.3c0.6-0.7,1.1-1.4,1.7-2.1c0.3-0.4,0.9-1.5,1.4-1.6
			c0.5-0.1,1,0,1.5-0.1c0.4-0.1,1-0.3,1.4-0.1c0.3,0.2,0.4,0.8,0.5,1.1c0.2,0.6,0.5,1.2,0.8,1.8C333.8,55.7,333,57.4,332.2,59.1z"/>
		<path style="fill:#337AB7;" d="M68,298.1c-0.7-1.3-1.4-2.6-2.2-3.9c-0.4-0.7-0.8-1.5-1.3-2.2c-0.2-0.3-0.4-1.1-0.7-1.2
			c-0.2-0.1-1.5-1.1-1.6-1c-0.3,0.2-0.5,0.5-0.7,0.7c-0.7,0.8-0.8,1.5-0.7,2.5c0,0.4,0.2,1,0.1,1.4c-0.1,0.4-0.4,0.8-0.6,1.2
			c-0.1,0.2-0.3,1-0.6,1.1c-0.7,0.2-1.4,0.4-2.1,0.6c-1.1,0.3-2.7,1.1-3.9,0.8c-0.4-0.1-1.3-0.3-1.5-0.7c-0.3-0.6-0.6-1.2-0.9-1.8
			c-0.7-1.4-1.4-2.7-2.1-4.1c-0.3-0.6-0.8-1-0.3-1.5c0.4-0.5,0.9-1,1.3-1.5c1-1,2-2,3.1-3c0.7-0.7,1.3-0.8,2.3-0.7
			c0.3,0,0.7,0,0.9,0.1c0.4,0.2,0.5,0.6,0.9,0.7c0.4,0.1,0.9,0.1,1.3,0c0.6-0.1,0.5-0.4,0.5-1c0-0.6,0.1-1.3,0.1-1.9
			c0.1-0.6-0.5-1.3-0.8-1.9c-2.1-4.1-3.9-7.3-5.8-11.7c-1.3,0.5-1.8-0.5-3,0.1c0,0-1,1.1-1,1.2c0.3,0.5,0.4,0.5,0.6,1.1
			c0.5,1.1,0,2.3-0.8,3.1c-4.4,4.6-8.3,9.5-12.4,14.4c-2,2.4-4.1,4.6-6.2,6.9c-2.1,2.2-4.3,4.5-5.7,7.2c-0.3,0.7,0,0.9,0.4,1.5
			c0.2,0.4,0.6,1.4,0.9,1.6c0.5,0.2,1.4,0,1.9,0c2.4-0.2,4.7-0.5,7.1-0.8c6.3-0.8,12.4-2.1,18.7-3.1c1.7-0.3,3.3-0.5,5-0.8
			c0.6-0.1,1.2-0.3,1.9-0.4c0.7-0.1,1.3,0,2,0.1c1.7,0.3,3.3,0.5,5,0.7c0.4,0,0.8,0.3,0.9-0.2c0.1-0.3,0.2-0.7,0.3-1
			C68.8,299.7,68.6,299.2,68,298.1z M47.6,298.9c-0.2,0.3-0.4,0.6-0.8,0.7c-1.2,0.2-2.3,0.4-3.5,0.6c-0.4,0.1-3.9,0.9-4.3,0.3
			c0,0,0-0.1,0-0.1c1-1.1,2-2.3,3-3.4c0.5-0.6,1-1.1,1.5-1.7c0.3-0.3,0.6-0.9,1-0.9c0.7-0.1,1.4,0,1.8,0.7c0.5,0.8,0.8,1.7,1.2,2.5
			C47.8,298.2,48,298.4,47.6,298.9z"/>
		<path style="fill:#337AB7;" d="M13.9,233.9c3-0.2,6.1-0.5,9.1-0.6c3.2-0.1,6.3-0.5,9.5-0.8c1.5-0.1,2.6,0.3,4,0.8
			c0.5,0.2,1.1,0.4,1.6,0.6c0.4,0.2,0.6,0.9,0.7,1.3c1.4,0,2.7-0.1,4.1-0.2c-0.1-0.7-0.1-1.3-0.1-2c0-1.6-0.2-3.1-0.4-4.7
			c-0.2-1.5-0.2-3-0.3-4.5c0-1.5-0.1-3-0.1-4.6c0-0.5-0.1-0.8-0.4-1.1c-0.3-0.5-0.9,0-1.3,0.2c-1.1,0.5-2.2,0.9-3.1,1.8
			c-0.6,0.5-1.2,1.1-1.7,1.6c-0.6,0.5-1,0.5-1.7,0.5c-3,0.2-6.1,0.4-9.1,0.6c0.5-1.1,1.3-1.5,2.2-2.2c1.1-0.8,2.2-1.6,3.3-2.5
			c2.3-1.7,4.5-3.5,6.8-5.2c0.4,0.5,0.5,0.9,1.1,1.1c0.5,0.2,1,0.5,1.5,0.8c0.7,0.4,1.9-1.5,1.9-2.2c0-1.4-0.3-2.8-0.4-4.2
			c-0.1-1.5-0.2-3-0.2-4.5c0-1.7-0.1-3.3-0.1-5c0-1.3-1.4-2-2.3-2.8c-0.8-0.7-1.7,0.7-2.1,1.3c-0.8,1.1-1.5,2.3-2.4,3.4
			c-1,1.3-2.5,2.2-3.7,3.2c-1.2,1-2.4,2-3.6,3c-2.4,2.1-4.9,4.1-7.4,6.2c-1,0.8-1.9,1.9-3.1,2.1c-0.5,0.1-1,0.2-1.5,0.1
			c-0.5-0.2-0.8-0.6-1.2-0.9c-1.3-1-2.6-2-3.9-3c-0.6-0.5-1.2-1-1.8-1.4c-0.6-0.4-0.8-0.9-1.1-1.5c-0.8-1.5-1.6-3-2.4-4.6
			c-0.7-1.3-1.4-2.1-2.4-3.1c-0.4,0.5-1.5,1.3-1.6,1.9c-0.1,0.4,0,1,0.1,1.4c0.2,1.6,0.3,3.2,0.3,4.7c0.1,1.8,0.2,3.7,0.3,5.5
			c0,0.5-0.1,1.3,0.1,1.8c0.3,0.5,0.9,0.8,1.4,1.1c0.5,0.3,0.5,0.1,0.8-0.4c0.3-0.4,0.6-0.8,0.9-1.2c0.4-0.5,0.8-1,1.4-1.3
			c0.6-0.3,1,0.1,1.4,0.5c0.6,0.5,1.2,0.9,1.9,1.3c3,2,5.8,4.2,8.6,6.3c0.1,0.9-2.5,0.7-3,0.7c-1.5,0.1-2.9,0.2-4.4,0.3
			c-0.8,0-1.2-0.1-2-0.4c-0.6-0.3-1.3-0.7-1.9-0.9c-1.2-0.5-1.6-1.2-2.4-2.2c-0.3-0.4-1.7-0.3-1.9,0.2c-0.3,0.8-0.6,1.8-0.6,2.6
			c0,1.5,0.4,2.9,0.5,4.4c0.2,1.5,0.3,3,0.4,4.6c0.1,2.3-0.2,4.8,1,6.9c0.4,0.8,1.3,0,1.9-0.2c0.3-0.1,0.4-0.7,0.5-1
			c0.2-0.5,0.6-0.9,1-1.3c0.4-0.5,0.9-1.1,1.3-1.6c0.4-0.5,0.8-0.4,1.4-0.4C10.8,234.1,12.3,234,13.9,233.9z"/>
		<path style="fill:#337AB7;" d="M50.7,263.3c-1-3-1.5-6.1-2.3-9.1c-0.2-0.7-0.4-1.2-0.7-1.8c-0.2-0.4-0.7-0.2-1.1-0.2
			c-0.4,0-1.6,0-1.9,0.3c-0.2,0.2-0.2,0.8-0.2,1.1c-0.1,1.3-1.1,2.2-1.9,3.2c-0.7,0.9-1.5,1.1-2.6,1.4c-3,0.9-6.1,1.9-9.1,2.8
			c0.3-0.8,0.6-1.5,0.8-2.3c0.2-0.7,0.5-1,1.1-1.4c1.2-0.9,2.4-1.8,3.5-2.7c1.2-1,2.5-1.9,3.7-2.9c1.1-0.8,2.3-1.6,3.3-2.6
			c0.9-0.9,1.3-2.6,1.8-3.8c0.3-0.8,0.3-1,0-1.8c-0.2-0.7-0.4-1.3-0.7-2c-0.7-1.8-1.4-2.9-1.7-4.8c-1.3,0.1-1.2-0.6-2.5-0.6
			c0,0.4-1.4,0.8-1.4,1.2c0,0.4,0.2,1.7-0.1,2c-0.8,0.9-1.9,1.7-2.9,2.5c-2.4,2.2-4.8,4.4-7.3,6.6c-0.7,0.6-1.3,1.2-2,1.8
			c-0.6,0.5-0.8,0.6-1.5,0.6c-1.1,0-2-1-2.8-1.5c-0.7-0.4-1.5-0.8-2.1-1.3c-0.5-0.4-1.4-0.1-2,0c-1.3,0.1-2.9,0-4.1,0.4
			c-0.8,0.2-1.5,0.8-2.2,1.3c-0.7,0.4-1.3,0.8-2,1.2c-1,0.6-1.1,2-1.5,3c-0.5,1.4-1.3,2.8-0.9,4.3c0.3,1.4,0.6,2.8,0.8,4.2
			c0.6,3.1,1.6,6,2.5,8.9c0.9,3,1.9,6,2.8,9c0.1,0.4,1.8,0.8,2,0.5c0.7-0.8,0.8-1.6,0.8-2.6c0.1-0.8,0.6-2.1,1.4-2.4
			c1.4-0.5,2.9-1,4.3-1.6c3-1.1,5.9-1.8,9-2.7c3-0.8,5.9-1.9,8.9-2.7c2.4-0.6,5.2-1.8,7.5-0.5c0.2,0.1,0.1-0.1,0.2,0.1
			c1.3-0.6,2.5-1.5,3.9-2C51.3,265.2,51.1,264.7,50.7,263.3z M25.9,262.4c-0.4,0.5-0.7,0.5-1.3,0.7c-1.8,0.5-3.6,1.1-5.4,1.5
			c-1.5,0.4-3.1,0.8-4.5,1.6c-0.6-0.7-1.3-1.4-1.8-2.2c-0.3-0.4,0.9-1.5,1.1-1.8c1-1.2,1.9-2.7,3.1-3.7c1-0.8,2.7-0.7,3.8-1
			c1.4-0.4,2.8,0.6,4.1,1.2c0.4,0.2,0.6,1,0.8,1.3c0.2,0.4,0.6,0.7,0.8,1.2C26.6,261.6,26.1,262.1,25.9,262.4z"/>
		<path style="fill:#337AB7;" d="M31.3,159c-3.9-2.4-7.7-4.9-11.6-7.2c-1.9-1.1-4-1.9-6.1-2.8c-0.3-0.2-1.1,0.5-1.4,0.6
			c-0.9,0.5-1.8,1-2.7,1.5c-0.2-0.5-0.4-1.1-0.7-1.6c-0.2-0.3-0.5-0.8-0.5-1.2c0.3-1.6,0.5-3.1,0.8-4.7c0.1-0.5,0.1-1.1,0.2-1.6
			c0.1-0.5,0.8-0.9,1.2-1.2c0.3-0.3,1.3-1.6,1.7-1.2c1.6,1.5,1.9,3.9,3.8,5.1c2.7,1.7,5.4,3.5,8.2,5.2c5.5,3.5,11.2,6.8,16.7,10.2
			c1.3,0.8,2.6,1.6,3.9,2.4c0.4,0.3,0.7,0.6,1,1c0.2,0.3,1.3,1.6,1.1,1.9c-0.3,0.8-1.2,1.6-2,1.8c-1.7,0.3-3.4,0.5-5,0.8
			c-1.5,0.3-3,0.7-4.5,0.9c-1.4,0.1-2.7,0.2-4.1,0.5c2,2,4.4,3.6,6.8,5.3c1.1,0.8,2.2,1.6,3.3,2.4c0.6,0.4,1.1,0.9,1.6,1.4
			c0.6,0.5,0.2,0.8,0,1.4c-0.2,0.6-0.3,1.8-1,2.2c-0.6,0.3-1.5,0.2-2.1,0.3c-0.9,0.1-1.8,0.3-2.7,0.4c-3.1,0.5-6.2,1.2-9.3,1.6
			c-6.4,0.9-12.7,2.2-19.1,3.2c-0.8,0.1-1.6,0.2-2.3,0.4c-0.6,0.1-1.4,0.1-1.9,0.5c-0.9,0.6-0.9,1.7-2,2c-0.5,0.1-1.5,0.7-2,0.3
			c-0.5-0.4-0.5-0.9-0.4-1.5c0.3-1.5,0.3-3.1,0.5-4.6c0.4-2.9,0.9-5.8,2.1-8.5c0.6-1.4,0.6-2.8,0.8-4.3c0.2-1.6,0.3-3.3,0.5-4.9
			c0.4-3.1,0.9-4.3,1.5-7.3c0.3-1.2,0.7-4.9,1.5-5.9c0.4-0.5,2-2.2,2.5-1.7c1,1.1,1.9,2.1,2.9,3.2c1,1.1,1.9,2.3,3,3.4
			c0.8,0.7,1.9,1.4,2.9,1.9c1.2,0.6,2.6,0.5,3.8,0.8c1,0.2,2.4-0.4,3.4-0.5c0.7-0.1,1.3-0.2,2-0.3C28.1,160.2,31.3,159.9,31.3,159
			C27.5,156.6,31.3,159.9,31.3,159z M29.5,174.2c-0.4-0.7-0.7-1.4-1.3-1.9c-0.8-0.5-2.1-0.6-3-0.8c-0.9-0.2-2-0.6-3-0.6
			c-1.2,0-2.4,0.3-3.6,0.5c-2.3,0.3-4.5,0.7-6.8,0.9c-0.9,0.1-2.1,0.1-3,0.4c-1,0.4-1.8,1.3-2.7,1.9c-0.5,0.3-0.4,1.4-0.1,1.9
			c0.6,1,1.5,0.8,2.5,0.7c2.4-0.3,4.7-0.5,7.1-0.9C20.3,175.5,24.9,174.9,29.5,174.2C29.1,173.5,27.2,174.6,29.5,174.2z M14.1,162.4
			c0.1-0.3,0.2-0.5-0.1-0.7c-0.6-0.4-1.2-0.7-1.8-1c-0.7-0.4-3.6-1.1-3.8,0.1c-0.1,0.6,0.7,1.9,1.6,2.1
			C11.2,163.2,12.8,162.6,14.1,162.4C14.2,161.9,12.9,162.6,14.1,162.4z"/>
		<path style="fill:#337AB7;" d="M409.3,229.2c-0.1-0.6-0.2-1.2-0.2-1.8c-0.2-1.6,0-3.2,0-4.7c0-1.5,0.1-3,0.3-4.6
			c0.1-0.8,0.3-1.6,0.2-2.4c-0.1-0.7-0.3-1.3-0.4-2c-0.1-0.5-1.7-0.6-2-0.3c-0.8,1.1-1.4,2.1-2.5,2.9c-0.3,0.2-0.6,0.5-0.9,0.8
			c-0.5,0.3-1,0.2-1.6,0.2c-1.7,0-3.4-0.1-5.1-0.2c-0.8,0-1.6-0.1-2.4-0.1c-0.4,0-1.2,0.1-1.6-0.2c-0.4-0.3-0.7-0.6-0.6-1.1l0.1-2.2
			c0.1-1.6,0.2-3.1,0.2-4.7c0-0.7-0.3-2.2,0.2-2.8c0.6-0.8,1.7-0.7,2.7-0.7c1.5-0.1,3,0.2,4.4,0.2c1.4,0,2,0.4,3.2,1.2
			c1.3,1,2.6,2,4,3c0.4,0.3,0.8,0.8,1.2,0.3c0.3-0.4,0.6-0.7,0.9-1c0.5-0.5,0.3-1.4,0.4-2.1c0-0.8,0-1.5,0.1-2.3
			c0-1.5,0.1-3.1,0.1-4.6c0-1.7,0.1-3.4,0-5.1c0-0.7,0-1.4,0-2.1c0-0.5-0.5-1-0.8-1.4c-0.4-0.6-1.7-0.1-2.1,0.3
			c-0.4,0.3-0.6,1.3-0.8,1.8c-0.1,0.3-0.7,0.3-1,0.5c-1.1,0.5-2.4,1.4-3.6,1.4c-1.6,0-3.2,0-4.8,0c-3.3,0-6.6-0.1-9.9-0.2
			c-3.2-0.1-6.5-0.3-9.7-0.5c-1.2-0.1-2.3-1.3-3.3-2c-1.2-0.9-2.4-1.7-3.6-2.5c-0.4,1-0.9,1.8-0.9,2.9c0,1.2-0.1,2.3-0.1,3.5
			c0,2.4-0.2,4.8-0.4,7.2c-0.1,0.6-0.1,1.3-0.2,1.9c0,0.3-0.3,1.2-0.1,1.5c0.4,0.6,1.3,1.1,1.9,1.6c0.4,0.3,0.5,0.3,0.8-0.1
			c0.3-0.4,0.6-0.7,1-1c0.6-0.6,1.4-1.1,2-1.7c0.8-0.7,1.2-1,2.3-0.9c1.1,0,2.2,0.1,3.4,0.1c1.3,0,2.7,0.1,4,0.1l2,0.1
			c0.4,0,1-0.1,1.3,0.1c1.8,0.7,1.2,3,1.2,4.5c-0.1,2.4-0.1,4.8-0.2,7.2c-0.1,0-0.3,0-0.4,0c-0.1,0-0.2,0.1-0.3,0.1
			c-0.3,0-0.5-0.1-0.7-0.1c-2.7-0.2-5.4-0.2-8.2-0.5c-1.4-0.1-3-0.2-4.4-0.6c-1.1-0.4-1.6-1.6-2.1-2.6c-0.4-0.7-1.5-1.2-2.3-1.3
			c-0.4-0.1-0.8,1-0.9,1.3c-0.3,0.5-0.2,0.9-0.2,1.4c0,3.3,0,6.5-0.1,9.7c-0.1,1.2-0.1,2.5-0.3,3.7c0,0.4-0.1,0.8,0,1.2
			c0.1,0.4,1,0.8,1.3,1.1c0.3,0.2,0.9,0.9,1.2,0.5c0.3-0.4,0.7-0.9,1.1-1.3c0.9-0.9,2-1.5,3.1-2.2c0.7-0.5,1-0.6,1.8-0.6
			c0.8,0,1.6,0,2.3,0.1c1.6,0,3.2,0.1,4.8,0.1c3.3,0.1,6.7,0.2,10,0.3c1.7,0,3.3,0.1,5,0.1c1.3,0,2.6-0.1,3.8,0.5
			c0.8,0.4,2.2,0.7,2.6,1.7c0.4,1,0.4,1.8,1.5,2.3c0.2,0.1,1,0.6,1.2,0.3c0.3-0.5,0.5-1,0.7-1.5
			C409.1,230.3,409.4,229.9,409.3,229.2z"/>
		<path style="fill:#337AB7;" d="M117.7,56.6c-0.3,1.5-0.7,3-1,4.5c-0.2,0.7-0.3,1.5-0.5,2.2c-0.2,0.8-0.6,1.4-1,2.1
			c-0.8,1.3-1.6,2.7-2.4,4c-0.8,1.4-1.8,2.2-3.1,3.2c-2.5,2-5.1,3.7-7.7,5.5c-1.3,0.9-2.5,1.8-3.8,2.7c-0.8,0.6-1.6,1.7-2.6,1.8
			c-0.6,0.1-1.3-0.4-1.8-0.6c-0.5-0.2-0.4-0.3-0.4-0.7c0-1.1,0.1-2,0.5-3c0.2-0.5,0.6-1.1,0.6-1.7c0-0.5-0.4-1-0.6-1.5
			c-0.8-1.2-1.4-2.4-2.2-3.5c-3.6-5-7.1-10.2-10.9-15.1c-0.7-0.8-1.2-1.8-1.9-2.6c-0.7-0.9-2.3-1-3.4-1.1c-0.7-0.1-1.4,0-2.1,0.1
			c-0.5,0-0.4-0.1-0.5-0.6c-0.1-0.4-0.5-1.9-0.3-2.2c0.9-1.2,1.9-2.3,2.8-3.5c1-1.2,2-2.1,3.2-3.1c2.4-2.2,5.1-4,7.7-6
			c0.9-0.7,2.1-0.9,3.2-1.3c1.5-0.5,3-1.2,4.5-1.6c1.3-0.3,2.7-0.3,4-0.2c0.7,0,1.4,0.1,2.1,0.1c0.6,0,1.5-0.1,2,0.1
			c1,0.4,2.4,0.7,3.2,1.4c1.2,1.2,2.5,2.3,3.7,3.5c1.1,1.1,2.3,2.1,3.4,3.2c1,0.9,2.5,1.9,3,3.1c0.6,1.6,1.1,3.2,1.7,4.7
			C117.7,52.3,117.6,54.5,117.7,56.6C117.2,58.9,117.6,55.4,117.7,56.6z M110.4,62c-0.3-2.8-1.7-5.4-2.6-8c-1-2.9-3.1-4.9-5.1-7.2
			c-0.9-1.1-1.8-2.4-3.1-3.1c-1.4-0.8-2.7-1.6-4-2.3c-1-0.6-2.2-0.2-3.3-0.1c-1.6,0.1-3.3,0.2-4.9,0.3c-0.2,0-0.7,2.7-0.8,2.9
			c-0.1,0.4-0.6,1.6-0.5,2c0.2,0.4,0.7,0.8,0.9,1.2c1.9,2.3,3.3,5,4.9,7.5c1.8,2.7,3.8,5.3,5.7,7.9c0.9,1.3,1.9,2.5,2.8,3.8
			c0.4,0.6,0.9,1.2,1.3,1.8c0.3,0.5,0.6,1.1,1.3,1.1c0.4,0,3.1,0.7,3.3,0.3C107.8,67.3,109.1,64.6,110.4,62
			C110.2,59.8,110.3,62.3,110.4,62z"/>
		<path style="fill:#337AB7;" d="M86.6,88.2c-0.4,1.3-0.9,2.7-1.2,4.1c-0.3,1.5-1.1,2.5-2.1,3.7c-1,1.3-1.9,2.5-2.9,3.8
			c-0.4,0.5-0.7,1.1-1.2,1.6c-0.5,0.6-1.5,0.9-2.2,1.2c-1.2,0.6-2.4,1.3-3.6,1.9c-1.3,0.7-2.9,0.7-4.3,0.9c-0.7,0.1-1.5,0.3-2.2,0.3
			c-0.6,0-1.3-0.2-1.9-0.2c-1.5-0.2-2.7-0.7-4.1-1.3c-1.3-0.6-2.6-1-3.8-1.6c-1.3-0.6-2.2-1.9-3.2-2.9c-2-2-4.6-3.8-5.7-6.5
			c-0.5-1-1.3-1.9-1.6-2.9c-0.4-1.5-0.5-3.1-0.7-4.6c-0.2-1.4-0.6-2.8-0.5-4.1c0.1-1.2,0.1-2.7,0.6-3.8c1.1-2.4,2.8-4.6,4.1-6.9
			c0.6-1,1.5-1.4,2.4-2.1c1-0.8,2.1-1.8,3.2-2.4c0.8-0.4,1.7-0.5,2.5-0.8c1.3-0.5,2.3-0.7,3.7-0.8c1.4,0,2.8-0.2,4.2-0.1
			c1.3,0.2,2.6,0.6,3.8,1.1c1.2,0.4,2.3,0.8,3.5,1.1c1.1,0.3,1.7,0.9,2.5,1.7c1,0.9,2.1,1.7,3.1,2.6c0.9,0.8,2.1,1.5,2.7,2.5
			c1.2,2,2.3,4.2,3.2,6.3C86.2,82.5,86.2,85.6,86.6,88.2C86.3,89.3,86.3,86.1,86.6,88.2z M50.7,77.4c-0.6,0,0.1,1.2,0.2,1.5
			c0.2,0.7,0.5,1.4,0.7,2.1c0.4,1.4,1.8,2.6,2.6,3.8c1.8,2.4,3.4,5.1,5.9,6.9c1,0.8,2.1,1.6,3.2,2.2c1.3,0.7,2.7,1.6,4.1,2
			c1.4,0.4,2.8,1,4.2,1.3c1.4,0.3,3.1,0.6,4.5,0.4c0.5-0.1,0.9-0.4,1.4-0.5c0.4-0.1,1-0.1,1.3-0.4c0.2-0.2,0.2-1,0.3-1.3
			c0.2-0.9,0.4-1.7,0.5-2.6c0.3-1.3,0.7-2.6,0.8-3.9c0-0.4-0.8-1.3-1.1-1.7c-0.5-0.7-1-1.5-1.5-2.2c-0.8-1.2-1.5-2.5-2.6-3.5
			c-1.2-1.1-2.4-2.1-3.6-3.2c-1-0.9-2.1-1.6-3.3-2.2c-1.3-0.7-2.5-1.4-3.8-2c-1.2-0.5-2.6-0.7-3.8-1c-1.5-0.4-3-0.7-4.5-1.1
			c-0.7-0.2-1.9,1.6-2.3,2.1C52.7,75.2,51.7,76.3,50.7,77.4C50.6,77.4,51.9,76,50.7,77.4z"/>
		<path style="fill:#337AB7;" d="M61.6,124c-0.3,1.5-0.7,3-1,4.5c-0.3,1.5-0.5,3-1.4,4.3c-0.8,1.1-1.6,2.1-2.5,3.1
			c-1,1-1.8,2.2-3.1,2.9c-1.2,0.7-2.5,1.2-3.7,1.9c-1.3,0.7-2.3,1.2-3.7,1.2c-1.3,0-2.7-0.1-4-0.1c-1.5-0.1-2.9,0.1-4.3-0.4
			c-1.2-0.4-2.4-0.8-3.6-1.2c-1.4-0.4-2.6-1.5-3.8-2.3c-1.1-0.7-2.3-1.4-3.3-2.3c-1-0.9-1.8-2.2-2.8-3.2c-1.9-1.9-2.9-5-3.6-7.6
			c-0.4-1.4-0.8-2.5-0.6-3.9c0.2-1.6,0.3-3.3,0.5-4.9c0.1-0.5,0-0.9,0.3-1.4c0.3-0.5,0.7-1,1-1.5c0.8-1.2,1.6-2.4,2.5-3.6
			c0.8-1.1,1.5-2.2,2.3-3.3c0.2-0.3,0.9-0.5,1.1-0.6c0.6-0.3,1.2-0.7,1.8-1c1.1-0.6,2.2-1.2,3.3-1.8c1-0.6,2.3-0.6,3.5-0.8
			c1.3-0.2,2.5-0.2,3.8-0.2c1.4,0,2.6,0.4,3.9,0.8c1,0.3,2.1,0.4,3.1,0.7c1.2,0.3,2.3,1.2,3.4,1.8c1.1,0.6,2.1,1.2,3.2,1.9
			c0.4,0.2,0.6,0.6,0.9,1c0.4,0.6,1,1.1,1.4,1.7c0.9,1,1.7,2,2.6,3c0.8,0.9,0.8,1.8,1.1,3C60.5,118.6,61.1,121.3,61.6,124
			C61.1,126.4,61.3,122.2,61.6,124z M24.4,117c0,0.5,0,1.1,0.2,1.6c0.2,0.6,0.7,1.1,1.1,1.6c0.9,1.2,1.9,2.3,2.7,3.5
			c0.8,1.1,2,1.7,3.1,2.5c1.3,0.9,2.7,1.8,4.1,2.5c1.3,0.7,2.6,1.4,4,2c1.4,0.6,2.9,0.9,4.4,1.3c1.3,0.3,2.6,0.8,4,1
			c1.7,0.1,3-0.7,4.5-1.4c1.4-0.7,2.9-1.3,4.3-2c0.3-0.1,0-1.7-0.1-2c-0.1-0.9-0.2-1.8-0.2-2.6c0-0.8-0.1-1.6-0.1-2.3
			c0-0.4-0.6-0.8-0.9-1.1c-2.1-1.7-3.8-3.9-6.2-5.3c-2.4-1.4-4.9-2.7-7.6-3.5c-1.6-0.5-3.2-0.9-4.8-1.4c-0.6-0.2-1.3,0-2,0
			c-1,0.1-1.9,0.1-2.9,0.1c-1.4,0.1-3.4-0.4-4.3,0.8C26.6,113.9,25.5,115.5,24.4,117C24.4,118,25.5,115.4,24.4,117z"/>
		<path style="fill:#337AB7;" d="M383.7,276.1c-1.6-0.3-3.1-0.6-4.7-0.8c-0.7-0.1-1.5-0.2-2.2-0.4c-0.7-0.2-1.3-0.7-1.9-1
			c-1.3-0.8-2.7-1.4-4.1-2.1c-0.6-0.3-1.2-0.5-1.7-0.9c-0.7-0.6-1.2-1.3-1.8-1.9c-0.9-0.9-2-1.8-2.8-2.8c-0.9-1.2-1.3-3-1.9-4.4
			c-0.6-1.3-0.8-2.5-0.9-4c-0.1-1.6-0.4-3.2,0-4.9c0.6-2.8,1.5-5.4,3-7.9c0.8-1.2,2-2.2,2.9-3.2c0.5-0.5,0.9-1,1.5-1.4
			c0.7-0.4,1.4-0.6,2.1-1c1.3-0.6,2.7-1.2,3.9-1.9c1.3-0.7,2.9-0.6,4.4-0.6c1.5,0,3,0,4.5,0.1c1.7,0.1,3.2,0.6,4.8,1.1
			c1.2,0.4,2.3,0.8,3.4,1.4c0.9,0.6,1.9,0.9,2.8,1.6c1.7,1.4,3.6,3,4.8,4.9c0.7,1.1,1.3,2.1,2,3.2c0.6,0.9,0.7,1.8,0.9,2.8
			c0.3,1.2,0.6,2.4,0.9,3.6c0.2,0.8-0.3,1.9-0.5,2.8c-0.2,1.3-0.5,2.6-0.7,3.8c-0.2,1.1-0.3,1.9-1,2.9c-0.7,1-1.5,2-2.2,3
			c-0.7,1-1.4,2.1-2.4,2.9c-0.8,0.6-1.7,1.1-2.6,1.7c-1.1,0.7-2.2,1.7-3.3,2.1C388.7,275.6,386.1,275.8,383.7,276.1
			C381.5,275.7,385.5,275.8,383.7,276.1z M365,253.6c0.1,0.6,0.1,1.2,0.3,1.8c0.2,0.6,0.7,1.1,1.2,1.6c1,1.1,2,2.4,3.2,3.3
			c1,0.8,2.2,1.4,3.4,2c1.3,0.7,2.6,1.4,4.1,1.8c2.8,0.9,5.8,1.1,8.7,1.2c1.5,0.1,3,0.2,4.6,0.3c1.4,0.1,3-0.8,4.3-1.3
			c0.7-0.2,1.4-0.5,2.1-0.7c0.3-0.1,0.7-0.2,1-0.5c0.4-0.4,0.5-1.1,0.7-1.6c0.3-0.8,0.6-1.6,1-2.4c0.2-0.5,0.5-1,0.6-1.5
			c0.1-0.4-0.3-0.9-0.5-1.2c-0.6-0.8-0.8-2.1-1.7-2.7c-1.3-0.8-2.7-1.7-4-2.5c-1.4-0.9-2.7-1.9-4.2-2.3c-1.5-0.4-2.9-0.9-4.4-1.3
			c-1.4-0.4-3.1-0.3-4.6-0.5c-1.5-0.1-3.3-0.6-4.8-0.4c-1.5,0.2-2.9,0.4-4.4,0.8c-0.5,0.1-1,0.2-1.4,0.4c-0.6,0.2-1.2,1.2-1.6,1.7
			C367.2,251,366.1,252.3,365,253.6C365.1,254.5,366.5,251.8,365,253.6z"/>
		<path style="fill:#337AB7;" d="M366.6,317.5c-1.4-0.3-2.8-0.6-4.2-0.8c-1.5-0.2-2.7-0.8-4-1.4c-1.4-0.7-2.7-1.3-4.1-2
			c-1.4-0.7-2.2-1.8-3.2-2.9c-1-1.1-2-2.3-3.1-3.4c-0.4-0.4-1.1-0.9-1.2-1.5c-0.1-0.7-0.2-1.4-0.2-2.2c-0.4-3.2-0.9-6.4-1.3-9.6
			c-0.1-0.6-0.4-1.4-0.2-2c0.2-0.6,0.6-1.2,1-1.7c0.9-1.5,1.7-3,2.6-4.4c0.4-0.7,0.8-1.4,1.2-2c0.3-0.5,0.5-1,0.9-1.3
			c1.5-0.9,2.9-1.8,4.4-2.7c1.1-0.7,2.3-1.6,3.6-1.8c1.4-0.2,2.7-0.3,4.2-0.2c1.5,0.1,3,0.2,4.4,0.3c1.4,0.1,2.9,0.9,4.2,1.4
			c2.1,0.8,4.1,1.8,5.9,3.1c2,1.4,3,3.4,4.2,5.4c0.7,1.1,1.3,2.2,2,3.3c0.5,0.8,1.2,1.6,1.6,2.5c0.5,0.9,0.2,2.5,0.2,3.5
			c0,1.3,0.1,2.6,0.1,3.9c0,0.8,0.3,1.8,0.1,2.6c-0.2,1.1-1.1,2.3-1.6,3.3c-0.3,0.6-0.6,1.1-0.8,1.7c-0.2,0.5-0.4,1.2-0.8,1.6
			c-0.8,0.8-2,1.4-3,2.1c-1.1,0.8-2.2,1.5-3.3,2.3c-0.8,0.6-1.6,1.3-2.5,1.8c-1,0.5-2.3,0.5-3.4,0.7
			C369.2,317.1,367.9,317.3,366.6,317.5C365.5,317.3,368.7,317.2,366.6,317.5z M357.6,286.5c-1.6,0.4-3.1,0.7-4.7,1.1
			c-0.5,0.1-1.7,0.2-2,0.5c-0.2,0.2-0.3,0.7-0.4,1c-0.2,0.7-0.3,1.4-0.6,2.2c-0.2,0.7-0.4,1.4-0.6,2.1c-0.2,0.5-0.5,1-0.1,1.5
			c1.4,1.9,3.2,3.6,4.7,5.5c0.8,1.1,1.7,1.9,2.9,2.6c1.2,0.7,2.3,1.6,3.5,2.2c1.3,0.6,2.7,1.1,4.1,1.6c1.5,0.6,2.9,1.3,4.5,1.4
			c1.5,0.1,3,0.4,4.5,0.6c1.4,0.2,2.2-0.1,3.5-0.7c1.2-0.5,2.3-1.1,3.5-1.6c0.5-0.2,0.5-0.7,0.6-1.3c0.2-0.9,0.3-1.8,0.5-2.7
			c0.1-0.4,0.4-1.3,0.2-1.7c-0.2-0.3-0.5-0.6-0.7-0.9c-0.9-0.9-1.6-1.9-2.4-2.9c-0.6-0.7-1.2-1.4-1.7-2.2c-0.6-0.8-1.1-1.3-2-1.8
			c-1.9-1.1-3.7-2.2-5.6-3.4c-0.7-0.4-1.4-1-2.2-1.3c-0.9-0.4-2-0.4-2.9-0.6C362,287.4,359.8,287,357.6,286.5
			C355.4,287,360,287,357.6,286.5z"/>
		<path style="fill:#337AB7;" d="M162.8,20.6c-0.3,1.5-0.7,3.1-1,4.6c-0.1,0.5-0.2,1.7-0.5,2.1c-0.5,0.6-1.1,1-1.6,1.6
			c-0.9,0.9-1.7,2-2.6,2.7c-0.4,0.3-1.5,0.3-2,0.4c-0.9,0.2-1.7,0.3-2.6,0.4c-0.8,0.1-1.5,0.2-2.3,0.2c-0.5,0-0.6,0.6-0.7,1
			c-0.3,0.8-0.3,1.1-0.1,1.9c0.3,0.9,0.5,1.8,0.8,2.7c0.4,1.3,0.7,2.5,1.2,3.7c0.4,0.9,0.7,2.4,1.8,2.7c1.2,0.3,2.1,0.6,3.2,1.2
			c0.3,0.1,1.3,0.5,1.2,0.9c-0.1,0.6-0.6,1.3-0.8,1.9c-0.3,0.8-2.1,0.9-2.8,1.2c-1.6,0.5-3.2,0.9-4.7,1.5c-1.4,0.5-2.9,1.1-4.3,1.6
			c-1.1,0.4-2.5,1-3.7,1c-0.6,0-1.5-0.8-1.5-1.4c0.1-1.3,0.5-1.9,1.4-2.7c0.6-0.5,1.5-1.9,1.4-2.8c-0.3-1.4-0.8-2.9-1.2-4.3
			c-0.8-3.1-1.9-6.2-2.9-9.3c-1-3.1-2-6.1-3-9.2c-0.4-1.3-0.8-2.5-1.3-3.7c-0.1-0.4-0.3-0.8-0.5-1.2c-0.3-0.4-1.1-0.4-1.6-0.6
			c-0.6-0.2-1.1-0.3-1.6-0.6c-0.3-0.2-1.6-0.9-1.6-1.1c0-0.3,0.3-0.7,0.4-1c0.3-0.6,0.6-1.2,0.9-1.7c0.1-0.2,0.8-0.3,1-0.3
			c0.6-0.1,1.2-0.3,1.7-0.5c1.6-0.5,3.2-1,4.8-1.6c3.1-1,6.2-1.9,9.3-2.8c1-0.3,2.4-1,3.4-0.9c1.5,0.2,3,0.5,4.5,0.6
			c1.3,0.1,1.7,0.4,2.6,1.3c0.9,0.9,1.8,1.9,2.8,2.8c1,0.9,1.1,2,1.5,3.3C162,17.6,162.4,19.1,162.8,20.6
			C162.3,22.7,162.2,18.4,162.8,20.6z M152.9,23.2c-0.4-1.6-0.6-3.3-1-4.9c-0.2-0.9-0.6-1-1.5-1.4c-1-0.5-2.1-1-3.1-1.5
			c-0.9-0.4-1.8-0.9-2.7-1.3c-0.4-0.2-0.9,0.8-1,1c-0.4,0.7-0.2,1.4-0.1,2.1c0.1,1.1,0.5,2.1,0.8,3.2c0.7,2.1,1.3,4.2,2.2,6.2
			c0.2,0.6,0.9,0.6,1.4,0.7c0.4,0.1,2.5,0.9,2.8,0.7c0.5-0.4,0.8-1.7,1.1-2.3C152.2,24.9,152.5,24.1,152.9,23.2
			C152.6,22.1,152.7,23.7,152.9,23.2z"/>
		<path style="fill:#337AB7;" d="M63.2,320.4c1.6-1,3.1-2.1,4.5-3.3c0.7-0.5,1.4-1.1,2-1.6c0.6-0.5,1.6-1,2.1-1.7
			c0.3-0.5,0.4-1.1,0.6-1.6c0.3-0.9,0.4-1.5,0.3-2.4c-0.1-0.5-0.3-1.2-0.2-1.7c0-0.7,1.1-1.7,1.4-2.3c1.8,2.1,3.6,4.2,5.3,6.3
			c1.7,2.1,3.3,4.4,5.1,6.3c0.7,0.8,1,1.2,0.9,2.3c-0.1,0.4-0.1,0.9-0.2,1.3c-0.8,0-1.5-0.1-2.3-0.1c-1.3-0.1-2.6-0.1-3.9-0.2
			c-0.6,0-0.9-0.1-1.4,0.3c-0.6,0.5-1.2,0.9-1.7,1.4c-4.2,3.4-8.6,6.7-12.9,10c-2,1.6-3.9,3.3-5.8,5c-0.3,0.3-0.7,0.5-0.9,0.8
			c-0.3,0.4-0.2,1.2-0.2,1.7c-0.2,1.4-0.3,2.9-0.5,4.3c-0.9-0.3-2.3-0.5-3.1-1.1c-0.9-0.7-1.4-2-2.1-2.9c-1.8-2.5-3.6-4.9-5.5-7.4
			c-0.9-1.1-1.8-2.3-2.6-3.4c-0.8-1.1-1.9-2.1-2.3-3.4c-0.3-1.3-0.6-2.4-0.7-3.8c-0.1-1.3,0.5-2.3,1.1-3.5c0.6-1.3,1.2-2.6,1.8-3.9
			c0.5-1.1,0.7-2.2,1.9-2.8c1.4-0.6,2.8-1.1,4.3-1.6c1.3-0.5,2.6-1.1,4-0.9c1.2,0.2,2.5,0.1,3.6,0.6c0.7,0.3,1.4,0.7,2.1,1
			c0.5,0.3,1.1,0.4,1.5,0.9c0.7,1,1.1,2.2,1.7,3.2C61.8,317.7,62.4,319.1,63.2,320.4C66.1,318.4,62.1,318.5,63.2,320.4z M48.3,331.4
			c1.4-0.5,2.7-1.4,3.9-2.3c1.4-1.1,2.7-2.1,4.1-3.2c1.2-0.9,2.9-1.9,3.2-3.4c0.1-0.7,0-0.9-0.5-1.4c-0.5-0.5-1.2-1.6-1.9-1.7
			c-0.7-0.1-1.5-0.2-2.2-0.3c-0.9,0-1.5,0.4-2.3,0.8c-1.4,0.7-3.1,1.2-3.8,2.7c-0.8,1.6-1.7,3.2-2.6,4.8c-0.4,0.8-0.3,0.8,0.3,1.5
			C47.1,329.7,47.7,330.6,48.3,331.4C50.6,330.6,47.6,330.5,48.3,331.4z"/>
		<path style="fill:#337AB7;" d="M354.7,91.9c1.7-0.3,3.5-0.5,5.2-0.9c1.7-0.3,3.4-0.9,5.1-1.1c0.7-0.1,0.8-0.5,1-1.1
			c0.2-0.6,0.5-1.1,0.7-1.6c0.3-0.6,0-1.3-0.2-2c-0.1-0.6,0.1-0.8,0.5-1.3c0.6-0.8,1.1-0.1,2,0.1c1.4,0.4,2,1.9,2.7,3
			c1,1.5,2.2,2.7,3.4,4c0.6,0.6,1,1,1,1.8c0,0.8,0,1.7,0.1,2.5c-1.4-0.1-2.6-0.1-4-0.4c-1.3-0.3-2.8-0.9-4.2-0.7
			c-3,0.3-6,0.6-8.9,1.1c-1.3,0.2-2.5,0.5-3.9,0.5c-1.4,0-2.5,0.4-3.6,1.2c-2.3,1.6-4.7,3.1-6.8,4.9c-1.1,0.9-2.1,1.8-3.2,2.8
			c-0.4,0.3-0.4,0.9-0.4,1.4c0,0.7-0.1,1.4-0.2,2c-0.1,0.8-0.1,1.6-0.2,2.3c-0.1,0.6-0.4,0.4-0.9,0.4c-0.4,0-0.8,0-1.2-0.1
			c-0.4-0.1-0.8-0.8-1-1.2c-1.8-2.3-3.6-4.6-5.5-6.8c-0.9-1-1.8-2.1-2.7-3.1c-0.8-0.9-0.6-2.6-0.7-3.7c1.5-0.1,3.1-0.1,4.6-0.2
			c1.3,0,2.7,0.2,3.8-0.7c1.2-1,2.4-1.9,3.5-2.8c1-0.8,2.1-1.6,3-2.6c0.9-1,1.3-2.3,1.7-3.6c0.6-1.5,1.1-3.1,1.7-4.6
			c1.1-3,2.3-5.9,3.4-8.9c0.5-1.2,0.9-2.2,0.8-3.5c0-1.3-0.2-2.5,0.2-3.8c0.1-0.2,0.2-0.9,0.5-0.9c0.5,0,1-0.1,1.5,0
			c0.6,0,0.8,0.4,1.1,0.8c0.5,0.6,1,1.2,1.5,1.7c2,2.3,4,4.7,5.8,7.2c0.8,1.2,1.7,2.4,2.5,3.6c0.4,0.6,0,1.7-0.3,2.3
			c-0.3,0.9-1.8,0.2-2.5,0.4c-0.8,0.2-1.6,0.5-2.4,0.7c-0.6,0.2-1.1,0.1-1.3,0.8c-0.7,1.7-1.3,3.5-2,5.2
			C355.5,88.8,354.8,90.3,354.7,91.9C356.7,91.6,354.8,90.9,354.7,91.9z"/>
		<path style="fill:#337AB7;" d="M383.3,120.3c1.4,0.6,2.9,1.2,4.3,1.8c0.7,0.3,1.4,0.6,2.2,0.9c0.5,0.2,1.1,0.3,1.6,0.6
			c0.5,0.3,0.6,1.1,0.8,1.6c0.3,0.7,0.6,1.4,0.9,2.1c0.7,1.6,1.3,3.2,2,4.7c0.5,1.2,1,2.4,1.6,3.6c0.6,1.1-0.6,2-1.2,2.9
			c-0.6,1.1-2.1,1.3-3.2,1.7c-1,0.3-2.8,1.4-3.8,1c-0.4-0.1-0.7-0.2-1.1-0.4c-0.5-0.2-0.2-0.9-0.2-1.3c0-0.6,0-0.9,0.5-1.3
			c0.5-0.4,1-1,1.5-1.5c0.8-0.8,1.5-1.4,1.7-2.5c0.2-1.5,0.2-3.1,0.5-4.6c0.1-0.7-2-1.6-2.5-2c-0.5-0.4-1-0.2-1.6-0.1
			c-0.6,0.1-1.4,0-2,0.2c-0.5,0.2-1,1-1.4,1.4c-0.3,0.3-0.7,0.6-0.9,1c-0.3,0.5-0.2,1.5-0.2,2.1c-0.1,0.9-0.2,1.8-0.2,2.7
			c-0.3,2.6-0.4,5.3-0.9,7.8c-0.1,0.6-0.6,1-1,1.4c-0.5,0.5-1.1,1.1-1.6,1.6c-1.1,1.1-2.1,2.2-3.2,3.3c-0.8,0.8-1.9,0.9-3.1,1.2
			c-0.7,0.2-1.5,0.4-2.2,0.6c-0.6,0.2-1.5,0.6-2.1,0.5c-1.3-0.1-2.7-0.3-4-0.7c-1.3-0.4-2.5-1.2-3.7-1.9c-1.2-0.7-1.9-1.2-2.7-2.3
			c-0.8-1.3-1.7-2.5-2.6-3.7c-0.3-0.5-0.3-1.2-0.3-1.7c-0.1-0.8-0.2-1.6-0.3-2.4c-0.2-1.6-0.4-3.2-0.6-4.7c-0.1-0.4-0.4-1.3-0.1-1.7
			c0.2-0.3,0.5-0.6,0.8-0.9c0.7-0.6,1.2-1.4,2.1-1.8c1.3-0.5,2.6-1.1,3.9-1.6c1.2-0.5,2.1,0,3.3,0.2c-0.2,0.6-0.4,1.2-0.6,1.7
			c-0.2,0.5-0.3,1.3-0.8,1.7c-1,0.8-1.9,1.8-2.8,2.6c-0.7,0.6-1.7,1.2-1.6,2.2c0.2,1.1,0.2,2.3,0.2,3.5c0,1.4,0.7,2,1.6,3
			c0.5,0.6,1.2,1.9,2.1,1.7c1.9-0.5,3.8-1.2,5.7-1.7c0.4-0.1,0.9-0.2,1.3-0.3c0.3-0.1,0.4-1.5,0.5-1.8c0.3-1.3,0.6-2.6,0.8-3.9
			c0.4-2.7,0.5-5.9,1.7-8.4c0.6-1.2,1.1-2.5,1.7-3.7c0.4-0.9,1.2-1.3,2.1-1.7c0.9-0.5,1.6-1.3,2.6-1.7
			C380.3,120.7,381.9,120.6,383.3,120.3C385.6,121.3,382,120.6,383.3,120.3z"/>
		<path style="fill:#337AB7;" d="M369.3,175.3c0.5,1.3,1,2.6,1.4,4c0.4,1.5,1.7,1.7,2.9,2.3c1.1,0.5,2.3,1,3.4,1.5
			c1.3,0.6,2.2,1.9,3.2,2.9c0.4,0.4,0.2,0.5-0.2,0.9c-0.2,0.3-0.4,0.6-0.8,0.6c-1.5,0.2-3,0.4-4.4,0.6c-1.3,0.2-2,0.2-3-0.7
			c-1.1-1-2.4-2-3.5-3.1c-0.9-0.9-1.1-2.8-1.4-4c-0.5-1.6-0.9-3.2-1.4-4.8c-0.1-0.5-0.5-1-0.3-1.6c0.2-0.8,0.4-1.5,0.6-2.3
			c0.4-1.6,0.8-3.3,1.2-4.9c0.3-1.4,0.5-3.1,1.1-4.4c0.2-0.6,0.7-0.9,1.1-1.4c0.5-0.6,1-1.2,1.6-1.8c1-1,2.2-1.9,3.3-2.8
			c1.1-0.9,2.4-1.3,3.6-1.8c1.2-0.5,2.5-0.9,3.8-1.3c1.5-0.5,2.9-0.4,4.4-0.4c1.5,0.1,3-0.1,4.5,0.3c1.6,0.4,3.1,1,4.6,1.5
			c0.7,0.2,1.4,0.4,2,0.7c0.6,0.3,1,0.8,1.5,1.2c1.2,0.9,2.3,1.6,3.3,2.8c1,1.1,2,2.2,2.6,3.6c0.7,1.5,1.4,3.1,2.2,4.6
			c0.6,1.2,0.6,2.7,0.8,4c0.2,1.4,0.3,2.9,0.5,4.3c0.2,1.2-0.7,2.8-1.1,3.9c-0.4,1.2-1.3,1.3-2.4,1.7c-0.9,0.3-1.6,0.8-2.5,1.1
			c-0.6,0.2-2.9,0.2-2.9-0.7c0.1-1-0.3-2,0.4-2.8c0.9-0.9,1.6-1.7,2-2.8c0.4-1,0.8-1.9,1.1-2.9c0.2-0.5,0.4-1,0.6-1.4
			c0.1-0.3,0.5-1,0.5-1.3c-0.1-0.5-0.5-1-0.7-1.5c-0.4-1-0.9-1.3-1.8-1.8c-2-0.9-4-1.9-6-2.8c-0.8-0.4-1.7-1-2.5-1.2
			c-1-0.2-2.2,0-3.2,0c-0.9,0-1.9,0-2.8,0.1c-1.1,0.1-2.1,0.6-3.2,0.9c-1.9,0.6-4.1,0.8-5.8,1.9c-1.7,1.1-3.5,2.3-5.2,3.4
			c-0.9,0.5-1.2,1.9-1.6,2.7C370.3,173.1,369.8,174.2,369.3,175.3C369.7,176.4,370.1,173.5,369.3,175.3z"/>
		<path style="fill:#337AB7;" d="M328,332.9c-1.5-0.5-3.5-0.7-4.6-1.9c-1-1.1-1.9-2.2-2.9-3.2c-0.5-0.5-0.2-1.3-0.1-1.9
			c0.1-0.8,0-2,0.3-2.8c0.3-0.6,0.9-1,1.3-1.5c0.7-0.7,1.3-1.4,2-2.2c2.5-2.8,5.1-5.6,7.6-8.5c1.2-1.4,2.4-2.9,3.6-4.3
			c0.5-0.7,0.7-0.7,1.5-0.7c0.7,0,1.5-0.1,2.2-0.1c0.1,1.5,0.3,2.6,0.8,4c0.4,1.2,0.7,2.8,1.5,3.8c0.8,1,1.9,1.8,2.9,2.6
			c1.3,1.1,2.5,2.2,3.8,3.3c2.4,2.1,4.9,4.2,7.3,6.3c1.1,0.9,2.3,1.8,3.3,2.9c0.4,0.4,0.8,0.9,1.3,1c0.6,0.2,1.4,0,2,0
			c1.5,0,3,0.1,4.4,0.3c0.6,0.1,0.6,0.2,0.6,0.8c-0.1,0.5,0,0.9,0,1.4c-0.1,0.6-0.8,1.1-1.2,1.5c-0.5,0.6-1,1.1-1.6,1.7
			c-1.1,1.2-2.2,2.4-3.3,3.6c-1,1.1-2,2.3-2.9,3.4c-0.5,0.5-0.9,1-1.4,1.5c-0.5,0.5-1.1,0.1-1.7,0.1c-0.6,0-0.8-0.1-0.8-0.8
			c0-0.7-0.1-1.3-0.3-2c-0.4-1.4-0.6-3-1.2-4.3c-0.3-0.7-1-1.2-1.6-1.7c-0.7-0.7-1.4-1.3-2.2-2c-1.5-1.4-3.1-2.6-4.6-4
			c-2.9-2.6-5.7-5.3-8.9-7.7c-0.8-0.6-1.5-1.1-2.3-1.7c-0.6-0.4-1.1,0-1.7,0.1c-0.7,0.2-1.5,0.4-2.2,0.5c-0.8,0.1-0.8,0.2-1.1,1
			c-0.3,1-0.5,2-0.8,3c-0.2,0.8-0.7,1.7-0.3,2.5C327.4,329.1,327.6,331,328,332.9C326.8,332.6,327.6,331,328,332.9z"/>
	</g>
	<g id="_x3C_tree-bezier_x3E__1_">
		<path style="fill:#872321;" d="M237.3,117.7c-0.1-0.6-0.2-1.2-0.2-1.7c0-0.5,0.2-0.9,0.8-1c0.5-0.1,0.9-0.1,1.1,0.5
			c0.1,0.3,0.3,0.6,0.5,0.9c0.9,1.1,1.7,2.2,3.5,1.4c0.9-0.4,2-0.3,3-0.4c0.5-0.1,0.8-0.3,0.8-0.8c-0.1-0.5,0.2-1.2-0.5-1.5
			c-0.5-0.2-0.9-0.1-1.2,0.5c-0.3,0.7-0.7,0.5-1.1,0c-0.4-0.5-0.1-3.6,0.4-3.8c0.8-0.3,1.6-0.7,2.5-0.5c0.3,0.1,0.7,0.1,1,0.2
			c2.7,0.7,2.8,0.9,1.2,3.1c-0.4,0.6,0,0.6,0.3,0.8c0.5,0.3,0.9,0.7,0.8,1.4c-0.1,0.7-0.7,0.7-1.2,0.8c-0.6,0.1-1.3,0.2-1.2,0.9
			c0.1,0.7,1,0.6,1.6,0.6c2.1-0.2,2.1-0.2,2.1,1.9c0,0.2,0.1,0.5,0.1,0.5c1.4,0.1,1.6,1.5,2.2,2.3c0.8,1,1.4,2.3,2.3,3.3
			c0.6,0.6,0,1.8,0,2.7c0,0.1-0.2,0.2-0.3,0.3c-0.8,0.7-3.3,0.5-4-0.4c-0.6-0.8-1.2-1.5-2.3-0.6c-0.1,0.1-0.2,0.1-0.3,0.1
			c-1.8-0.8-3.3,0.2-4.9,0.6c-0.9,0.2-1.9,0.2-2.6,1c-0.4,0.4-0.9,0.2-1.4,0.2c-1.2,0-1.8,0.6-1.8,1.7c0,1.3,0.9,1.1,1.4,0.7
			c1.6-1.5,2.6-0.3,3.6,0.6c0.8,0.7,1.3,0.9,2.3,0.3c1-0.6,2.1-1,3.1-1.6c1.2-0.7,2.1-0.3,2.7,0.9c0.3,0.5,0.6,0.8,1.1,0.4
			c1.5-1.3,2.1,0.2,3,0.9c0.2,0.1,0,0.6,0.3,0.5c2-0.6,3.1,1.6,4.9,1.7c0.8,0.1,0.7,0.7,0.6,1.4c1.1-1.4,2.1-1.1,3.1-0.1
			c0.1,0.1,0.3,0.3,0.3,0.2c2.2-0.6,2.1,1.2,2.7,2.3c0.4,0.8,0.8,1.5,1.6,2.1c0.7,0.5,0.8,1.2,0.9,2.5c1.4-2.3,3.1-1.1,4.7-1.3
			c0.9-0.1,1.5,0.5,1.7,1.4c0.1,0.5,0.1,0.9,0.2,1.4c0.2,1.9,0.2,1.9,2.2,1.8c1.3,0,1.9,0.7,1.4,1.9c-0.2,0.6-0.3,1.1-0.1,1.7
			c0.4,1.1-0.3,1.8-1.3,2.3c1.1,0.1,1.8,0.5,1.8,1.6c0,0.3,0,0.7-0.3,0.7c-1.3,0.1-2,1.4-3.5,1.1c-1.5-0.3-3-0.2-4.2-1.4
			c-0.3-0.3-0.8-0.5-1.2-0.3c-0.4,0.2-0.1,0.5-0.1,0.7c0.1,0.6,0.1,1.2-0.5,1.6c-0.2,0.1-0.5,0.2-0.7,0.1c-0.5-0.5-0.8-1.1-0.6-1.8
			c0.1-0.3,0.2-0.5,0.1-0.8c-0.7,0.1-0.5,0.6-0.5,1.1c0,0.6,0.2,1.3,0,2c-0.1,0.5-0.4,0.9-0.8,1.1c-0.6,0.2-0.7-0.2-1-0.6
			c-0.5-0.8-1.4-0.6-2.1-0.5c-0.7,0.2-1,1-1.5,1.6c-0.2,0.2,0.1,0.3,0.2,0.4c0.9,0.7,0.4,1.3,0,2.1c-0.5,0.9-0.9,0.7-1.6,0.3
			c-0.4-0.2-0.8,0-1.2,0.3c-0.6,0.6-1.3,0.8-1.7-0.3c-0.4-0.9-0.9-0.4-1.5-0.1c-1.4,0.9-2.6,0.6-3.4-0.7c-0.3-0.4-0.2-0.7-0.1-1
			c0.1-0.3,0.1-0.6-0.3-0.6c-0.4,0-0.4,0.3-0.3,0.6c0.1,0.3,0.2,0.5,0.2,0.8c0,0.3,0,0.6-0.4,0.7c-0.3,0.1-0.4-0.1-0.6-0.3
			c-1.2-1.3-2-1.4-3.6-0.5c-0.8,0.5-1.8,0.7-2.4,0.1c-1.4-1.8-3.6-1.2-5.3-1.8c-0.1,0-0.3,0-0.4-0.1c-1.2-1-2.3-1.9-3.9-0.6
			c-0.1,0.1-0.5-0.1-0.6-0.3c-1.4-1.7-3.6-2-5.3-3.2c-0.3-0.2-0.4-0.2-0.7,0c-1.2,0.5-2,0.1-2.5-1.1c-0.2-0.6-0.6-1-1.4-0.9
			c-1.5,0.2-2.1-0.8-2.3-2c-0.2-1-0.1-2.2,1.4-2.5c0,0,0.1-0.2,0.1-0.3c-0.4-0.4-0.8-0.3-1.2-0.1c-2.8,1.1-5.5,2.5-7.4,4.9
			c-0.1,0.1-0.3,0.3-0.3,0.5c0,1.8-1.4,2.2-2.8,2.3c-2.1,0.2-3.1,1.9-4.4,3c-0.2,0.1-0.8,0.7-0.2,0.9c0.6,0.2,1.2,1,1.9,0.3
			c1.2-1.1,2.7-1,4.1-1.1c0.3,0,0.7,0,0.8,0.1c0.8,1,1.9,0.9,3,1.1c0.9,0.2,1.6,1.1,2.8,0.4c0.6-0.4,1.2,0.6,1.5,1.2
			c0.7,1.6,1.7,2.2,3.5,2.1c1.5-0.1,2.8,1.5,2.4,2.9c-0.4,1.5,0,2.2,1.5,2.6c0.6,0.2,1.3,0.2,1.2,1c-0.1,0.9-0.8,0.7-1.3,0.8
			c-1.4,0.1-2.2,0.8-2.6,2.1c-0.3,1-1.2,2.2-1.7,2.4c-1.1,0.3-2.4,1.1-3.6,0.4c-1.1-0.7-2-0.6-2.9,0.3c-0.5,0.5-0.9,0.6-1.5,0.1
			c-0.5-0.4-1.2-0.4-1.6,0.2c-0.5,0.8-1.3,1.1-2.1,0.9c-1.8-0.3-3.6,0.9-5.5,0.3c-0.7-0.2-1.4,1-2.5,0.7c-0.5-0.1-1-0.1-1.4-0.5
			c-0.8-0.7-1.4-0.4-1.8,0.4c-0.6,1.1-0.7,2.2-0.7,3.4c0,0.6,0.3,0.6,0.7,0.6c1.3,0.2,2.7,0.1,4,0.5c1.1,0.4,2.5-0.3,3.8-0.5
			c1.5-0.2,3-0.6,4.5-0.5c0.8,0.1,1.1-0.6,1.7-0.9c0.5-0.2,1.1-0.8,1.7-0.2c0.6,0.5,0.8,1.2,0.3,1.9c-0.8,1.1-0.6,1.8,0.7,2.3
			c0.6,0.2,1.1,0.7,1.4,1.2c0.3,0.6,0.8,0.6,1.3,0.6c0.4,0,0.6-0.3,0.8-0.6c0.2-0.3-0.2-0.3-0.4-0.5c-0.1-0.1-0.3-0.2-0.4-0.4
			c-0.6-1,1.1-4.5,2.2-4.3c1.4,0.2,1.7-0.7,2.2-1.5c0.4-0.7,0.3-1.8,1.2-2c1-0.1,2,0.3,3,0.4c0.1,0,0.2,0.1,0.3,0.1
			c1.5,1.3,2.8,0.1,4.2-0.2c0.4-0.1,0.3-0.4,0.2-0.8c-0.2-0.8-0.3-1.7-0.4-2.5c-0.1-1,0.7-1.7,1.3-1.7c1.5,0,1.8-1.2,2.6-1.9
			c0.5-0.5,0.7-1.1,1.1-1.6c0.9-1.1,2.3-1.3,3.4-0.4c0.9,0.8,1.3,0.7,1.6-0.4c0.2-0.6,0.4-1.2,1.2-1.3c0.7-0.1,0.9,0.5,1.1,1.1
			c0.1,0.2,0.3,0.5,0.5,0.4c0.4-0.2,1.1-0.4,1.1-1c0.1-1,0.6-1.7,1.5-1.6c1.2,0.2,3-1,3.6,1.2c0.1,0.3,0.2,0.7,0.7,0.6
			c0.5-0.1,0.4-0.5,0.4-0.8c0.1-1,0.8-1.4,1.8-1.7c1.5-0.4,2.6-0.3,3.6,0.9c0.5,0.6,1.2,0.4,1.7,0c0.9-0.6,1.8-0.5,2.7-0.1
			c1,0.5,1.7,0.5,2.5-0.5c0.5-0.8,1.4-1.5,2.6-0.7c0.4,0.3,0.8,0,1.2-0.2c1.2-0.6,1.9-0.4,2.3,0.9c0.1,0.4,0.1,0.8,0.6,0.8
			c2.2-0.1,2.6,1.6,3,3.1c0.5,1.8,1.2,2,2.6,0.7c1.6-1.4,2-1.4,3.7-0.3c0.8,0.5,1.6,0.3,2.4,0.2c0.9-0.1,1.5,0.1,1.9,0.9
			c0.6,1.5,1.4,2.8,2.8,3.7c0.4,0.3,0.4,0.7,0.5,1.1c0.3,1.9,1.3,2.4,3,1.4c0.5-0.3,0.8-0.1,1.2,0.2c0.5,0.4,0.6,0.9,0.2,1.4
			c-0.7,0.9-1.2,2.1-3,2c1,0.7,1.4,1.3,1.5,2.2c0,0.6,0.4,1.1,0.9,1.5c0.5,0.6,0.7,0.7,1.4,0c0.9-1,3.4-0.7,3.9,0.5
			c0.4,1,1.2,1.3,1.9,1.7c1.4,0.8,2.3,1.7,2.3,3.4c0,0.7,0.2,1.3,0.9,1.8c0.9,0.6,1.2,1.5,0.8,2.6c-0.5,1.5-0.7,3-2.4,3.9
			c-1,0.6-1.7,1.4-2.9,2c-0.9,0.4-2.5,1.3-2.2,3c0,0.3-0.2,0.9-0.3,0.9c-1.5,0.1-2.6,1.6-4.1,1.5c-1.2-0.1-1.3,0.6-0.9,1.1
			c1.2,1.2,0.9,3,1.8,4.3c0.5,0.8,1.1,1.2,1.9,0.8c0.9-0.5,1.3-0.2,1.4,0.7c0.1,0.5,0.2,0.8,0.7,0.9c0.5,0,1.1,0.1,1.4-0.4
			c0.3-0.4,0.5-0.8,0.8-1.1c0.5-0.5,1.3-0.8,1.8-0.2c1.4,1.5,3.2,1.9,5.1,2.2c1.3,0.2,2.4,0.6,2.6,2.1c0.1,0.8,0.6,1.6,1,2.3
			c0.3,0.7,0.9,0.9,1.7,0.9c0.7,0,0.9-0.4,0.9-1c0-0.3,0.2-0.4,0.4-0.5c0.3,0,0.5,0.1,0.5,0.4c0.1,1.1,1.1,1.9,0.6,3.2
			c-0.4,1,1,2,2.1,2c0.7,0,1.8-0.4,2.2,0.5c0.4,0.9,0.7,2-0.3,3c-0.4,0.4-0.9,0.9-0.9,1.5c0,1.5-0.8,2-2.3,2c-0.5,0-1.2,0-1.5,0.3
			c-1.1,0.8-2.1,1.1-3.1-0.2c-0.1-0.1-0.3-0.1-0.4-0.1c-1.2,1-2.2,0.1-3.1-0.5c-1.2-0.7-1.9,0.1-2.6,0.7c-1.4,1.1-1.5,1.1-2-0.4
			c-0.2-0.5-0.4-0.7-0.9-0.8c-1.6-0.1-2.9,0.7-3.3,2.1c-0.4,1.3,0.2,2.5,1.7,3.2c0.5,0.2,0.8,0.5,0.9,1c0,0.5-0.4,0.7-0.8,0.9
			c-1.2,0.7-2.5,1.2-2.2,3c0.1,0.9-1.5,1.3-2.6,0.6c-0.8-0.5-1.6-0.4-2.5-0.3c-0.8,0.1-1,0.5-0.5,1.2c0.8,1.1,1.9,1.9,3.1,2.4
			c0.8,0.4,1.8,0,2-0.9c0.2-1,0.8-2,0.7-3.1c0-0.5,0-1,0.6-1.1c0.5-0.1,0.7,0.4,0.9,0.8c0.3,0.4-0.1,1.3,0.8,1.3
			c0.8,0.1,1.1-0.6,1.5-1.2c0.8-1.2,2.1-0.9,3.2-0.8c0.8,0.1,1.7,0.4,2.2,0.9c1.2,1.2,2.6,1.7,4.3,1.9c0.7,0.1,1.3,0.3,1.9-0.2
			c0.5-0.3,1-0.3,1.5,0.1c0.3,0.3,0.5,0.6,0.3,1c-0.2,0.6-0.7,0.8-1.4,0.9c-1.3,0-2.5,0.4-3.5,1.2c-0.9,0.7-1.4,0.5-1.8-0.3
			c-0.3-0.6-0.6-1.3-1.4-1.1c-0.7,0.1-1,0.7-1.2,1.4c-0.8,2.6-3.7,3.3-5.7,1.3c-0.5-0.5-0.7-0.4-1,0c-0.4,0.6-1.1,1-1.7,1.3
			c-1,0.6-2,1.1-3.2-0.1c-1.1-1.1-4.1-0.7-5.3,0.4c-0.7,0.7-1.5,1-2.5,0.7c-0.7-0.2-1.1-0.5-1-1.3c0.2-0.9-0.4-1.1-1.1-0.9
			c-2.2,0.5-4.3-1.4-3.7-3.6c0.3-1-0.2-1.1-0.9-1.4c-0.4-0.2-0.8-0.2-0.7,0.5c0.1,0.7-0.1,1.3-0.8,1.4c-0.5,0.1-0.7-0.4-0.9-0.8
			c-0.4-0.7,0-1.1,0.6-1.5c0.1,0,0.1-0.1,0.2-0.3c-1.1-0.2-2.4,0.6-3.4-0.5c0,0-0.3,0-0.4,0.1c-0.9,1.2-2,0.8-3.2,0.4
			c-1.4-0.5-1.9,0.7-2.5,1.6c-0.1,0.2-0.2,0.5-0.2,0.8c-0.6,1.7-1.1,3.5-3.6,3.3c-0.8-0.1-1.1,0.6-1.6,1c-1.7,1.4-3.4,2.8-4.9,4.5
			c-0.7,0.9-1.3,1.8-1.5,2.8c-0.2,0.7-0.6,1.2-1.2,1.7c-1,0.7-1.8,1.3-2.1,2.7c-0.3,1.1-1.8,2-2.9,3c-0.7,0.6-1.3,1.3-2,2
			c-0.8,0.9-1.2,1.8-1,3.1c0.3,1.6-0.7,2.3-2.3,1.7c-3.1-1.3-6.1-0.9-9,0.5c-2.9,1.4-6,2.6-8.5,4.7c-1.6,1.3-2.7,3-4,4.6
			c-1.1,1.4-2.3,2.8-3.5,4.2c0.4,0.5,0.9,0.2,1.4,0.2c0.6,0.1,1.1,0.3,1.1,0.9c0.1,0.7-0.6,0.7-1,0.7c-1.7-0.1-2.6,0.9-3.1,2.2
			c-0.3,0.8-0.9,1.3-1.5,1.8c-0.9,0.7-2,1.3-2.6,2.3c-0.2,0.2-0.3,0.5-0.6,0.5c-1.7-0.1-2.4,1.1-3.4,2.1c-1.6,1.7-3.2,3.3-4.4,5.3
			c-0.6,1.1-1.4,2-1.8,3.2c-0.2,0.7-0.7,1.3-1.1,1.9c-1.2,1.7-2.3,3.5-1.7,5.7c0.2,0.6,0.3,1.3,0.8,1.8c0.3,0.3,0.5,0.6,0.4,1
			c-0.4,2.3,1.1,4.3,1.1,6.5c0,1.9-0.5,3.8,0.6,5.6c0.3,0.5,0.3,1.4-0.7,1.6c-0.3,0.1-0.4,0.4-0.2,0.7c0.2,0.3,0.4,0.5,0.8,0.5
			c0.4,0,0.5-0.1,0.6-0.4c0-0.4-0.2-1.1,0.5-1c0.6,0.1,0.8,0.7,0.7,1.3c-0.1,1.1,0.4,1.8,1.5,2.3c0.9,0.4,1.5,1.2,2,1.9
			c1.2,2.1,0.4,3.3-2.1,3.4c-0.6,0-1.2,0.1-1.8,0.3c-0.9,0.4-1.7,0.4-2.3-0.4c-0.5-0.6-0.9-0.5-1.3,0.1c-0.1,0.1-0.1,0.3-0.2,0.4
			c-0.3,0.3-3.9,0.7-4.3,0.5c-0.9-0.5-1.6-2.6-1.3-3.8c0.2-0.6,0.4-1.2,1.1-1.5c-1,0.6-2.2,0.9-3.2,1.4c-0.4,0.2-0.7,0.8-0.4,1.4
			c0.3,0.6,0.5,1.2,0.7,1.8c0.2,0.4,0.4,0.9-0.1,1.2c-0.5,0.3-0.9,0.1-1.3-0.2c-1-0.8-1.9-1.5-2.6-2.7c-0.7-1.3-2.3-2-3.1-3.3
			c-0.1-0.2-0.3,0-0.5,0.1c-1.2,0.5-1.9,0-1.7-1.3c0.2-1.2,0.6-2.4,1-3.5c0.5-1.2,0.3-2.3,0.1-3.5c-0.2-1.4-0.2-2.8-0.3-4.3
			c0-0.4,0.2-1.2-0.4-1.2c-0.7,0-0.8,0.7-0.8,1.3c-0.1,1.5,0.4,2.9,0.3,4.4c-0.1,1-0.3,1.9-1.1,2.5c-0.7,0.6-0.8,1.2-0.8,2
			c0.1,1.2,0.3,2.4-0.5,3.5c-0.3,0.4,0.1,0.7,0.5,0.8c1.2,0.2,1.8,1.1,2.7,1.8c0.1,0.1,0.4,0.3,0.3,0.4c-0.2,1.4,0.3,2.3,1.9,2.2
			c0.3,0,0.5,0.4,0.5,0.8c-0.1,0.4-0.2,0.8-0.7,1c-1.5,0.6-2.8,0.4-3.9-0.6c-0.4-0.4-0.8-0.8-1.5-0.5c-0.6,0.2-1.1-0.2-1.4-0.8
			c-0.3-0.5-0.6-1-0.8-1.5c-0.4-0.6-0.5-1.2-1.2-0.1c-0.5,0.8-1.8,0.7-2.6,0.1c-0.8-0.5-1.7-1.1-1.4-2.3c0.1-0.3,0.8-0.9-0.1-1.1
			c-0.8-0.2-1,0.6-0.9,1c0.1,1.9-1.2,2.1-2.6,2.4c-0.4,0.1-0.9,0-1-0.4c-0.3-2-1.7-0.9-2.5-0.7c-1.5,0.4-3,1.1-4.5,1.6
			c-0.6,0.2-1.1,0.5-1.4,1c-0.7,1.1-2,1-2.9,1.7c-0.2,0.2-0.4,0-0.7-0.1c-1.4-0.5-2.7-0.7-3.8,0.5c-0.4,0.5-2.6,0-2.9-0.6
			c-0.4-0.9,0.1-1.3,0.8-1.8c0.8-0.5,1-1.8,2-2.1c1.1-0.3,1.1-1,1-1.9c-0.1-1,0.6-1.5,1.4-2c0.6-0.4,0.9,0.1,1.1,0.5
			c0.3,0.7,0.5,1.5,0.8,2.2c0.2,0.4,0.4,0.9,0.9,0.7c0.6-0.3,0-0.6-0.1-0.9c-0.4-1,0.3-1.6,0.9-2.2c0.6-0.5,1.2-0.9,1.9-1.2
			c0.9-0.4,1.6-1.3,2.3-1.7c1.2-0.7,1.5-1.5,2-2.6c0.2-0.6,0.3-0.9-0.1-1.3c-0.5-0.6-0.5-1.4,0.3-1.6c1.6-0.4,2-2.1,3.3-2.8
			c0.3-0.2,0.6-0.4,1-0.6c0.6-0.2,1.2,0.6,1.4,0.1c0.4-0.8,0.7-1.8,0.7-2.7c0-0.9,0.1-2-0.8-2.8c-0.1-0.1-0.1-0.2-0.1-0.2
			c0.3-2.1-1-4-0.6-6.1c0.1-0.5,0.4-0.9,0.9-1.2c1.2-0.8,1-1.9-0.3-2.5c-1.3-0.6-2.2-2.4-1.7-3.7c0.3-0.8,1-0.8,1.6-0.7
			c1.5,0.3,1.8-0.5,1.5-1.7c-0.1-0.8,0.1-1.5,0.4-2.3c0.7-2.2,0.2-4.3-0.6-6.4c-0.2-0.4-0.7-0.6-1.1-0.5c-1.2,0.3-2.3-0.3-3.4-0.5
			c-0.5-0.1-0.7-0.4-0.8-0.8c0-0.6,0.4-0.7,0.8-0.8c1.2-0.2,2.3-0.1,3.4,0.1c0.6,0.1,1.2,0.4,1.5-0.3c0.3-0.7-0.5-0.8-0.9-1.2
			c-1.1-0.9-2.5-0.7-3.8-1c-0.6-0.1-1.1-0.3-1.4-0.8c-0.3-0.7-0.2-1.4,0.7-1.4c0.9,0,1.9-0.3,2.8,0.4c0.4,0.3,1.1,0.3,1.5-0.1
			c0.5-0.5,0.6-1.2,0.5-1.8c-0.1-0.6-0.8-0.4-1.1-0.2c-1.4,0.6-2.8-0.1-4.3,0.4c-0.9,0.3-2.1-0.4-3-0.8c-1.8-0.8-3.4-1.6-5.4-1.2
			c-0.5,0.1-1-0.1-1.4-0.3c-0.6-0.4-1.1-1.2-2.1-0.4c-0.3,0.2-1.5-0.6-2.2-0.9c-0.7-0.3-1.2-0.2-1.8,0.3c-0.4,0.4-0.7,1.2-1.4,0.9
			c-0.8-0.3-1.5-0.9-1.6-1.8c-0.2-1.4-0.7-1.2-1.5-0.4c-0.5,0.5-1,0.6-1.6,0.1c-0.5-0.4-1-0.4-1.5,0.2c-0.7,0.8-1.6,0.8-2.6,0.4
			c-1.5-0.6-2.9-0.3-4.2,0.5c-0.8,0.5-1.4,0.7-2.1-0.3c-0.5-0.9-1.3-1.8-2.2-2.3c-1.1-0.6-2-1.4-3.1-2c-1-0.6-1.9-0.7-2.9-0.5
			c-1.6,0.3-2.4-0.6-1.9-2.1c0.4-1.3-0.1-2-1.3-2.1c-1.4-0.1-1.8-0.7-1.2-1.9c0.2-0.5,0.5-1,1-1.3c0.3-0.2,0.5-0.3,0.5-0.8
			c-0.3-2.4,1.3-3.9,2.7-5.5c0.3-0.4,0.8-0.6,0.8-1.1c-0.1-2.3,1.5-2.8,3.4-3.1c0.7-0.1,0.9-0.5,0.7-1.1c-0.2-0.5-1-0.8-0.7-1.6
			c0.3-0.8,0.9-1.3,1.6-1.7c0.2-0.1,0.3-0.2,0.5-0.5c-1.3-0.5-2.4,0-3.5,0.4c-0.9,0.3-2,0.8-2.5-0.2c-0.6-1-0.6-2.2,0.1-3.3
			c0.3-0.4,0.6-0.6,1.3-0.5c1.2,0.3,2.5,0.3,3.7-0.2c-0.4-0.5-0.7-0.5-1.2-0.4c-1.6,0.4-2.2-0.2-1.9-1.7c0.2-0.9,0-1.3-0.9-1.6
			c-0.7-0.2-1.4-0.7-1.2-1.6c0.2-0.9,0.4-1.9,1.7-1.9c1.7-0.1,2.2-1.3,2.7-2.6c0.7-1.7,1.5-3,3.5-3.3c0.9-0.2,1.1-1.4,0.3-2.1
			c-1.7-1.3-3.4-2.4-5.8-1.9c-1.7,0.4-2.7,1.6-3.7,2.7c-0.8,0.9-1.7,0.9-2.6,1c-1,0.1-1.6,0.3-1.6,1.5c0,1.4-0.7,1.7-2.1,1.4
			c-1.1-0.2-2.1,0.7-3.2,0.6c-0.8,0-1.2,0.1-1.8-0.8c-0.7-1.1-1.4-2-1.5-3.3c0-0.5-0.5-0.5-0.9-0.5c-0.9,0.1-1.8,0-2.6,0.2
			c-1.1,0.2-1.8,0.1-2.7-0.6c-0.3,1-0.2,2.2-1.7,2.2c-0.5,0-0.6,0.6-0.7,1c-0.2,0.8-0.6,0.9-1.2,0.3c-1-0.9-1.3-2.3-0.7-3.6
			c0.1-0.2,0.3-0.6,0.2-0.6c-1.8-1.3,0.2-3.8-1.8-5c-0.6-0.4-0.2-0.9,0.1-1.2c1.3-1,1.5-2.7,2.6-3.8c0.6-0.6,0.6-1.3,0-1.9
			c-0.8-0.8-0.7-1.8-0.8-2.8c0-0.4,2.6-3.6,2.9-3.4c2,0.7,3.9-0.4,5.8-0.3c0.9,0,1.2-0.7,1.7-1.1c1.1-0.9,1.4-0.8,2,0.4
			c0.2,0.3,0.1,0.8,0.6,0.8c0.6,0,0.9-0.3,1.2-0.7c0.1-0.1,0.2-0.2,0.2-0.4c0.3-0.8,0.4-1.8,1.5-1.7c1,0.1,1.7,0.8,1.9,1.8
			c0,0.1,0.2,0.2,0.3,0.4c1.4-2,3-0.4,4.5-0.4c0.3,0,0.4,0.4,0.5,0.6c0.7,1.8,2.4,2.4,3.9,1.2c0.7-0.5,1-0.4,1.7,0.2
			c1,0.8,1.6,2.1,3,2.3c0.7,0.1,1.5,2.2,1.1,2.9c-0.3,0.6-0.8,0.8-1.5,0.4c-0.7-0.4-1-0.2-1.1,0.6c-0.1,1.2-0.8,1.2-1.8,1
			c-1.6-0.3-2.8-1.5-4.4-1.6c-0.3,0-0.6-0.4-0.9,0c-0.1,0.2-0.1,0.5-0.1,0.7c0.1,0.4,0.5,0.4,0.8,0.3c1-0.3,1.5,0.2,2,1.1
			c0.6,1.1,1.4,2.2,2.3,3.1c1.1,1.2,2.8,0.8,4.2,1.2c0.5,0.1,1,0.2,1.4,0.6c1.4,1.4,2.7,1,3.8-0.7c0.9-1.4,1.1-3.1,2.5-4.4
			c-1.1-0.3-2.1-0.7-3.1-0.1c-0.6,0.3-1.3,0.9-2,0c-0.6-0.8,0-1.3,0.3-2c0.6-1.4,2-1.2,3-1.6c1.2-0.5,2.1-1.9,1.8-3.1
			c-0.1-0.4-0.5-0.3-0.8-0.5c-0.8-0.6-1-1.3-0.4-2.2c0.9-1.3,0.6-2.7-0.7-3.5c-1.5-0.9-3-1.7-4.6-2.5c-1-0.5-4.1,0.2-4.9,1
			c-0.2,0.2-0.5,0.5-0.7,0.7c-0.4,0.5-1,0.6-1.5,0.2c-0.5-0.4-0.6-0.9-0.2-1.5c0.3-0.6,0.7-1.2,1.2-1.7c-2.2,0.1-3.9,1.6-5.7,2.5
			c-1.2,0.6-2.3,0.1-3.5,0.1c-0.4,0-0.8-0.4-0.8-0.9c-0.1-1.3-0.9-1.4-1.9-1.2c-0.5,0.1-1,0.1-1.4,0.2c-1.8,0.2-2.3-0.5-1.6-2.1
			c0.5-1,0.1-1.3-0.8-1.7c-1.6-0.6-1.8-1.4-0.8-2.7c0.6-0.7,1.1-1.4,1.5-2.3c0.3-0.9,1.4-0.8,2.3-0.5c0.3,0.1,0.6,0.5,1,0.5
			c0.3,0,0.6,0.2,0.8-0.1c0.1-0.3-0.1-0.5-0.3-0.6c-0.7-0.3-1.3-0.8-1-1.6c0.4-1,0.9-1.9,2.2-2c1,0,1.9,0.1,2.3-1.2
			c0.1-0.5,0.9-0.3,1.3-0.1c1.2,0.7,1.6,0,1.9-0.9c0.3-1,0.8-1.4,1.8-0.7c0.3,0.2,0.7,0.3,0.9,0c0.2-0.4-0.2-0.5-0.5-0.7
			c-2-1.6-3.9-1.4-5.5,0.6c-0.4,0.5-0.9,0.5-1.4,0.5c-0.3,0-0.5-0.3-0.8-0.3c-0.5-0.1-1.2,0.2-1.3-0.7c-0.2-0.9,0.6-1,1.3-1.3
			c-0.8-0.5-1.3,0-1.8,0.2c-0.4,0.2,0,0.8,0.2,1.1c0.5,0.9,0.1,1.4-0.9,1.6c-0.4,0.1-0.7,0.1-1,0.4c-0.6,0.5-1.3,0.6-1.8,0
			c-0.5-0.6-0.6-1.4,0-2.1c0.3-0.4,0.7-0.8,1.1-0.9c1.1-0.3,1-1,0.4-1.5c-0.5-0.4-1-1.8-2-0.5c-0.3,0.3-0.7,0.5-1.1,0.6
			c-1,0.2-1.2,0.9-1.3,1.8c-0.1,2.3-1.8,3.5-4.1,3.1c-0.6-0.1-0.8-0.1-0.7,0.6c0.2,1.6-0.5,2.5-2.1,2.7c-0.3,0-0.6,0.3-0.8,0.5
			c-0.5,0.3-1,0.7-1.6,0.2c-0.6-0.5-1-1-0.8-1.8c0.2-0.7,0.4-1.3,0.8-1.8c0.4-0.5,0.6-0.9,0.2-1.5c-0.4-0.5-0.7-0.9-1.6-0.7
			c-1.2,0.3-1.8-0.8-1.4-1.9c0.4-0.9,1.1-1.4,1.8-2c0.7-0.5,1-0.4,2.4,0.6c0.4-1.2-0.6-2.5,0.2-3.7c0.1-0.1-0.5-0.7-0.8-0.9
			c-0.9-0.5-1-1.2-0.6-2c0.5-0.9,0-1.5-0.6-1.9c-0.7-0.5-1.2-0.1-1.7,0.5c-1,1.1-2.2,2-3.9,1.9c-1.1,0-1.5,1-1.4,1.8
			c0.1,1.4-0.5,1.8-1.8,1.5c-0.4-0.1-0.7,0.2-1,0.4c-1.1,0.8-1.7,0.8-2.2-0.4c-0.4-0.8-0.8-1.5-1.6-1.9c-0.8-0.5-0.9-1-0.2-1.8
			c1.1-1.4,0.8-2.7-0.7-3.4c-1.5-0.7-1.6-1.1-0.5-2.3c0.2-0.2,0.4-0.3,0.5-0.5c0.2-0.4,0.9-0.8,0.6-1.3c-0.3-0.4-0.9-0.1-1.4-0.1
			c-1.7,0.1-2.4-0.6-2.2-2.2c0.1-1,0.5-1.7,1.3-2.2c0.6-0.5,1.3-1.1,2-0.5c0.7,0.6,0.1,1.3-0.4,1.9c0.5,0.2,0.8,0.3,1.2,0.4
			c0.5,0.3,1,0.3,1.4-0.3c0.4-0.6,0-0.9-0.4-1.3c-1.3-1.1-1.3-1.6,0.2-2.5c0.5-0.3,0.7-0.7,0.6-1.3c-0.1-0.5-0.2-1.1,0.6-1.2
			c0.7-0.1,0.9,0.3,1,0.9c0.1,0.6,0.4,0.7,0.8,0.1c0.3-0.4,0.6-0.8,0.9-1.1c0.4-0.4,0.6-0.7,0-1.1c-0.2-0.1-0.3-0.3-0.4-0.4
			c-0.2-0.6-0.3-1.4-1.1-1.4c-0.9,0-0.8,0.8-1.1,1.3c-0.4,0.7-0.8,1-1.6,0.7c-0.8-0.3-1.3-0.8-1.2-1.7c0.2-1.6,1.2-2.7,2.8-2.7
			c1.2,0,1.4-0.6,1.5-1.4c0-1.2,0.7-1.3,1.6-1c1.1,0.4,1.4,0,1.1-1c-0.3-1.3,0.1-2.6-0.4-3.9c-0.3-0.9,0.9-2.4,2-2.5
			c1.8-0.2,3.5-0.1,5.2,0.8c-0.2-0.8,0.2-1.4,0.9-1.8c0.5-0.3,1-0.7,1.5-1.1c0.8-0.7,1.7-0.9,2.5-0.4c0.8,0.5,1.4,0.3,2.1-0.2
			c1.1-0.8,2.1-0.9,3.3-0.1c1.6,1.1,3.5,1.3,5.2,2c1.1,0.5,1.3-0.8,1.9-1.2c0.5-0.3-0.3-0.7-0.7-0.9c-1.2-0.8-6.9-1.5-8-2.3
			c-1.1-0.7,0.5-4.6,1.7-5.2c0.8-0.4,4.9-0.1,5.4-0.8c1.2-1.9,1.9-1.9,3.4-0.1c0.4-1.1,1.4-1.8,1.3-3.1c-0.1-1.3,1.2-2.1,2.6-1.8
			c0.4,0.1,0.9,0.1,1-0.2c0.6-1.7,1.9-2.7,3.3-3.7c-0.9,0.3-1.8,0.6-2.7,0.7c-0.5,0-0.5,0.4-0.5,0.9c0,0.7-0.3,1.3-1.1,1.5
			c-0.7,0.2-1.2-0.3-1.5-0.8c-1.1-1.4-2.3-1.8-3.8-1c-1,0.5-2.8-7.5-1.5-7.7c1.3-0.3,1.7-1,1.4-2.1c-0.7-2.5,0.2-4.8,0.8-7.2
			c0.3-1.3,1.4-1.3,2.4-1.1c1.1,0.2,0.8,1,0.6,1.6c-0.2,0.8,0.4,1,0.8,0.9c1.4-0.3,2.2,0.5,2.6,1.6c0.5,1.3,1.6,1.9,2.8,2.6
			c0.5-0.6,0.8-1.4,1.4-1.9c0.6-0.5,1.2-0.8,2-0.3c0.9,0.5,1.6,0,1.4-1c-0.2-0.7,0.5-1.7-0.5-2c-1-0.4-1,0.9-1.6,1.3
			c-0.6,0.5-1.2,0.9-1.9,0.5c-0.4-0.2-0.7-0.6-0.6-1c0.1-0.8,0.5-1.5,1.4-1.6c1.3,0,1.8-0.7,1.9-1.8c0-0.3,0.3-0.9,0.7-0.7
			c1.3,0.8,2.7-0.5,4,0.2c0.6,0.3,1.6-0.1,1.1-1.2c-0.1-0.3-0.2-0.8-0.1-1.1c0.1-0.5,0.5-0.9,1-0.8c0.5,0.1,1.1,0.4,0.9,1
			c-0.3,1.1,0.5,1.1,1.2,1.4c0.9,0.4,0.9-0.4,1.1-0.8c0.1-0.1,0.2-0.3,0.3-0.3c1.7-0.2,2.2-1.6,2.9-2.9c0.3-0.5,0.8-0.7,1.3-0.6
			c1.7,0.3,3.2-0.1,4.3-1.5c0.4-0.5,0.9-0.2,1.3,0c0.5,0.2,0.5,0.7,0.2,1.1c-0.3,0.4-0.6,0.7-0.2,1.1c0.4,0.4,0.8,0.6,1.3,0.2
			c1.3-1,2.6-0.1,3.9-0.2c0.3,0,0.5,0.2,0.6,0.5c0.1,0.2,0.2,0.5,0.2,0.5c0.7-0.1,1.3-0.5,2.1,0c0.8,0.5,1.5,0,1.9-0.7
			c0.2-0.4,0.6-0.4,1-0.4c1-0.1,1.5-0.7,1.6-1.7c-0.9,1.3-2.5,1-3.6,2c-0.5,0.5-1.5,0.6-2.2,0.2c-0.7-0.5-0.6-1.3-0.5-2.1
			c0-0.8,0.6-1.3,1.4-1.4c1-0.1,1.1-0.6,0.9-1.5c-0.3-1,0.1-1.5,1.3-2c1.2-0.5,2-1.7,2.8-2.8c0.4-0.6-1.8-2.4-2.5-2.2
			c-0.6,0.2-1.1,0.3-1.4-0.2c-0.3-0.5-0.4-1.1-0.1-1.6c0.3-0.5,0.7-1.1,1.4-1c0.9,0.2,1.9,0.4,2.7,0.9c0.5,0.3,0.9,0.5,1.5,0.5
			c1,0,1.8,0.5,2.3,1.4c0.7,1.2,2.3,1.7,3.3,0.8c1.1-1.1,2-1.8,3.3-0.6c0.3,0.3,0.7,0.2,0.8-0.2c0.6-1.7,2.6-2.2,3.3-3.8
			c0.1-0.3,0.4-0.4,0.7-0.4c1.4,0.1,2.7-0.1,4-0.5c0.2,0,0.5,0.1,0.6,0.2c0.7,0.7,1.4,1.2,2.5,1c0.4-0.1,1,0.3,1.3,0.7
			c1.2,1.6,2.3,2,4.1,1.1c1.1-0.5,1.9-0.1,2.8,0.2c1.4,0.4,2.7,1.7,4.4,1.1c0.4-0.1,0.8-0.1,1.1-0.4c1-1,1.8-0.5,2.4,0.4
			c0.6,0.9,1.3,1.6,2.5,1.9c0.8,0.2,1.2,0.9,1.7,1.6c0.5,0.6,1.2,1,0.7,2c-0.3,0.6,0.4,0.7,0.7,0.9c0.4,0.3,1,0.4,1.4,0.6
			c0.9,0.5,1.5,1.1,0.7,2.1c-0.2,0.3-0.5,0.7-0.1,1c0.4,0.3,0.8,0.1,1.2-0.1c1.6-1,2-0.8,2.2,1c0.1,1.1,0.4,1.5,1.6,1.3
			c2.8-0.4,3.7,0.7,3.3,3.4c0,0,0,0.1,0,0.1c-1.3,1.1-0.4,2.4-0.4,3.6c0,1.2-0.5,1.5-1.5,0.9c-1-0.6-1.9-0.1-2.5,0.4
			c-0.9,0.7-1.9,1.3-2.8,2.1c-0.3,0.2-0.6,0.5-0.9,0.4c-1.8-0.7-3.5,0.3-5.3,0.2c-1.1-0.1-2,0.4-2,1.1c-0.1,0.9-0.9,2.3,0.6,3
			c0.1,0,0.2,0.1,0.3,0.1c1.7,2.8,4.3,1.3,6.6,1.3c0.5,0,0.6-0.4,0.5-0.8c-0.1-0.5-0.4-1-0.7-1.4c-0.4-0.4-0.6-0.9-0.3-1.4
			c0.3-0.6,0.8-0.8,1.4-0.7c0.4,0.1,0.8,0.1,1.1-0.2c1.3-0.9,2.7-1.3,4.1-0.2c0.3,0.2,0.7,0.2,0.7-0.1c-0.4-1.5,2.4-0.9,1.7-2.2
			c-0.8-1.4-0.3-2.5,0.3-3.6c0.5-1.1,1.4-1.4,2.4-0.9c1,0.6,2.4,0.8,2.4,2.5c0,1.2,1.4,2,2.9,1.9c1.6-0.1,2.2,0.4,2.4,1.9
			c0.1,0.6,0.2,1.1,0.2,1.7C235.9,117.3,236.3,117.8,237.3,117.7z M233.2,188.7c-0.7-0.8-1.2-1.8-2.4-1.8c-1.1-0.1-1.8-0.5-1.7-1.8
			c-0.9,0.5-1.7,0.9-2.2,1.6c-0.6,0.8-0.3,1.2,0.5,1.2C229.3,188.1,231.2,188.5,233.2,188.7c0.6,0.7,1.3,0.6,2.1,0.5
			c0.7-0.1,1.4-0.2,2,0.3c1.6,1.3,3.7,1,5.6,1.3c0.2,0,0.5,0,0.7-0.1c0.6-0.3,1.1-0.8,1.2-1.5c0.1-0.7-0.7-0.4-1.1-0.5
			c-0.5-0.2-0.7-0.8-1.3-1c0,0.1-0.1,0.2-0.1,0.4c-0.6,1.8-1.2,1.9-2.6,0.7c-0.5-0.5-1.1-0.5-1.8-0.4
			C236.3,188.6,234.8,189.6,233.2,188.7z M144.5,150.6c-0.3-0.4-0.7-0.8-0.9-1.2c-1.1-1.9-2.8-2.6-4.9-2.2c-0.8,0.1-1.5,0.2-2.3,0.3
			c-0.6,0.1-1-0.1-1.1-0.8c-0.4-3.2-1.8-3.3-5.1-3.3c-1.9,0-2.3,0.6-1.8,2.4c0.2,0.6-0.2,1.5,0.8,1.9c0.1-1.5,1.3-2.4,3.1-2.5
			c1.3-0.1,1.6,0.9,2,1.7c0.4,0.8-0.5,1-1,1.3c-0.2,0.1-0.4,0.4-0.7,0.5c-0.4,0.3-0.6,0.6-0.5,1.1c0.2,0.6,0.7,0.5,1.1,0.4
			c2-0.5,3.3,0.7,4.8,1.5c0.9,0.5,1.4,0.4,2-0.2C141.5,149.9,142.3,149.7,144.5,150.6c0.2,1.5-0.1,2.1-1.5,2.3
			c-0.8,0.1-1.1,0.5-1.5,1.1c-0.8,1.2-1.5,2.8-3.5,2.6c-0.3,0-0.6,0-0.9,0.1c-0.3,0.1-0.8,0.2-0.6,0.6c0.3,0.7,0.6,1.3,1.1,1.9
			c0.2,0.3,0.5-0.1,0.7-0.2c1.1-1,2.3-1,3.7-0.6c1.4,0.4,1.2,1.2,0.9,2c-0.6,1.7-0.3,2.2,1.7,2c1-0.1,2-0.2,2.9,0.7
			c0.1-1.8-0.5-3.3-0.7-4.9C146.5,155.5,146.7,152.7,144.5,150.6z M206.5,288.2c0.6-0.1,1.2-0.1,1.7-0.6c2-1.7,3.9-3.5,6-5.1
			c2.5-1.9,5.4-3.7,6-7.2c0-0.2,0.2-0.4,0.3-0.5c1.5-0.9,2.4-2.5,3.5-3.7c1.8-2,2.6-3.8,1.9-6.7c-0.9-3.4-3.3-4.9-5.7-6.8
			c-1.2-0.9-2-0.3-1.8,1.2c0.1,1-0.3,1.4-1.2,1.7c-0.7,0.2-1.3,0.4-2,0.3c-1.2-0.2-2.2-0.1-2.9,1.1c-0.3,0.5-0.9,0.9-1.7,0.9
			c-0.6,0-1.1,0.3-1.1,0.9c-0.1,1.3-0.7,1.6-1.9,1.3c-0.5-0.1-0.9,0-0.5,0.5c0.4,0.6,0.8,1.1,0.1,1.7c-0.7,0.6-1.5,0.7-2.3,0.3
			c-1.2-0.7-1.6-0.3-1.8,0.9c-0.1,0.4,0,1.2-0.8,1.1c-0.5-0.1-1.1-0.3-1.3-0.9c-0.1-0.4,0.1-1.3-0.7-1.2c-0.6,0.1-0.4,0.8-0.6,1.3
			c-0.3,0.8,0,1.6,0,2.4c0,0.5,0.2,1.1,0,1.5c-0.8,1.2-0.4,2.4-0.3,3.7c0.2,1.5,0.6,3.1,0.2,4.6c-0.4,1.6,0.6,3,0.3,4.6
			c-0.1,0.4,0.2,1.2,0.7,1.3C202.7,287.2,204.4,288.4,206.5,288.2z M153.6,117.2c0.8,0.9,1,1,2,0.6c0.7-0.2,1.1-0.2,1.5,0.4
			c1.1,1.3,1.8,1.2,2.7-0.3c0.4-0.7,1.1-1.1,1.6-0.7c1.2,1,2.3,0.8,3.7,0.6c1.1-0.2,1.6,0.5,1.2,1.5c-0.2,0.6-0.2,1.1,0,1.7
			c0.6,1.7-1,3.2-2.7,2.8c-0.7-0.2-1.4-0.3-2.1-0.5c-0.6-0.1-1.2,0.1-1.5,0.6c-0.4,0.6,0.2,0.9,0.6,1.1c1.1,0.7,1.4,1.7,1.4,2.9
			c0,0.3-0.2,0.7,0.2,0.9c0.3,0.1,0.6,0,0.8-0.2c0.3-0.3,0.1-0.6-0.1-0.9c-0.3-0.4-0.5-0.9,0-1.3c0.5-0.4,1.2-0.5,1.8-0.2
			c0.6,0.3,1,0.9,0.7,1.4c-0.7,1-0.2,1.9-0.2,2.8c0.1,1.8-0.8,2.4-2.5,1.6c-0.5-0.2-0.8-0.4-1.3-0.1c-1.7,0.9-3.2,2.1-5.1,2.7
			c-1,0.4-2.2,0.8-3.2,0.1c-0.9-0.7-0.5-1.7-0.4-2.6c0.1-0.9,0.4-2.1-0.4-2.6c-1-0.7-0.9-1.3-0.6-2.1c0.2-0.7,0.1-1.2-0.7-1.1
			c-0.5,0-0.8,0.6-1,1c-0.5,0.9-1.1,1-2,0.6c-1.3-0.6-3-0.2-4.1-1.4c-0.1-0.1-0.7,0-1,0.2c-2.2,1.5-4.7,2.1-7.3,2.2
			c-0.6,0-1.2,0.2-1.4,0.8c-0.2,0.7,0.5,0.8,0.9,1.2c0.4,0.5,1,0.3,1.5,0.2c2-0.3,3.3-2,5.4-2.5c0.8-0.2,1.1,0.1,1.3,0.5
			c1.1,1.6,1.5,1.6,3.1,0.7c0.6-0.4,1.4-0.4,2.1,0c0.7,0.5-0.1,0.9-0.2,1.3c-0.3,1.1-0.1,2.1,0.3,3.1c0.2,0.5,0.7,0.8,1.3,0.4
			c1.1-0.7,1.8-0.3,2.4,0.7c0.3,0.6,0.9,0.9,1.2,1.5c0.4,0.7,2.1,1,2.5,0.3c0.7-1,1.4-1.2,2.4-0.7c0.2,0.1,0.4,0.1,0.5-0.1
			c0.7-1.2,1.7-1,2.8-0.8c0.4,0.1,0.9-0.1,1.3-0.2c1.3-0.4,2.6-0.4,3.8,0.1c0.7,0.2,1.1,0.2,1.7-0.1c1-0.5,2.1-0.5,3.2-0.6
			c0.7-0.1,0.8,0.9,1.2,1.3c0.7,0.6,1.4,1.1,2.3,0.1c0.7-0.7,1.9-1,2.2,0.3c0.4,1.7,1.3,2.6,2.8,3.3c0.3,0.1,0.5,0.5,0.6,0.8
			c0.2,0.5,0.6,0.6,1.1,0.4c0.2,0,0.4-0.2,0.4-0.3c0-0.5-0.4-0.7-0.8-0.9c-0.1-0.1-0.4-0.1-0.5-0.2c-1.5-0.7-2.6-1.6-2.6-3.5
			c0-1.4,0.1-1.6,1.7-1.5c1.5,0.1,2.9,1.1,4.5,0.3c0.3-0.1,0.7-0.1,0.7-0.5c0-0.5-0.4-0.4-0.6-0.3c-0.8,0.2-1.3-0.4-2.1-0.4
			c-1,0-1.2-0.7-0.9-1.5c0.2-0.6,0.5-1.3,1.2-1.2c0.9,0.1,2.1-0.1,2.5,1c0.3,0.9,0.8,1.3,1.8,1c0.3-0.1,0.6-0.2,0.8-0.1
			c1.2,0.6,1.7-0.2,2.1-1.1c0.5-1.1,1.1-1.4,2.1-0.6c0.3,0.3,0.7,0.3,1.1,0.1c0.4-0.3,0.3-0.8,0.1-1.2c-0.2-0.5-0.8-0.8-1-1.3
			c-0.3-0.6-1-0.8-1.6-0.5c-0.7,0.3-1.9,0.2-1.8,1.5c0.2,1.4-0.8,1.8-1.8,2.1c-1.1,0.3-3-1.1-2.5-1.7c0.8-1.2,1-2.7,1.9-3.7
			c0.6-0.6,0.5-1.1,0.1-1.5c-0.7-0.8-1.1-1.6-1.1-2.7c0-0.7-0.6-0.7-1.2-1c-1.5-0.7-2.9-1.9-4.8-1c-0.1,0.1-0.4-0.2-0.6-0.4
			c-0.5-0.4-0.8-0.4-1.2,0.2c-0.4,0.6-1.1,0.9-1.8,0.7c-1-0.3-2.4-2.6-2.2-3.7c0.2-1.1-0.5-2-1.1-2.8c-0.1,0.8,0,1.6,0.1,2.4
			c0,0.4,0.2,0.8-0.4,0.9c-0.5,0.1-0.7-0.3-0.8-0.7c-0.2-0.9-0.9-1.3-1.6-1.2c-1.5,0.2-3-0.1-4.4,0.2c-0.5,0.1-1,0.2-1.5-0.1
			c-1.2-0.7-2.5-0.5-3.6,0C158.3,116.8,156,117.1,153.6,117.2z M195.2,93.6c0.1,0.5,0.5,0.5,0.6,0.5c1.5-0.1,1.6,0.9,1.6,1.9
			c0,1-0.7,1.3-1.3,1.9c-1.2,1.1-2.4,1.8-4.1,1.5c-0.2,0-0.6,0.1-0.8,0.3c-0.9,0.7-1.8,1.4-2.9,1.7c-0.4,0.1-0.7,0.3-0.9,0.7
			c-0.5,0.9-1.1,1.8-1.7,2.7c-0.4,0.7-0.6,1.4-0.1,2.3c0.6,1,0.7,2.5,0,3.7c-0.8,1.3-2.2,2.1-3.4,2.8c-1.2,0.7-2.4,1.8-4.1,2
			c1.7,0.7,2.2,0.7,3.7,0.2c2-0.7,3.1-0.5,4.5,1c1.7,1.7,1.7,1.7,3.2-0.3c-0.7-0.5-1.7-0.7-2.2-1.5c-0.3-0.5-0.4-1-0.1-1.5
			c0.4-0.5,0.8-0.4,1.3-0.2c0.7,0.3,1.4,0.4,2.1,0.3c0.8-0.1,1.3,0.4,1.6,0.9c0.4,0.5-0.1,0.9-0.5,1.3c-0.1,0.1-0.3,0.3-0.3,0.4
			c0,0.8,2.3,2.3,3.1,1.9c2.4-1.3,5-1.2,7.6-0.9c0.4,0.1,0.8,0,0.9-0.5c0.4-1.2,1.5-1.6,2.5-2.1c-1.2-0.5-2.4-0.7-3.6-0.9
			c-0.6-0.1-1.2-0.4-1.2-1.2c-0.1-0.6,0-1,0.6-1.2c1.5-0.4,2.8-1.4,4.2-1.6c1.7-0.3,1.5-1.1,1.5-2.2c0.1-1.3-0.8-1.4-1.8-1.9
			c-1.4-0.6-1.8-0.6-2,0.8c-0.2,1.6-1.7,2.2-2.2,3.6c-0.2,0.5-1.3,0.5-1.9-0.2c-0.3-0.3-0.4-0.8-0.5-1.1c-0.5-1.1-1-1.1-1.9-0.3
			c-1.1,1-2.2,0.9-2.7-0.5c-0.3-1.1-0.9-1.2-1.9-1.4c-0.9-0.1-1.6-0.7-2.6-0.1c-0.4,0.3-0.9,0.6-1.4,0.2c-0.4-0.4-0.4-1-0.2-1.6
			c0.2-0.6,0.6-1.2,1.2-1.5c0.5-0.3,0.8-0.6,0.9-1.2c0-0.6,0.1-1.2,0.9-1.2c0.8,0,0.7,0.7,0.7,1.1c0.1,0.8,0.5,1.2,1.2,0.6
			c0.4-0.4,0.8-1,1.4-0.5c0.6,0.5,1.4,1.2,1,2c-0.4,1,0.4,0.9,0.9,1.3c0.7,0.5,0.8,0.1,1.1-0.4c0.2-0.3,0.5-0.5,0.9-0.7
			c0.6-0.3,1.4-0.4,1.3-1.4c-0.1-1-0.9-0.9-1.6-1c-0.9-0.1-1.3-0.7-1.3-1.6c0-0.8,0.3-1.4,1.3-1.4c0.4,0,0.7-0.1,1-0.4
			c1.8-2.1,3.1-2.2,5.1-0.4c1.7,1.5,1.7,1.5,3.4,0.2c-0.1-0.1-0.2-0.2-0.4-0.2c-1.1,0-1.7-0.6-1.6-1.6c0.1-1.6,1.6-1.1,2.6-1.3
			c1-0.2,1.3,0.4,1.3,1.2c0,1.6,0.1,3.1,0.7,4.7c-0.3-0.9,0.3-1.3,0.9-1.7c1.2-0.9,1.2-1.8,0.1-2.8c-0.3-0.3-0.6-0.7-0.9-1.1
			c-1.2-1.6-2.5-3.1-4.9-2.3c-0.4,0.1-1,0.1-1.4,0.2c-1.2,0.1-2.5,0.6-3.5-0.6c-0.3-0.3-0.6,0.1-0.9,0
			C198.3,92.9,197.1,94.9,195.2,93.6z M188.7,150.2c0.3,1.6,0.1,2.5-1.5,2.4c-0.7,0-0.7,0.4-0.4,0.9c0.3,0.6,0.9,0.4,1.4,0.4
			c1.8-0.1,2.1,0.2,1.8,2c-0.2,1,0.5,1.9,1.1,2.4c0.5,0.4,1-0.5,1.4-1c0.8-0.9,2.4-0.9,3.4-0.2c1,0.8,2.4,1.3,2.9,2.7
			c0.1,0.2,0.3,0.3,0.6,0.4c2,0.4,3.5,0,4.7-1.8c1.1-1.5,2.4-3.3,4.4-3.7c2.2-0.4,3.5-1.5,4.2-3.5c0-0.1,0.1-0.1,0.2-0.2
			c2.3-2.4,3.4-5.4,3.7-8.6c0.1-0.9,0-1.9-0.5-2.7c-0.1-0.2-0.2-0.6-0.6-0.5c-0.4,0.1-0.4,0.3-0.4,0.6c0,1-0.6,1.7-1.2,2.5
			c-0.5,0.6-1.2,0.7-1.6,0.3c-1.1-1.1-1.3-0.5-1.7,0.5c-0.6,1.4-1.8,2-2.7,1.4c-2.1-1.3-2.3-2-1.2-3.6c0.4-0.5,1.1-1.5,0.9-1.6
			c-0.9-0.4-1.1,0.7-1.8,1c-0.1,0-0.2,0.2-0.2,0.4c-0.8,1.9-2.7,2.6-4.2,3.5c-1.5,0.9-1.6,0.7-0.5,2c0.4,0.4,0.9,0.9,0.6,1.6
			c-0.3,0.8-0.9,0.9-1.6,1c-0.7,0.1-1.3,0.2-2,0.2c-0.6,0-0.8,0.1-1,0.6c-0.5,1.3-1.1,1.3-2.2,0.4c-1.1-0.9-1.9-0.8-2.6,0.4
			C191.2,151.6,189.9,151.7,188.7,150.2z M179.6,94.7c-1.1,0.1-2.2,0.2-3.3,0.4c-0.7,0.1-1.8-0.2-2.1,0.5c-0.3,0.5,0.8,0.8,1.1,1.4
			c0.1,0.2,0.2,0.3,0.3,0.5c0.5,0.8,0.9,1.5,2.1,1.6c1.1,0.1,1.2,1.2,1.4,2c0.3,0.8-0.1,2-0.7,1.9c-1.9-0.1-2.4,1.1-3,2.3
			c-0.9,1.7-2.6,2.1-4.3,2.5c-0.1,0-0.3,0.1-0.4,0.2c-1.9,1.2-2.1,1.1-3.6-0.5c-0.8-0.8-1.4-1.7-2.5-2.2c-0.5-0.2-0.7-0.3-0.9,0.3
			c-0.4,1.1-0.7,2.3-2.4,2.1c-0.1,0-0.4,0.1-0.5,0.3c-0.6,1.2-1.9,1.7-2.8,2.6c-1.7,1.5-3.9,2.3-6.2,2.1c-1.3-0.1-1.9,0-2.5,1.2
			c-0.4,1-1.2,1.9-2.2,2.3c-0.7,0.2-1.3-0.6-1.9-1c-0.6-0.5-2.1-0.1-2.1,0.6c-0.1,1.4-1,2.2-1.9,3c-0.3,0.3-0.5,0.5-0.2,0.8
			c0.3,0.3,0.7,0.7,1.3,0.5c0.5-0.1,0.3-0.4,0.2-0.8c-0.2-0.6-0.2-1.3,0.6-1.5c0.7-0.2,0.9,0.3,1.2,0.9c0.7,1.7,2.8,2.6,3.9,1.4
			c1.1-1.2,2.3-2.4,2.5-4.2c0-0.4,0-0.8,0.4-1c0.4-0.2,0.8,0,1,0.2c0.7,1,0.9,0.3,1.2-0.3c0.3-0.6,0.4-1.6,1.3-1.5
			c1.8,0.1,3-1.1,4.5-1.6c0.7-0.3,1.1-0.7,1.3-1.4c0.3-1.1,0.9-1.1,1.8-0.4c1.9,1.6,1.9,1.6,3.8,0.1c0.9-0.7,1.7-0.7,2.5,0.2
			c0.2,0.3,0.5,0.6,0.8,0.8c0.7,0.8,1.3,0.7,1.5-0.3c0.3-1.1,0.9-1.1,1.7-0.7c1,0.4,2.2,0.3,3.2,1.1c-0.8-1.7-0.3-2.6,1.3-3.1
			c0.2,0,0.4-0.2,0.5-0.3c1.2-1.4,2.5-1.1,3.8-0.3c0.7,0.5,1.4,0.3,2.1,0c0.5-0.2,1.1-0.8,0.7-1.4c-0.2-0.4-0.8-0.9-1.4-0.1
			c-0.3,0.4-1.1,0.4-1.5-0.3c-0.5-1-0.9-2.3-0.2-3.2c0.9-1.2,1.3-2.5,1.5-4c0.2-1.3,1.9-2.2,3.1-1.4c0.8,0.5,1.2,0.6,1.9-0.1
			c0.5-0.5,1.6-0.3,1.8-1.5c-1.3,0.1-2.1-0.5-2.8-1.6c-0.5-0.8-1.2-1-2.3-0.6c-1.3,0.5-1.8,1.7-3.1,2.2c-0.5,0.2-0.9,0.9-1.5,0.5
			C178.9,95.8,179.7,95.3,179.6,94.7z M240.9,262.6c0.7-0.1,1.6-0.2,2.6-0.3c0.5-0.1,0.8-0.3,0.8-0.8c0-0.6-2.2-3.4-2.8-3.5
			c-2.3-0.2-3.1-1.9-3.8-3.6c-0.4-1-1-1.6-2.2-1c-0.5,0.3-1.2,0.1-1.2-0.2c0-1.6-1.9-1.5-2.3-2.6c-0.1-0.2-0.3-0.4-0.6-0.3
			c-0.4,0.2-0.3,0.5-0.1,0.7c1.2,1.3,0.2,2-0.7,2.9c-0.8,0.7-1.8,1-2.3,2.2c-0.7,2.2-0.6,4.3-0.1,6.5c0.5,1.9,1.9,3.3,3.7,2.6
			c2.5-1,5.5-0.2,7.7-2.1C239.8,262.7,240.2,262.8,240.9,262.6z M165.2,206.7c0,2.7,0.1,3,1.7,4.8c0.3,0.3,0.5,0.6,0.5,1
			c0.4,3.1,1.3,6,2.6,8.9c0.4,0.9,0.5,1.9,1.2,2.8c0.5,0.7,0.8,1.7,1,2.6c0.2,0.8,0.1,2.2,1.2,2.1c1-0.1,0.7-1.4,0.9-2.3
			c0-0.2,0-0.5-0.1-0.7c-1-3.4-1-6.9-1.1-10.4c0-1-0.8-2-0.3-2.9c0.8-1.7,0.6-3.1-0.5-4.6c-0.4-0.5-0.1-1.7-1.1-1.5
			c-0.7,0.2-1.7-0.1-2.2,0.4C167.7,208.1,166.6,207.5,165.2,206.7z M226.1,192.7c-0.8-0.6-1.6-0.7-2.3-0.4c-1,0.5-1.6,0.1-2.4-0.4
			c-1.4-0.9-2.4-2.3-4-2.9c-3.2-1.3-6.8-0.4-10.1-1.1c-1.5,1-3.4,0.9-4.9,1.9c-0.9,0.6-0.7,1-0.1,1.6c0.7,0.7,1,0.4,1.6-0.2
			c1.3-1.5,2.1-1.4,3.2,0.1c0.3,0.5,0.7,1,1.3,1.3c0.5,0.3,1,0.9,0.9,1.3c-0.2,0.9,0.3,1.5,0.6,2.1c0.2,0.4,0.4,1,0.9,0.9
			c0.7-0.1,0.4-0.8,0.5-1.2c0.5-1.7,1.7-2.6,3.1-2.2c0.8,0.3,1.7,0.7,2.2,1.3c1,1.4,1.9,0.7,2.7-0.1c0.6-0.6,1.2-0.7,1.8-0.1
			c0.7,0.6,1.3,0.5,1.6-0.4c0.4-1.3,1-2.3,2.7-1.5C225.5,192.9,225.7,192.8,226.1,192.7z M151.8,160.3c0.3,2.4,0.6,2.9,2,2.7
			c1.1-0.2,1.7,0.2,2,1.2c0.2,0.6,0.5,1.2,1.2,0.7c0.9-0.5,1.5-0.3,2.2,0.2c0.6,0.4,1.4,0.5,1.6-0.4c0.5-2.3,0.9-4.7,1.2-7
			c0.2-1.2-1-2.1-2.4-2.2c-0.8,0-1.6-0.3-2-1.1c-0.3-0.5-0.6-0.8-1.3-0.6c-0.3,0.1-0.7,0-1-0.2c-0.4-0.3-0.7-1-1.4-0.3
			c-0.5,0.4-1,0.8-1.1,1.4c-0.2,1-0.2,2.1-0.7,3C151.7,158.8,151.6,159.6,151.8,160.3z M165.2,230.2c-1.1-1.9-1.6-3.8-2.2-5.6
			c-0.5-1.7-1.1-3.5-3.6-3.2c-0.2,0-0.5-0.1-0.6-0.3c-0.4-1-0.9-0.4-1.3-0.1c-0.7,0.7-1.4,0.8-2.2,0.3c-0.4-0.3-0.8-0.2-1.2-0.2
			c-2,0.1-3.3,1.8-5.2,2c-0.1,0-0.3,0.3-0.4,0.4c-0.6,1-1.1,2.1-1.3,3.2c0.7,0.2,1.7-0.5,1.9,0.7c0.2,1.3-0.1,2.3-1.5,2.8
			c0.6,0.4,1.1,0.2,1.4-0.2c1.1-1.7,2.8-2.3,4.5-3.3c1.4-0.8,2.2-1.1,3.1,0.5c0.3-0.4,0.4-0.6,0.6-0.8c0.9-1.2,1.4-1.2,2.4,0
			c0.6,0.8,1.3,1.7,2.6,1.5c0.6-0.1,1,0.2,1,0.8C163.2,229.7,163.9,230.1,165.2,230.2z M144.4,187.4c0.5-0.3,0.9-0.3,1.2,0.2
			c0.5,0.9,1.2,1.8,0.7,2.9c-0.5,1,0.6,0.9,0.8,1.3c0.2,0.3,0.7,0.4,1.1,0.1c1.8-1.3,1.8-1.5,0.9-3.5c-0.9-1.9-1.4-3.9-2.8-5.6
			c-0.4-0.4,0.1-1.7-1.2-0.8c-0.3,0.2-0.6-0.1-0.8-0.4c-0.7-1.1-2-1.8-2-3.3c0-0.3-0.1-0.5-0.5-0.6c-1.5-0.2-3,0.8-3.5,2.2
			c-0.4,0.9-0.5,1.9-0.6,2.8c-0.4,2.1,1.2,4.7,3.3,5.1c0.1,0,0.3,0,0.4,0C142.3,187.1,143.3,187.2,144.4,187.4z M254.8,252.9
			c-0.2-0.5-0.4-1-0.7-1.4c-0.3-0.5-0.4-1-0.4-1.5c-0.2-1.6-0.9-1.9-2.2-0.8c-0.7,0.6-1.1,0.5-1.6-0.2c-0.2-0.3-0.5-0.6-0.7-0.9
			c-0.4-0.4-0.6-1-1.4-0.6c-0.7,0.4-1.2,0.7-1.1,1.6c0.1,0.5,0.4,1.1-0.3,1.4c-0.6,0.2-1.1,0-1.5-0.5c-0.4-0.5-1.1-0.4-1.3,0
			c-0.3,0.8-1,0.9-1.7,1.2c-1,0.3-1,0.8-0.2,1.4c2.1,1.6,4.2,3.3,6.3,4.9c0.5,0.4,1,0.4,1.7,0.1c1.7-0.8,2.7-2.3,4.3-3.2
			C254.5,254.2,254.8,253.5,254.8,252.9z M164,168.7c1.1-1.1,2-2.3,3.9-1.5c0.7,0.3,1.1-0.4,0.9-1.1c-0.2-0.5-0.2-1.2,0.2-1.3
			c1.2-0.3,2-1.4,3.4-1.3c1.3,0.1,3,0.4,3.7-1.3c0.5-1.2,1.2-1.1,2.1-0.5c0.5,0.4,0.8,0.6,1.1-0.3c0.6-1.8,0.6-1.9-1.3-2
			c-0.2,0-0.4,0-0.6-0.1c-0.7-0.5-1.3-0.3-1.9,0.3c-0.8,0.8-1.5,0.4-2-0.3c-0.2-0.3-0.2-0.7-0.6-0.9c-0.7-0.3-4.1,0.5-4.6,0.9
			c-1.1,0.9-2,2.1-3.2,2.7c-0.5,0.2-0.6,0.6-0.5,1c0.2,1.4,0.2,2.8-0.5,4.1C163.6,167.7,163.7,168.1,164,168.7z M161.7,192.7
			c0,0.4,0.1,0.7,0.1,1.1c0.1,0.4,0.3,0.6,0.7,0.3c1.1-0.9,2.5-0.8,3.8-1c0.8-0.1,1.3-0.3,1.7-1.1c0.3-0.8,1.2-1.2,2-0.9
			c0.9,0.4,1.9,0.3,2.7,0.9c0.7,0.5,1.1,0,1.1-0.5c-0.1-1,0.4-1.8,0.5-2.7c0.2-1.2-0.3-1.7-1.5-1.6c-0.5,0-1,0.2-1.4,0
			c-1-0.6-1.5-0.2-2.1,0.6c-1.2,1.6-1.8,1.5-3-0.3c-0.2-0.4-0.6-0.6-0.9-0.8c-0.7-0.4-1-0.9-1.1-1.7c0-0.5,0.1-1.2-0.7-1.2
			c-0.6,0-1.1,0.4-1.2,1.1C162.2,187.4,161.6,190,161.7,192.7z M196.6,210.8c-1,0.5-2.2,3.4-2,4.6c0.2,1.1,0.1,2.3,0,3.4
			c-0.2,1.7-0.2,3.4-0.2,5.1c0,0.7,0.5,1.3,1.2,0.8c1.4-1,3.4-0.8,4.5-2.3c0.3-0.4,0.8-0.7,1.2-0.9c1.7-1.1,2.1-2.8,2.7-4.5
			c0.2-0.5-0.3-0.8-0.7-0.9c-0.4-0.1-0.5,0.4-0.5,0.7c-0.1,0.6-0.5,0.8-1,0.8c-0.5,0.1-0.8-0.2-1-0.6c-0.3-0.6-0.7-0.8-1.4-0.8
			c-2.7-0.3-3.7-0.9-3-4.2C196.5,211.5,196.8,211.1,196.6,210.8z M180,186c0.2,1.8-0.7,3.4-0.4,5.2c0.1,0.9,0.2,1.9,1.8,1.1
			c1.4-0.6,1.1-0.9,0.3-1.7c-0.9-0.9-0.7-1.7,0.3-2.2c0.9-0.5,1.9-0.8,2.8-0.5c1.8,0.7,3.3,0.6,4.9-0.3c0.5-0.3,1-0.1,1.4,0.4
			c0.4,0.4,0.2,0.8-0.1,1.3c-0.3,0.4-0.7,0.7-0.6,1.3c1,0.1,1.3-0.5,1.4-1.3c0.1-0.5,0.1-1,0.5-1.2c1.4-0.7,1.2-2,1.5-3.1
			c0.1-0.5-0.3-1.5-0.8-1c-1.4,1.1-2.2-0.2-3.1-0.5c-1.2-0.4-1.2-1.6-0.1-2.3c0.4-0.3,0.9-0.4,1.4-0.6c-2.9,0.4-3.1,0.6-3.7,3.3
			c-0.2,0.9-0.9,1.6-1.6,1.1c-1.3-0.8-1.8,0.1-2.5,0.8C182.1,187.1,181.6,187.1,180,186z M159.3,210.8c-0.2-0.6,0.1-1.5-0.5-2
			c-1.3-1-2.4-2.5-4.5-2c-0.3,0.1-0.8,0-1.1-0.3c-0.4-0.4-0.8-0.5-1.3-0.2c-0.4,0.2-0.7,0.3-1-0.1c-0.3-0.4-0.4-0.7-0.3-1.2
			c0.3-0.8,0.9-1.7,1.7-1.8c1.1-0.2,1.6-1,2.4-1.6c0.7-0.5,0.5-0.8,0.1-1.4c-0.4-0.5-0.8-0.8-1.4-0.3c-1.2,1.1-2.4,1.1-3.8,0.3
			c-0.3-0.2-0.9-0.7-1.2-0.1c-0.4,0.8-1.7,1.3-1.1,2.4c0.7,1.4,1.4,3,2.5,4c2.3,2.1,4.1,4.8,7.3,5.6c0.7,0.2,1.3,1,2,0.6
			C159.8,212.3,159.1,211.5,159.3,210.8z M267.9,229c-0.4,0.3-1.2,0.2-1.5,0.9c-0.3,0.8,0.6,0.9,1,1.1c1.2,0.8,1.2,1.5,0.2,2.5
			c-0.3,0.3-0.5,0.7-0.9,0.9c-0.8,0.4-0.8,0.8-0.6,1.6c0.4,1.3,0.5,2.6-0.7,3.5c-0.8,0.6-1.5,1.3-2.1,2.1c-1.3,1.6-2.8,2.7-4.9,3
			c-0.7,0.1-1,0.6-0.8,1.2c0.1,0.6,0.6,1,1.3,0.7c0.9-0.3,1.8-0.7,2.5-1.3c2.6-1.9,4.8-4.3,7.2-6.3c1.1-0.9,1.8-2,2.2-3.6
			c0.4-1.9-0.4-3.6,0.1-5.4c0.2-0.5-0.4-0.8-0.9-0.9C269.3,229.1,268.7,229.1,267.9,229z M152.4,147.7c0.2-1-0.1-2.2,1.5-2.3
			c0.3,0,0.6-0.2,1-0.3c1.8-0.2,3.7-1.3,5.5,0.2c0.3,0.2,0.6,0.3,0.9-0.1c0.5-0.8,1-1.6,0.1-2.5c-0.4-0.4-0.6-0.9-0.7-1.5
			c0-0.5,0.7-1.2-0.3-1.5c-0.8-0.2-1.6-0.7-2.3,0.2c-0.3,0.3-0.9,0.4-1.2,0.6c-1.3,0.9-3.4,0.8-3.7,3c0,0.4-0.6,0.6-1,0.6
			c-0.6,0.1-0.7-0.4-0.8-0.8c-0.1-0.6-0.2-1.2-1.1-0.9c-0.7,0.2-0.7,0.9-0.6,1.4c0.3,0.8,0.3,1.6,0.5,2.5c0.1,1.1,0.2,2.1,0.4,3.2
			c0.1,0.6,0.3,1,1.2,0.6C153.2,149.4,152.9,148.6,152.4,147.7z M182.3,289.7c0,0.4,0,0.7,0.1,1c0.7,1.2,1,2.4,0.8,3.8
			c-0.1,0.4,0.1,0.8,0.2,1.2c0.4,1.4,0.5,2.8-0.2,4.2c-0.3,0.5-0.2,1,0,1.5c0.4,1.7,1,3.4,0.9,5.2c0,0.4,0.3,0.9,0.4,1.3
			c0.1,0.3,0.3,0.5,0.6,0.5c0.4,0,0.4-0.4,0.3-0.6c0-0.2-0.1-0.5-0.1-0.7c0-0.6-0.5-1.5,0.5-1.6c0.7-0.1,0.8,0.9,0.9,1.5
			c0.1,0.3,0.1,0.7,0.1,1c0,0.6,0.2,1,0.8,1.3c0.9,0.5,1.1,1.3,1,2.3c-0.1,1.1-0.3,2.2,0.2,3.3c0.1-0.2,0.1-0.4,0.1-0.6
			c1.1-2.1,0.6-4.5-0.3-6.2c-0.8-1.6-1.5-3.1-1.9-4.7c-0.1-0.4-0.3-0.9-1-0.4c-0.6,0.3-0.9-0.2-1-0.8c-0.2-1.3,0-2.6,0.3-3.9
			c0.3-1.3,0.9-2.7,0.7-4c-0.2-1.9,0.5-3.7,0-5.6c-0.1-0.4,0.7-1.1-0.2-1.1c-0.8-0.1-0.5,0.7-0.5,1.2c0,0.3,0.1,0.6,0,0.8
			c-0.3,0.8-0.7,1.4-1.6,0.9C183.1,290.2,182.8,290,182.3,289.7z M186.3,211.3c0.2-1-0.1-2.1-1-2.3c-1.2-0.2-2.5,0.1-3.8,0.2
			c-0.1,0-0.1,0.2-0.1,0.2c0.1,1.3-0.8,2.6-0.2,4c0.8,1.8,1.1,3.6,0.5,5.5c-0.3,0.9-0.1,2.2,0.6,3.1c0.4,0.5,0.6,0.7,0.9-0.1
			c0.5-1.1,0.8-2.1,0.7-3.4c-0.1-1-0.1-2.2,0.8-3.1C186.1,214.3,186.8,213,186.3,211.3z M195.1,303c0,0.3-0.1,0.4-0.1,0.5
			c0.2,0.5,0.5,0.9-0.2,1.3c-0.6,0.4-1.3,0.5-1.9,0.2c-0.5-0.3-0.7-0.8-0.5-1.3c0.3-1,0.1-1.8-0.5-2.6c-0.4-0.6-0.6-1.4-0.6-2.1
			c-0.3-2.8-0.5-5.6-0.4-8.4c0-0.6-0.3-1-0.7-1.3c-0.1-0.1-0.5-0.1-0.5,0c-0.3,0.4-0.4,0.9-0.2,1.3c0.4,1.1,0.3,2.2,0.3,3.3
			c0,1.2,0.4,2.6-0.3,3.7c-0.5,0.7-0.4,1.4-0.4,2.1c0.1,1.8,0.9,3.3,2.2,4.5c1.3,1.2,1.5,2.5,0.8,4.1c-0.2,0.5-0.3,1-0.4,1.5
			c-0.1,0.3-0.3,0.7,0,1.1c0.2,0.2,0.3,0.1,0.5,0c0.4-0.3,0.6-0.6,0.5-1.1c-0.3-1.2,0.3-2.3,0.7-3.4c0.3-0.9,0.8-1,1.6-0.5
			c1.2,0.6,1.1,1.7,1.3,2.8c0.1,0.4,0.1,0.9,0.7,0.6c0.5-0.2,0.1-0.6,0-0.8c-0.6-1.2-1-2.5-1.1-3.9
			C195.8,304.1,195.5,303.6,195.1,303z M208.6,126.9c0,0.7,0.3,1.1,0.1,1.7c-0.8,2.1,0.6,3.9,2.8,3.9c0.4,0,0.9-0.1,1.3-0.1
			c0.9-0.1,1.8-0.2,2.8,0.3c0.9,0.5,2.1-0.1,2-1.2c0-1.4,0.5-2.6,0.7-4c0.1-0.7,0-1.3-0.8-1.4c-0.7-0.1-1.6-0.2-1.7,0.8
			c-0.2,1.3-1.1,1.6-2.2,1.6c-0.9,0-1.4,0.4-1.9,1c-0.3,0.4-0.5,1-1.2,0.8c-0.7-0.2-0.5-0.8-0.6-1.3
			C209.7,128.2,209.7,127.3,208.6,126.9z M126.5,150.9c-0.2-0.3-0.4-0.6-0.6-1c-0.2-0.4-0.3-0.9-0.6-1.3c-0.5-1.1-2-1.5-3-0.8
			c-2.6,1.6-2.8,1.5-4.7-0.9c-0.3-0.3-0.6-0.5-1-0.3c-0.3,0.1-0.5,0.4-0.4,0.6c0.6,0.7,0.4,1.9,1.3,2.3c1,0.5,1,1.4,0.7,2
			c-0.6,1-0.2,2.4-1.6,3c-0.4,0.2-0.5,0.8-0.2,1.3c0.5,0.9,1.4,0.8,2.2,1.1c0.5,0.1,0.6-0.4,0.7-0.7c0.4-0.7-0.3-1-0.6-1.4
			c-0.8-1.4-0.4-2.3,1.2-2.2c0.8,0,0.8-0.4,0.9-0.9c0.4-1.3,1.1-1.5,2.1-0.5c0.4,0.4,0.7,0.2,1,0.2
			C124.9,151.1,125.7,151,126.5,150.9z M208.5,227c0.7,0.3,1.2,0.6,1.5,1.1c0.1,0.3,0.3,0.7,0.7,0.3c0.7-0.6,1.7-0.3,2.6-0.8
			c0.8-0.4,1.3,0.1,1.7,0.8c0.2,0.3,0,0.9,0.5,0.8c0.4,0,0.6-0.5,0.7-0.8c0.5-1.2,1.2-1.1,2.1-0.3c0.3,0.3,0.7,0.5,1,0.8
			c0.9,0.8,2.6,1.2,3.7,0.8c0.1,0,0.1-0.1,0.3-0.3c-1.8-1.2-4-1.9-5.9-2.9C214.4,225,211.5,225.5,208.5,227z M223,148.1
			c-1.2-0.9-1.5-1.4-1.1-2.3c0.3-0.7,0.4-1.3,0.5-2c0.2-2.4,1.8-3.8,4.2-3.9c0.5,0,0.7-0.3,0.9-0.6c0.3-0.4-0.1-0.5-0.4-0.8
			c-0.7-0.6-1.7-0.4-2.4-0.8c-1.4-0.9-1.6,0.1-2.2,0.9c-1.4,1.8-1.3,3.9-1.7,5.9c-0.2,1.3-0.7,2.6-0.8,3.9
			C221,148.3,221.9,148.2,223,148.1z M204.2,295.1c-0.6,1.2-1.6,1.6-2.6,1.5c-1.5,0-2.4,1-3.4,1.6c-2,1.2,0.4,2.1,0.5,3.2
			c0,0.2,0.1,0.3,0.2,0.5c0.2,0.8,0.7,0.8,1.3,0.4c0.9-0.4,1.4-1.2,1.8-2.1c0.5-0.9,0.6-2.4,2.5-1.7c0.7,0.3,1-0.7,0.6-1.1
			C204.4,296.9,204.4,296.1,204.2,295.1z M127.6,179.6c0.5,1.1,0,2.9,2.2,2.6c0.2,0,0.5,0.2,0.6,0.4c0.7,0.9,1.7,0.8,2.7,1.1
			c0.6,0.2,1-0.1,1-0.6c0.2-1.2,0.4-2.5,0.5-3.7c0.1-0.8-0.5-1.5-1.1-1.4c-1.1,0.2-2.5,0.4-3.1,1.2
			C129.5,180.3,128.8,180.5,127.6,179.6z M118.5,228.8c0.7-0.4,0.8-1,1.1-1.5c0.6-1.5,1.2-1.9,2.8-1.6c1.1,0.2,2.3,0.3,3.4-0.2
			c1-0.5,1.6-0.2,2,0.7c0.3,0.6,0.8,0.7,1.1,0.3c0.5-1,1.4-1.3,2.2-1.8c0.5-0.3,0.7-0.8,0-0.9c-1.1-0.2-2.2-0.9-3.5-0.3
			c-0.4,0.2-0.9,0.5-1.5,0.4c-2.3-0.5-4,1.4-6.1,1.6c-0.4,0-0.7,0.6-0.7,1C119.2,227.2,118.9,228,118.5,228.8z M313.4,225
			c-1.4-0.8-1.9-2.6-3.4-3.4c-0.3-0.2-0.7-0.7-1.2-0.1c-0.5,0.6-1.7,0-1.9,0.7c-0.3,0.8,0.9,1,1.2,1.7c0,0,0.1,0.1,0.1,0.1
			c0,1.8,1,2.7,2.7,2.8c0,0,0.1,0.1,0.1,0.1c0.5,0.3,0.9,0.3,1.3-0.1C312.9,226.3,313.4,225.8,313.4,225z M275.1,228.5
			c-0.2,1.2-0.4,2.3-0.9,3.3c-0.5,1-0.3,2,0.4,2.7c0.7,0.7,1.7,0.3,2.4-0.1c0.6-0.3,1.8-0.6,1.4-1.5c-0.3-0.7-0.4-1.3-0.1-1.9
			c0.2-0.5,0.2-1-0.3-1.3c-0.5,0.3-0.3,0.6-0.3,0.9c0,0.5-0.1,0.9-0.7,0.9c-0.6-0.1-1.1-0.7-0.9-1.1
			C277.1,229,275.6,229.1,275.1,228.5z M168.2,139.5c-0.8,0.2-1.6,0.4-2.4,0.6c0.2,0.6,0.3,1.1,0.5,1.7c0.3,1-0.1,1.5-1.1,1.2
			c-0.6-0.2-0.8-0.1-0.7,0.5c0.1,0.4-0.2,0.9,0.7,0.9c1.3,0,2.2-1.2,3.4-0.9c1.3,0.3,1.5-0.4,1.3-1.4c0-0.3-0.1-0.6,0-0.8
			c0.3-1.7,0.3-1.7-1.5-1.7C168.3,139.5,168.3,139.5,168.2,139.5z M182.7,333.4c0-1.1,0.9-2.1,0.1-2.9c-0.8-0.8-0.7-1.7-0.3-2.4
			c0.6-1,0.6-2.1,1.1-3c0.4-0.7-0.9-3.4-1.3-3.1c-1.1,0.8-1.5,0-2.2-0.5c-0.3-0.2-0.5-0.5-0.8-0.2c-0.3,0.3-0.3,0.7,0,1
			c0.3,0.4,0.7,0.4,1.1,0.5c0.6,0.1,1.5,0.2,1.6,0.7c0.2,1.4,1.1,2.9-0.2,4.2c-0.3,0.3-0.7,0.7-0.3,1.1c0.7,0.7,0.6,1.4,0.6,2.2
			c0,1.1-1.3,0.6-1.9,1.2C181,333,181.9,332.8,182.7,333.4z M230.6,229.4c0.2-0.8-0.1-1.4-0.9-1.2c-0.7,0.2-1.4,0.3-2.1,0.4
			c-0.3,0.1-0.6,0.3-0.5,0.5c0.4,0.9,0.1,2.1,1.2,2.6c0.9,0.4,1,1.1,0.9,1.8c0,0.4-0.4,1.1,0.3,1.1c0.8,0,0.8-0.7,0.7-1.3
			c-0.1-0.6-0.3-1.4,0.3-1.7c0.9-0.5,0.9-0.9,0.3-1.6C230.6,230,230.7,229.6,230.6,229.4z M234,216.7c-0.3-0.7-0.9-0.7-1.4-0.6
			c-1,0.2-1.8,0.1-2.5-0.8c-0.6-0.8-1.4-0.6-2,0.2c-0.5,0.6-0.9,1.2-1.7,1.4c-0.5,0.2-1.1,2.1-0.8,2.2c0.8,0.2,1.4,0,2.1-0.5
			c1.5-1.1,2.8-2.7,5.1-1.4C233.1,217.4,233.8,217.4,234,216.7z M150.9,174.1c-0.3-0.7,0.2-1.7-0.9-1.9c-1.2-0.2-0.9,0.9-1.3,1.4
			c-0.8,1.2-1,2.9-2.8,3.3c-0.4,0.1-0.9,0-1,0.6c-0.1,0.3,0.2,0.5,0.4,0.7c0.4,0.2,0.9,0.3,1.3,0c0.4-0.3,0.8-0.7,1.2-1
			c0.8-0.6,1.2-1.8,2.6-1.1c0.3,0.2,0.5-0.3,0.5-0.6C151,175,150.9,174.5,150.9,174.1z M243.9,234.5c1-0.4,2-0.5,3-0.7
			c0.9-0.2,1-1.1,1-1.8c0-0.6-0.7-0.9-1.2-1.1c-0.3-0.2-0.5,0.1-0.6,0.4c-0.7,1.4-1.8,1.7-3.2,1.1c-0.5-0.2-1.1-0.3-1.4,0.5
			c-0.2,0.8,0.1,1.2,0.8,1.4C242.8,234.4,243.4,234.6,243.9,234.5z M180.4,148c-0.5,1.4-1,2.6-1.5,3.8c-0.7,2-0.6,2.4,1.6,3.7
			C181,153.1,181.8,150.7,180.4,148z M220.8,132.9c1.9-1.2,2-1.4,2.3-3.4c0.2-1,0.2-2,1-2.8c0.4-0.4,0.3-0.8-0.3-0.9
			c-1.5-0.2-2.9,1.2-2.4,2.6c0.3,1,0.2,1.8-0.2,2.7C220.9,131.6,220.7,132.2,220.8,132.9z M205.8,129.2c0.2-0.1,0.4-0.1,0.5-0.2
			c0.2-0.3-0.1-0.5-0.3-0.7c-0.8-0.7-1.1-1.5-0.7-2.5c0.1-0.3,0.2-0.6-0.1-0.7c-0.4-0.2-0.6,0.1-0.8,0.4c-0.4,0.6-0.8,1.2-1.3,1.8
			c-0.8,0.9-2.9,1-3.5,0.2c-0.2-0.2,0-0.8-0.5-0.7c-0.2,0-0.4,0.3-0.4,0.5c-0.1,0.5,0.2,0.6,0.6,0.8c1,0.4,2,1,3.2,0.5
			c0.8-0.3,1.7-0.2,2.4,0.4C205.2,129,205.5,129.1,205.8,129.2z M101.5,156.7c1.7-1.6,1.7-1.5,4-1.1c1.2,0.2,2.4-0.3,3.5-0.9
			c0.4-0.2,0.3-0.7,0.1-1c-0.1-0.2-0.4-0.3-0.6-0.1c-0.8,1-1.7,0.9-2.8,0.4c-0.5-0.2-1.1-0.2-1.6-0.3
			C102.6,153.5,101.8,154.4,101.5,156.7z M188.1,125.6c1.7-1.5,3.6-1.8,5.4-0.7c0.3,0.2,0.7,0.7,1.1,0.1c0.3-0.5,0.5-1.1-0.3-1.4
			c-0.6-0.3-1.2-0.4-1.6-0.9c-0.6-0.9-1.4-0.6-2-0.2C189.5,123.2,188.5,124.3,188.1,125.6z M195.5,325.5c0,1.2,1,1.8,1.8,2.2
			c0.7,0.4,0.7-0.6,0.9-1.2c0-0.1,0.1-0.1,0.2-0.2c1.2-0.5,0.7-1.4,0.4-2.1c-0.3-0.5-1.1-1.3-1.5-0.9
			C196.6,324.1,195.2,324.2,195.5,325.5z M154.8,126.6c0,0.5,0.2,1.2,0.7,1.3c1,0.3,2,0.4,3,0.5c0.4,0,0.6-0.3,0.4-0.7
			c-0.6-1.1-0.6-2.5-2.4-2.6C155.3,125.1,154.7,125.4,154.8,126.6z M131.7,167.5c-0.4,0.2-1.1-0.1-1.2,0.3c-0.2,0.7,0.6,0.3,0.9,0.5
			c0.4,0.3,0.7,0.6,0.6,1.1c-0.1,0.4-0.1,0.9-0.3,1.2c-0.6,1,0.4,1.3,0.8,1.4c0.6,0.2,0.6-0.5,0.7-0.9c0.2-0.6,0.3-1.3,0.8-1.8
			c0.7-0.7,0.4-1.6,0.1-2.2c-0.4-0.9-0.9,0.2-1.4,0.2C132.3,167.4,131.9,167.4,131.7,167.5z M220.5,106.6c-0.5,0.5-0.7,1.2-1.6,1.3
			c-0.9,0-1.4-0.9-0.9-1.8c0.3-0.4,0.5-0.9,0.1-1.3c-0.2-0.3-0.6-0.3-1-0.2c-0.7,0.2-0.2,0.7-0.3,1c-0.6,1.4,0.6,2.6,0.3,4
			c0.8-0.5,1.5-1.3,2.6-1c0.4,0.1,0.7-0.2,0.7-0.7C220.5,107.6,220.5,107.1,220.5,106.6z M184.2,162.1c0.6-1.4,2.2-0.9,3.2-1.5
			c0.5-0.3,0.9-0.9,0.7-1.6c-0.1-0.6-0.5-0.8-0.8-0.3c-0.6,0.9-1.3,0.7-2.1,0.3c-0.3-0.2-1.1-0.5-1,0.1c0.2,1-1,1.8-0.4,2.8
			C183.8,162.1,184,162.1,184.2,162.1z M144.4,203.3c-0.6-1-1.1-2.1-1.8-2.9c-0.6-0.7-1.3,0.3-2,0.2c-0.2,0-0.4,0-0.6,0
			c-0.3,0-0.7-0.1-0.8,0.3c-0.1,0.4,0.3,0.4,0.5,0.5C141,202.5,142.8,202.4,144.4,203.3z M201.3,289.9c0.3,0.9,1.2,0.9,1.8,1.2
			c0.5,0.2,0.7,0.5,0.6,1c-0.1,0.4-0.3,0.7-0.7,0.7c-0.3,0.1-0.7,0.1-1,0.2c-0.4,0.1-0.6,0.3-0.6,0.7c0,0.3,0,0.6,0.4,0.7
			c0.4,0.1,0.6-0.1,0.9-0.4c0.7-0.9,1.5-1.7,2.4-2.4c0.3-0.2,0.6-0.5,0.1-0.7C204,290.3,202.9,289.5,201.3,289.9z M250.4,174.8
			c0.8,0.4,1.8,0.6,1.9,1.7c0,0.4,0.4,0.5,0.8,0.5c0.7,0,1.3-0.2,1.4-0.9c0.1-0.7,0.3-1.6-0.5-2c-0.6-0.4-1.3-0.4-1.8,0.2
			C251.7,174.9,251.1,174.8,250.4,174.8z M147.8,243.3c-0.2,0.5,0,1.1,0.4,1.1c0.4,0,0.8-0.6,1-1c0.2-0.3,0.8-0.8,0.4-1.1
			c-0.8-0.6-0.9-2.2-2.5-1.9c-0.3,0.1-0.7-0.4-0.9,0.1c-0.2,0.4,0,0.8,0.4,0.9C147.6,241.9,147.7,242.6,147.8,243.3z M157.4,184.7
			c-0.2-0.5-0.2-1.2-0.7-0.8c-0.6,0.5-2.1-0.1-1.9,1.3c0.1,0.8,1.6,2.5,2,2.3C158,186.8,156.8,185.6,157.4,184.7z M257.8,180.9
			c0.1-1.1-0.6-1.7-1.4-2.1c-0.3-0.2-1.4,1.9-1.1,2.5c0.5,0.9,1.6,0.2,2.4,0.6C258,182.2,257.7,181.3,257.8,180.9z"/>
		<path style="fill:#872321;" d="M236.6,108.6c-0.2,1-0.6,1.8-1.6,1.6c-1.1-0.2-1.1-1.1-0.8-2.2c-1,0.2-1.5,0.9-2.1,1.4
			c-0.9,0.7-1.7,0.5-1.8-0.6c-0.1-1.8-1.2-2.8-2.6-3.6c-0.4-0.2-0.8-0.4-1.1-0.7c-0.6-0.6-0.9-1.4-0.1-2c1-0.8,2.3-1,3.4-1.5
			c1.9-0.7,3.5,0.1,5.2,0.4c0.3,0.1,0.7,0.1,0.8,0.4c0.5,1.5,1.6,2.3,3.1,2.5c0,0,0.1,0,0.1,0c1.3,1.9,3.7,2.2,5.4,3.6
			c0.8,0.6,0.8,1.3,0.7,2.1c-0.1,0.5-0.4,0.9-1,0.9c-0.8,0-1.4,0-1.8-0.9c-0.4-0.8-1.6-0.7-2.5-0.4
			C237.9,110.5,237.9,110.5,236.6,108.6z"/>
		<path style="fill:#872321;" d="M317.9,236.4c0,1.8-1.7,2.2-2.8,3.2c-0.9,0.8-1.8,0.1-1.9-1c0-0.3-0.3-0.7-0.4-0.6
			c-0.8,0.5-2,0.2-2.6,1.2c-0.8,1.2-1.3,1.3-2.4,0.3c-0.3-0.3-0.5-0.3-0.8-0.3c-1.4,0.2-2.4-0.9-2.8-2.8c-0.2-1,0.6-1.5,1.9-2.1
			c1.6-0.6,3,0.3,4.4,0.3c0.6,0,1,0.4,1.7-0.1c0.5-0.4,1,0.2,1.5,0.5c0.4,0.3,0.7,0.4,1.1-0.2c0.6-1,1.7-1.4,2.9-1.5
			c0.4,0,0.9,0,1.1,0.3c0.7,1.3,1.6,1.4,2.9,1c0.8-0.2,1.6,0.6,1.9,1.2c0.3,0.7-0.1,1.3-0.9,1.6c-0.5,0.2-0.8,0.6-1.3,0.8
			c-1.9,0.8-2.3,0.6-2.9-1.3C318.3,236.7,318.3,236.4,317.9,236.4z"/>
		<path style="fill:#872321;" d="M141.5,103c-0.5,0.2-1,0.4-1.5,0.5c-0.8,0.2-1.6,0.4-2.5-0.1c-1.4-0.8-2.4-0.2-3,1.3
			c-0.4,1.1-0.7,2.2-2.2,2.3c-0.7,0.1-0.6,0.7-0.9,1.2c-0.3,0.6-0.6,1.2-1.4,0.9c-0.7-0.3-1.1-0.9-0.7-1.7c0.2-0.4,0.2-0.9,0.6-1.3
			c0.6-0.6,1.4-1.2,0.8-2.2c-0.1-0.2,0.1-0.6,0.3-0.7c1.8-1.4,3.3-3.2,4.8-4.9c0.5-0.5,1.1-0.7,1.8-0.5c0.2,0.1,0.4,0.3,0.5,0.2
			c1.9-0.5,2.7,0.4,2.8,2.2c0,0.4,0.4,0.5,0.8,0.7c0.6,0.2,1.4,0.5,1.3,1.2C142.9,102.9,142.4,103.4,141.5,103z"/>
		<path style="fill:#872321;" d="M149.1,90.4c0.9,0.3,1.6,0.1,2.1-0.9c0.2-0.4,0.7-0.4,1.1-0.1c0.4,0.3,1.4,2.7,1.2,3.1
			c-0.1,0.5-0.4,0.7-0.9,0.7c-0.2,0-0.4-0.2-0.5-0.2c-0.4,0-0.6,0.4-0.9,0.7c0,0.1,0,0.3,0.1,0.3c0.3,0.2,0.7,0.2,0.9,0
			c1.1-0.9,1.7-0.3,2.3,0.5c0.4,0.6,0.9,0.3,1.4,0.1c0.7-0.3,1.2,0,1.6,0.5c0.5,0.5,0.2,0.9-0.2,1.3c-0.3,0.3-0.4,0.6-0.2,1
			c0.3,0.7-0.2,1.4-0.5,2c-0.5,0.9-1.7,1-2.2,0.1c-0.5-0.8-1.1-1-1.9-0.6c-1.1,0.5-1.6,0-1.8-1c-0.2-1-0.5-1.9-0.6-2.9
			c-0.1-0.8-0.8-0.9-1.4-1.2c-0.8-0.4-1.4-1-1.1-2C147.8,91.2,148.1,90.5,149.1,90.4z"/>
		<path style="fill:#872321;" d="M164.6,91.2c0,0.4,0.1,0.8,0.1,1.2c0,0.4-0.3,0.7-0.6,0.9c-0.4,0.2-0.8,0.2-1-0.1
			c-0.4-0.7-1-0.5-1.6-0.6c-0.8-0.2-1.3-0.1-1.6,0.8c-0.2,0.7-1.2,1.1-1.6,0.4c-0.7-1.2-2-1.3-3-1.9c-0.8-0.4-1.3-1-1.1-1.8
			c0.2-0.8,0.8-1.2,1.8-1.2c1.1,0,2.3,0.3,3.4-0.5c0.6-0.4,1.7-0.5,2.4,0.2c0.2,0.2,0.5,0.3,0.8,0.3
			C164.3,88.9,164.7,89.9,164.6,91.2z"/>
		<path style="fill:#872321;" d="M149.6,97.2c0.1,1-0.4,1.1-1.1,0.8c-0.8-0.4-1.4-0.5-2,0.3c-0.3,0.4-1,0.5-1.3,0.2
			c-0.6-0.4-1.2-0.3-1.9-0.2c-0.9,0.1-1.3-0.4-1.2-1.3c0.2-1.3,2.1-3.1,3.2-3.3c1.1-0.2,2.9,0.9,3.4,2.1
			C149.1,96.3,149.6,96.6,149.6,97.2z"/>
		<path style="fill:#872321;" d="M242.3,111.5c-0.4,1.2-0.2,2.2,0.5,3.3c0.3,0.5,0,1.4-0.7,1.6c-0.7,0.3-1.2-0.2-1.5-0.8
			c-0.1-0.2-0.1-0.5-0.2-0.5c-2.1-1.1-1-2.5-0.4-3.8c0.3-0.5,0.5-1,1.2-1C242.1,110.3,242,111.1,242.3,111.5z"/>
		<path style="fill:#872321;" d="M185.2,125.1c0.1,1,0,1.6-1,1c-0.6-0.3-0.8-0.2-0.9,0.5c-0.1,0.6-0.6,0.9-1.4,1
			c-1.2,0-2.3,0.4-2.7,1.8c-0.1,0.3-0.2,0.5-0.5,0.7c-2.5,2-4.7,4.5-8.4,4c-0.3,0-0.7,0.2-1.1,0.3c-0.4,0.1-0.8,0.7-1.3,0.2
			c-0.4-0.3-0.4-0.9-0.2-1.3c0.7-1.7,1.1-3.5,2.1-5c0.6-0.9,1.7-0.8,2.6-0.4c1.6,0.7,2.1,0.6,2.9-1c1.3-2.5,3.5-3.3,6.2-2.3
			c0.3,0.1,0.8,0.5,0.8-0.2c0.1-0.7,0.1-1.3,1-1.4c1-0.1,1.2,0.7,1.6,1.4C185,124.7,185.1,125,185.2,125.1z"/>
		<path style="fill:#872321;" d="M197.8,115.4c-0.6-0.1-1.1,0.3-1.6,0.5c-0.8,0.2-1.6,0.2-2.1-0.7c-0.5-0.9,0.2-1.3,0.9-1.7
			c1.1-0.6,2.2-0.9,3.4-0.2c0.5,0.3,1.4,0.4,1.1,1.2C199.3,115.2,198.6,115.5,197.8,115.4z"/>
	</g>
</g>
<g>
</g>
<g>
</g>
<g>
</g>
<g>
</g>
<g>
</g>
<g>
</g>
<g>
</g>
<g>
</g>
<g>
</g>
<g>
</g>
<g>
</g>
<g>
</g>
<g>
</g>
<g>
</g>
<g>
</g>
</svg>
