<svg xmlns="http://www.w3.org/2000/svg" width="410" height="349" viewBox="0 0 410.1 349.2" style="enable-background:new 0 0 410.1 349.2"><g id="0"><g><path d="m283 57c.6-1.3 1.4-2.7 1.7-4.2.1-.6.2-1.3.3-1.9.1-.7.5-1.5.3-2.1-.1-.3-.2-1.1-.5-1.3-.4-.3-1-.5-1.4-.7-1.4-.7-2.9-1.4-4.3-2.1-.5-.3-1.1-.6-1.6-.7-.7-.2-1.1.3-1.5.8-.5.5-1 .9-1.5 1.4-.6.5-.9 1.4-1.3 2.1-.3.5-.1 1.1-.1 1.6.1.6 0 1.4.4 1.9.3.4.7.7 1 1.1.4.5.3 1.2.2 1.8 0 .3.1 1-.2 1.1-.3.1-.7.1-1 .2-1.2.2-1.6.1-2.6-.5-1.4-.8-2.8-1.5-4.2-2.3-1.4-.8-2.9-1.8-4.4-2.3-1.3-.5-2.7-.7-4-1.1-1.6-.5-3.1-1-4.7-1.4-1.4-.4-2.9-.7-4.4-1-1.1-.2-2.4-.2-3.3-1.1-.7-.7-1-1-.5-1.8.9-1.2 1.9-1.7 3.2-2.3.4-.2 1-.4 1.4-.6.4-.3.5-1.2.6-1.7.4-1.6.8-3.2 1.1-4.8.7-3.2 1.4-6.3 1.9-9.5.1-.5.9-3.3.4-3.5-.5-.2-2.2 3-2.5 3.5-1.7 2.7-3.4 5.5-5.1 8.3-.8 1.3-1.6 2.6-2.5 3.9-.9 1.3-1.9 2.6-2.5 4.1-.2.6-.4.9-1 1.1-.6.3-1.3.5-1.9.9-.7.4-.8.1-1.3-.5-.4-.6-.8-1-.9-1.7-.2-2.8-.4-5.7-.7-8.5-.3-2.7-.6-5.4-.9-8.1-.3-2.7-.6-5.5-1.3-8.2-1.8 4.8-2.9 9.9-4.2 14.9-.3 1.2-.5 2.3-.7 3.5 0 .4-.4 1.8-.1 2.1.4.5.8 1 1.3 1.4.2.2.6.2.9.3.4.1.5.8.7 1.2.3.6.6 1.3.9 1.9-.6.2-1.3.4-1.9.7-.6.3-.9.2-1.5 0-1.5-.4-3-.9-4.5-1.2-1.3-.3-2.8-.7-4.2-.7-1.6.1-3.2.6-4.9.7-3.2.2-6.5-.1-9.7 0-1.4 0-2.7-.3-4.1-.5-1.4-.2-3.2-.2-4.6 0-1.5.2-3 .5-4.4.7-.6.1-.8.2-1.3-.2-.4-.3-.8-.6-1.2-.9-1.2-.7-1.7-1.5-2.4-2.7-.8-1.5-1.7-2.9-2.5-4.4-.7-1.3-1.5-2.6-2.3-3.9-.8-1.2-1.4-2.6-2.4-3.7-.4-.5-1.2-1.4-1.9-1.5-.4-.1-.2 3.3-.1 3.7.2 1.4.5 2.8.8 4.2.2 1 0 2.4.6 3.3.8 1.2 2.2 2.2 3.2 3.2.6.6 1.6 1.1 2 1.7.2.4-1 1.4-1.2 1.7-.4.6-.7.6-1.3.7-.9.2-1.8.3-2.7.5-3.2.6-6.3 1.1-9.5 1.4-.6.1-1.2.2-1.8.3-.5 0-1-.4-1.4-.7-.2-.1-.9-.4-.9-.7.1-.7.4-1.4.6-2 .3-.9 1.4-1 2-1.5 1.2-.9.6-2.7.5-4-.7-6.5-1.7-13-2.5-19.5-.2-1.2-.4-2.5-.6-3.7-.2-1.1-.3-2.5-.7-3.5-.3-.7-1.2-.8-1.8-1.1-1-.6-1.9-2-2.7-2.8 1.1-.7 2-1.6 3.3-1.8 1.4-.2 3-.2 4.4-.3 3.1-.2 6-1 9.1-1.5 1.4-.3 2.8-.1 4.3.1 1.7.2 3.3.3 5 .5 1 .1 2-.2 2.6.7 1 1.3 2.1 2.4 2.5 4 .4 1.4.9 2.7.9 4.1 0 1.5-.1 2.4-.9 3.7-.8 1.2-1.5 2.4-2.3 3.6-.5.7-1.6 2.2-1 3.1 1.8 2.5 3.6 5.1 5.3 7.7.8 1.3 1.6 2.6 2.5 3.8.6.9 1.5 2.7 2.6 2.8 1.4.1 2.8.5 4.1.7.5.1 1.3-1.2 1.5-1.5.3-.4.2-.9.3-1.4.1-.7.2-1.5.3-2.2.2-1.6.2-3.3.2-4.9-.1-3.2.1-6.4.3-9.6.1-1.5.3-3 .3-4.5 0-1.6-.3-3.2-.4-4.8 0-.8.2-2-.4-2.6-.5-.5-1-1.1-1.6-1.5-.4-.3-1.1-.3-1.4-.7-.2-.4-.8-1.7-.4-2 .3-.3.6-.6.9-.9.5-.5.8-.4 1.5-.3 3.2.3 6.4.6 9.6.6 1.4 0 3-.2 4.4 0 .7.1 1.3.4 2 .6.4.1 0 .9-.1 1.2-.1.3-.1.7-.2 1-.1.6-.4.6-.9.9-.9.4-2.5.9-2.8 2-.4 1.4-.3 3-.4 4.5-.1 1.7-.1 3.4-.2 5.1-.1 3.3-.1 6.6-.2 9.8 0 1.6-.1 3.2-.1 4.8 0 .8 0 1.6-.1 2.4 0 .7-.2 1.6.2 2.3.6 1 1.6 1.8 2.3 2.7.2.3 2.2-.3 2.5-.4 1.3-.3 2.3-1.2 3.4-2 .6-.4.7-1 .9-1.6.3-.9.5-1.7.8-2.6 1-3 1.9-6 2.7-9.1.7-3.1 1.5-6.2 2.3-9.2.3-1.1.6-2.3.9-3.4.2-.8.8-2.2.3-3-1-1.5-2.2-2.9-3-4.4-.2-.4.4-.8.7-1 .6-.5 1.1-.3 1.8-.1 2.3.5 4.7.9 7 1.4.5.1 1 .2 1.5.3.4.1.6.7.8.9.6.8 1.4 1.6 1.8 2.6.4.8.4 1.9.5 2.7.2 1.3.3 2.5.5 3.8.3 2.4.4 4.9.6 7.3.2 2.5.3 5 1 7.4 1-.6 1.4-1.6 2-2.6.8-1.4 1.7-2.7 2.5-4.1 1.6-2.7 3.3-5.4 5-8.1.7-1.2 1.4-2.4 2.2-3.6.6-.9 2.5-1.5 3.5-1.3 1.4.2 2.9.4 4.3.7 1.6.3 3 .8 4.5 1.3.4.2.5.3.7.7.1.3.6 1.7.5 2-.2.3-.6.5-.9.6-.5.3-1 .6-1.5 1-.8.6-1.9 1.3-2.5 2.1-.3.5-.4 1.1-.5 1.6-.2.9-.4 1.8-.6 2.7-1.4 6.2-2.4 12.6-3.5 18.9-.3 1.5-.5 3-.7 4.6-.1.5 1 1.9 1.4 2.2.6.4 1.2.8 1.8 1.2.4.3 1 .1 1.5.1.5 0 1.1.2 1.6.1.6-.1 1.1-.7 1.6-1 1.2-.7 2.1-1.9 3.1-2.9 1.2-1.2 2.3-2.4 3.5-3.6 2.2-2.3 4.5-4.6 6.8-6.8 2.3-2.2 4.6-4.2 6.8-6.4 1.1-1 2.1-2.1 3.1-3.2.3-.4.8-1.1 1.3-1.3.4-.2 1-.1 1.4-.2.7-.1 3.2-.9 3.6-.3.2.3.4.6.6.9.3.5.2.9.1 1.4-.4 3.2-.7 6.4-1.1 9.6-.6 6.3-1.3 12.6-2.1 18.9-.2 1.6-.4 3.1-.6 4.7-.1.7-.1 1.4-.3 2.1-.1.5-.2.9.1 1.4.7 1 1.4 2.1 2.2 3.1 1 1.2 2.5.2 3.7-.2 1.3-.4 2.2-.7 3-1.9.8-1.2 1.7-2.2 2.6-3.3 2-2.5 3.9-5 5.8-7.5 1.9-2.5 3.8-4.9 5.7-7.3.4-.5 1-1 1.1-1.6.1-.5 0-1.1 0-1.6 0-1.7 0-3.4 0-5.1.6.1 1.2.1 1.8.1.3 0 1-.1 1.3.1 1.2 1 2.3 2 3.5 3.1 2.3 2.1 4.7 4 7.2 5.9 2.3 1.7 5 3.3 6.2 6 .4.9 1.5 2 1.3 3-.2 1.6-.5 3.1-.6 4.7 0 .5 0 1-.2 1.5-.2.6-.8 1-1.2 1.4-1.1 1.1-2.3 2.2-3.3 3.4-.7.9-2.8.7-3.9.8-.7.1-1.3.1-2 .2-.5.1-.9.5-1.3.8-.3.2-.7.3-1 .6-.3.4-.3 1.5-.4 2-.3 1.6-.6 3.2-.9 4.8-.3 1.5-.6 2.9-1 4.4-.4 1.3-1 2.7-.9 4.1.1 1.4.2 2.8.2 4.2 0 .2.2.7-.1.9-.5.3-1.3.4-1.9.5-1.3.1-2.6-1.5-3.5-2.2-.6-.5-1.2-1-1.8-1.5-.5-.4-1.7-1-2-1.6-.3-.5-.3-1.2-.5-1.8-.2-.6-.4-1.2-.3-1.8.3-1.4.9-2.8 1.3-4.2.9-3 1.7-6.1 2.6-9.1.2-.7.5-1.4.5-2.1 0-.4.1-1.3-.1-1.6-.7-.6-1.3-.2-1.8.3-1.4 1.5-2.6 3.2-3.9 4.8-.7 1-2 2.1-2.2 3.3-.1 1.1-.1 2.5-.1 3.6 0 .6.1 1.2.3 1.8.3.8-.2.8-.8 1-.6.2-1.2.6-1.8.6-.5 0-1.3-1-1.6-1.3-2.1-1.9-4.5-3.6-6.7-5.4-2-1.6-3.9-3.6-6.2-4.7-2.6-1.3-5.2-2.6-7.8-3.9-1.1-.6-2.3-1.1-3.6-1.6-.6-.2-.7-.9-.9-1.5-.2-.7-.5-1.4-.7-2 1.4 0 2.5-.1 3.6-.2m-105-35.6c.7-.4 1.5-.9 2.2-1.3.6-.4 1.3-.6 1.5-1.3.6-1.5.9-3.2 1.3-4.7.2-.6.3-.9-.1-1.4-.3-.4-.7-.8-1-1.2-1.1-1.5-2.3-3.1-3.4-4.6-.1-.1-2.4.9-2.5 1-.5.4 0 2.8 0 3.4.2 1.9.5 3.7.7 5.6.1.8.2 1.7.3 2.5.2.9.5 1.2 1 2m153 29.6c-.3-.6-.6-1.2-.8-1.8-.1-.3-.3-1-.6-1.1-.4-.2-1 .1-1.4.2-.5.1-1 0-1.5.1-.5.1-1.1 1.2-1.4 1.6-.5.7-1.1 1.4-1.6 2.1-1.2 1.5-2.3 2.9-3.5 4.4-.3.3-.1 1-.1 1.4 0 .6.7.5 1.1.6.7.2 1.4.3 2 .6.8.3.9.3 1.7-.1.8-.4 1.5-.9 2.3-1.3.8-.4 1.2-.6 1.5-1.4.8-1.8 1.5-3.5 2.3-5.3m-43.7-17.5c-1.9 1.1-3.1 2.8-4.7 4.2-.5.4-1.2.9-1.2 1.6.1 1 0 1.2.9 1.7.6.3 1.9 1.4 2.6 1 .3-.2 1.5-.7 1.5-1 .4-2.5.7-5 .9-7.5"/><path d="m18 228c-2.9-2.1-5.7-4.2-8.8-6.1-.6-.4-1.3-.8-1.9-1.3-.4-.3-.9-.7-1.4-.4-.6.3-1 .8-1.4 1.3-.3.4-.6.8-.9 1.3-.3.5-.3.7-.8.4-.5-.3-1.2-.6-1.4-1.1-.3-.5-.1-1.3-.2-1.8-.2-1.8-.3-3.7-.5-5.5-.1-1.6-.2-3.2-.5-4.7-.1-.4-.2-1-.1-1.4.2-.6 1.2-1.5 1.6-1.9 1 1 1.8 1.8 2.5 3 .8 1.5 1.7 3 2.5 4.5.3.6.6 1.1 1.2 1.5.6.5 1.2.9 1.9 1.4 1.3 1 2.6 1.9 3.9 2.9.4.3.7.7 1.2.9.5.1 1-.1 1.5-.1 1.2-.2 2.1-1.4 3.1-2.2 2.4-2.1 4.8-4.2 7.2-6.4 1.2-1 2.3-2 3.5-3.1 1.2-1 2.7-2 3.6-3.3.8-1.1 1.5-2.3 2.3-3.5.4-.6 1.3-2 2.1-1.3 1 .8 2.3 1.4 2.4 2.8.1 1.7.2 3.3.3 5 .1 1.5.2 3 .4 4.5.2 1.4.5 2.8.5 4.2 0 .6-1.2 2.6-1.9 2.2-.5-.3-1-.5-1.5-.7-.6-.3-.7-.6-1.1-1.1-2.2 1.8-4.4 3.6-6.7 5.4-1.1.9-2.2 1.7-3.3 2.6-.9.7-1.7 1.2-2.2 2.3 3-.3 6.1-.6 9.1-.9.8-.1 1.2 0 1.7-.6.6-.5 1.1-1.1 1.7-1.6.9-.9 2-1.3 3.1-1.8.4-.2 1-.7 1.3-.3.3.4.4.7.4 1.1.1 1.5.2 3 .3 4.6.1 1.5.1 3 .4 4.5.3 1.6.5 3.1.5 4.6.1 2.9 1 5.9 2 8.6.3.6.5 1.3.7 2 .3.8.3 1 0 1.8-.5 1.2-.8 2.9-1.7 3.8-1 1-2.2 1.8-3.3 2.7-1.2 1-2.4 2-3.6 3-1.2.9-2.3 1.9-3.5 2.8-.6.5-.9.7-1.1 1.4-.2.8-.5 1.5-.8 2.3 3-1 6-2 9-3.1 1.1-.4 1.9-.6 2.6-1.5.8-1 1.8-1.9 1.8-3.2 0-.3-.1-.8.2-1.1.3-.3 1.5-.3 1.9-.3.4-.1.8-.2 1.1.2.3.6.6 1.2.8 1.8.8 3 1.5 6.1 2.5 9 2.1 6.1 5.5 11.7 8.5 17.3.3.5.9 1.2.8 1.8 0 .6-.1 1.3-.1 1.9 0 .5.1.9-.5 1-.4 0-1 .1-1.3 0-.4-.1-.6-.6-1-.7-.3-.1-.6-.1-.9-.1-1 0-1.6.1-2.3.8-1 1-2 2-3 3.1-.4.5-.9 1-1.3 1.5-.4.5 0 1 .3 1.5.7 1.3 1.4 2.7 2.2 4 .3.6.6 1.2 1 1.8.2.4 1.1.6 1.5.7 1.2.3 2.7-.6 3.9-.9.7-.2 1.4-.4 2.1-.6.3-.1.5-.9.6-1.1.2-.4.5-.8.6-1.2.1-.4 0-1-.1-1.4-.1-1-.1-1.7.6-2.5.2-.2.4-.6.7-.8.2-.1 1.4.8 1.7.9.3.2.6.9.8 1.2.4.7.9 1.4 1.3 2.2.8 1.3 1.5 2.5 2.3 3.8.6 1.1.8 1.5.6 2.7-.1.4-.1.7-.3 1-.2.4-.5.2-.9.2-1.7-.1-3.3-.3-5-.6-.7-.1-1.3-.2-2-.1-.6.1-1.2.3-1.8.4-1.7.3-3.3.6-5 .9-6.2 1.2-12.4 2.6-18.6 3.6-2.4.4-4.7.7-7.1 1-.5.1-1.4.3-1.9.1-.4-.2-.8-1.2-1-1.6-.3-.6-.7-.8-.4-1.5 1.3-2.7 3.5-5.1 5.5-7.3 2.1-2.3 4.1-4.6 6-7.1 3.9-5 7.7-10 12-14.7.8-.9 1.2-2 .7-3.1-.2-.6-.6-1.1-1-1.6-.3-.5-.4-1.2-.9-1.5-2.3-1.3-5.1 0-7.5.7-3 .9-5.9 2.1-8.8 3-3 .9-6 1.7-8.9 2.9-1.4.6-2.9 1.1-4.3 1.7-.8.3-1.3 1.6-1.3 2.4 0 1-.1 1.8-.8 2.6-.3.3-1.9 0-2.1-.4-1.1-3-2.1-5.9-3.1-8.9-1-2.9-2.1-5.8-2.8-8.9-.3-1.4-.6-2.8-.9-4.2-.4-1.5.4-2.9.8-4.3.3-1 .5-2.4 1.4-3 .7-.4 1.3-.9 2-1.3.7-.4 1.4-1.1 2.2-1.3 1.3-.4 2.8-.4 4.1-.5.6-.1 1.5-.4 2 0 .7.5 1.5.9 2.2 1.3.9.5 1.8 1.5 2.8 1.5.7 0 .9-.1 1.5-.6.6-.6 1.3-1.2 1.9-1.8 2.4-2.3 4.7-4.5 7.1-6.8.9-.8 2-1.7 2.8-2.6.3-.3 0-1.6 0-2 0-.7.1-1.5-.2-2.2-.1-.4-.3-1.2-.8-1.3-.5-.2-1.1-.3-1.6-.5-1.4-.5-2.5-.8-4-.7-3.2.3-6.3.8-9.5 1-3 .2-6.1.5-9.1.8-1.5.2-3.1.3-4.6.5-.6.1-1 0-1.4.5-.4.5-.9 1.1-1.3 1.6-.3.4-.8.8-.9 1.3-.1.3-.2.9-.5 1-.6.2-1.4 1-1.9.2-1.3-2-1-4.5-1.2-6.8-.1-1.5-.2-3-.5-4.6-.2-1.4-.6-2.9-.7-4.4 0-.8.2-1.9.5-2.7.2-.4 1.6-.6 1.9-.2.8 1 1.2 1.7 2.4 2.2.7.3 1.3.6 1.9.9.8.4 1.2.4 2 .4 1.5-.1 2.9-.2 4.4-.4.8-.5 3.4-.4 3.3-1.2m-1.5 43.5c1.4-.8 3-1.2 4.5-1.7 1.8-.5 3.6-1.1 5.4-1.7.6-.2.9-.2 1.3-.8.2-.3.7-.8.6-1.2-.2-.4-.6-.8-.8-1.2-.2-.4-.4-1.1-.8-1.3-1.3-.5-2.8-1.5-4.1-1.1-1.1.4-2.8.3-3.8 1.1-1.2 1-2.1 2.6-3 3.8-.2.3-1.4 1.4-1.1 1.8.5.9 1.1 1.6 1.8 2.3m25 33.6c.1.8 3.9-.2 4.3-.3 1.1-.3 2.3-.5 3.4-.7.4-.1.6-.3.8-.7.4-.5.2-.7-.1-1.3-.4-.8-.8-1.7-1.3-2.5-.4-.7-1.1-.7-1.8-.6-.4.1-.7.7-1 1-.5.6-1 1.1-1.5 1.7-.9 1.1-1.8 2.2-2.8 3.4"/><path d="m30 164c-3.9-2.3-7.8-4.7-11.8-6.9-2-1.1-4.1-1.8-6.1-2.7-.3-.1-1.1.5-1.4.6-.9.5-1.8 1-2.7 1.5-.2-.5-.5-1.1-.7-1.6-.2-.3-.6-.8-.5-1.2.2-1.6.4-3.1.6-4.7.1-.5.1-1.1.2-1.6.1-.5.8-.9 1.2-1.3.3-.3 1.2-1.6 1.7-1.2 1.7 1.4 2 3.8 3.9 5 2.8 1.7 5.5 3.4 8.3 5 5.6 3.3 11.3 6.5 17 9.7 1.3.8 2.7 1.5 4 2.3.4.3.7.6 1 1 .2.3 1.3 1.5 1.1 1.9-.3.8-1.2 1.7-2 1.8-1.7.3-3.4.6-5 .9-1.5.3-2.9.8-4.4 1-1.4.2-2.7.3-4.1.6 2.1 2 4.5 3.5 6.9 5.1 1.1.8 2.3 1.5 3.4 2.4.6.4 1.1.9 1.7 1.3.6.5.2.8.1 1.4-.2.7-.3 1.9-1 2.2-.6.3-1.4.3-2.1.4-.9.2-1.8.3-2.7.5-3.1.5-6.1 1.3-9.2 1.9-6.3 1.1-12.6 2.5-19 3.7-.8.1-1.5.3-2.3.5-.6.1-1.4.2-1.9.5-.8.7-.8 1.7-2 2-.5.2-1.5.7-2 .4-.5-.4-.5-.9-.4-1.5.2-1.5.2-3.1.4-4.6.4-2.9.8-5.8 1.9-8.5.6-1.4.5-2.8.6-4.3.1-1.6.2-3.3.3-4.9.3-3.1 1.2-6.2 1.7-9.3.2-1.2.2-3 1-4 .3-.5 1.9-2.3 2.4-1.8 1 1 2 2 3 3.1 1 1.1 1.9 2.3 3 3.3.8.7 1.9 1.4 2.9 1.8 1.2.5 2.6.5 3.8.7 1 .2 2.4-.4 3.4-.6.7-.1 1.3-.2 2-.3.7-.2 3.8-.6 3.8-1.5m-1.4 15.2c-.4-.6-.7-1.4-1.4-1.8-.8-.5-2.1-.6-3-.8-1-.2-2-.6-3-.6-1.2 0-2.4.4-3.6.6-2.2.4-4.5.8-6.7 1.1-.9.1-2.1.1-2.9.5-1 .4-1.8 1.4-2.7 2-.5.3-.3 1.4 0 1.9.6 1 1.5.8 2.5.6 2.4-.4 4.7-.6 7.1-1.1 4.5-.8 9.1-1.5 13.7-2.4m-15.7-11.3c.1-.3.2-.5-.1-.7-.6-.3-1.2-.6-1.8-.9-.7-.4-2.4-.9-2.5.3-.1.6-.6 1.8.4 1.9 1.1.2 2.7-.4 4-.6"/><path d="m389 212c0-2.4 0-4.8 0-7.2 0-1.5.6-3.9-1.3-4.5-.4-.1-.9 0-1.3 0-.7 0-1.3 0-2 0-1.3 0-2.7 0-4 0-1.1 0-2.2 0-3.4 0-1 0-1.5.3-2.3 1-.6.6-1.3 1.2-2 1.8-.3.3-.7.7-1 1-.3.4-.4.4-.8.1-.6-.5-1.5-.9-1.9-1.5-.2-.3 0-1.2 0-1.5 0-.6.1-1.3.1-1.9.1-2.4.2-4.8.2-7.2 0-1.2 0-2.3 0-3.5 0-1.1.5-1.9.8-2.9 1.3.7 2.5 1.5 3.7 2.4 1 .7 2.1 1.9 3.3 1.9 3.2.1 6.5.2 9.7.3 3.3.1 6.6 0 9.9 0 1.6 0 3.2-.1 4.8-.1 1.2 0 2.5-1 3.6-1.5.2-.1.9-.2 1-.5.2-.5.4-1.5.7-1.8.4-.4 1.8-1 2.1-.4.3.4.8.8.8 1.3 0 .7.1 1.4.1 2.1.1 1.7.1 3.4.1 5.1 0 1.5 0 3.1 0 4.6 0 .8 0 1.5 0 2.3 0 .7.2 1.5-.3 2.1-.3.3-.6.7-.8 1-.4.5-.8.1-1.2-.2-1.4-1-2.7-1.9-4-2.9-1.1-.8-1.8-1.2-3.2-1.1-1.5.1-3-.2-4.5-.1-.9.1-2.1 0-2.7.8-.5.6-.1 2.1-.1 2.8 0 1.6-.1 3.2-.1 4.7 0 .7 0 1.4 0 2.2 0 .5.3.7.7 1.1.3.3 1.2.1 1.6.1.8 0 1.6 0 2.4 0 1.7 0 3.4 0 5.1 0 .5 0 1.1.1 1.6-.2.3-.2.6-.6.9-.8 1-.8 1.7-1.9 2.4-3 .2-.3 1.9-.3 2 .2.1.7.3 1.3.4 1.9.1.8 0 1.6-.1 2.4-.2 1.5-.1 3-.1 4.6 0 1.6-.1 3.2.1 4.7.1.6.1 1.2.3 1.8.1.7-.2 1.1-.5 1.7-.2.5-.4 1-.7 1.5-.2.3-1-.2-1.2-.3-1.1-.4-1.1-1.2-1.6-2.2-.4-1-1.8-1.2-2.6-1.6-1.2-.5-2.5-.4-3.8-.4-1.7 0-3.3 0-5 0-3.3 0-6.7 0-10 0-1.6 0-3.2 0-4.8 0-.8 0-1.6 0-2.3 0-.9 0-1.1.2-1.8.6-1 .7-2.2 1.3-3 2.3-.4.4-.7.9-1.1 1.3-.3.4-.9-.2-1.2-.5-.4-.2-1.2-.6-1.3-1-.1-.4-.1-.8 0-1.2.1-1.2.1-2.5.2-3.7.1-3.3 0-6.5-.1-9.7 0-.6-.1-.9.2-1.4.2-.3.5-1.4.9-1.3.8.1 2 .6 2.4 1.3.6 1 1 2.2 2.2 2.5 1.4.4 3 .4 4.4.5 3-.1 6.2-.1 9.4.1"/><path d="m114 58.9c-.3 1.5-.6 3-.9 4.5-.1.7-.3 1.5-.4 2.2-.2.8-.6 1.4-1 2.2-.8 1.4-1.5 2.7-2.3 4.1-.8 1.4-1.8 2.2-3 3.2-2.4 2.1-5 3.8-7.6 5.7-1.2.9-2.5 1.8-3.7 2.8-.8.6-1.6 1.7-2.6 1.9-.6.1-1.3-.3-1.8-.5-.5-.2-.4-.2-.4-.7 0-1.1 0-2 .4-3.1.2-.5.6-1.1.5-1.7-.1-.5-.4-1-.7-1.5-.8-1.2-1.5-2.4-2.3-3.5-3.8-4.9-7.4-10-11.3-14.8-.7-.8-1.3-1.8-1.9-2.6-.7-.9-2.4-.9-3.4-1-.7 0-1.4.1-2.1.1-.5 0-.4-.1-.5-.5-.1-.4-.6-1.9-.4-2.2.9-1.2 1.8-2.4 2.7-3.6.9-1.2 2-2.1 3.1-3.2 2.4-2.2 5-4.2 7.5-6.2.9-.7 2-1 3.1-1.4 1.5-.6 2.9-1.3 4.5-1.7 1.3-.3 2.7-.3 4-.3.7 0 1.4 0 2.1 0 .6 0 1.5-.2 2 0 1 .4 2.4.6 3.2 1.4 1.3 1.1 2.5 2.3 3.8 3.4 1.2 1 2.3 2.1 3.5 3.1 1 .9 2.6 1.8 3.1 3 .6 1.6 1.2 3.1 1.8 4.7.9 2 .8 4.2 1 6.2m-7.2 5.6c-.4-2.8-1.8-5.4-2.8-8-1.1-2.9-3.2-4.8-5.2-7-1-1-1.9-2.4-3.1-3-1.4-.7-2.7-1.5-4.1-2.2-1-.6-2.2-.1-3.3 0-1.6.1-3.3.3-4.9.4-.2 0-.7 2.8-.7 2.9-.1.4-.6 1.6-.4 2 .2.4.7.8 1 1.1 2 2.3 3.4 4.9 5.1 7.4 1.8 2.7 3.9 5.2 5.9 7.7 1 1.2 1.9 2.5 2.9 3.7.5.6.9 1.2 1.4 1.8.3.5.6 1.1 1.3 1.1.4 0 3.1.6 3.3.2 1.2-2.7 2.4-5.4 3.6-8.1"/><path d="m84 91c-.4 1.4-.8 2.7-1.1 4.1-.3 1.5-1.1 2.5-2 3.8-.9 1.3-1.9 2.6-2.8 3.9-.4.5-.7 1.1-1.2 1.6-.5.6-1.4.9-2.1 1.3-1.2.6-2.3 1.3-3.5 2-1.3.7-2.9.8-4.3 1-.7.1-1.5.4-2.2.4-.6 0-1.3-.1-1.9-.2-1.5-.2-2.7-.6-4.1-1.2-1.3-.5-2.6-.9-3.9-1.5-1.3-.6-2.2-1.9-3.3-2.8-2.1-1.9-4.7-3.7-5.9-6.3-.5-1-1.3-1.8-1.7-2.9-.5-1.4-.6-3.1-.9-4.6-.2-1.3-.7-2.8-.6-4.1.1-1.2 0-2.7.5-3.8 1-2.4 2.6-4.7 3.9-7 .6-1 1.5-1.5 2.3-2.2 1-.8 2-1.9 3.1-2.5.8-.4 1.7-.6 2.5-.9 1.3-.5 2.3-.8 3.6-.9 1.4-.1 2.8-.3 4.2-.2 1.3.1 2.6.6 3.8 1 1.2.4 2.3.7 3.5 1 1.1.3 1.7.9 2.6 1.6 1 .9 2.1 1.7 3.2 2.5 1 .8 2.1 1.4 2.8 2.5 1.3 1.9 2.4 4.1 3.4 6.2 1.5 2.5 1.7 5.6 2.1 8.2m-36-9.9c-.6 0 .1 1.2.2 1.5.2.7.5 1.4.7 2.1.5 1.4 1.8 2.6 2.7 3.7 1.9 2.4 3.5 5.1 6 6.8 1 .7 2.1 1.5 3.2 2.1 1.3.7 2.7 1.5 4.1 1.9 1.4.4 2.8.9 4.2 1.2 1.4.3 3.1.6 4.5.3.5-.1.9-.4 1.4-.5.4-.1 1-.1 1.3-.5.2-.2.2-1 .2-1.3.2-.9.3-1.8.5-2.6.2-1.3.6-2.6.7-3.9 0-.4-.9-1.3-1.1-1.7-.5-.7-1-1.4-1.6-2.2-.8-1.2-1.6-2.5-2.7-3.4-1.2-1-2.4-2.1-3.6-3.1-1-.9-2.1-1.5-3.3-2.1-1.3-.6-2.5-1.3-3.8-1.9-1.2-.5-2.6-.6-3.9-.9-1.5-.3-3.1-.6-4.6-.9-.7-.2-1.8 1.7-2.2 2.1-.9 1.1-1.9 2.2-2.9 3.3"/><path d="m59.7 128c-.3 1.5-.6 3-.9 4.5-.3 1.5-.4 3-1.3 4.3-.8 1.1-1.6 2.2-2.5 3.2-.9 1.1-1.7 2.2-3 2.9-1.2.7-2.5 1.3-3.7 2-1.3.7-2.2 1.2-3.7 1.3-1.3.1-2.7 0-4 0-1.5 0-2.9.1-4.3-.3-1.2-.4-2.4-.8-3.6-1.1-1.4-.4-2.6-1.4-3.9-2.2-1.1-.7-2.3-1.3-3.3-2.2-1.1-.9-1.8-2.1-2.8-3.1-2-1.9-3.1-4.9-3.8-7.5-.4-1.3-.8-2.4-.7-3.9.1-1.6.2-3.3.4-4.9 0-.5 0-.9.3-1.4.3-.5.7-1 1-1.5.8-1.2 1.6-2.4 2.4-3.6.7-1.1 1.5-2.2 2.2-3.3.2-.3.8-.5 1.1-.6.6-.3 1.2-.7 1.8-1 1.1-.6 2.1-1.2 3.2-1.8 1-.6 2.3-.7 3.4-.9 1.3-.2 2.5-.3 3.8-.3 1.4 0 2.6.3 3.9.7 1 .2 2.1.4 3.2.7 1.2.3 2.3 1.2 3.4 1.7 1.1.6 2.1 1.2 3.2 1.8.4.2.7.6.9 1 .5.6 1 1.1 1.5 1.7.9 1 1.8 2 2.6 2.9.8.9.9 1.8 1.1 2.9.8 2.6 1.5 5.3 2.1 8m-37.5-6.1c.1.5.1 1.1.2 1.6.2.6.7 1.1 1.2 1.6 1 1.1 1.9 2.3 2.8 3.5.8 1.1 2 1.7 3.1 2.4 1.4.9 2.7 1.7 4.2 2.4 1.3.7 2.6 1.4 4 1.9 1.4.5 3 .8 4.5 1.2 1.3.3 2.6.8 4 .9 1.7.1 3-.8 4.4-1.5 1.4-.7 2.8-1.4 4.2-2.1.2-.1-.1-1.7-.1-2-.1-.9-.2-1.7-.3-2.6-.1-.8-.1-1.6-.2-2.3 0-.4-.6-.8-.9-1-2.1-1.7-3.9-3.8-6.3-5.1-2.4-1.4-4.9-2.6-7.7-3.3-1.6-.4-3.3-.9-4.9-1.3-.6-.2-1.3 0-2 .1-.9.1-1.9.1-2.9.2-1.4.1-3.4-.3-4.3.9-.8 1.4-1.9 2.9-3 4.5"/><path d="m386 271c-1.6-.2-3.1-.5-4.7-.7-.7-.1-1.5-.1-2.2-.4-.7-.2-1.3-.6-1.9-1-1.3-.7-2.7-1.3-4.1-2-.6-.3-1.2-.5-1.7-.9-.7-.5-1.3-1.3-1.9-1.9-.9-.9-2-1.8-2.8-2.8-1-1.2-1.4-3-2-4.4-.7-1.3-.9-2.5-1-4-.2-1.6-.4-3.2-.1-4.9.5-2.8 1.3-5.5 2.8-7.9.7-1.2 1.9-2.3 2.8-3.3.5-.5.9-1.1 1.5-1.4.7-.4 1.4-.7 2.1-1 1.3-.6 2.6-1.2 3.9-2 1.3-.8 2.9-.7 4.4-.7 1.5-.1 3 0 4.5 0 1.7.1 3.2.5 4.8 1 1.2.3 2.3.7 3.4 1.3.9.5 2 .9 2.8 1.5 1.7 1.3 3.7 2.9 4.9 4.8.7 1.1 1.4 2.1 2.1 3.2.6.9.7 1.8 1 2.8.3 1.2.7 2.4 1 3.6.2.8-.3 2-.4 2.8-.2 1.3-.4 2.6-.6 3.9-.2 1.1-.2 1.9-.9 2.9-.7 1-1.4 2.1-2.2 3.1-.7 1-1.4 2.2-2.3 3-.8.7-1.7 1.2-2.5 1.7-1 .7-2.1 1.7-3.3 2.2-2.4.9-5 1.1-7.4 1.5m-19.3-22c.1.6.1 1.2.3 1.8.2.6.8 1.1 1.2 1.5 1.1 1.1 2.1 2.3 3.3 3.3 1.1.8 2.3 1.3 3.4 1.9 1.4.6 2.7 1.3 4.1 1.7 2.8.8 5.8.9 8.7 1 1.5.1 3.1.1 4.6.2 1.4.1 3-.9 4.3-1.4.7-.3 1.4-.5 2-.8.3-.1.7-.2 1-.5.4-.4.5-1.1.7-1.6.3-.8.6-1.6.9-2.4.2-.5.5-1 .6-1.5.1-.4-.3-.9-.6-1.2-.6-.8-.9-2.1-1.8-2.6-1.4-.8-2.7-1.6-4.1-2.4-1.4-.8-2.7-1.8-4.3-2.1-1.5-.3-2.9-.8-4.4-1.2-1.4-.4-3.1-.2-4.6-.3-1.5-.1-3.3-.5-4.8-.3-1.5.2-2.9.4-4.4.9-.5.1-1 .2-1.4.4-.6.2-1.1 1.2-1.5 1.7-1.1 1.2-2.2 2.5-3.2 3.9"/><path d="m370 313c-1.4-.2-2.8-.5-4.2-.7-1.5-.1-2.7-.7-4.1-1.3-1.4-.6-2.8-1.3-4.2-1.9-1.4-.6-2.2-1.7-3.3-2.8-1.1-1.1-2.1-2.2-3.2-3.3-.4-.4-1.1-.9-1.2-1.5-.2-.7-.2-1.4-.3-2.1-.5-3.2-1-6.4-1.6-9.6-.1-.6-.4-1.4-.2-2 .2-.6.6-1.2.9-1.7.8-1.5 1.7-3 2.5-4.5.4-.7.8-1.4 1.2-2.1.3-.5.4-1 .9-1.3 1.4-.9 2.9-1.9 4.3-2.8 1.1-.7 2.2-1.6 3.5-1.9 1.4-.3 2.7-.3 4.2-.3 1.5.1 3 .1 4.4.2 1.4.1 2.9.8 4.3 1.3 2.1.7 4.1 1.7 5.9 2.9 2 1.3 3 3.3 4.3 5.3.7 1.1 1.4 2.1 2.1 3.2.5.8 1.2 1.6 1.7 2.4.5.9.3 2.5.3 3.5.1 1.3.2 2.6.2 3.9 0 .8.3 1.8.2 2.6-.2 1.1-1 2.3-1.5 3.3-.3.6-.5 1.1-.8 1.7-.2.5-.4 1.2-.8 1.6-.8.8-2 1.5-2.9 2.1-1.1.8-2.1 1.6-3.2 2.3-.8.6-1.6 1.4-2.5 1.9-1 .6-2.2.6-3.3.8-1.1.4-2.4.6-3.6.8m-9.8-30.7c-1.5.4-3.1.8-4.6 1.2-.5.1-1.7.2-2 .5-.2.2-.3.7-.4 1-.2.7-.3 1.5-.5 2.2-.2.7-.4 1.4-.6 2.1-.1.5-.5 1-.1 1.5 1.5 1.9 3.3 3.5 4.8 5.4.9 1.1 1.8 1.9 3 2.5 1.2.7 2.3 1.6 3.6 2.2 1.3.6 2.8 1 4.1 1.5 1.5.5 2.9 1.2 4.5 1.3 1.5.1 3 .3 4.5.5 1.4.2 2.2-.1 3.5-.8 1.2-.6 2.3-1.1 3.5-1.6.5-.2.4-.8.5-1.3.1-.9.3-1.8.4-2.7.1-.4.4-1.3.2-1.7-.2-.3-.5-.6-.7-.9-.9-.9-1.7-1.9-2.5-2.8-.6-.7-1.2-1.4-1.7-2.1-.6-.8-1.2-1.2-2.1-1.7-1.9-1.1-3.8-2.1-5.6-3.2-.7-.4-1.4-1-2.2-1.2-.9-.3-2-.4-2.9-.5-2.3-.6-4.5-1-6.7-1.4"/><path d="m158 21.8c-.3 1.5-.6 3.1-.9 4.6-.1.6-.1 1.7-.5 2.1-.5.6-1 1.1-1.5 1.6-.8.9-1.6 2-2.6 2.8-.4.3-1.5.4-2 .5-.9.2-1.7.4-2.6.5-.7.1-1.5.2-2.3.3-.5 0-.5.6-.7 1-.3.8-.3 1.1 0 1.9.3.9.6 1.8.9 2.6.4 1.3.7 2.5 1.3 3.7.5.9.7 2.4 1.9 2.7 1.2.3 2.2.5 3.2 1.1.3.1 1.3.5 1.2.9-.1.6-.5 1.3-.8 1.9-.3.8-2 1-2.8 1.2-1.6.5-3.2 1-4.7 1.6-1.4.5-2.8 1.1-4.2 1.7-1.1.5-2.5 1.1-3.7 1.1-.6 0-1.5-.8-1.5-1.4 0-1.3.4-1.9 1.3-2.7.6-.6 1.5-2 1.3-2.8-.3-1.4-.9-2.8-1.3-4.2-.9-3.1-2.1-6.1-3.2-9.2-1.1-3-2.2-6.1-3.3-9.1-.4-1.2-.9-2.5-1.4-3.7-.2-.4-.3-.8-.5-1.2-.3-.4-1.2-.4-1.6-.5-.6-.1-1.1-.3-1.6-.6-.3-.2-1.7-.8-1.7-1.1 0-.3.3-.7.4-1 .3-.6.6-1.2.9-1.8.1-.2.8-.3 1-.3.6-.1 1.2-.3 1.7-.5 1.6-.5 3.2-1.1 4.7-1.7 3-1.1 6.1-2.1 9.2-3 .9-.3 2.3-1.1 3.3-1 1.5.2 3 .5 4.6.5 1.3 0 1.7.4 2.6 1.2.9.9 1.9 1.8 2.9 2.7 1 .9 1.2 2 1.6 3.2.5 1.5 1 2.9 1.4 4.4m-9.9 2.9c-.4-1.6-.7-3.3-1.1-4.9-.2-.9-.7-1-1.5-1.4-1-.5-2.1-.9-3.1-1.4-.9-.4-1.9-.8-2.8-1.2-.4-.2-.9.8-1 1-.4.7-.1 1.4-.1 2.1.1 1.1.5 2.1.9 3.2.8 2 1.5 4.2 2.3 6.2.3.6.9.6 1.4.7.4.1 2.6.9 2.8.7.5-.5.8-1.7 1-2.4.6-.9.9-1.8 1.2-2.6"/><path d="m67 324c1.5-1.1 3-2.2 4.4-3.4.7-.6 1.3-1.1 2-1.7.6-.5 1.6-1.1 2-1.8.3-.5.3-1.1.5-1.7.3-.9.4-1.5.2-2.4-.1-.5-.3-1.2-.3-1.7 0-.7 1-1.7 1.4-2.3 1.8 2 3.7 4.1 5.5 6.2 1.8 2 3.4 4.3 5.3 6.2.8.8 1.1 1.2 1 2.3 0 .4-.1.9-.1 1.3-.8 0-1.5 0-2.3-.1-1.3 0-2.6 0-3.9-.1-.6 0-.9-.1-1.3.3-.6.5-1.1 1-1.7 1.5-4.1 3.5-8.4 6.9-12.6 10.3-2 1.6-3.9 3.4-5.7 5.2-.3.3-.7.5-.9.9-.3.4-.2 1.3-.2 1.7-.1 1.4-.2 2.9-.4 4.3-.9-.3-2.3-.4-3.2-1-.9-.6-1.5-1.9-2.1-2.8-1.8-2.4-3.7-4.8-5.7-7.2-.9-1.1-1.8-2.2-2.7-3.4-.8-1-2-2.1-2.3-3.4-.4-1.3-.7-2.4-.8-3.7-.1-1.3.5-2.4 1-3.5.6-1.3 1.1-2.7 1.7-4 .5-1.1.7-2.3 1.9-2.8 1.4-.7 2.8-1.2 4.2-1.8 1.3-.5 2.5-1.1 4-1 1.2.1 2.5 0 3.6.5.7.3 1.4.6 2.2 1 .5.2 1.2.4 1.5.9.7.9 1.2 2.1 1.7 3.2.5 1.4 1.2 2.7 2.1 4m-14.6 11.4c1.4-.5 2.6-1.5 3.8-2.4 1.3-1.1 2.7-2.2 4-3.3 1.1-1 2.8-1.9 3.1-3.5.1-.8 0-.9-.5-1.4-.5-.5-1.2-1.6-2-1.7-.7-.1-1.5-.2-2.2-.2-.9 0-1.5.5-2.2.9-1.4.8-3.1 1.3-3.8 2.8-.8 1.6-1.6 3.2-2.4 4.8-.4.8-.2.9.3 1.5.5.9 1.2 1.7 1.9 2.5"/><path d="m352 88c1.7-.3 3.5-.6 5.2-1 1.7-.4 3.4-1 5.1-1.3.7-.1.7-.5 1-1.2.2-.6.5-1.1.7-1.7.3-.6-.1-1.3-.2-2-.1-.6.1-.8.4-1.3.6-.8 1.1-.2 2 0 1.4.3 2 1.9 2.8 3 1 1.4 2.3 2.6 3.5 3.9.6.6 1 .9 1 1.8 0 .8.1 1.7.1 2.5-1.4 0-2.6 0-4-.3-1.4-.3-2.8-.8-4.2-.6-3 .4-5.9.8-8.9 1.4-1.3.3-2.5.6-3.8.6-1.4.1-2.4.4-3.6 1.2-2.3 1.6-4.6 3.2-6.7 5.1-1 .9-2.1 1.9-3.1 2.9-.4.3-.3 1-.4 1.4 0 .7-.1 1.4-.2 2-.1.8-.1 1.6-.2 2.3 0 .6-.4.4-.9.4-.4 0-.8 0-1.2-.1-.4-.1-.8-.8-1.1-1.1-1.9-2.2-3.7-4.5-5.6-6.7-.9-1-1.8-2-2.8-3-.9-.9-.7-2.6-.7-3.7 1.5-.1 3.1-.2 4.6-.3 1.3-.1 2.7.1 3.8-.8 1.1-1 2.3-2 3.5-2.9 1-.8 2.1-1.6 2.9-2.6.9-1.1 1.2-2.3 1.7-3.6.5-1.6 1.1-3.1 1.6-4.7 1-3 2.1-6 3.2-9 .5-1.2.8-2.2.7-3.6-.1-1.3-.2-2.5.1-3.8 0-.2.2-.9.4-.9.5 0 1-.1 1.5-.1.6 0 .8.4 1.1.8.5.6 1.1 1.1 1.6 1.7 2.1 2.2 4.1 4.6 5.9 7.1.9 1.2 1.7 2.4 2.6 3.6.4.6 0 1.7-.2 2.3-.3.9-1.8.3-2.5.5-.8.3-1.6.5-2.4.8-.6.2-1.1.2-1.3.8-.6 1.8-1.2 3.5-1.8 5.3-.5 1.7-1.1 3.2-1.2 4.9"/><path d="m381 116c1.5.6 2.9 1.1 4.4 1.7.7.3 1.5.6 2.2.8.5.2 1.2.3 1.6.6.5.3.7 1.1.9 1.6.3.7.6 1.4.9 2.1.7 1.6 1.4 3.1 2.1 4.7.5 1.2 1.1 2.4 1.7 3.5.6 1.1-.6 2-1.1 3-.6 1.1-2 1.3-3.2 1.7-1 .4-2.7 1.5-3.8 1.1-.4-.1-.7-.2-1.1-.4-.5-.2-.2-.9-.2-1.3 0-.6 0-.9.5-1.3.5-.5 1-1 1.4-1.5.7-.8 1.5-1.4 1.6-2.6.1-1.5.2-3.1.4-4.6.1-.7-2-1.6-2.6-2-.5-.3-1-.2-1.6-.1-.6.1-1.4 0-2 .3-.5.2-1 1.1-1.3 1.5-.3.3-.7.6-.9 1-.3.5-.1 1.5-.2 2.1-.1.9-.1 1.8-.2 2.7-.2 2.6-.2 5.3-.7 7.9-.1.6-.6 1-1 1.4-.5.6-1 1.1-1.6 1.7-1 1.1-2.1 2.2-3.1 3.3-.8.9-1.9 1-3 1.3-.7.2-1.5.4-2.2.7-.6.2-1.4.6-2.1.6-1.3-.1-2.7-.3-4-.6-1.3-.4-2.5-1.2-3.7-1.8-1.2-.6-2-1.1-2.8-2.3-.8-1.2-1.8-2.4-2.7-3.6-.4-.5-.3-1.2-.4-1.7-.1-.8-.2-1.6-.3-2.4-.2-1.6-.5-3.1-.7-4.7-.1-.4-.4-1.3-.2-1.7.2-.3.5-.6.8-.9.7-.7 1.2-1.5 2.1-1.9 1.3-.6 2.6-1.2 3.8-1.7 1.1-.5 2.1-.1 3.3.1-.2.6-.4 1.2-.6 1.8-.2.6-.3 1.3-.7 1.7-.9.9-1.8 1.8-2.7 2.7-.6.7-1.7 1.2-1.5 2.3.2 1.1.3 2.3.3 3.5.1 1.4.7 2 1.7 2.9.5.6 1.3 1.8 2.1 1.6 1.9-.5 3.7-1.3 5.6-1.8.4-.1.9-.2 1.3-.4.3-.2.4-1.5.5-1.9.3-1.3.6-2.6.7-4 .4-2.7.4-5.9 1.5-8.4.6-1.2 1.1-2.5 1.6-3.8.4-.9 1.2-1.3 2-1.8.9-.5 1.6-1.4 2.6-1.8 1.6-.4 3.2-.6 4.6-.9"/><path d="m369 171c.5 1.3 1.1 2.6 1.5 4 .4 1.4 1.7 1.7 3 2.2 1.1.5 2.3.9 3.4 1.4 1.3.5 2.3 1.9 3.3 2.8.4.4.2.5-.1.9-.2.3-.4.6-.8.7-1.5.3-3 .4-4.4.7-1.3.2-2 .2-3.1-.6-1.2-1-2.5-1.9-3.6-3-.9-.9-1.1-2.8-1.5-4-.5-1.6-1-3.2-1.5-4.7-.2-.5-.5-1-.4-1.5.2-.8.3-1.6.5-2.3.3-1.6.7-3.3 1-4.9.3-1.4.4-3.1 1-4.4.2-.6.7-1 1.1-1.4.5-.6 1-1.2 1.6-1.8 1-1 2.2-2 3.3-2.9 1-.9 2.3-1.4 3.6-1.9 1.2-.6 2.5-1 3.8-1.4 1.5-.5 2.9-.5 4.4-.5 1.5 0 3-.2 4.5.1 1.6.4 3.1 1 4.6 1.4.7.2 1.4.3 2.1.7.6.3 1 .8 1.6 1.1 1.2.9 2.3 1.5 3.3 2.7 1 1.1 2.1 2.2 2.7 3.5.7 1.5 1.5 3 2.3 4.5.6 1.2.7 2.7 1 4 .3 1.4.4 2.9.6 4.3.2 1.2-.6 2.8-1 4-.4 1.2-1.3 1.4-2.4 1.8-.9.3-1.6.9-2.5 1.1-.6.2-2.9.2-2.9-.6 0-1-.4-1.9.4-2.8.8-.9 1.5-1.7 1.9-2.9.4-1 .7-1.9 1.1-2.9.2-.5.4-1 .5-1.5.1-.3.5-1 .4-1.3-.1-.5-.6-1-.8-1.5-.4-1-.9-1.3-1.9-1.7-2-.9-4-1.8-6-2.7-.8-.4-1.7-1-2.6-1.2-1-.2-2.2.1-3.2.1-.9 0-1.9 0-2.8.1-1.1.2-2.1.6-3.2.9-1.9.6-4.1.9-5.8 2.1-1.7 1.2-3.4 2.4-5.1 3.5-.8.5-1.1 1.9-1.5 2.8-.5.8-.9 1.9-1.4 3"/><path d="m332 330c-1.5-.4-3.5-.6-4.6-1.7-1-1-1.9-2.1-3-3.1-.5-.5-.2-1.3-.2-1.9 0-.8-.1-2 .3-2.8.3-.6.8-1.1 1.3-1.5.7-.7 1.3-1.5 1.9-2.2 2.5-2.9 4.9-5.7 7.3-8.6 1.2-1.4 2.3-2.9 3.4-4.4.5-.7.7-.7 1.5-.8.7 0 1.5-.1 2.2-.2.1 1.5.3 2.6.9 4 .5 1.2.8 2.8 1.6 3.8.8 1 2 1.7 2.9 2.6 1.3 1.1 2.6 2.1 3.8 3.2 2.5 2.1 5 4.1 7.5 6.1 1.1.9 2.3 1.8 3.4 2.8.4.4.8.8 1.3 1 .6.2 1.4 0 2 0 1.5 0 3 0 4.5.2.6.1.6.2.6.8 0 .5 0 .9 0 1.4 0 .6-.8 1.1-1.1 1.5-.5.6-1 1.2-1.5 1.8-1.1 1.2-2.1 2.5-3.2 3.7-1 1.2-1.9 2.3-2.8 3.5-.4.5-.9 1-1.4 1.5-.5.5-1.1.2-1.7.1-.6 0-.8-.1-.8-.7 0-.7-.2-1.3-.4-2-.4-1.4-.7-3-1.3-4.3-.3-.7-1-1.2-1.6-1.7-.7-.7-1.5-1.3-2.2-2-1.5-1.4-3.2-2.6-4.7-3.9-3-2.5-5.9-5.2-9.1-7.5-.8-.6-1.6-1.1-2.3-1.6-.6-.4-1.1 0-1.7.2-.7.2-1.5.4-2.2.6-.8.2-.8.2-1 1-.2 1-.4 2-.7 3-.2.8-.6 1.7-.3 2.5.7 1.7.9 3.7 1.4 5.6"/></g><g style="fill:#872321"><path d="m239 118l-.2-1.8.8-1 1.1.6.5.9 3.5 1.5 3-.4.8-.8-.5-1.5-2.2.5.4-3.8 3.5-.3 2.2 5.3-2.4 1.7 3.6 2.5v.5l4.5 5.7v2.7l-.3.3-15.5.6-1.8 1.7 7.3 1.6 3.1-1.6 6.8 2.3.3.5 4.8 1.7.6 1.5h3.1l5.5 7.3 4.7-1.3 1.7 1.4.2 1.4 3.6 3.8-.1 1.8-1.3 2.3 1.7 1.7-.3.7-3.5 1.1-5.4-1.8-.6 2.4h-.7l-.6-2.6-.5 1.1v2l-.8 1.1-3.1-1.1-1.5 1.6.2.4v2.1l-9.4-.6-.4-1.6-.3.6.2.8-.4.7-29-11 1.5-2.7h-1.2l-15 10.6-.2.7 17.6 4.3 5.1 6.7-5.7 5.2-19.7 2.8-1.4-.5-1.8.3-.7 3.4.7.6 15.8-1.4.9 4.2 2.7 1.8.8-.6-.8-.9 5.7-7.8 7.5.4.3-.8-.4-2.5 5.1-5.2 5-.7 1.2-1.3 1.6 1.4 2.6-2.5 4.2 1.9 2.2-2.5 16.6.5 3.6 4 10.6 1.6 3.2 4.9 4.2 1.7.2 1.4-3 2 2.3 3.8 5.3.6 5.9 9.6-7.9 9.7-4.1 1.4-.9 1.1 1.8 4.4 4.1 2.4 1.4-.4.8-1.1 1.8-.2 7.6 4.4.9 2.3 1.7.9 1.4-1.5.5.4.5 3.2 2.1 2 2.2.5-.3 3-3.2 3.6-12.7-.3-.9-.8-3.3 2.1 2.5 4.2-3.1 3.9-5.1.2-.5 1.2 3 2.5 2-.9 1.4-4.2 1.7 2.1 4.7-1.9 9.9 2.9.3 1-4.9 2-1.8-.4-1.4-1.1-1.2 1.4-19.4 3.5-6.6-7.2-1.6 1.9-.9-.8.8-1.8-9.5 1.5-.2.8-20 20.9-1 3.1-19.8 6.7-7.5 8.7 1.4.2 1.1.9-21.6 25.8 2.7 15-1 2.3.8.5 1.1-1.4 4.1 5.6-2.1 3.4h-5.4l-.2.4-4.3.4-1.3-3.8 1.1-1.5-3.2 1.3-.4 1.4.7 1.9v1.2l-1.3-.2-5.6-6.1-.5.1-1.6-1.3.5-12.4-3 13.8 5.9 6-.7 1-6.8-2-.8-1.5h-3.8l-1.4-2.4v-1.1l-3.5 3.3-3.5-1.1-16.3 4 5.3-7.8 1.1.5.8 2.3.9.7v-.9l7.2-7.6.3-3 4.3-3.3 1.4.1.7-2.7-1.5-9.1.9-1.2-1.9-6.2 3.1-2.4-.2-8.7-4.5-1.1-.7-.8.8-.8 4.9-.1-.9-1.2-5.2-1.9.7-1.4 4.3.3.5-1.9-19.5-3.7-3.3 1.2-1.6-1.9-13.4.3-5.3-4.3-2.9-.5-4.4-6.2 9.2-12.9-.6-1.6 2.2-2.2-6.1.2v-3.3l5.1-.6-5.2-5.4 8-7.8.3-2.1-5.8-1.9-13.3 7.1-1.8-.8-1.5-3.3-6.1-1-2.4 3.2-1.2.3-.7-3.6.2-.6-1.8-5.1v-1.2l2.7-3.8-.8-4.7 3-3.4 5.8-.3 1.7-1.1 2 .4.6.8 2.9-2.8 2.2 2.2 4.5-.4.5.6 8.7 3.8 1.1 2.9-4.4 2-5.2-1.6v.7l2.8 1.5 2.3 3.2 5.5 1.9 3.8-.7 2.6-4.4-5.2-.2.3-2 3-1.6 1.8-3.1-.8-.5-1.1-5.7-4.5-2.6-4.9 1-.7.7-1.5.2-.2-1.5 1.3-1.7-9.2 2.5-2.7-2.1-1.4.2-3.1-6.6 1.5-2.3 2.3-.5 1 .5h.8l-1.3-2.2 10.4-4.7-.4-.7-7 1-2.1-1 1.4-1.3-1.8.2.2 1.1-.9 1.6-2.8.4v-2.1l1.1-.9.4-1.5-2-.5-10.2 9.2-1.6.2-.8-1.8 1.1-3.3-1.6-.7-1.4-1.9 1.8-1.9 2.4.6.3-3.7-.8-.9-1.2-4-9.9 6.1-2.2-.5-1.5-1.9-1.4-7.5 1.1-1.8h-1.4l-2.2-2.3 1.3-2.2 2-.5-.4 1.9 1.2.4 1.4-.2-.2-3.8 1.3-2.5 1 .9.8.2.9-1.1v-1.1l-1.5-1.9-1.1 1.3-1.6.7-1.2-1.7 7.1-6.1-.3-3.9 2-2.5 5.3.9.9-1.8 1.5-1.1 12.9 1 2-1.2-.6-.9-8-2.4 1.8-5.2 8.8-.8 1.3-3.2 7-5.7-2.7.7-1.6 2.3-5.4-1.9-3.5 1.4v-12l2 3 1.4-2.1.8-7.2 2.4-1.1 6.8 6.8 1.5-1.9 2-.3 1.4-1-.4-2-3.6 1.8-.6-1 4-4 4 .2 1.1-1.2v-1.1l1-.8 2.1 2.4 11.2-6.1v2.2h5.2l.9 1 4-.7 2.7-2.1-5.8 2.1-.5-2.1 6.4-7.7-2.5-2.2-1.4-.2v-1.6l1.5-.9 9.8 3.8 4.2-.7 4-4.2 19.7 4.1 1.1-.4 2.4.5 5.6 6.5 1.4.6.6 3.2h1.2l7 5.8-.4 3.7-15 4.9.6 3 6.8 1.6.5-.8-1-2.8 7.3-1.1 1.7-2.2.3-3.7 2.4-.8 7.6 6.4.2 1.7 1.5 1m-4.8 71l-4-3.7-2.3 1.6.5 1.2 16.2 3 1.2-1.4-2.4-1.6v.4l-9.1.5m-88-39l-.9-1.2-4.9-2.3-2.3.2-6.1-4.1-1.9 2.4.8 1.9 3.1-2.5 2 1.7-2.1 2.9 12.3 1-6.6 6h-.9l-.6.6 1 2 4.4-.8 2.6 4.1 2.9.7-2.8-12.7m60.8 139l17.7-16.9 1.9-6.8-5.7-6.9-13.2 7.9v1.7l-4.1 1.2-.8 1.1-2-2.1-.6 1.3.2 16.8.7 1.3 5.8 1.4m-51-172l11.6.7 1.2 1.5v1.8l-2.8 2.8-2.1-.5-1.5.6 2.2 4.9.8-.2v-2.2l1.8-.2.7 1.4-.2 2.8-12 4.2-2.1-8.6-3 1.6-4.1-1.4-9.6 3.1.8 1.2 1.5.2 5.4-2.4 6.5 1.3v4.5l3.7 1.2 1.2 1.6 18.3-1.9 1.2 1.3 4.5.5 3.3 4.1 1.1.5.4-.3-.8-.9-.5-.2-2.6-3.5 1.7-1.5 4.5.3.7-.5-2.7-.7-.9-1.5 1.2-1.2 4.3 2 6.1-1.6v-1.2l-1-1.3-1.6-.5-3.6 3.5-2.5-1.8 2.1-5.2-1.1-2.7-6.5-2.5-2.9.8-3.3-6.6v2.4l-.4.9-2.3-1.9-16.7 1.3m42-23l2.2 2.5-1.3 1.9-8.7 4.1-1.7 2.7v6l-7.6 4.7 11.4 1.1-2.2-1.5v-1.6h3.4l1.6 1-.9 1.7 3.1 1.9 8.6-1.3 2.6-2.1-3.6-.9-1.2-1.2.7-1.2 4.3-1.6 1.5-2.2-1.8-1.9-2 .8-2.2 3.6-1.9-.2-.5-1.1-10.4-2.3-.2-1.6 3-3.9.7 1.1 1.2.6 1.4-.5 1.8 3.3 3.3-2.5-2.8-2.7 2.3-1.8h8.6l-1.9-1.8 2.6-1.3 1.3 1.2.7 4.7.9-1.7v-2.8l-.9-1.1-15.4-2.1m-7.1 56.7l-2 3.3 1.4.4 2.8 4.5 1.4-1h3.4l3.4 3.2 13.6-9.1 3.7-8.6-.5-2.8-.6-.5-1.6 3.1-6 2.2-1.2-3.6.9-1.6-6.2 4.9-.5 2 .6 1.6-12.6 2.1m-8.6-55.9l-5.4.8 4.9 5.6-.7 2-7.8 5-3.6-.6-2.5-2.3-17.6 10.8-1.9-1.1-2.1.6-2.1 3.8 1.3.6.9-2.2 5.1 2.4 3-5.2h2.2l7.1-4.5h8.1l.7.8 3.2-1 3.2 1.2 1.4-3.1.5-.3 5.8-.2.8-1.4-2.9-.4 1.4-7.2 6.7-2.9-5.1-2.3-4.6 2.7v-1.6m59.8 170l2.6-.3.8-.8-6.6-7.2-3.4-1.3-2.8-3-.8 3.6-2.3 2.2v6.5l3.7 2.6 8.9-2.3m-75-57l8.1 22.3.9-2.3-1.8-18.7-1.1-1.5-6.1.2m61-13.4l-18.7-5-4.9 1.9v1.6h4.8l3.7 5.7.5-1.2 3.1-2.1 2.1 1.3 9.5-2.2m-74-33.4l3.9 4 3.4 1 1.6-.4 1.3-7-8-4.4-2.2 6.8m12.8 71l-2.1-5.7-4.1-3.5-10 1.8-1.7 3.7 1.9.7-1.5 2.8 1.4-.2 4.6-3.2 3.1.5.6-.8h2.4l5.4 3.9m-20.5-43l1.2.2 1.5 4.2h1.2l.9-3.5-2.7-5.6-2.1-1.2-2.5-3.9-3.6 2.2-.7 2.8 3.2 5.1 3.6-.4m110 67l-1.1-2.9-5.8-2.6-1.5 3-2.9-.5-1.7 1.1-.2 1.4 6.3 5 1.7.1 4.3-3.1.9-1.5m-90-86l3.9-1.4.9-1.1.2-1.3 10.3-3.3-1.3-2h-4.5l-.6-.9-4.7.9-3.8 3.8-.4 5.4m-2.5 24v1.1l.7.3 7.5-2.9 2.7.9 1.1-.5.6-2.7-1.5-1.6-6.5.3-2.6-3.8-1.2 1.1-.9 7.8m34.8 18.5l-2.3 13.2 1.2.8 5.7-3.2 2.8-4.5-.7-1-1.6 1.5-5.4-5.7.3-1.1m-16.3-25l-.5 5.2 1.8 1.1.7-3.9 9.1-.4-.7 2.6 3.5-5.7-.8-1-3.1-.6v-2.3l1.4-.6-5.4 4.5-5.9 1.1m-21 24.7l-.5-2-7.9-2.7-.2-1.2 4.1-3.4v-1.4l-6.5-.2-1.2 2.4 9.8 9.7 2 .6.3-1.8m109 19.5l-1.5.9 1 1.2-2.1 8.5-7.9 6.3 1.3.8 12-11 .2-5.5-.9-.9-2.1-.2m-115-83l1.6-2.3h7.3l-.9-5.6-8.3 4.3-1.8-1.8-.6 1.4.8 5.7 1.2.6.7-2.2m28.6 143l2 18.3.6.5.8-3 2.9 9.5-2-11.7-2-1.2 1-14.6-.5 1.2v.8l-1.7.9-1.1-.7m4.7-79l-.9-2.3-3.8.2v.2l.8 12.6h.9l3.1-10.6m8 92l-.2 1.8-1.9.2-2.6-15.8h-.5l1.8 21.8h.5l1.2-4.5 1.7-.5 1.9 3.5-1.9-6.5m15.2-177v1.7l2.8 3.9 4.1.2 2.1-1.2.7-4-.8-1.4-7.1 4.1-1.9-3.3m-82 23.3l-1.1-2.3-8.7-2.2-.4.6 2 4.4-1.9 4.2 2.2 1.1.8-.7-.6-1.5 2.1-3.1 5.6-.5m81 77l2.2 1.5 2.6-.8 1.7.8.5.9.7-.8 2.1-.3 1 .8 3.7.9.3-.3-5.9-3-8.9.3m15.3-79l-1.1-2.4.5-2 5.1-4.5-.4-.8-2.4-.8-2.2.9-2.6 9.9 3.1-.3m-20.3 148l-6.1 3.1.7 3.7 1.3.5 5-4.8-.9-2.5m-76-117l5.4 4.2 1.1-.6.5-3.7-1.1-1.4-5.9 1.5m-9.6 49l3.9-3.1 6.5.8 2.3-1.8v-.9l-11 1.6-1.6 3.4m195-1.9l-3.3-3.4-3.1.6 4.1 4.8h1.3l1-1.9m-38 3.2l-.6 6h2.4l1.4-1.5-.3-3.3-1 1.8-1.9-3m-106-91l-2.4.6.5 1.7-1.9 1.7.7.9 3.4-.9 1.3-1.4v-.8l-1.5-1.7m12.7 195l1-8.4-1.3-3.1-3-.7v1l2.7 1.2v7.6l-1.9 1.2 2.5 1.2m49-104l-.9-1.2-2.1.4-.5.5 2.4 5.6 1.1-5.3m3.5-12.7l-6-1.3-1.7 1.4-.8 2.2 8.5-2.3m-83-43.7l-.9-1.9-5.2 5.2.4.7 5.7-2.6v-1.4m93 61.7l3.1-.7 1-1.8-1.2-1.1-5.3 2 .8 1.4 1.6.2m-62.8-88l-1.5 3.8 1.5 3.7v-7.5m40.6-14.8l3.4-6.3-.3-.9-2.5 2.6-.6 4.6m-14.9-3.9l.5-.2-1.1-3.9-.8.3-1.4 1.8h-3.6l-.5-.7-.4.5.6.8 6.7 1.3m-105 26.6l7.6-1.9.2-1h-5.1l-2.7 2.9m87-30l6.5-.5-.3-1.4-3.6-1.2-2.6 3.1m5.6 201l1.7 2.2 1.1-1.3.4-2.1-1.5-.9-1.7 2.1m-38.9-200l.7 1.3 3 .5.4-.7-2.4-2.6-1.7 1.5m-23.6 40.9l-1.2.3.9.5.6 1.2-.3 1.2.7 1.4 1.5-2.7v-2.2l-2.3.3m90-60l-1.6 1.3-.9-1.8v-1.3l-1-.2v5l3.3-1.6v-1.4m-37 55l3.2-1.5.7-1.6h-4l-.4 2.8.5.2m-40 41l-1.8-3-3.4.5 5.2 2.5m56 88l2.4 2.2-.7.8-1 .2-.6.7.4.7 3.3-2.7v-.7l-3.9-1.2m50-115l2.6 2.2 1.4-.9-.5-2.1-3.5.8m-103 67.9l.4 1.1 1.5-2.1-2.4-1.9h-.9l1.4 2.8m10.2-58.8l-.7-.8-2 1.3 2 2.3.7-2.8m101-2.8l-1.4-2.1-1.2 2.5 2.4.7.2-1.1"/><path d="m238 109l-1 2-1-2-2 1-2-1-4-4v-2l9-1 9 7 1 2-1 1-8-3"/><path d="m319 238l-3 4-2-1v-1l-6 1-3-3 2-2 7 1 5-2 5 3-1 2h-1l-3-2"/><path d="m143 103h-4l-7 6-1-2 7-9 1-1 6 5-2 1"/><path d="m151 90l3-1 1 3-1 1h-1v1l6 1-1 4-6-1v-3l-3-3 2-2"/><path d="m166 91l1 1-1 1-3-1-3 1-3-2-1-1 9-1 1 2"/><path d="m151 97l-6 1-1-1 3-4 4 2v2"/><path d="m244 112l1 4-1 1-2-1v-4l1-1 1 1"/><path d="m187 125l-18 10v-2l2-5 13-3 1-2 1 2h1"/><path d="m200 116h-2l-2-1 1-1 3-1 1 2-1 1"/></g></g></svg>